<svg width="80" height="80" viewBox="0 0 80 80" fill="none" xmlns="http://www.w3.org/2000/svg">
<mask id="mask0_4725_73257" style="mask-type:alpha" maskUnits="userSpaceOnUse" x="0" y="0" width="80" height="80">
<rect width="80" height="80" fill="#D9D9D9"/>
</mask>
<g mask="url(#mask0_4725_73257)">
<path d="M19.1594 64.1641C16.8088 61.803 14.9733 59.088 13.6527 56.0191C12.3322 52.9502 11.6719 49.7775 11.6719 46.5008C11.6719 43.2147 12.3013 39.9541 13.5602 36.7191C14.8185 33.4841 16.8516 30.4627 19.6594 27.655C21.6894 25.625 24.231 23.9527 27.2844 22.6383C30.3377 21.3244 33.796 20.3236 37.6594 19.6358C41.5227 18.9475 45.733 18.5466 50.2902 18.4333C54.848 18.3205 59.6291 18.4669 64.6335 18.8725C64.9924 23.6502 65.1152 28.2925 65.0019 32.7991C64.8885 37.3052 64.4944 41.5069 63.8194 45.4041C63.1438 49.3019 62.1577 52.8116 60.861 55.9333C59.5638 59.055 57.8938 61.6372 55.851 63.68C53.0988 66.4538 50.1555 68.4786 47.021 69.7541C43.8866 71.0297 40.7119 71.6675 37.4969 71.6675C34.1263 71.6675 30.8149 71.0072 27.5627 69.6866C24.3105 68.3661 21.5094 66.5252 19.1594 64.1641ZM26.6335 63.6158C28.3085 64.6675 30.0788 65.4389 31.9444 65.93C33.8099 66.4216 35.6635 66.6675 37.5052 66.6675C40.0752 66.6675 42.6172 66.1588 45.131 65.1416C47.6455 64.1244 50.0308 62.4663 52.2869 60.1675C53.283 59.1675 54.293 57.7647 55.3169 55.9591C56.3402 54.1536 57.2255 51.7925 57.9727 48.8758C58.7199 45.9591 59.2872 42.4313 59.6744 38.2925C60.0616 34.1536 60.1377 29.223 59.9027 23.5008C57.1805 23.3897 54.1002 23.3586 50.6619 23.4075C47.2241 23.4569 43.7947 23.7369 40.3735 24.2475C36.953 24.758 33.7202 25.5583 30.6752 26.6483C27.6302 27.7377 25.1674 29.2227 23.2869 31.1033C20.8085 33.5822 19.0863 36.0919 18.1202 38.6325C17.1547 41.173 16.6719 43.5822 16.6719 45.86C16.6719 49.0094 17.2863 51.8577 18.5152 54.405C19.7435 56.9516 21.0222 58.8425 22.351 60.0775C24.2144 55.8897 26.833 51.8716 30.2069 48.0233C33.5808 44.175 37.8555 40.8172 43.031 37.95C39.116 41.3644 35.7633 45.1144 32.9727 49.2C30.1822 53.285 28.0691 58.0902 26.6335 63.6158Z" fill="#353535"/>
</g>
</svg>
