<svg width="45" height="45" viewBox="0 0 45 45" fill="none" xmlns="http://www.w3.org/2000/svg">
<path d="M22.5003 41.2506C32.8558 41.2506 41.2506 32.8558 41.2506 22.5003C41.2506 12.1448 32.8558 3.75 22.5003 3.75C12.1448 3.75 3.75 12.1448 3.75 22.5003C3.75 32.8558 12.1448 41.2506 22.5003 41.2506Z" fill="#E5E5E5"/>
<path d="M19.1406 15.021V32.5342C19.1406 33.2596 19.7285 33.8475 20.4538 33.8475H22.5989L26.9083 38.369C27.2876 38.7668 27.9841 38.5125 27.9841 37.9757V33.8475H37.4192C39.8179 30.6968 41.245 26.766 41.245 22.5003C41.245 19.3222 40.4516 16.3298 39.0555 13.707H20.4531C19.7285 13.7078 19.1406 14.2956 19.1406 15.021Z" fill="#353535"/>
<path d="M26.3801 18.8652H24.2891V20.9667H26.3801C26.9606 20.9667 27.4309 20.4964 27.4309 19.9159C27.4309 19.3355 26.9606 18.8652 26.3801 18.8652Z" fill="#E5E5E5"/>
<path d="M40.8981 18.8652H32.0117C31.4312 18.8652 30.9609 19.3355 30.9609 19.9159C30.9609 20.4964 31.4312 20.9667 32.0117 20.9667H41.1849C41.1273 20.2546 41.0326 19.5529 40.8981 18.8652Z" fill="#E5E5E5"/>
<path d="M40.6556 27.1854C40.8315 26.5 40.9654 25.7975 41.0644 25.084H22.496C21.9156 25.084 21.4453 25.5543 21.4453 26.1347C21.4453 26.7151 21.9156 27.1854 22.496 27.1854H40.6556Z" fill="#E5E5E5"/>
<path d="M22.9824 6.4375H12.8242C7.38649 9.72054 3.75 15.6848 3.75 22.5C3.75 23.9012 3.90824 25.264 4.19957 26.5772H15.4514V30.7054C15.4514 31.2415 16.1479 31.4966 16.5272 31.098L20.8374 26.5765H22.9824C23.7078 26.5765 24.2956 25.9886 24.2956 25.2633V7.75C24.2956 7.02536 23.7078 6.4375 22.9824 6.4375Z" fill="white"/>
<path d="M19.6573 12.3906H6.71515C6.28333 13.0635 5.89145 13.7637 5.54688 14.4921H19.6573C20.2378 14.4921 20.708 14.0218 20.708 13.4413C20.708 12.8616 20.2378 12.3906 19.6573 12.3906Z" fill="#E5E5E5"/>
<path d="M19.6495 18.8652H4.10012C3.9648 19.5529 3.87018 20.2546 3.8125 20.9667H19.6495C20.2299 20.9667 20.7002 20.4964 20.7002 19.9159C20.7002 19.3355 20.2299 18.8652 19.6495 18.8652Z" fill="#E5E5E5"/>
</svg>
