<svg width="608" height="228" viewBox="0 0 608 228" fill="none" xmlns="http://www.w3.org/2000/svg">
<path d="M134.321 393.837C133.199 393.608 132.142 393.135 131.225 392.453C130.307 391.77 129.552 390.895 129.013 389.888C128.472 388.883 128.162 387.771 128.103 386.633C128.043 385.495 128.236 384.358 128.668 383.303L159.988 306.774C160.575 305.327 161.591 304.093 162.901 303.238L384.548 157.526C385.855 156.665 387.394 156.219 388.961 156.248L471.946 157.622C473.214 157.643 474.456 157.971 475.567 158.579C476.678 159.186 477.625 160.054 478.324 161.107C479.022 162.16 479.453 163.367 479.579 164.624C479.704 165.88 479.52 167.147 479.042 168.315L447.722 244.84C447.134 246.286 446.118 247.52 444.81 248.379L223.182 394.092C221.879 394.955 220.341 395.402 218.775 395.371L135.785 393.999C135.293 393.991 134.802 393.937 134.321 393.837ZM472.367 162.732C472.196 162.699 472.024 162.679 471.851 162.675L388.864 161.303C388.319 161.292 387.783 161.447 387.329 161.747L165.711 307.475C165.257 307.775 164.904 308.203 164.696 308.704L133.379 385.236C133.21 385.64 133.144 386.081 133.188 386.519C133.232 386.955 133.384 387.374 133.63 387.739C133.873 388.105 134.202 388.407 134.588 388.617C134.973 388.829 135.405 388.942 135.844 388.949L218.837 390.322C219.38 390.332 219.913 390.176 220.363 389.877L441.991 244.164C442.445 243.865 442.798 243.437 443.003 242.934L474.323 166.406C474.472 166.04 474.539 165.647 474.52 165.252C474.5 164.857 474.393 164.471 474.207 164.123C474.02 163.773 473.761 163.469 473.444 163.23C473.128 162.992 472.762 162.825 472.374 162.743L472.367 162.732Z" fill="white"/>
<path d="M413.425 450.926C412.95 450.829 412.488 450.689 412.039 450.507L335.173 419.181C333.718 418.595 332.476 417.58 331.615 416.273L184.993 195.236C184.126 193.933 183.676 192.399 183.704 190.836L184.947 108.16C184.966 106.898 185.294 105.66 185.901 104.553C186.509 103.447 187.379 102.506 188.437 101.811C189.493 101.117 190.704 100.69 191.965 100.568C193.226 100.446 194.498 100.633 195.671 101.112L272.541 132.435C273.991 133.025 275.229 134.039 276.092 135.342L422.718 356.379C423.584 357.684 424.033 359.219 424.007 360.782L422.763 443.459C422.745 444.598 422.477 445.72 421.973 446.743C421.473 447.767 420.749 448.667 419.858 449.381C418.966 450.094 417.927 450.601 416.816 450.869C415.704 451.136 414.547 451.156 413.425 450.926ZM193.259 105.643C192.871 105.567 192.47 105.577 192.085 105.672C191.701 105.767 191.342 105.945 191.035 106.193C190.727 106.441 190.478 106.754 190.304 107.109C190.132 107.464 190.038 107.852 190.033 108.247L188.786 190.926C188.779 191.469 188.936 192 189.236 192.455L335.858 413.49C336.157 413.945 336.589 414.298 337.094 414.502L413.963 445.826C414.37 445.993 414.812 446.058 415.251 446.014C415.688 445.973 416.109 445.824 416.475 445.583C416.843 445.341 417.145 445.015 417.357 444.631C417.568 444.246 417.683 443.816 417.689 443.377L418.932 360.701C418.943 360.157 418.786 359.624 418.485 359.169L271.86 138.132C271.562 137.678 271.132 137.326 270.627 137.123L193.759 105.797C193.597 105.732 193.43 105.681 193.259 105.643Z" fill="white"/>
<path d="M262.247 479.32C260.998 479.065 259.828 478.51 258.841 477.709C257.855 476.909 257.079 475.883 256.583 474.722L223.982 398.6C223.363 397.164 223.201 395.578 223.519 394.053L276.4 135.522C276.709 133.996 277.479 132.601 278.612 131.522L338.479 74.3074C339.391 73.4351 340.507 72.7969 341.73 72.4482C342.951 72.0992 344.244 72.0505 345.493 72.3055C346.741 72.5619 347.91 73.1142 348.897 73.9151C349.884 74.7157 350.66 75.7405 351.157 76.9007L383.747 153.027C384.362 154.464 384.524 156.049 384.21 157.574L331.329 416.105C331.02 417.631 330.248 419.025 329.118 420.105L269.272 477.308C268.36 478.184 267.242 478.825 266.017 479.174C264.794 479.526 263.498 479.576 262.247 479.32ZM344.489 77.2421C344.053 77.148 343.601 77.1621 343.173 77.283C342.745 77.4038 342.354 77.6277 342.036 77.9345L282.169 135.149C281.777 135.525 281.51 136.009 281.404 136.539L228.522 395.07C228.413 395.601 228.467 396.151 228.68 396.651L261.274 472.775C261.444 473.184 261.715 473.544 262.062 473.824C262.407 474.103 262.818 474.294 263.257 474.379C263.694 474.474 264.147 474.46 264.576 474.338C265.003 474.217 265.394 473.991 265.711 473.683L325.566 416.449C325.96 416.074 326.229 415.589 326.336 415.059L379.218 156.526C379.327 155.997 379.27 155.446 379.055 154.947L346.465 78.8208C346.294 78.4165 346.025 78.06 345.68 77.7828C345.334 77.5054 344.927 77.3166 344.491 77.2327L344.489 77.2421Z" fill="white"/>
<path d="M330.689 415.072L287.924 350.64L223.291 393.104L238.747 317.54L162.829 302.011L227.459 259.55L184.692 195.126L260.61 210.655L276.067 135.087L318.835 199.516L383.465 157.055L368.008 232.622L443.921 248.15L379.29 290.614L422.058 355.035L346.145 339.507L330.689 415.072ZM292.162 347.844L328.14 402.045L341.141 338.484L314.656 333.066L292.162 347.844ZM243.749 318.563L230.748 382.124L285.121 346.404L270.236 323.981L243.749 318.563ZM277.296 325.425L289.361 343.6L307.593 331.622L277.296 325.425ZM347.172 334.54L411.035 347.603L375.055 293.403L352.563 308.182L347.172 334.54ZM320.688 329.123L342.176 333.518L346.551 312.128L320.688 329.123ZM273.32 319.434L313.624 327.678L347.989 305.099L356.194 264.985L333.455 230.725L293.142 222.479L258.775 245.058L250.569 285.176L273.32 319.434ZM244.765 313.594L266.257 317.99L249.141 292.203L244.765 313.594ZM175.91 299.51L239.774 312.573L245.165 286.214L230.28 263.79L175.91 299.51ZM360.173 270.979L354.001 301.151L372.234 289.173L360.173 270.979ZM234.532 260.987L246.597 279.163L252.769 248.99L234.532 260.987ZM361.613 263.937L376.495 286.363L430.868 250.64L366.995 237.575L361.613 263.937ZM195.743 202.547L231.705 256.774L254.2 241.992L259.595 215.617L195.743 202.547ZM340.521 232.16L357.634 257.946L362.009 236.555L340.521 232.16ZM264.599 216.63L260.223 238.021L286.09 221.027L264.599 216.63ZM336.541 226.169L363.026 231.586L376.025 168.033L321.655 203.754L336.541 226.169ZM299.162 218.523L329.482 224.725L317.416 206.549L299.162 218.523ZM265.615 211.661L292.102 217.079L314.596 202.301L278.614 148.108L265.615 211.661Z" fill="white"/>
<path d="M424.149 355.948L161.766 302.279C160.218 301.964 158.8 301.193 157.701 300.066L99.3859 240.517C98.4982 239.609 97.8466 238.502 97.4876 237.29C97.1285 236.079 97.0726 234.802 97.3252 233.567C97.5778 232.332 98.1307 231.179 98.9368 230.205C99.7426 229.232 100.777 228.471 101.95 227.983L178.963 196.115C180.417 195.514 182.024 195.362 183.57 195.681L445.954 249.35C447.501 249.665 448.918 250.435 450.019 251.558L508.331 311.106C509.221 312.014 509.872 313.122 510.232 314.333C510.591 315.544 510.648 316.823 510.395 318.058C510.142 319.293 509.588 320.447 508.782 321.42C507.976 322.392 506.942 323.155 505.768 323.64L428.757 355.509C427.304 356.114 425.698 356.266 424.149 355.948ZM182.559 200.626C182.02 200.515 181.462 200.568 180.956 200.777L103.945 232.646C103.536 232.813 103.176 233.079 102.894 233.417C102.613 233.755 102.42 234.156 102.332 234.586C102.244 235.016 102.264 235.462 102.39 235.882C102.516 236.305 102.744 236.688 103.054 237.004L161.366 296.552C161.749 296.944 162.242 297.212 162.78 297.321L425.164 350.99C425.702 351.1 426.259 351.046 426.763 350.837L503.777 318.969C504.186 318.801 504.547 318.538 504.828 318.198C505.109 317.861 505.302 317.459 505.39 317.029C505.478 316.599 505.458 316.155 505.332 315.733C505.207 315.312 504.979 314.926 504.668 314.611L446.354 255.063C445.972 254.672 445.48 254.405 444.942 254.295L182.559 200.626Z" fill="white"/>
<path d="M365.301 79.4324L391.6 141.197C391.791 141.647 392.11 142.033 392.517 142.308C392.926 142.582 393.404 142.734 393.897 142.744L461.798 144.198C462.147 144.205 462.494 144.141 462.816 144.01C463.14 143.878 463.431 143.682 463.673 143.434C463.915 143.186 464.103 142.89 464.225 142.566C464.346 142.241 464.398 141.896 464.379 141.55L459.265 48.2887C459.245 47.8994 459.134 47.5197 458.94 47.1795C458.747 46.8396 458.476 46.5484 458.15 46.3294C457.825 46.1103 457.451 45.9686 457.061 45.9164C456.671 45.8641 456.275 45.9023 455.903 46.0278L366.817 76.074C366.489 76.1853 366.186 76.3624 365.928 76.5945C365.671 76.8266 365.465 77.109 365.323 77.4241C365.18 77.7387 365.105 78.0798 365.101 78.4252C365.097 78.7707 365.165 79.1134 365.301 79.4324Z" fill="white"/>
<path d="M487.691 182.976L462.323 244.812C462.135 245.262 462.084 245.76 462.177 246.241C462.27 246.722 462.503 247.166 462.847 247.519L510.038 296.076C510.281 296.326 510.573 296.524 510.896 296.657C511.218 296.791 511.566 296.857 511.916 296.853C512.265 296.848 512.61 296.771 512.927 296.628C513.245 296.485 513.529 296.279 513.761 296.022L576.643 226.884C576.907 226.596 577.098 226.25 577.201 225.876C577.306 225.501 577.321 225.107 577.246 224.724C577.171 224.342 577.006 223.982 576.767 223.671C576.528 223.362 576.219 223.111 575.865 222.938L491.161 181.693C490.849 181.54 490.509 181.453 490.16 181.435C489.814 181.417 489.467 181.47 489.142 181.59C488.817 181.711 488.52 181.895 488.271 182.134C488.022 182.372 487.825 182.659 487.691 182.976Z" fill="white"/>
<path d="M211.664 91.9123L272.844 116.716C273.291 116.896 273.779 116.945 274.251 116.856C274.722 116.767 275.158 116.545 275.503 116.217L323.248 70.816C323.495 70.5824 323.691 70.3007 323.823 69.9885C323.954 69.6758 324.019 69.3396 324.013 69.0007C324.008 68.6616 323.93 68.327 323.787 68.0184C323.644 67.7093 323.438 67.433 323.183 67.2063L254.618 6.10347C254.331 5.84832 253.99 5.66207 253.62 5.55936C253.249 5.45663 252.861 5.44042 252.483 5.51134C252.106 5.58252 251.751 5.73935 251.447 5.9696C251.142 6.19959 250.895 6.49668 250.726 6.83752L210.367 88.5347C210.214 88.8374 210.128 89.1681 210.111 89.5063C210.095 89.8451 210.149 90.1834 210.27 90.5004C210.392 90.8178 210.578 91.1064 210.819 91.3494C211.059 91.5924 211.345 91.7843 211.664 91.9123Z" fill="white"/>
<path d="M106.356 213.511L168.661 187.755C169.114 187.568 169.502 187.255 169.778 186.852C170.053 186.452 170.203 185.978 170.211 185.492L171.376 118.3C171.382 117.954 171.315 117.611 171.182 117.291C171.047 116.971 170.848 116.681 170.596 116.441C170.344 116.2 170.044 116.013 169.716 115.891C169.388 115.768 169.039 115.714 168.689 115.732L74.4598 120.377C74.0667 120.397 73.684 120.507 73.3419 120.697C72.9999 120.887 72.7075 121.154 72.4879 121.476C72.2682 121.797 72.1274 122.165 72.0763 122.55C72.025 122.936 72.0651 123.328 72.1931 123.696L102.954 211.995C103.068 212.323 103.249 212.623 103.485 212.878C103.721 213.134 104.007 213.338 104.326 213.48C104.645 213.622 104.99 213.699 105.339 213.704C105.688 213.709 106.034 213.644 106.356 213.511Z" fill="white"/>
<path d="M369.277 150.144L344.716 92.8035C344.459 92.2172 344.063 91.7002 343.561 91.2962C343.06 90.8926 342.467 90.614 341.834 90.4846C341.2 90.3549 340.546 90.3785 339.926 90.5527C339.306 90.7273 338.738 91.0471 338.273 91.4857L293.168 134.576C288.667 138.414 292.052 143.451 293.971 146.31L306.339 164.736C306.491 164.96 306.69 165.146 306.925 165.281C307.16 165.418 307.423 165.498 307.694 165.518C307.965 165.537 308.236 165.495 308.487 165.394C308.739 165.294 308.962 165.137 309.142 164.938L329.726 142.028C329.93 141.799 330.195 141.629 330.489 141.533C330.783 141.437 331.098 141.42 331.403 141.482C331.707 141.544 331.99 141.684 332.223 141.887C332.456 142.092 332.631 142.351 332.729 142.642L342.664 171.795C342.752 172.049 342.895 172.28 343.087 172.471C343.279 172.663 343.512 172.808 343.768 172.897C344.025 172.985 344.298 173.015 344.568 172.98C344.837 172.949 345.095 172.856 345.321 172.709L363.932 160.62C366.823 158.745 371.514 156.006 369.277 150.144Z" fill="white"/>
<path d="M440.229 232.104L463.973 174.491C464.213 173.898 464.303 173.257 464.236 172.621C464.167 171.985 463.944 171.374 463.584 170.839C463.225 170.305 462.74 169.863 462.171 169.553C461.602 169.241 460.966 169.071 460.317 169.054L397.012 167.852C391.028 167.408 389.818 173.326 389.13 176.687L384.702 198.335C384.648 198.599 384.658 198.871 384.728 199.131C384.798 199.392 384.928 199.631 385.107 199.835C385.287 200.039 385.512 200.2 385.764 200.304C386.016 200.408 386.289 200.455 386.561 200.44L417.787 198.696C418.098 198.679 418.409 198.743 418.689 198.881C418.968 199.019 419.207 199.228 419.38 199.485C419.553 199.742 419.655 200.039 419.674 200.346C419.694 200.653 419.632 200.96 419.493 201.233L405.593 228.741C405.474 228.98 405.41 229.244 405.409 229.513C405.409 229.783 405.471 230.047 405.591 230.289C405.712 230.531 405.888 230.743 406.103 230.908C406.32 231.074 406.571 231.188 406.839 231.243L428.858 235.747C432.272 236.461 437.595 237.816 440.229 232.104Z" fill="white"/>
<path d="M177.055 210.772L119.051 234.642C118.458 234.891 117.936 235.278 117.53 235.77C117.123 236.262 116.844 236.845 116.717 237.469C116.589 238.093 116.617 238.738 116.797 239.35C116.978 239.963 117.306 240.523 117.753 240.986L161.726 285.714C165.642 290.174 170.73 286.871 173.621 284.993L192.233 272.91C192.458 272.762 192.647 272.567 192.783 272.335C192.919 272.105 193 271.846 193.017 271.579C193.036 271.313 192.991 271.045 192.888 270.797C192.785 270.549 192.625 270.326 192.421 270.148L169.062 249.717C168.83 249.513 168.655 249.253 168.556 248.963C168.457 248.671 168.437 248.361 168.498 248.06C168.56 247.761 168.701 247.482 168.905 247.254C169.11 247.026 169.374 246.855 169.667 246.759L199.173 237.14C199.43 237.056 199.665 236.915 199.857 236.727C200.049 236.54 200.196 236.311 200.283 236.059C200.372 235.807 200.399 235.536 200.365 235.27C200.33 235.005 200.234 234.75 200.084 234.527L187.71 216.115C185.789 213.247 182.984 208.611 177.055 210.772Z" fill="white"/>
<path d="M260.27 142.013L202.537 118.848C201.944 118.616 201.302 118.524 200.668 118.583C200.034 118.641 199.426 118.847 198.897 119.184C198.367 119.521 197.931 119.978 197.625 120.516C197.32 121.054 197.156 121.658 197.145 122.275L196.58 182.479C196.197 188.163 202.116 189.374 205.476 190.061L227.126 194.49C227.389 194.544 227.66 194.538 227.918 194.474C228.176 194.41 228.415 194.288 228.617 194.12C228.818 193.951 228.975 193.741 229.078 193.501C229.18 193.263 229.224 193.005 229.206 192.746L227.152 163.022C227.132 162.727 227.193 162.431 227.327 162.166C227.463 161.902 227.668 161.677 227.923 161.515C228.179 161.353 228.473 161.259 228.779 161.243C229.086 161.228 229.392 161.291 229.668 161.425L257.26 174.922C257.501 175.04 257.766 175.103 258.032 175.106C258.302 175.109 258.565 175.053 258.806 174.94C259.046 174.829 259.255 174.665 259.419 174.461C259.581 174.258 259.693 174.019 259.745 173.765L264.02 152.865C264.683 149.621 265.975 144.571 260.27 142.013Z" fill="white"/>
<path d="M295.734 201.22L291.293 204.185C289.703 205.246 287.765 205.629 285.902 205.25L280.655 204.176C279.528 203.946 278.542 203.273 277.91 202.305C277.28 201.338 277.056 200.156 277.288 199.018L281.774 177.089C281.84 176.764 282.001 176.467 282.234 176.234C282.469 176.001 282.766 175.842 283.088 175.779C283.41 175.714 283.743 175.748 284.046 175.876C284.348 176.003 284.607 176.218 284.788 176.494L296.964 195.14C297.28 195.62 297.5 196.156 297.61 196.722C297.718 197.286 297.716 197.869 297.6 198.434C297.486 198.999 297.262 199.535 296.943 200.014C296.622 200.492 296.211 200.902 295.734 201.22Z" fill="white"/>
<path d="M352.356 217.581L347.144 216.515C345.282 216.132 343.642 215.052 342.584 213.512L339.606 209.171C339.288 208.71 339.067 208.195 338.955 207.653C338.844 207.111 338.843 206.556 338.953 206.018C339.063 205.479 339.282 204.968 339.597 204.513C339.913 204.059 340.319 203.672 340.792 203.371L359.182 191.69C359.455 191.518 359.775 191.427 360.104 191.433C360.431 191.437 360.751 191.534 361.023 191.715C361.296 191.894 361.51 192.147 361.636 192.441C361.761 192.736 361.795 193.058 361.733 193.369L357.442 214.349C357.331 214.888 357.113 215.398 356.798 215.852C356.482 216.305 356.078 216.693 355.606 216.993C355.133 217.293 354.603 217.5 354.046 217.601C353.487 217.702 352.914 217.695 352.356 217.581Z" fill="white"/>
<path d="M244.898 227.792L243.833 233.001C243.45 234.864 242.37 236.505 240.83 237.564L236.489 240.542C235.556 241.181 234.423 241.415 233.336 241.193C232.249 240.97 231.298 240.31 230.692 239.357L219.009 220.967C218.837 220.693 218.746 220.373 218.75 220.044C218.753 219.715 218.852 219.394 219.031 219.121C219.212 218.847 219.465 218.635 219.76 218.509C220.055 218.382 220.379 218.348 220.69 218.413L241.671 222.705C242.759 222.929 243.708 223.59 244.312 224.544C244.917 225.498 245.129 226.665 244.898 227.792Z" fill="white"/>
</svg>
