<svg width="45" height="45" viewBox="0 0 45 45" fill="none" xmlns="http://www.w3.org/2000/svg">
<path d="M22.4997 41.2494C32.8548 41.2494 41.2494 32.8549 41.2494 22.4997C41.2494 12.1445 32.8548 3.75 22.4997 3.75C12.1445 3.75 3.75 12.1445 3.75 22.4997C3.75 32.8549 12.1445 41.2494 22.4997 41.2494Z" fill="#E5E5E5"/>
<path d="M21.8672 10.6172C17.0366 10.6172 13.1172 14.1451 13.1172 18.4922C13.1172 25.4922 21.8672 35.1172 21.8672 35.1172C21.8672 35.1172 30.6172 25.4922 30.6172 18.4922C30.6172 14.1451 26.6977 10.6172 21.8672 10.6172ZM21.8672 22.8672C21.175 22.8672 20.4983 22.6619 19.9227 22.2773C19.3471 21.8927 18.8985 21.3461 18.6336 20.7066C18.3687 20.067 18.2994 19.3633 18.4344 18.6844C18.5695 18.0054 18.9028 17.3818 19.3923 16.8923C19.8818 16.4028 20.5054 16.0695 21.1844 15.9344C21.8633 15.7994 22.567 15.8687 23.2066 16.1336C23.8461 16.3985 24.3927 16.8471 24.7773 17.4227C25.1619 17.9983 25.3672 18.675 25.3672 19.3672C25.3662 20.2951 24.9971 21.1848 24.3409 21.8409C23.6848 22.4971 22.7951 22.8662 21.8672 22.8672Z" fill="#007D75"/>
<path d="M26.8646 34.1999C29.8101 34.1999 32.1979 31.8121 32.1979 28.8665C32.1979 25.921 29.8101 23.5332 26.8646 23.5332C23.9191 23.5332 21.5312 25.921 21.5312 28.8665C21.5312 31.8121 23.9191 34.1999 26.8646 34.1999Z" fill="white"/>
<path d="M24.5312 28.2005L26.4606 30.1299C26.4793 30.1486 26.5047 30.1591 26.5313 30.1591C26.5578 30.1591 26.5832 30.1486 26.6019 30.1299L31.8646 24.8672" stroke="#1C1C1C" stroke-width="0.8" stroke-linecap="round"/>
</svg>
