<svg width="302" height="69" viewBox="0 0 302 69" fill="none" xmlns="http://www.w3.org/2000/svg">
<path d="M300.848 0.00255585C301.124 -0.0207214 301.366 0.183464 301.389 0.458618L301.768 4.9426C301.792 5.21775 301.587 5.45969 301.312 5.48298C301.037 5.50626 300.795 5.30207 300.772 5.02691L300.435 1.04115L296.449 1.37842C296.174 1.4017 295.932 1.19751 295.908 0.922356C295.885 0.647194 296.089 0.405258 296.365 0.381973L300.848 0.00255585ZM0.390625 12.0005L0.778358 11.6848C0.989455 11.9441 1.20129 12.2023 1.41387 12.4596L1.02842 12.7781L0.642973 13.0966C0.428869 12.8374 0.215507 12.5773 0.00289169 12.3162L0.390625 12.0005ZM2.31729 14.3153L2.69811 13.9913C3.12911 14.4978 3.56302 15.0004 3.9998 15.4991L3.62369 15.8285L3.24758 16.158C2.80763 15.6557 2.37059 15.1495 1.93648 14.6393L2.31729 14.3153ZM4.94739 17.318L5.31873 16.9831C5.76122 17.4739 6.20655 17.9607 6.65467 18.4435L6.28818 18.7837L5.92169 19.1238C5.47031 18.6374 5.02175 18.1471 4.57606 17.6528L4.94739 17.318ZM7.64595 20.2258L8.00753 19.8805C8.46826 20.3629 8.93184 20.8413 9.39823 21.3156L9.0417 21.6662L8.68517 22.0167C8.21539 21.5389 7.74844 21.0571 7.28437 20.5712L7.64595 20.2258ZM10.4544 23.0823L10.8058 22.7266C11.2778 23.193 11.7525 23.6553 12.23 24.1137L11.8838 24.4744L11.5375 24.8351C11.0566 24.3734 10.5784 23.9077 10.103 23.438L10.4544 23.0823ZM13.3296 25.8425L13.6707 25.4768C14.1536 25.9272 14.6392 26.3737 15.1275 26.8162L14.7918 27.1867L14.456 27.5572C13.9642 27.1115 13.475 26.6618 12.9886 26.2081L13.3296 25.8425ZM16.2796 28.5156L16.61 28.1403C17.109 28.5796 17.6107 29.0149 18.115 29.4462L17.79 29.8262L17.4651 30.2062C16.9571 29.7718 16.4518 29.3334 15.9492 28.8909L16.2796 28.5156ZM19.3164 31.1128L19.6359 30.7282C20.1455 31.1515 20.6577 31.5709 21.1724 31.9862L20.8584 32.3753L20.5444 32.7645C20.026 32.3461 19.5101 31.9238 18.9969 31.4974L19.3164 31.1128ZM22.4159 33.614L22.7243 33.2205C23.245 33.6286 23.7683 34.0328 24.294 34.433L23.9911 34.8309L23.6883 35.2287C23.1588 34.8256 22.6318 34.4186 22.1074 34.0075L22.4159 33.614ZM25.5897 36.0301L25.8869 35.628C26.4203 36.0224 26.9563 36.4127 27.4947 36.7992L27.2031 37.2054L26.9115 37.6116C26.3694 37.2224 25.8297 36.8293 25.2924 36.4321L25.5897 36.0301ZM28.8312 38.3569L29.1171 37.9467C29.6603 38.3252 30.2059 38.6998 30.7539 39.0705L30.4737 39.4847L30.1936 39.8988C29.6418 39.5255 29.0924 39.1483 28.5453 38.7671L28.8312 38.3569ZM32.1304 40.5889L32.4049 40.1709C32.9592 40.5349 33.5159 40.895 34.0749 41.2512L33.8063 41.6729L33.5376 42.0945C32.9747 41.7359 32.4142 41.3734 31.856 41.0068L32.1304 40.5889ZM35.4962 42.7336L35.7592 42.3083C36.3228 42.6568 36.8888 43.0014 37.4569 43.3421L37.1998 43.7709L36.9426 44.1997C36.3706 43.8567 35.8008 43.5097 35.2333 43.1589L35.4962 42.7336ZM38.9166 44.7848L39.168 44.3526C39.7405 44.6856 40.3152 45.0147 40.8921 45.34L40.6465 45.7755L40.4009 46.2111C39.8202 45.8836 39.2416 45.5523 38.6652 45.217L38.9166 44.7848ZM42.3896 46.7434L42.6294 46.3047C43.2107 46.6224 43.7941 46.9364 44.3796 47.2465L44.1455 47.6883L43.9115 48.1302C43.3222 47.818 42.7349 47.502 42.1498 47.1821L42.3896 46.7434ZM45.9138 48.6104L46.1421 48.1655C46.7316 48.4681 47.3231 48.7668 47.9167 49.0618L47.6941 49.5096L47.4716 49.9573C46.8742 49.6604 46.2789 49.3597 45.6855 49.0552L45.9138 48.6104ZM49.4863 50.3861L49.7031 49.9355C50.3001 50.2228 50.8991 50.5063 51.5 50.7862L51.2889 51.2394L51.0778 51.6927C50.4731 51.4111 49.8703 51.1257 49.2695 50.8366L49.4863 50.3861ZM53.1005 52.0692L53.3058 51.6134C53.9097 51.8854 54.5153 52.1537 55.1228 52.4184L54.9231 52.8768L54.7234 53.3352C54.1122 53.0689 53.5027 52.7989 52.8951 52.5251L53.1005 52.0692ZM56.7566 53.6621L56.9506 53.2013C57.5617 53.4585 58.1745 53.7122 58.789 53.9621L58.6006 54.4253L58.4122 54.8884C57.7939 54.6369 57.1774 54.3818 56.5625 54.1229L56.7566 53.6621ZM60.4548 55.1664L60.6376 54.701C61.2533 54.9429 61.8706 55.1811 62.4896 55.4157L62.3124 55.8832L62.1352 56.3508C61.5125 56.1147 60.8914 55.8751 60.272 55.6318L60.4548 55.1664ZM64.1799 56.5784L64.3515 56.1087C64.9737 56.3362 65.5976 56.5601 66.2229 56.7804L66.0568 57.252L65.8907 57.7236C65.2616 57.502 64.6341 57.2768 64.0082 57.048L64.1799 56.5784ZM67.943 57.9042L68.1037 57.4307C68.7321 57.6439 69.3621 57.8536 69.9935 58.0598L69.8383 58.5351L69.6831 59.0104C69.0481 58.803 68.4145 58.5921 67.7824 58.3777L67.943 57.9042ZM71.736 59.1428L71.8858 58.6657C72.5171 58.8639 73.1498 59.0587 73.7839 59.25L73.6395 59.7287L73.4951 60.2074C72.8574 60.015 72.2211 59.8191 71.5862 59.6198L71.736 59.1428ZM75.5512 60.2938L75.6903 59.8135C76.3271 59.9979 76.9652 60.1789 77.6047 60.3564L77.4709 60.8382L77.3371 61.3199C76.6942 61.1414 76.0525 60.9595 75.4121 60.774L75.5512 60.2938ZM79.3984 61.362L79.5269 60.8788C80.1677 61.0492 80.8097 61.2162 81.453 61.3798L81.3297 61.8644L81.2065 62.3489C80.5597 62.1844 79.9142 62.0165 79.2699 61.8452L79.3984 61.362ZM83.2615 62.3448L83.3796 61.8589C84.023 62.0153 84.6675 62.1683 85.3132 62.318L85.2003 62.8051L85.0873 63.2922C84.4382 63.1417 83.7903 62.9878 83.1434 62.8306L83.2615 62.3448ZM87.1458 63.2455L87.2536 62.7573C87.9016 62.9004 88.5505 63.0402 89.2006 63.1767L89.0978 63.666L88.9951 64.1553C88.3417 64.0181 87.6893 63.8776 87.038 63.7337L87.1458 63.2455ZM91.0561 64.0667L91.1539 63.5764C91.8025 63.7057 92.452 63.8317 93.1026 63.9545L93.0098 64.4458L92.9171 64.9371C92.2632 64.8137 91.6103 64.687 90.9584 64.5571L91.0561 64.0667ZM94.969 64.8055L95.0568 64.3133C95.7092 64.4296 96.3624 64.5428 97.0166 64.6528L96.9337 65.1459L96.8507 65.639C96.1933 65.5284 95.5368 65.4147 94.8812 65.2977L94.969 64.8055ZM98.9036 65.4672L98.9816 64.9733C99.6375 65.077 100.294 65.1774 100.952 65.2748L100.879 65.7694L100.805 66.264C100.145 66.1662 99.4847 66.0652 98.8255 65.961L98.9036 65.4672ZM102.852 66.0518L102.921 65.5565C103.577 65.6471 104.233 65.7346 104.89 65.819L104.826 66.315L104.763 66.8109C104.102 66.7261 103.443 66.6382 102.784 66.5471L102.852 66.0518ZM106.804 66.5595L106.863 66.063C107.522 66.1413 108.181 66.2165 108.841 66.2886L108.787 66.7856L108.732 67.2827C108.069 67.2102 107.407 67.1347 106.745 67.056L106.804 66.5595ZM110.773 66.9934L110.822 66.4959C111.483 66.5619 112.144 66.6249 112.806 66.6848L112.761 67.1828L112.716 67.6807C112.051 67.6205 111.387 67.5572 110.723 67.4909L110.773 66.9934ZM114.745 67.3533L114.785 66.855C115.446 66.9087 116.106 66.9595 116.768 67.0073L116.732 67.506L116.695 68.0047C116.031 67.9567 115.367 67.9057 114.704 67.8517L114.745 67.3533ZM118.721 67.6409L118.753 67.1419C119.415 67.1838 120.078 67.2228 120.741 67.2588L120.714 67.7581L120.686 68.2574C120.02 68.2212 119.355 68.182 118.69 68.1399L118.721 67.6409ZM122.708 67.8577L122.731 67.3582C123.393 67.3883 124.056 67.4156 124.719 67.4399L124.7 67.9396L124.682 68.4392C124.016 68.4148 123.351 68.3874 122.686 68.3572L122.708 67.8577ZM126.692 68.0041L126.706 67.5043C127.368 67.5229 128.031 67.5386 128.695 67.5515L128.685 68.0514L128.675 68.5513C128.009 68.5384 127.343 68.5226 126.678 68.5039L126.692 68.0041ZM130.68 68.0817L130.685 67.5817C131.349 67.5889 132.013 67.5933 132.677 67.5949L132.676 68.0949L132.674 68.5949C132.007 68.5933 131.341 68.5889 130.674 68.5816L130.68 68.0817ZM134.672 68.0913L134.669 67.5913C135.331 67.5873 135.994 67.5805 136.657 67.571L136.664 68.071L136.672 68.5709C136.006 68.5805 135.34 68.5873 134.675 68.5913L134.672 68.0913ZM138.657 68.034L138.646 67.5341C139.309 67.5191 139.972 67.5013 140.636 67.4808L140.651 67.9806L140.667 68.4803C140.001 68.5009 139.335 68.5188 138.669 68.5339L138.657 68.034ZM142.645 67.9107L142.625 67.4111C143.289 67.3851 143.952 67.3564 144.615 67.3251L144.639 67.8245L144.663 68.324C143.997 68.3555 143.331 68.3842 142.665 68.4103L142.645 67.9107ZM146.631 67.7222L146.603 67.223C147.265 67.1863 147.927 67.1469 148.589 67.1049L148.621 67.6039L148.653 68.1029C147.988 68.1451 147.323 68.1846 146.658 68.2214L146.631 67.7222ZM150.611 67.4695L150.575 66.9708C151.237 66.9235 151.898 66.8735 152.56 66.8209L152.6 67.3193L152.639 67.8177C151.975 67.8706 151.311 67.9207 150.646 67.9683L150.611 67.4695ZM154.587 67.1533L154.544 66.6552C155.205 66.5974 155.866 66.5369 156.526 66.4738L156.574 66.9716L156.622 67.4693C155.958 67.5326 155.295 67.5933 154.631 67.6514L154.587 67.1533ZM158.559 66.7742L158.508 66.2769C159.168 66.2087 159.827 66.1378 160.487 66.0645L160.542 66.5614L160.598 67.0583C159.935 67.132 159.273 67.2031 158.61 67.2716L158.559 66.7742ZM162.524 66.3331L162.464 65.8366C163.123 65.7581 163.782 65.6771 164.44 65.5935L164.503 66.0895L164.566 66.5856C163.905 66.6695 163.244 66.7508 162.583 66.8296L162.524 66.3331ZM166.48 65.8307L166.413 65.3352C167.071 65.2465 167.728 65.1552 168.385 65.0615L168.456 65.5565L168.527 66.0514C167.867 66.1456 167.207 66.2372 166.546 66.3262L166.48 65.8307ZM170.431 65.267L170.356 64.7725C171.013 64.6737 171.669 64.5724 172.324 64.4686L172.402 64.9625L172.48 65.4563C171.822 65.5605 171.164 65.6622 170.505 65.7614L170.431 65.267ZM174.37 64.6431L174.288 64.1498C174.943 64.0411 175.597 63.9299 176.25 63.8163L176.335 64.3089L176.421 64.8015C175.765 64.9155 175.109 65.0272 174.452 65.1363L174.37 64.6431ZM178.297 63.9598L178.208 63.4678C178.862 63.3489 179.515 63.2275 180.168 63.1037L180.261 63.595L180.354 64.0862C179.699 64.2105 179.043 64.3323 178.387 64.4517L178.297 63.9598ZM182.221 63.2156L182.124 62.7251C182.775 62.5964 183.426 62.4654 184.076 62.3319L184.176 62.8217L184.277 63.3114C183.625 63.4454 182.972 63.577 182.318 63.7061L182.221 63.2156ZM186.127 62.4133L186.023 61.9243C186.671 61.7861 187.318 61.6454 187.965 61.5024L188.073 61.9906L188.181 62.4788C187.532 62.6224 186.882 62.7635 186.231 62.9023L186.127 62.4133ZM190.02 61.5522L189.909 61.0648C190.557 60.9163 191.204 60.7654 191.851 60.6122L191.966 61.0987L192.081 61.5852C191.433 61.739 190.783 61.8905 190.132 62.0395L190.02 61.5522ZM193.906 60.631L193.787 60.1454C194.432 59.9874 195.075 59.8271 195.718 59.6645L195.841 60.1492L195.963 60.6339C195.318 60.7972 194.672 60.9581 194.025 61.1166L193.906 60.631ZM197.769 59.6534L197.643 59.1696C198.284 59.0021 198.925 58.8323 199.564 58.6602L199.694 59.143L199.824 59.6258C199.182 59.7986 198.539 59.9691 197.895 60.1372L197.769 59.6534ZM201.623 58.6157L201.49 58.1339C202.131 57.9561 202.77 57.7761 203.409 57.5937L203.546 58.0745L203.683 58.5553C203.042 58.7383 202.4 58.9191 201.757 59.0975L201.623 58.6157ZM205.462 57.5195L205.321 57.0398C205.957 56.8529 206.592 56.6636 207.226 56.4722L207.37 56.9508L207.515 57.4294C206.879 57.6216 206.241 57.8116 205.603 57.9992L205.462 57.5195ZM209.271 56.3685L209.123 55.891C209.759 55.6936 210.393 55.4939 211.026 55.292L211.178 55.7684L211.33 56.2447C210.695 56.4474 210.058 56.6479 209.42 56.846L209.271 56.3685ZM213.081 55.1534L212.925 54.6782C213.557 54.4714 214.187 54.2623 214.816 54.0509L214.975 54.5249L215.135 54.9988C214.503 55.211 213.871 55.4209 213.237 55.6286L213.081 55.1534ZM216.861 53.8829L216.698 53.4102C217.324 53.1944 217.949 52.9764 218.572 52.7562L218.738 53.2276L218.905 53.699C218.28 53.9201 217.653 54.139 217.024 54.3556L216.861 53.8829ZM220.615 52.5559L220.445 52.0858C221.072 51.8587 221.697 51.6293 222.321 51.3977L222.495 51.8664L222.669 52.3352C222.043 52.5677 221.415 52.798 220.786 53.026L220.615 52.5559ZM224.365 51.1636L224.187 50.6963C224.808 50.4602 225.427 50.222 226.044 49.9816L226.225 50.4475L226.407 50.9134C225.787 51.1548 225.166 51.394 224.543 51.6309L224.365 51.1636ZM228.075 49.7183L227.89 49.2539C228.505 49.0088 229.118 48.7616 229.729 48.5122L229.918 48.9751L230.107 49.438C229.493 49.6884 228.878 49.9367 228.261 50.1828L228.075 49.7183ZM231.771 48.2098L231.578 47.7484C232.193 47.4916 232.806 47.2327 233.417 46.9715L233.613 47.4313L233.81 47.8911C233.196 48.1533 232.581 48.4133 231.964 48.6711L231.771 48.2098ZM235.444 46.6398L235.244 46.1817C235.851 45.9162 236.456 45.6486 237.059 45.3789L237.263 45.8353L237.467 46.2918C236.861 46.5626 236.254 46.8314 235.644 47.0979L235.444 46.6398ZM239.07 45.0181L238.862 44.5634C239.469 44.2857 240.074 44.0059 240.677 43.7239L240.889 44.1768L241.101 44.6298C240.495 44.9129 239.888 45.194 239.278 45.4728L239.07 45.0181ZM242.699 43.3209L242.483 42.8698C243.083 42.583 243.681 42.294 244.276 42.0029L244.496 42.4521L244.715 42.9013C244.117 43.1937 243.517 43.4839 242.915 43.772L242.699 43.3209ZM246.279 41.5705L246.056 41.1233C246.647 40.8279 247.235 40.5305 247.822 40.231L248.049 40.6763L248.277 41.1215C247.688 41.4224 247.096 41.7211 246.503 42.0178L246.279 41.5705ZM249.827 39.7581L249.595 39.3149C250.187 39.0058 250.777 38.6946 251.364 38.3813L251.599 38.8224L251.835 39.2635C251.245 39.5782 250.653 39.8908 250.058 40.2013L249.827 39.7581ZM253.356 37.8739L253.117 37.435C253.699 37.1175 254.278 36.7979 254.855 36.4762L255.098 36.9129L255.342 37.3495C254.762 37.6727 254.18 37.9939 253.596 38.3129L253.356 37.8739ZM256.825 35.9393L256.577 35.5049C257.156 35.175 257.732 34.843 258.305 34.5089L258.557 34.9408L258.809 35.3728C258.233 35.7086 257.654 36.0422 257.073 36.3737L256.825 35.9393ZM260.285 33.9226L260.029 33.4931C260.601 33.1524 261.169 32.8096 261.735 32.4648L261.996 32.8918L262.256 33.3188C261.687 33.6653 261.115 34.0098 260.541 34.3521L260.285 33.9226ZM263.689 31.8484L263.425 31.424C263.985 31.0751 264.542 30.724 265.096 30.371L265.365 30.7927L265.634 31.2144C265.077 31.5693 264.516 31.9221 263.953 32.2728L263.689 31.8484ZM267.047 29.7092L266.774 29.2903C267.334 28.9253 267.891 28.5583 268.445 28.1892L268.722 28.6053L268.999 29.0213C268.443 29.3924 267.883 29.7613 267.32 30.1281L267.047 29.7092ZM270.378 27.4889L270.096 27.0758C270.643 26.7026 271.187 26.3273 271.728 25.9501L272.014 26.3601L272.3 26.7701C271.756 27.1494 271.21 27.5267 270.659 27.9019L270.378 27.4889ZM273.63 25.2191L273.339 24.8122C273.883 24.4237 274.424 24.0331 274.961 23.6404L275.256 24.044L275.551 24.4476C275.011 24.8425 274.468 25.2353 273.921 25.626L273.63 25.2191ZM276.868 22.851L276.568 22.4509C277.1 22.0523 277.629 21.6516 278.153 21.249L278.458 21.6457L278.762 22.0423C278.234 22.4474 277.703 22.8503 277.167 23.2512L276.868 22.851ZM280.026 20.428L279.717 20.035C280.234 19.6278 280.749 19.2186 281.259 18.8075L281.573 19.1969L281.886 19.5862C281.373 19.9999 280.856 20.4115 280.335 20.8211L280.026 20.428ZM283.133 17.9236L282.814 17.5382C283.329 17.1131 283.839 16.6859 284.346 16.2566L284.669 16.638L284.992 17.0194C284.483 17.4514 283.969 17.8812 283.451 18.3091L283.133 17.9236ZM286.18 15.3402L285.852 14.963C286.35 14.5297 286.843 14.0945 287.333 13.6573L287.666 14.0302L287.999 14.4031C287.506 14.8432 287.009 15.2813 286.508 15.7174L286.18 15.3402ZM289.142 12.6939L288.804 12.3254C289.298 11.8726 289.787 11.4177 290.271 10.9608L290.614 11.3245L290.957 11.6882C290.469 12.1483 289.977 12.6063 289.48 13.0623L289.142 12.6939ZM292.058 9.94293L291.71 9.58408C292.185 9.12318 292.655 8.6603 293.121 8.19547L293.474 8.5493L293.827 8.90314C293.359 9.37137 292.885 9.83759 292.406 10.3018L292.058 9.94293ZM294.862 7.14381L294.503 6.79514C294.971 6.31496 295.433 5.83275 295.89 5.34855L296.253 5.69174L296.617 6.03492C296.156 6.52283 295.691 7.00869 295.22 7.49247L294.862 7.14381ZM297.618 4.22346L297.249 3.88595C297.697 3.39645 298.139 2.90497 298.577 2.41156L298.951 2.74321L299.325 3.07486C298.884 3.57224 298.438 4.06762 297.987 4.56097L297.618 4.22346ZM300.252 1.25114L299.873 0.925552C300.086 0.676941 300.298 0.427856 300.509 0.178291L300.891 0.500778L301.273 0.823265C301.06 1.07491 300.847 1.32607 300.632 1.57673L300.252 1.25114Z" fill="#025752"/>
</svg>
