<svg width="45" height="45" viewBox="0 0 45 45" fill="none" xmlns="http://www.w3.org/2000/svg">
<path d="M22.5 41.25C32.8554 41.25 41.25 32.8554 41.25 22.5C41.25 12.1446 32.8554 3.75 22.5 3.75C12.1446 3.75 3.75 12.1446 3.75 22.5C3.75 32.8554 12.1446 41.25 22.5 41.25Z" fill="#E5E5E5"/>
<path d="M20.0181 27.1744C19.7157 27.1744 19.4125 27.059 19.1825 26.8283C18.7204 26.3669 18.7204 25.6187 19.1825 25.1565L28.5516 15.7875C29.013 15.3261 29.7621 15.3261 30.2234 15.7875C30.6848 16.2488 30.6848 16.9979 30.2234 17.4593L20.8543 26.8283C20.6229 27.059 20.3205 27.1744 20.0181 27.1744Z" fill="#007D75"/>
<path d="M33.3509 21.7708C33.0485 21.7708 32.746 21.6554 32.5153 21.4247L28.5492 17.4593C28.0878 16.9979 28.0878 16.2496 28.5492 15.7875C29.0106 15.3261 29.7588 15.3261 30.221 15.7875L34.1872 19.7529C34.6493 20.2143 34.6493 20.9634 34.1872 21.4247C33.9558 21.6554 33.6533 21.7708 33.3509 21.7708Z" fill="#007D75"/>
<path d="M13.375 6.1216V31.3607C13.375 32.0136 13.9044 32.543 14.5573 32.543C15.2102 32.543 15.7396 32.0136 15.7396 31.3607V5.01172C14.9218 5.32819 14.1322 5.69866 13.375 6.1216Z" fill="#353535"/>
<path d="M39.6064 30.1797H14.5573C13.9044 30.1797 13.375 30.7091 13.375 31.362C13.375 32.0149 13.9044 32.5443 14.5573 32.5443H38.3324C38.8108 31.7909 39.2374 31.0012 39.6064 30.1797Z" fill="#353535"/>
<path d="M38.8856 13.3867L32.5185 19.7538C32.0563 20.2152 32.0563 20.9642 32.5185 21.4256C32.7492 21.6563 33.0516 21.7717 33.354 21.7717C33.6564 21.7717 33.9589 21.6563 34.1896 21.4256L39.9562 15.6589C39.6486 14.8744 39.2915 14.1158 38.8856 13.3867Z" fill="#007D75"/>
</svg>
