<svg width="80" height="80" viewBox="0 0 80 80" fill="none" xmlns="http://www.w3.org/2000/svg">
<mask id="mask0_4725_73249" style="mask-type:alpha" maskUnits="userSpaceOnUse" x="0" y="0" width="80" height="80">
<rect width="80" height="80" fill="#D9D9D9"/>
</mask>
<g mask="url(#mask0_4725_73249)">
<path d="M32.6667 44.9623L35.4233 35.9107L28.1733 30.3215H37.1925L40 21.3082L42.8075 30.3215H51.8267L44.5258 35.9107L47.2817 44.9623L40 39.334L32.6667 44.9623ZM21.6667 74.1031V50.244C19.5556 48.039 17.9167 45.4898 16.75 42.5965C15.5833 39.7037 15 36.6162 15 33.334C15 26.3595 17.4231 20.4493 22.2692 15.6032C27.1153 10.757 33.0256 8.33398 40 8.33398C46.9744 8.33398 52.8847 10.757 57.7308 15.6032C62.5769 20.4493 65 26.3595 65 33.334C65 36.6162 64.4167 39.7037 63.25 42.5965C62.0833 45.4898 60.4444 48.039 58.3333 50.244V74.1031L40 68.2698L21.6667 74.1031ZM54.1667 47.5007C58.0556 43.6118 60 38.8895 60 33.334C60 27.7784 58.0556 23.0562 54.1667 19.1673C50.2778 15.2784 45.5556 13.334 40 13.334C34.4444 13.334 29.7222 15.2784 25.8333 19.1673C21.9444 23.0562 20 27.7784 20 33.334C20 38.8895 21.9444 43.6118 25.8333 47.5007C29.7222 51.3895 34.4444 53.334 40 53.334C45.5556 53.334 50.2778 51.3895 54.1667 47.5007ZM26.6667 66.7823L40 63.2057L53.3333 66.7823V54.3982C51.4317 55.6376 49.3506 56.6034 47.09 57.2957C44.8289 57.9879 42.4656 58.334 40 58.334C37.5344 58.334 35.1711 57.9879 32.91 57.2957C30.6494 56.6034 28.5683 55.6376 26.6667 54.3982V66.7823Z" fill="#353535"/>
</g>
</svg>
