<svg width="177" height="148" viewBox="0 0 177 148" fill="none" xmlns="http://www.w3.org/2000/svg">
<g opacity="0.05">
<path d="M63.7766 213.517C63.1876 213.47 62.6163 213.294 62.1034 213.001C61.5904 212.709 61.1483 212.307 60.809 211.825C60.4693 211.344 60.2408 210.793 60.1391 210.214C60.0374 209.634 60.0652 209.039 60.2208 208.471L71.4895 167.286C71.6998 166.508 72.1436 165.812 72.7614 165.292L177.261 76.7451C177.877 76.2222 178.638 75.8976 179.444 75.8143L222.065 71.3302C222.716 71.2614 223.374 71.3519 223.981 71.5939C224.589 71.8357 225.128 72.2215 225.552 72.7177C225.976 73.2138 226.272 73.8056 226.415 74.4418C226.558 75.0776 226.543 75.7386 226.371 76.367L215.102 117.55C214.891 118.328 214.447 119.024 213.83 119.546L109.341 208.092C108.727 208.616 107.966 208.941 107.161 209.023L64.5373 213.509C64.2846 213.536 64.0297 213.538 63.7766 213.517ZM222.601 73.9226C222.511 73.9166 222.421 73.9174 222.333 73.926L179.71 78.4116C179.43 78.4401 179.165 78.553 178.951 78.7349L74.4668 167.288C74.2529 167.47 74.0986 167.711 74.0236 167.981L62.7563 209.168C62.6948 209.385 62.6887 209.616 62.7387 209.837C62.7883 210.058 62.8924 210.263 63.0416 210.435C63.1889 210.607 63.3762 210.741 63.5872 210.825C63.7978 210.909 64.0262 210.94 64.252 210.917L106.878 206.431C107.157 206.403 107.42 206.289 107.632 206.107L212.122 117.562C212.336 117.38 212.49 117.139 212.564 116.868L223.833 75.6837C223.886 75.487 223.896 75.281 223.861 75.0798C223.826 74.879 223.748 74.6877 223.631 74.5206C223.513 74.353 223.361 74.2134 223.184 74.1108C223.007 74.0087 222.809 73.946 222.605 73.9279L222.601 73.9226Z" fill="white"/>
<path d="M210.407 225.329C210.158 225.309 209.912 225.266 209.671 225.201L168.313 213.95C167.531 213.74 166.83 213.298 166.307 212.681L77.3325 108.551C76.8069 107.938 76.4801 107.18 76.3968 106.377L71.8646 63.9213C71.7954 63.2733 71.8859 62.6184 72.1282 62.0132C72.3708 61.4081 72.7579 60.8714 73.2564 60.4491C73.7545 60.0273 74.3487 59.7325 74.9872 59.5913C75.6261 59.4501 76.2897 59.4664 76.9207 59.6384L118.281 70.8876C119.061 71.0993 119.759 71.5416 120.283 72.1555L209.259 176.286C209.785 176.9 210.111 177.659 210.195 178.462L214.727 220.917C214.789 221.502 214.722 222.094 214.528 222.65C214.335 223.207 214.021 223.713 213.608 224.134C213.196 224.556 212.695 224.881 212.142 225.087C211.589 225.294 210.997 225.376 210.407 225.329ZM75.9679 62.1114C75.764 62.0969 75.5593 62.1269 75.368 62.1997C75.1767 62.2726 75.0041 62.386 74.862 62.5327C74.72 62.6789 74.6118 62.8548 74.545 63.0478C74.4785 63.2404 74.4551 63.4454 74.4769 63.6482L79.007 106.105C79.0374 106.384 79.1515 106.646 79.3336 106.861L168.308 210.99C168.49 211.205 168.733 211.358 169.005 211.431L210.364 222.681C210.583 222.741 210.814 222.747 211.036 222.697C211.258 222.648 211.464 222.546 211.637 222.399C211.811 222.252 211.945 222.066 212.029 221.856C212.113 221.646 212.145 221.418 212.121 221.193L207.589 178.738C207.561 178.458 207.447 178.195 207.264 177.98L118.288 73.8504C118.107 73.6363 117.864 73.4828 117.593 73.4099L76.2339 62.1594C76.1468 62.1362 76.0578 62.1202 75.9679 62.1114Z" fill="white"/>
<path d="M134.697 249.335C134.041 249.282 133.407 249.071 132.851 248.722C132.295 248.373 131.834 247.896 131.507 247.332L110.037 210.352C109.63 209.655 109.448 208.852 109.515 208.05L120.456 72.2279C120.519 71.4266 120.827 70.6634 121.34 70.0395L148.449 36.9696C148.862 36.4654 149.394 36.0685 149.999 35.8133C150.603 35.5581 151.262 35.4523 151.919 35.5049C152.575 35.5582 153.208 35.7683 153.764 36.1171C154.32 36.4657 154.782 36.9425 155.109 37.5061L176.574 74.4888C176.979 75.1871 177.161 75.9893 177.096 76.7904L166.155 212.613C166.091 213.415 165.783 214.177 165.271 214.802L138.172 247.864C137.76 248.37 137.227 248.768 136.621 249.024C136.016 249.281 135.355 249.387 134.697 249.335ZM151.713 38.098C151.484 38.077 151.252 38.1126 151.041 38.2013C150.829 38.29 150.643 38.4292 150.499 38.6063L123.39 71.6762C123.212 71.8934 123.106 72.1583 123.084 72.4362L112.143 208.259C112.12 208.538 112.183 208.816 112.323 209.06L133.789 246.041C133.902 246.239 134.064 246.407 134.259 246.529C134.453 246.65 134.676 246.723 134.906 246.738C135.136 246.76 135.368 246.725 135.58 246.635C135.791 246.547 135.977 246.406 136.121 246.228L163.222 213.15C163.401 212.933 163.508 212.667 163.53 212.389L174.471 76.5656C174.494 76.2874 174.43 76.0084 174.289 75.7664L152.824 38.7837C152.711 38.5872 152.551 38.4212 152.357 38.3007C152.162 38.1801 151.942 38.1088 151.713 38.0931L151.713 38.098Z" fill="white"/>
<path d="M165.76 212.126L139.811 181.773L109.337 207.581L112.535 167.882L72.6504 164.669L103.123 138.864L77.1737 108.516L117.058 111.729L120.256 72.0282L146.206 102.379L176.679 76.5733L173.481 116.274L213.363 119.486L182.89 145.293L208.839 175.64L168.958 172.427L165.76 212.126ZM141.809 180.076L163.639 205.608L166.329 172.215L152.414 171.094L141.809 180.076ZM115.163 168.094L112.473 201.486L138.109 179.778L129.078 169.214L115.163 168.094ZM132.787 169.513L140.108 178.075L148.704 170.795L132.787 169.513ZM169.173 169.817L202.725 172.519L180.893 146.988L170.289 155.969L169.173 169.817ZM155.26 168.696L166.549 169.605L167.454 158.367L155.26 168.696ZM130.374 166.691L151.549 168.397L167.752 154.675L169.449 133.601L155.652 117.462L134.473 115.756L118.268 129.478L116.571 150.554L130.374 166.691ZM115.373 165.483L126.664 166.392L116.278 154.245L115.373 165.483ZM79.1989 162.569L112.75 165.272L113.866 151.424L104.834 140.861L79.1989 162.569ZM171.863 136.424L170.586 152.276L179.183 144.996L171.863 136.424ZM106.838 139.158L114.159 147.72L115.436 131.868L106.838 139.158ZM172.161 132.725L181.191 143.289L206.828 121.579L173.271 118.876L172.161 132.725ZM83.3024 111.628L105.126 137.176L115.732 128.192L116.848 114.336L83.3024 111.628ZM159.363 117.755L169.747 129.903L170.652 118.665L159.363 117.755ZM119.476 114.542L118.571 125.78L130.767 115.452L119.476 114.542ZM156.948 114.933L170.863 116.054L173.552 82.6657L147.917 104.375L156.948 114.933ZM137.311 113.351L153.24 114.634L145.919 106.072L137.311 113.351ZM119.687 111.932L133.602 113.053L144.208 104.071L122.376 78.5433L119.687 111.932Z" fill="white"/>
<path d="M209.969 175.976L72.1227 164.872C71.3095 164.807 70.5345 164.501 69.9005 163.992L36.2867 137.115C35.7749 136.705 35.3716 136.178 35.1119 135.579C34.8521 134.981 34.7436 134.33 34.7958 133.681C34.8481 133.032 35.0594 132.407 35.4117 131.857C35.7639 131.308 36.2462 130.853 36.8171 130.53L74.2996 109.38C75.0072 108.981 75.8213 108.802 76.6339 108.869L214.48 119.973C215.293 120.038 216.068 120.344 216.702 120.851L250.315 147.728C250.827 148.138 251.23 148.665 251.491 149.263C251.75 149.861 251.859 150.513 251.807 151.162C251.755 151.811 251.543 152.437 251.191 152.986C250.838 153.535 250.356 153.991 249.784 154.313L212.303 175.463C211.596 175.864 210.782 176.042 209.969 175.976ZM76.4246 111.467C76.1417 111.444 75.8587 111.506 75.6125 111.645L38.1315 132.795C37.9324 132.906 37.764 133.065 37.641 133.256C37.5181 133.447 37.4443 133.664 37.4261 133.89C37.4079 134.116 37.4459 134.343 37.5367 134.551C37.6275 134.76 37.7684 134.942 37.9471 135.085L71.5593 161.961C71.7801 162.138 72.0496 162.245 72.3325 162.267L210.179 173.371C210.461 173.394 210.744 173.332 210.989 173.193L248.472 152.043C248.671 151.931 248.839 151.774 248.962 151.582C249.085 151.392 249.159 151.174 249.177 150.948C249.195 150.722 249.157 150.495 249.067 150.287C248.976 150.079 248.835 149.895 248.656 149.753L215.042 122.876C214.822 122.7 214.554 122.594 214.271 122.571L76.4246 111.467Z" fill="white"/>
<path d="M162.515 37.9211L179.857 67.9357C179.983 68.1546 180.17 68.3323 180.396 68.4476C180.623 68.5629 180.877 68.6106 181.131 68.585L216.026 65.0848C216.206 65.0666 216.379 65.0123 216.536 64.9248C216.694 64.837 216.831 64.7184 216.939 64.5759C217.048 64.4335 217.126 64.2703 217.168 64.0963C217.21 63.9225 217.215 63.7422 217.183 63.5662L208.731 16.0826C208.697 15.8843 208.616 15.6967 208.495 15.5345C208.375 15.3723 208.217 15.24 208.037 15.1481C207.857 15.0561 207.656 15.0069 207.453 15.0045C207.25 15.002 207.049 15.0464 206.866 15.134L163.082 36.1049C162.92 36.1825 162.776 36.2922 162.659 36.4273C162.541 36.5624 162.453 36.72 162.4 36.8903C162.347 37.0606 162.33 37.2401 162.349 37.4174C162.369 37.5947 162.425 37.7661 162.515 37.9211Z" fill="white"/>
<path d="M84.5534 53.9234L117.464 62.8117C117.704 62.876 117.957 62.8707 118.193 62.7955C118.429 62.7208 118.639 62.5797 118.795 62.3898L140.429 36.1333C140.541 35.9981 140.624 35.8415 140.672 35.6731C140.72 35.5047 140.732 35.3283 140.708 35.1549C140.684 34.9815 140.623 34.8149 140.531 34.6656C140.438 34.5161 140.315 34.3873 140.17 34.2872L101.205 7.25443C101.042 7.14156 100.856 7.06743 100.659 7.03795C100.463 7.00845 100.263 7.0244 100.074 7.0844C99.885 7.14446 99.7129 7.24704 99.5714 7.38407C99.4293 7.52105 99.3215 7.68874 99.2564 7.87398L83.6771 52.2733C83.6177 52.438 83.5942 52.6129 83.6069 52.7872C83.6196 52.9619 83.6688 53.1319 83.7506 53.2868C83.8331 53.4419 83.9465 53.5782 84.0848 53.6877C84.2232 53.7973 84.3819 53.8777 84.5534 53.9234Z" fill="white"/>
<path d="M38.175 122.835L68.5004 105.738C68.7211 105.614 68.9003 105.429 69.0163 105.205C69.1322 104.983 69.1796 104.731 69.1533 104.481L65.5493 69.9672C65.5307 69.7898 65.4752 69.6179 65.3866 69.4622C65.2976 69.3067 65.1776 69.1706 65.0333 69.0631C64.889 68.9552 64.7236 68.8781 64.5481 68.836C64.3721 68.794 64.1897 68.7881 64.0117 68.8192L16.0026 77.0915C15.8024 77.1261 15.6131 77.2066 15.4496 77.3254C15.2862 77.4443 15.153 77.5992 15.0605 77.7779C14.9681 77.9566 14.9189 78.1539 14.9168 78.3544C14.9146 78.5555 14.9597 78.7539 15.0483 78.9346L36.3363 122.271C36.4152 122.432 36.5267 122.574 36.6637 122.69C36.8006 122.807 36.9602 122.894 37.1326 122.946C37.305 122.999 37.4864 123.017 37.6656 122.998C37.845 122.979 38.0183 122.923 38.175 122.835Z" fill="white"/>
<path d="M54.8853 201.488L64.0223 168.208C64.0903 167.964 64.0851 167.707 64.0074 167.467C63.9294 167.226 63.7826 167.012 63.5842 166.853L36.3592 144.923C36.2192 144.81 36.0572 144.727 35.8834 144.678C35.7095 144.63 35.5276 144.618 35.3488 144.642C35.17 144.666 34.9983 144.726 34.8444 144.82C34.6904 144.912 34.5575 145.035 34.4539 145.182L6.54404 184.553C6.42772 184.718 6.35166 184.906 6.32177 185.104C6.29183 185.303 6.30887 185.507 6.37164 185.697C6.43436 185.888 6.54102 186.063 6.68326 186.206C6.82546 186.35 6.99937 186.459 7.19131 186.526L53.1866 202.373C53.3567 202.431 53.5374 202.454 53.7172 202.441C53.8969 202.428 54.0718 202.379 54.2309 202.296C54.3903 202.213 54.5307 202.098 54.6432 201.959C54.7557 201.821 54.8382 201.66 54.8853 201.488Z" fill="white"/>
<path d="M168.976 73.9164L152.801 46.0608C152.633 45.7763 152.398 45.5361 152.115 45.3604C151.833 45.1848 151.512 45.0791 151.179 45.0523C150.846 45.0255 150.512 45.0785 150.205 45.2066C149.899 45.3348 149.627 45.5342 149.416 45.7881L128.991 70.6955C126.924 72.9441 128.974 75.3139 130.136 76.6595L137.628 85.3308C137.72 85.4361 137.834 85.5192 137.962 85.5735C138.091 85.6292 138.231 85.6538 138.371 85.6471C138.511 85.6397 138.648 85.6014 138.77 85.5341C138.893 85.4667 138.997 85.3725 139.077 85.2591L148.195 72.2289C148.286 72.099 148.411 71.9953 148.556 71.9276C148.7 71.8602 148.861 71.8316 149.021 71.8444C149.181 71.8573 149.335 71.9113 149.467 72.001C149.599 72.091 149.705 72.2133 149.773 72.356L156.689 86.6778C156.749 86.8025 156.837 86.9122 156.947 86.9983C157.058 87.0844 157.186 87.1441 157.323 87.1737C157.46 87.2028 157.602 87.2009 157.738 87.1666C157.874 87.1336 158.001 87.0698 158.108 86.9805L166.891 79.6202C168.256 78.4782 170.489 76.781 168.976 73.9164Z" fill="white"/>
<path d="M74.2425 117.01L46.0036 132.872C45.7152 133.037 45.4718 133.268 45.2943 133.545C45.1167 133.823 45.0102 134.139 44.9838 134.467C44.9574 134.795 45.012 135.124 45.1428 135.426C45.2736 135.729 45.4769 135.996 45.7351 136.205L71.0709 156.382C73.3572 158.423 75.7583 156.412 77.1231 155.269L85.9075 147.912C86.0137 147.822 86.0981 147.71 86.1535 147.583C86.2088 147.456 86.234 147.318 86.2263 147.18C86.2192 147.043 86.1795 146.908 86.1111 146.788C86.0427 146.667 85.9468 146.563 85.8312 146.484L72.5805 137.472C72.4487 137.382 72.3426 137.26 72.2739 137.117C72.2052 136.974 72.1752 136.816 72.1879 136.658C72.2006 136.501 72.2555 136.349 72.3462 136.22C72.4369 136.09 72.5612 135.986 72.7057 135.918L87.2281 129.143C87.3548 129.084 87.4661 128.997 87.5529 128.889C87.6398 128.781 87.7004 128.654 87.7295 128.519C87.7592 128.385 87.7564 128.244 87.7221 128.11C87.6877 127.976 87.6223 127.852 87.5318 127.747L80.0379 119.083C78.8741 117.733 77.1466 115.532 74.2425 117.01Z" fill="white"/>
<path d="M112.589 76.5655L81.5485 68.3013C81.2297 68.2193 80.8952 68.2125 80.5738 68.2822C80.2524 68.3519 79.9537 68.4954 79.7034 68.7012C79.4528 68.9069 79.258 69.1683 79.1351 69.4634C79.0124 69.7582 78.9657 70.0778 78.9986 70.3949L82.4733 101.29C82.6326 104.227 85.7422 104.477 87.5072 104.62L98.8813 105.536C99.0194 105.547 99.1581 105.527 99.2865 105.478C99.4148 105.429 99.5295 105.352 99.6226 105.253C99.7151 105.154 99.7825 105.036 99.8202 104.907C99.8578 104.779 99.864 104.644 99.8387 104.512L96.9272 89.4049C96.8986 89.2549 96.9112 89.0991 96.9634 88.955C97.0169 88.811 97.1077 88.6828 97.2281 88.5841C97.3492 88.4849 97.4943 88.4185 97.6502 88.3911C97.8067 88.3644 97.9674 88.3773 98.1169 88.4287L113.104 93.6216C113.235 93.6669 113.374 93.6827 113.511 93.6679C113.65 93.6526 113.781 93.6071 113.897 93.5346C114.014 93.4627 114.111 93.3653 114.182 93.2504C114.252 93.1361 114.295 93.0067 114.305 92.8734L115.19 81.8933C115.327 80.1893 115.673 77.5196 112.589 76.5655Z" fill="white"/>
<path d="M134.474 104.695L132.383 106.493C131.635 107.136 130.665 107.454 129.687 107.376L126.93 107.154C126.338 107.106 125.79 106.823 125.406 106.366C125.023 105.91 124.834 105.318 124.882 104.72L125.81 93.1996C125.824 93.0285 125.887 92.8662 125.992 92.7325C126.098 92.5981 126.24 92.4982 126.402 92.4455C126.563 92.3922 126.736 92.3891 126.899 92.4357C127.062 92.4816 127.208 92.5761 127.318 92.7059L134.725 101.502C134.917 101.728 135.063 101.99 135.154 102.272C135.246 102.555 135.281 102.854 135.257 103.151C135.234 103.448 135.152 103.736 135.019 104.002C134.884 104.267 134.699 104.503 134.474 104.695Z" fill="white"/>
<path d="M164.516 109.543L161.777 109.322C160.799 109.242 159.891 108.791 159.252 108.068L157.454 106.029C157.263 105.812 157.117 105.562 157.026 105.291C156.935 105.021 156.9 104.736 156.923 104.453C156.945 104.17 157.026 103.895 157.158 103.642C157.292 103.389 157.476 103.166 157.7 102.982L166.396 95.8445C166.525 95.7392 166.683 95.6729 166.852 95.6552C167.02 95.6367 167.19 95.6667 167.341 95.7423C167.492 95.8171 167.617 95.9331 167.7 96.0763C167.783 96.2196 167.82 96.3826 167.808 96.5456L166.92 107.568C166.897 107.851 166.817 108.126 166.684 108.379C166.551 108.63 166.368 108.855 166.144 109.038C165.921 109.221 165.662 109.361 165.383 109.447C165.103 109.534 164.808 109.566 164.516 109.543Z" fill="white"/>
<path d="M110.075 121.494L109.855 124.231C109.775 125.209 109.324 126.118 108.601 126.757L106.563 128.555C106.124 128.941 105.558 129.132 104.987 129.086C104.416 129.04 103.887 128.761 103.517 128.31L96.3785 119.614C96.2732 119.484 96.2065 119.326 96.1882 119.157C96.1693 118.989 96.2 118.818 96.2746 118.667C96.3499 118.515 96.4667 118.391 96.61 118.307C96.7533 118.224 96.9171 118.186 97.0806 118.2L108.103 119.088C108.675 119.135 109.203 119.414 109.572 119.866C109.942 120.317 110.123 120.902 110.075 121.494Z" fill="white"/>
<path d="M136.632 151.489L151.612 152.695L151.931 148.73L155.897 149.049L157.103 134.07L153.138 133.751L153.457 129.785L138.478 128.578L138.158 132.544L134.193 132.225L132.986 147.204L136.952 147.523L136.632 151.489Z" fill="white"/>
</g>
</svg>
