<svg width="707" height="288" viewBox="0 0 707 288" fill="none" xmlns="http://www.w3.org/2000/svg">
<path d="M309.014 477.611C308.036 478.205 306.94 478.577 305.803 478.7C304.666 478.823 303.517 478.694 302.437 478.322C301.358 477.952 300.374 477.347 299.557 476.552C298.74 475.758 298.109 474.793 297.71 473.726L268.676 396.3C268.123 394.84 268.03 393.244 268.409 391.726L331.98 134.203C332.353 132.684 333.18 131.311 334.349 130.266L396.159 74.8781C397.103 74.0316 398.238 73.4279 399.465 73.1186C400.693 72.8092 401.978 72.8026 403.206 73.1004C404.434 73.3981 405.571 73.9909 406.517 74.8273C407.462 75.663 408.188 76.7181 408.631 77.8995L437.662 155.322C438.213 156.783 438.307 158.379 437.931 159.897L374.375 417.408C374.005 418.927 373.181 420.3 372.011 421.342L310.199 476.735C309.833 477.064 309.436 477.357 309.014 477.611ZM399.94 78.3398C399.793 78.432 399.653 78.5349 399.524 78.6491L337.713 134.041C337.306 134.403 337.018 134.881 336.888 135.41L273.35 392.925C273.221 393.453 273.253 394.007 273.441 394.516L302.479 471.942C302.629 472.353 302.881 472.722 303.21 473.012C303.539 473.303 303.935 473.507 304.364 473.607C304.791 473.71 305.237 473.709 305.663 473.6C306.089 473.494 306.483 473.284 306.811 472.99L368.626 417.595C369.031 417.234 369.316 416.757 369.443 416.231L432.998 158.721C433.128 158.193 433.096 157.639 432.904 157.131L403.872 79.7064C403.733 79.3368 403.515 79.0021 403.232 78.7258C402.949 78.4502 402.609 78.2392 402.236 78.1098C401.861 77.9803 401.464 77.9333 401.069 77.9735C400.675 78.0144 400.294 78.1402 399.953 78.3434L399.94 78.3398Z" fill="white"/>
<path d="M552.558 329.812C552.144 330.063 551.709 330.275 551.257 330.446L473.581 359.704C472.115 360.263 470.514 360.362 468.994 359.988L211.218 297.484C209.696 297.117 208.323 296.298 207.282 295.132L152.007 233.638C151.163 232.699 150.562 231.568 150.256 230.344C149.95 229.119 149.949 227.837 150.252 226.609C150.556 225.382 151.154 224.245 151.996 223.299C152.839 222.353 153.899 221.626 155.084 221.18L232.762 191.917C234.227 191.364 235.824 191.266 237.343 191.636L495.122 254.138C496.644 254.506 498.016 255.327 499.059 256.492L554.334 317.988C555.095 318.835 555.66 319.841 555.986 320.933C556.316 322.025 556.396 323.177 556.227 324.306C556.058 325.435 555.641 326.513 555.007 327.465C554.373 328.417 553.537 329.218 552.558 329.812ZM156.394 226.142C156.058 226.351 155.77 226.63 155.553 226.961C155.335 227.293 155.193 227.667 155.136 228.058C155.079 228.449 155.109 228.847 155.223 229.226C155.337 229.604 155.533 229.952 155.797 230.246L211.071 291.745C211.435 292.148 211.912 292.431 212.44 292.56L470.215 355.064C470.744 355.195 471.3 355.16 471.809 354.966L549.487 325.705C549.899 325.551 550.268 325.297 550.56 324.967C550.852 324.64 551.06 324.245 551.165 323.819C551.27 323.391 551.27 322.947 551.165 322.521C551.057 322.096 550.85 321.702 550.556 321.376L495.282 259.882C494.92 259.475 494.442 259.191 493.913 259.061L236.134 196.559C235.607 196.428 235.052 196.463 234.544 196.656L156.866 225.916C156.703 225.978 156.545 226.054 156.394 226.142Z" fill="white"/>
<path d="M460.952 453.381C459.863 454.042 458.628 454.43 457.36 454.514C456.092 454.597 454.826 454.371 453.673 453.857L378.026 420.171C376.595 419.538 375.398 418.485 374.595 417.15L237.69 191.558C236.879 190.229 236.497 188.682 236.594 187.121L241.628 104.463C241.705 103.203 242.09 101.977 242.75 100.89C243.408 99.8042 244.324 98.89 245.413 98.2283C246.503 97.5678 247.736 97.1789 249.004 97.0954C250.273 97.0117 251.538 97.2363 252.691 97.7497L328.334 131.446C329.762 132.083 330.958 133.136 331.764 134.467L468.669 360.059C469.48 361.389 469.861 362.936 469.766 364.497L464.739 447.131C464.665 448.393 464.28 449.623 463.619 450.712C462.961 451.801 462.044 452.718 460.952 453.381ZM248.032 102.531C247.648 102.759 247.326 103.077 247.095 103.456C246.862 103.836 246.728 104.265 246.703 104.707L241.669 187.364C241.636 187.906 241.77 188.443 242.051 188.903L378.957 414.496C379.237 414.96 379.651 415.326 380.147 415.548L455.791 449.241C456.194 449.425 456.637 449.505 457.082 449.475C457.525 449.445 457.956 449.306 458.336 449.069C458.721 448.843 459.044 448.525 459.276 448.144C459.507 447.765 459.64 447.333 459.663 446.891L464.676 364.228C464.71 363.685 464.577 363.147 464.296 362.685L327.39 137.092C327.11 136.629 326.694 136.263 326.197 136.044L250.554 102.347C250.154 102.167 249.714 102.088 249.273 102.119C248.831 102.151 248.404 102.289 248.027 102.523L248.032 102.531Z" fill="white"/>
<path d="M467.499 359.738L392.339 341.534L373.785 416.61L333.769 350.673L267.524 390.875L286.079 315.804L210.923 297.608L277.168 257.406L237.152 191.467L312.312 209.665L330.866 134.594L370.883 200.533L437.124 160.334L418.571 235.407L493.725 253.601L427.484 293.8L467.499 359.738ZM393.549 336.603L456.776 351.914L423.117 296.45L400.007 310.475L393.549 336.603ZM338.134 348.024L371.793 403.488L387.405 340.332L361.246 333.998L338.134 348.024ZM367.407 330.259L388.609 335.393L393.844 314.215L367.407 330.259ZM424.861 289.459L480.588 255.64L417.359 240.332L410.903 266.459L424.861 289.459ZM401.752 303.483L420.502 292.104L409.175 273.439L401.752 303.483ZM360.419 328.567L395.588 307.224L405.453 267.306L384.21 232.303L344.246 222.624L309.07 243.972L299.203 283.891L320.447 318.897L360.419 328.567ZM335.502 343.688L354.256 332.307L324.175 325.023L335.502 343.688ZM275.42 380.151L331.147 346.332L317.188 323.331L291.03 316.997L275.42 380.151ZM391.202 233.996L407.18 260.324L412.415 239.146L391.202 233.996ZM292.244 312.052L313.447 317.186L297.469 290.857L292.244 312.052ZM387.473 227.851L413.631 234.189L429.241 171.031L373.506 204.855L387.473 227.851ZM224.073 295.541L287.307 310.882L293.763 284.751L279.796 261.737L224.073 295.541ZM350.405 218.874L380.483 226.161L369.155 207.495L350.405 218.874ZM284.156 259.079L295.483 277.745L302.909 247.698L284.156 259.079ZM343.414 217.184L366.524 203.159L332.87 147.703L317.26 210.858L343.414 217.184ZM310.797 236.978L337.254 220.922L316.05 215.789L310.797 236.978ZM281.524 254.743L304.637 240.717L311.095 214.589L247.87 199.287L281.524 254.743Z" fill="white"/>
<path d="M495.881 252.849L266.928 391.794C265.578 392.615 264.014 393.013 262.441 392.933L179.193 388.88C177.925 388.817 176.694 388.447 175.608 387.803C174.521 387.158 173.612 386.259 172.958 385.182C172.304 384.104 171.926 382.883 171.856 381.62C171.785 380.359 172.026 379.098 172.556 377.943L207.394 302.226C208.052 300.797 209.127 299.594 210.478 298.777L439.432 159.832C440.781 159.011 442.345 158.613 443.915 158.689L527.161 162.743C528.43 162.805 529.661 163.175 530.748 163.819C531.834 164.464 532.745 165.363 533.399 166.441C534.053 167.518 534.43 168.741 534.501 170.003C534.57 171.264 534.33 172.527 533.798 173.68L498.962 249.395C498.308 250.827 497.233 252.03 495.881 252.849ZM213.097 303.092C212.627 303.377 212.253 303.795 212.024 304.292L177.188 380.007C177.002 380.407 176.918 380.848 176.941 381.287C176.965 381.726 177.096 382.151 177.324 382.526C177.552 382.902 177.869 383.215 178.247 383.438C178.626 383.663 179.054 383.789 179.496 383.81L262.741 387.864C263.289 387.892 263.833 387.753 264.302 387.467L493.255 248.522C493.725 248.237 494.097 247.819 494.325 247.323L529.163 171.607C529.349 171.205 529.435 170.767 529.411 170.327C529.387 169.889 529.256 169.463 529.028 169.087C528.8 168.712 528.484 168.4 528.105 168.176C527.727 167.952 527.297 167.823 526.856 167.804L443.608 163.751C443.062 163.724 442.52 163.862 442.05 164.147L213.097 303.092Z" fill="white"/>
<path d="M264.786 89.9944L326.053 117.431C326.5 117.631 326.996 117.698 327.481 117.622C327.967 117.546 328.421 117.332 328.79 117.005L379.589 71.9255C379.85 71.6935 380.061 71.4114 380.208 71.096C380.356 70.7793 380.436 70.4379 380.445 70.091C380.454 69.7442 380.391 69.3997 380.26 69.0791C380.128 68.7586 379.932 68.4697 379.683 68.2296L312.551 3.28949C312.272 3.01757 311.932 2.81471 311.558 2.69719C311.186 2.579 310.789 2.54973 310.401 2.61013C310.014 2.67053 309.643 2.82078 309.322 3.04725C309.001 3.27372 308.736 3.57109 308.548 3.9161L263.616 86.5002C263.45 86.8051 263.349 87.1407 263.317 87.486C263.286 87.8313 263.327 88.1785 263.437 88.5061C263.546 88.8342 263.723 89.1353 263.955 89.3912C264.187 89.6473 264.469 89.8526 264.786 89.9944Z" fill="white"/>
<path d="M424.944 82.7777L448.357 145.38C448.526 145.838 448.827 146.238 449.222 146.527C449.617 146.817 450.09 146.984 450.582 147.009L518.2 150.559C518.548 150.578 518.897 150.524 519.224 150.403C519.552 150.281 519.852 150.093 520.106 149.853C520.358 149.612 520.559 149.321 520.695 149C520.831 148.68 520.899 148.335 520.895 147.989L520.038 54.5362C520.035 54.1458 519.94 53.7621 519.761 53.4177C519.584 53.0708 519.327 52.7719 519.012 52.5416C518.697 52.3123 518.332 52.1601 517.945 52.095C517.559 52.031 517.162 52.0562 516.785 52.1702L426.617 79.4785C426.285 79.5785 425.976 79.7452 425.708 79.9691C425.442 80.1917 425.223 80.4663 425.066 80.7752C424.91 81.0841 424.817 81.4215 424.797 81.7661C424.776 82.1102 424.827 82.4537 424.944 82.7777Z" fill="white"/>
<path d="M160.565 203.563L222.302 180.18C222.752 180.008 223.143 179.713 223.429 179.327C223.714 178.942 223.883 178.483 223.913 178.007L228.084 112.255C228.106 111.915 228.058 111.576 227.943 111.257C227.827 110.938 227.646 110.647 227.411 110.403C227.177 110.158 226.892 109.965 226.578 109.836C226.262 109.707 225.924 109.644 225.582 109.651L133.759 111.424C133.375 111.431 132.998 111.527 132.657 111.703C132.315 111.879 132.02 112.131 131.79 112.44C131.562 112.749 131.408 113.105 131.342 113.48C131.274 113.857 131.295 114.242 131.403 114.607L157.317 201.967C157.411 202.293 157.572 202.594 157.79 202.853C158.008 203.113 158.278 203.324 158.582 203.474C158.888 203.624 159.22 203.709 159.562 203.724C159.903 203.739 160.244 203.686 160.565 203.563Z" fill="white"/>
<path d="M165.951 364.332L194.153 303.096C194.359 302.65 194.43 302.157 194.359 301.674C194.288 301.194 194.077 300.744 193.752 300.382L148.943 250.299C148.712 250.042 148.43 249.835 148.115 249.691C147.799 249.548 147.456 249.471 147.107 249.466C146.759 249.46 146.411 249.527 146.088 249.66C145.764 249.793 145.471 249.991 145.227 250.242L79.2586 317.687C78.9836 317.969 78.7778 318.31 78.6561 318.682C78.5344 319.054 78.5011 319.448 78.5587 319.833C78.6163 320.219 78.7629 320.584 78.987 320.901C79.2118 321.219 79.5075 321.48 79.8516 321.663L162.425 365.532C162.732 365.695 163.068 365.792 163.415 365.819C163.762 365.846 164.111 365.802 164.441 365.689C164.772 365.576 165.077 365.399 165.336 365.165C165.596 364.932 165.805 364.648 165.951 364.332Z" fill="white"/>
<path d="M540.398 187.285L512.192 248.514C511.986 248.964 511.915 249.461 511.988 249.945C512.061 250.43 512.275 250.881 512.604 251.245L557.408 301.319C557.639 301.577 557.921 301.784 558.236 301.927C558.553 302.071 558.895 302.148 559.244 302.153C559.593 302.158 559.94 302.092 560.263 301.959C560.587 301.826 560.88 301.627 561.124 301.377L627.089 233.937C627.365 233.655 627.571 233.315 627.693 232.942C627.815 232.57 627.848 232.176 627.791 231.79C627.733 231.405 627.588 231.039 627.364 230.721C627.139 230.403 626.843 230.143 626.498 229.959L543.931 186.099C543.626 185.934 543.29 185.833 542.943 185.806C542.595 185.777 542.245 185.819 541.914 185.93C541.582 186.042 541.277 186.219 541.016 186.452C540.755 186.687 540.544 186.969 540.398 187.285Z" fill="white"/>
<path d="M315.76 139.166L258.774 113.794C258.187 113.538 257.545 113.428 256.902 113.473C256.26 113.517 255.636 113.716 255.084 114.051C254.53 114.387 254.067 114.848 253.73 115.398C253.394 115.947 253.195 116.567 253.152 117.205L249.348 179.469C248.655 185.343 254.56 186.738 257.911 187.531L279.506 192.643C279.77 192.704 280.043 192.705 280.307 192.644C280.572 192.585 280.82 192.465 281.032 192.296C281.243 192.125 281.414 191.911 281.53 191.666C281.646 191.421 281.703 191.155 281.7 190.886L281.23 160.091C281.225 159.784 281.303 159.48 281.453 159.209C281.604 158.939 281.824 158.712 282.089 158.551C282.355 158.39 282.658 158.3 282.967 158.291C283.276 158.282 283.581 158.354 283.851 158.5L310.951 173.134C311.188 173.261 311.45 173.333 311.721 173.344C311.992 173.354 312.261 173.302 312.51 173.193C312.758 173.083 312.979 172.919 313.153 172.71C313.329 172.504 313.455 172.261 313.522 172L318.958 150.483C319.804 147.143 321.384 141.946 315.76 139.166Z" fill="white"/>
<path d="M477.251 346.052L536.455 323.601C537.06 323.367 537.602 322.99 538.033 322.507C538.464 322.02 538.771 321.442 538.93 320.817C539.087 320.192 539.092 319.542 538.942 318.92C538.791 318.299 538.49 317.725 538.066 317.248L496.302 270.996C492.603 266.399 487.352 269.589 484.368 271.399L465.15 283.062C464.918 283.203 464.719 283.396 464.572 283.625C464.423 283.853 464.33 284.11 464.298 284.38C464.267 284.648 464.298 284.919 464.39 285.171C464.481 285.424 464.63 285.651 464.824 285.836L487.176 307.048C487.399 307.258 487.563 307.527 487.648 307.822C487.734 308.117 487.738 308.433 487.661 308.733C487.586 309.034 487.431 309.31 487.213 309.534C486.996 309.759 486.723 309.924 486.424 310.012L456.432 318.896C456.171 318.974 455.93 319.108 455.728 319.292C455.526 319.475 455.369 319.702 455.268 319.954C455.169 320.206 455.126 320.476 455.149 320.745C455.171 321.013 455.255 321.272 455.395 321.502L466.857 340.389C468.631 343.325 471.207 348.07 477.251 346.052Z" fill="white"/>
<path d="M423.507 151.072L401.771 92.6711C401.544 92.0734 401.175 91.5424 400.693 91.1211C400.211 90.7013 399.632 90.4047 399.004 90.257C398.378 90.1087 397.722 90.1149 397.094 90.2734C396.464 90.4319 395.882 90.7389 395.395 91.1674L348.138 133.308C343.447 137.049 346.581 142.213 348.361 145.146L359.824 164.035C359.964 164.266 360.156 164.458 360.384 164.602C360.613 164.745 360.871 164.833 361.141 164.861C361.411 164.888 361.685 164.853 361.941 164.759C362.197 164.664 362.429 164.512 362.618 164.316L384.34 141.816C384.557 141.592 384.828 141.428 385.127 141.338C385.426 141.25 385.743 141.241 386.045 141.312C386.346 141.383 386.623 141.532 386.846 141.744C387.069 141.955 387.232 142.223 387.316 142.518L395.813 172.143C395.888 172.4 396.021 172.637 396.202 172.835C396.387 173.032 396.611 173.184 396.864 173.28C397.117 173.375 397.39 173.412 397.66 173.386C397.932 173.36 398.194 173.274 398.427 173.132L417.642 161.472C420.631 159.675 425.457 157.052 423.507 151.072Z" fill="white"/>
<path d="M490.396 237.345L516.725 180.415C516.991 179.83 517.111 179.192 517.075 178.554C517.039 177.916 516.847 177.299 516.517 176.755C516.187 176.211 515.728 175.756 515.178 175.43C514.63 175.104 514.008 174.914 513.366 174.88L450.711 171.951C444.807 171.341 443.322 177.225 442.475 180.564L437.033 202.076C436.967 202.339 436.963 202.61 437.02 202.872C437.077 203.133 437.194 203.378 437.361 203.586C437.53 203.795 437.745 203.961 437.989 204.073C438.234 204.184 438.502 204.238 438.772 204.23L469.793 203.344C470.103 203.335 470.409 203.408 470.68 203.553C470.95 203.698 471.176 203.915 471.335 204.176C471.494 204.439 471.581 204.738 471.585 205.045C471.59 205.353 471.513 205.657 471.361 205.928L456.252 233.033C456.12 233.27 456.044 233.532 456.03 233.801C456.017 234.069 456.065 234.337 456.172 234.582C456.279 234.827 456.442 235.043 456.648 235.214C456.854 235.386 457.097 235.509 457.36 235.57L478.954 240.675C482.309 241.468 487.515 242.959 490.396 237.345Z" fill="white"/>
<path d="M230.273 207.283L172.178 229.524C171.585 229.757 171.052 230.126 170.627 230.6C170.201 231.074 169.895 231.638 169.736 232.245C169.576 232.852 169.567 233.483 169.709 234.086C169.85 234.688 170.14 235.242 170.551 235.703L211.052 280.252C214.634 284.681 219.799 281.547 222.73 279.768L241.622 268.303C241.851 268.164 242.047 267.975 242.192 267.753C242.338 267.53 242.431 267.279 242.465 267.018C242.498 266.758 242.47 266.497 242.382 266.251C242.296 266.007 242.152 265.788 241.963 265.61L220.256 245.202C220.041 244.998 219.884 244.74 219.802 244.454C219.723 244.167 219.72 243.863 219.797 243.572C219.875 243.279 220.027 243.01 220.241 242.79C220.456 242.571 220.723 242.409 221.016 242.32L250.43 233.469C250.686 233.392 250.924 233.258 251.122 233.079C251.321 232.898 251.476 232.678 251.576 232.432C251.677 232.187 251.719 231.925 251.7 231.664C251.681 231.404 251.601 231.153 251.466 230.932L240.399 212.695C238.681 209.864 236.196 205.281 230.273 207.283Z" fill="white"/>
<path d="M296.525 226.615L295.282 231.809C294.837 233.667 293.676 235.265 292.052 236.253L287.472 239.032C286.49 239.628 285.309 239.805 284.187 239.524C283.068 239.243 282.1 238.528 281.498 237.536L269.885 218.401C269.713 218.116 269.628 217.79 269.642 217.46C269.655 217.13 269.765 216.811 269.958 216.546C270.151 216.279 270.418 216.079 270.728 215.966C271.035 215.854 271.371 215.837 271.692 215.915L293.296 221.319C293.854 221.456 294.379 221.701 294.844 222.041C295.308 222.381 295.702 222.81 296.001 223.303C296.301 223.795 296.501 224.34 296.592 224.909C296.682 225.478 296.66 226.058 296.525 226.615Z" fill="white"/>
<path d="M349.179 200.135L344.63 202.895C343.004 203.879 341.067 204.202 339.244 203.791L334.109 202.631C333.563 202.508 333.051 202.28 332.6 201.959C332.151 201.638 331.773 201.231 331.488 200.761C331.202 200.291 331.015 199.767 330.937 199.22C330.86 198.672 330.895 198.112 331.038 197.57L336.59 176.502C336.673 176.191 336.847 175.907 337.091 175.688C337.334 175.468 337.635 175.322 337.958 175.27C338.28 175.216 338.608 175.256 338.901 175.386C339.193 175.517 339.437 175.731 339.602 176.001L350.712 194.308C350.997 194.778 351.184 195.301 351.262 195.848C351.338 196.395 351.305 196.955 351.163 197.495C351.019 198.037 350.771 198.549 350.431 199.001C350.09 199.455 349.665 199.84 349.179 200.135Z" fill="white"/>
<path d="M403.218 219.369L398.025 218.127C396.167 217.679 394.569 216.517 393.581 214.892L390.802 210.312C390.205 209.329 390.029 208.148 390.309 207.028C390.589 205.908 391.304 204.941 392.296 204.339L411.432 192.726C411.716 192.552 412.044 192.467 412.375 192.481C412.705 192.493 413.023 192.604 413.289 192.797C413.555 192.991 413.756 193.259 413.868 193.568C413.98 193.878 413.995 194.214 413.914 194.533L408.514 216.14C408.376 216.697 408.131 217.222 407.79 217.686C407.45 218.149 407.02 218.542 406.529 218.842C406.037 219.142 405.492 219.343 404.924 219.434C404.355 219.524 403.777 219.502 403.218 219.369Z" fill="white"/>
<path d="M428.009 271.613L425.248 267.064C424.262 265.437 423.967 263.482 424.428 261.628L425.731 256.405C426.009 255.285 426.724 254.318 427.715 253.716C428.707 253.115 429.895 252.927 431.017 253.197L452.674 258.394C452.996 258.47 453.287 258.64 453.51 258.883C453.733 259.125 453.879 259.428 453.926 259.754C453.976 260.079 453.925 260.413 453.784 260.712C453.643 261.011 453.416 261.262 453.131 261.433L433.993 273.047C433.003 273.648 431.816 273.835 430.693 273.567C429.571 273.297 428.605 272.595 428.009 271.613Z" fill="white"/>
<path d="M277.286 280.655L280.044 285.201C281.03 286.827 281.352 288.765 280.942 290.588L279.782 295.723C279.532 296.826 278.859 297.768 277.911 298.343C276.962 298.919 275.816 299.081 274.723 298.793L253.655 293.242C253.343 293.158 253.059 292.985 252.838 292.741C252.617 292.498 252.472 292.195 252.417 291.873C252.364 291.55 252.406 291.222 252.536 290.929C252.667 290.635 252.881 290.391 253.153 290.227L271.461 279.116C272.411 278.541 273.557 278.381 274.649 278.671C275.741 278.959 276.689 279.672 277.286 280.655Z" fill="white"/>
<path d="M353 297.606L377.879 282.507L373.883 275.921L380.469 271.924L365.37 247.045L358.784 251.042L354.786 244.455L329.907 259.554L333.904 266.141L327.318 270.138L342.416 295.017L349.003 291.02L353 297.606Z" fill="white"/>
</svg>
