<svg width="39" height="39" viewBox="0 0 39 39" fill="none" xmlns="http://www.w3.org/2000/svg">
<g clip-path="url(#clip0_3705_70537)">
<path fill-rule="evenodd" clip-rule="evenodd" d="M4.07281 19.2487C4.07281 10.8673 10.8674 4.07274 19.2487 4.07274C27.6301 4.07274 34.4246 10.8673 34.4246 19.2487C34.4246 27.6301 27.6301 34.4246 19.2487 34.4246C10.8673 34.4246 4.07281 27.6301 4.07281 19.2487ZM38.4973 19.2487C38.4973 8.61809 29.8791 0 19.2487 0C8.61814 0 0 8.61809 0 19.2487C0 29.8793 8.61814 38.4973 19.2487 38.4973C29.8791 38.4973 38.4973 29.8791 38.4973 19.2487Z" fill="white"/>
<path fill-rule="evenodd" clip-rule="evenodd" d="M16.6878 9.77698C16.8644 8.99028 16.9773 8.34003 17.5377 7.84069C17.768 7.63553 18.0893 7.47566 18.4164 7.32781C18.9819 7.07221 19.0216 6.92063 19.257 6.83399C19.5957 7.06857 19.6527 7.16322 20.1231 7.35973C21.0749 7.75726 21.4034 8.35409 21.6397 9.32074C21.6815 9.49161 21.7 9.73548 21.809 9.878C22.7285 9.82829 24.4296 9.64719 24.723 10.7193C24.4167 10.897 24.2189 10.8233 23.8889 11.1159C23.2192 11.71 23.1259 12.9885 23.2387 13.8714C23.5185 16.0636 24.0645 15.973 24.7213 17.0423C24.4148 17.4876 23.2108 18.0469 22.4991 18.2542C21.1246 18.6547 19.8992 18.8066 19.6209 20.5317C19.3534 22.1904 20.1916 22.5808 20.8674 21.5521C21.4181 20.7139 21.1478 19.64 20.5619 20.4938C20.3945 20.7377 20.4741 20.9127 20.3326 21.1901C19.4984 21.4103 19.5879 20.2527 20.8829 19.5965C21.4992 19.2842 22.5742 18.9716 23.258 18.8478C23.0906 19.2874 21.7739 21.2057 21.4373 21.6598C21.0184 22.2246 19.6262 23.7589 19.0249 23.8021C18.8052 23.5882 18.5004 23.2734 18.3318 22.9593C18.4031 22.7386 18.7684 22.3601 18.935 21.9971C19.6291 20.4851 19.3559 19.3767 19.3723 17.8537C19.7496 18.0371 20.5268 18.801 21.3131 18.2885C22.1679 17.7314 21.9929 16.0057 21.8174 15.0071C21.7217 14.4628 21.8928 14.538 22.1621 14.1467C22.4754 13.6918 22.9171 12.9669 22.8425 12.1865C22.664 12.3497 22.0005 13.6826 21.4612 13.9122C20.8595 12.9805 20.1316 12.244 18.5167 12.435C16.9825 12.6166 15.9605 13.5128 15.4282 13.7288C15.2937 13.5814 14.9074 12.8016 14.8106 12.5957C14.6976 12.9885 14.6172 13.586 14.5353 14.0041C14.3992 14.6979 14.3634 14.5901 13.9795 15.072C12.2259 17.2731 11.3761 19.2768 11.1817 22.2054C10.9249 22.4074 10.156 22.5389 10.0469 22.8076L11.2595 22.9506C11.6886 25.0578 13.3007 26.9852 15.7762 26.9788L16.5303 26.9665C16.6774 27.2291 16.7679 27.7003 16.9807 28.0783C17.3658 28.7625 18.1238 29.0333 18.6218 29.5107C18.9435 29.8192 19.0033 30.014 19.2448 30.372C19.7727 29.3808 19.9577 29.4696 20.8098 28.8044C21.8698 27.9767 21.6746 27.4239 21.9835 26.89L22.7373 26.9614C24.7792 27.0586 26.4456 25.6049 26.9779 24.0658C28.013 21.0717 26.5308 19.0892 26.4415 18.3031L26.7251 18.1446L26.5486 15.8485C26.2031 15.899 25.7463 16.3708 25.3887 16.5367C24.9264 15.6371 22.8891 13.8514 23.69 12.5418C23.9612 12.0982 24.3979 12.0332 25.094 11.974C25.3646 11.0719 24.9232 9.794 24.5036 9.3011C23.6693 8.32094 22.792 8.56724 21.9929 8.50654C21.5669 7.44266 21.5604 7.2213 20.7327 6.57503C20.1293 6.104 19.6773 5.71918 19.266 4.90332L18.5589 5.84525C17.4551 7.07028 17.3084 6.3258 16.4721 8.46381C15.4179 8.43961 14.396 8.42724 13.7255 9.42432C13.418 9.88149 13.0322 11.0889 13.2595 11.8269C13.3531 12.0192 13.7903 12.0183 14.0945 12.1668C14.3633 12.2982 14.4615 12.6608 14.6521 12.7384C14.7902 10.8499 14.3821 11.2005 13.6321 10.7195C13.8002 10.3445 14.3054 9.87371 14.7999 9.74534C15.4721 9.57084 16.0773 9.80534 16.6878 9.77698ZM21.0933 14.258C20.9228 14.4355 19.5932 15.5527 19.373 15.6079C19.07 15.395 18.3233 13.7814 18.3406 13.4088C19.3256 13.2967 20.8737 13.551 21.0933 14.258ZM15.8012 14.432C16.0615 14.1661 17.6221 13.4578 18.1153 13.4844C18.2167 14.2901 18.039 15.2493 18.2546 15.9532C18.3442 16.2456 18.4523 16.343 18.5432 16.5783C18.2766 17.1092 17.8698 17.3631 17.5327 18.4473C17.1408 19.7075 17.3591 20.2951 17.2493 21.0682C16.8583 21.1295 16.4421 21.0846 16.0773 21.0392C16.4568 19.8683 16.6867 19.0913 16.5537 17.657C16.4991 17.068 16.4223 16.5017 16.29 15.9539C16.1292 15.2879 15.8868 14.7652 15.8012 14.432ZM20.0386 16.0893C20.3536 15.8604 21.179 15.0698 21.47 14.99C21.4862 15.7466 20.7759 16.444 20.0386 16.0893ZM13.9144 20.929C13.7127 21.1224 12.3205 21.8896 12.0449 21.8763C11.776 20.5982 11.9031 19.2956 12.3834 18.2326C12.7116 17.5061 13.596 16.0738 14.1428 15.652C13.9886 17.0995 13.6159 17.8179 13.7054 19.6543C13.7319 20.1978 13.8585 20.5103 13.9144 20.929ZM14.8483 20.2376C13.9535 19.3006 14.013 16.9185 14.4983 15.5903C14.6053 15.2976 14.6143 15.1941 14.7903 15.0516C15.2338 15.3204 16.1617 16.8494 16.2384 17.6232C16.3357 18.6039 15.4206 20.1376 14.8483 20.2376ZM17.6947 20.8628C17.5684 19.5222 18.2357 18.041 18.8875 17.3519C19.2146 18.7414 18.7956 20.5494 17.6947 20.8628ZM21.0511 24.7088C21.1459 24.4601 21.9863 23.5092 22.2363 23.1533C22.9248 22.1734 24.8759 18.9347 25.986 18.6351L26.1364 18.8637C26.371 19.4519 26.3112 20.6037 26.2044 21.2014C25.7814 23.5684 23.4133 25.1756 21.0511 24.7088ZM12.5241 22.854C14.0193 22.8139 14.4186 22.5744 14.8032 22.5512C15.3211 23.2219 16.7739 23.809 17.8675 23.2107C18.0143 23.3696 18.302 23.9205 18.3485 24.1942C17.1905 24.5113 16.2833 24.7993 14.9186 24.5073C14.0073 24.3124 12.6326 23.63 12.5241 22.854ZM19.2571 28.665C19.0568 28.5908 19.0898 28.5647 18.9316 28.4471C18.2597 27.9477 17.1533 27.7529 16.7761 26.9619C16.9875 26.8169 18.2033 26.7196 19.3686 26.0269C19.8751 25.7261 19.9496 26.0218 20.4924 26.3069L21.737 26.8459C21.6249 27.3787 20.5154 27.8912 19.9337 28.2151C19.651 28.3727 19.4841 28.5305 19.2571 28.665Z" fill="white"/>
<path fill-rule="evenodd" clip-rule="evenodd" d="M15.7735 12.9159C15.939 12.797 16.2191 12.4583 16.3645 12.2954C17.8484 10.6347 20.1483 10.2776 20.346 8.1665C20.1616 8.2495 19.9241 8.59996 19.7482 8.77561C18.2266 10.2956 15.8535 11.0694 15.7735 12.9159Z" fill="white"/>
<path fill-rule="evenodd" clip-rule="evenodd" d="M23.3653 16.5035C23.1573 16.605 23.1236 16.8378 22.9171 16.6903C22.7726 16.5871 22.7667 16.3466 22.7985 16.125C22.848 15.7801 23.052 15.3239 23.0049 14.9824C22.649 15.3752 21.9482 17.1637 22.731 17.5006C23.1556 17.4479 23.379 16.9956 23.3653 16.5035Z" fill="white"/>
<path fill-rule="evenodd" clip-rule="evenodd" d="M21.4348 11.0877C21.2393 11.1796 21.281 11.4078 21.0348 11.3144C20.5192 11.1191 21.1871 10.1043 21.0851 9.57812C20.8321 9.83372 20.4195 11.0042 20.4466 11.5346C20.5014 12.6086 21.645 11.8894 21.4348 11.0877Z" fill="white"/>
<path fill-rule="evenodd" clip-rule="evenodd" d="M13.3902 19.4973C13.1918 19.5617 13.2324 19.8104 12.957 19.6893C12.5137 19.4944 13.0734 18.4667 13.052 17.96C12.6947 18.2947 12.3704 19.5154 12.4004 19.9413C12.482 21.1029 13.6422 20.1063 13.3902 19.4973Z" fill="white"/>
<path fill-rule="evenodd" clip-rule="evenodd" d="M24.3403 22.2533C23.8529 21.6378 24.6156 20.8464 24.4138 20.4863C24.2573 20.6416 23.4602 22.2386 23.9589 22.942C24.5707 23.0422 24.7782 22.6102 24.7752 22.0661C24.58 22.15 24.6987 22.1274 24.5749 22.1893C24.4495 22.2522 24.5844 22.2429 24.3403 22.2533Z" fill="white"/>
<path fill-rule="evenodd" clip-rule="evenodd" d="M22.5078 23.6555C22.6017 23.8373 22.792 24.041 23.0239 24.1282C23.2101 24.0367 23.422 23.7842 23.5102 23.5395C23.3658 23.3391 23.1538 23.1291 22.9518 23.0674C22.8164 23.2753 22.6365 23.4458 22.5078 23.6555Z" fill="white"/>
<path fill-rule="evenodd" clip-rule="evenodd" d="M16.8125 15.8818L17.3244 16.3572C17.8077 15.959 18.0307 15.6091 17.2794 15.2783C17.0908 15.3992 16.9344 15.6527 16.8125 15.8818Z" fill="white"/>
<path fill-rule="evenodd" clip-rule="evenodd" d="M25.4594 21.2795C25.5769 21.0613 25.7935 20.8947 25.8671 20.6392C25.7303 20.4976 25.5248 20.2561 25.3413 20.1973C24.8374 20.6648 24.75 20.9745 25.4594 21.2795Z" fill="white"/>
<path fill-rule="evenodd" clip-rule="evenodd" d="M18.5004 8.02742C18.289 8.14207 18.0537 8.46116 17.9766 8.63868L18.5004 9.09305C18.7094 8.95097 18.9196 8.69312 18.9756 8.45659C18.8289 8.28787 18.7045 8.15208 18.5004 8.02742Z" fill="white"/>
<path fill-rule="evenodd" clip-rule="evenodd" d="M14.1328 23.7329C14.3107 23.8641 14.4286 24.0319 14.6702 24.1076C14.8405 24.0051 15.0498 23.7722 15.0844 23.4811L14.629 23.0332C14.4475 23.1627 14.1774 23.505 14.1328 23.7329Z" fill="white"/>
<path fill-rule="evenodd" clip-rule="evenodd" d="M19.9357 27.1359C19.8246 26.9826 19.6374 26.792 19.4234 26.6475C19.2124 26.7855 18.9794 27.0494 18.8984 27.2519C19.0732 27.4215 19.1945 27.5658 19.4375 27.7169L19.9357 27.1359Z" fill="white"/>
<path fill-rule="evenodd" clip-rule="evenodd" d="M19.2511 11.8661C19.4648 11.733 19.6084 11.4953 19.7659 11.2833L19.2511 10.7954C19.0718 10.9325 18.8172 11.19 18.7344 11.4155C18.9135 11.6223 19.0864 11.7543 19.2511 11.8661Z" fill="white"/>
<path fill-rule="evenodd" clip-rule="evenodd" d="M14.6406 17.729C14.7444 17.9081 15.0311 18.1246 15.1882 18.2182C15.361 18.0951 15.5491 17.825 15.6186 17.5644C15.4853 17.3666 15.3159 17.2566 15.1302 17.1172L14.6406 17.729Z" fill="white"/>
<path fill-rule="evenodd" clip-rule="evenodd" d="M21.9844 11.1834C22.5547 12.0725 22.9202 11.1566 22.9523 11.0094C22.8084 10.8652 22.6484 10.6715 22.4451 10.5889C22.3094 10.6828 22.0348 10.9838 21.9844 11.1834Z" fill="white"/>
<path fill-rule="evenodd" clip-rule="evenodd" d="M16.0001 10.7774C15.9092 10.6451 15.6591 10.4012 15.4842 10.3257C15.3237 10.4717 15.0857 10.7205 15.0312 10.9514C15.133 11.1424 15.3393 11.3015 15.5497 11.3612L16.0001 10.7774Z" fill="white"/>
<path d="M33.4262 11.0774C33.4296 11.0941 33.4367 11.1147 33.4475 11.1387C33.458 11.1628 33.4698 11.1858 33.4824 11.2078C33.525 11.2815 33.5797 11.3278 33.6469 11.3465C33.7142 11.3652 33.8002 11.3443 33.9054 11.2837C33.9603 11.2521 34.0016 11.2199 34.0299 11.187C34.0578 11.1542 34.0755 11.1215 34.083 11.089C34.0904 11.0566 34.0894 11.0238 34.0796 10.9907C34.0699 10.9577 34.0553 10.9239 34.0352 10.8894C34.0255 10.8721 34.0101 10.8512 33.9898 10.8264C33.9693 10.8017 33.9539 10.786 33.9439 10.7793L33.4262 11.0774ZM34.6384 9.98422L34.8093 10.2805L34.2164 10.622C34.2234 10.6305 34.2329 10.6413 34.2444 10.6543C34.2562 10.6675 34.2678 10.6822 34.2793 10.6985C34.2909 10.7149 34.3029 10.732 34.3152 10.7499C34.3276 10.7678 34.3378 10.7839 34.346 10.7979C34.384 10.8638 34.412 10.9306 34.4302 10.9985C34.4484 11.0663 34.4508 11.1335 34.4366 11.2C34.4228 11.2665 34.3892 11.3322 34.336 11.3975C34.2827 11.4626 34.2033 11.5255 34.0984 11.5861C33.9103 11.6944 33.7416 11.731 33.5928 11.6956C33.4442 11.6602 33.313 11.5445 33.2001 11.3485C33.1904 11.3312 33.1765 11.3063 33.1588 11.2737C33.1411 11.2411 33.1226 11.2053 33.1031 11.1663C33.0838 11.1273 33.0656 11.0867 33.0484 11.0443C33.0315 11.0019 33.0174 10.9621 33.0061 10.9246L34.6384 9.98422ZM33.9541 9.48647L33.7873 9.2521C33.4999 9.44125 33.2558 9.59383 33.0554 9.70999C32.8549 9.82615 32.6873 9.89429 32.5528 9.91451C32.5048 9.92201 32.4615 9.92242 32.4222 9.91585C32.3832 9.90928 32.3491 9.89906 32.3203 9.88508C32.2916 9.87114 32.2662 9.8542 32.2443 9.83428C32.2223 9.81434 32.2046 9.79484 32.191 9.77564C32.1689 9.74471 32.152 9.71556 32.1404 9.68833C32.1289 9.66105 32.1206 9.63348 32.1163 9.60548L32.3906 9.45696C32.3991 9.49084 32.4176 9.5176 32.4461 9.53734C32.4746 9.55705 32.5143 9.56211 32.5652 9.55248C32.6103 9.54704 32.6688 9.52869 32.741 9.49741C32.8131 9.46604 32.9019 9.42003 33.0074 9.35925C33.1131 9.29853 33.2355 9.22246 33.3746 9.13102C33.514 9.03965 33.6747 8.93134 33.8566 8.80628L34.4092 9.58241L32.8613 10.6845L32.6629 10.4058L33.9544 9.48632L33.9541 9.48647ZM33.0697 8.26439C33.0641 8.24817 33.0566 8.23315 33.0482 8.21922C33.0394 8.20531 33.0279 8.18909 33.0133 8.17058C32.9909 8.14215 32.9658 8.11823 32.9378 8.09872C32.9098 8.07929 32.879 8.06787 32.8452 8.06451C32.8115 8.06115 32.7748 8.06643 32.7351 8.08037C32.6955 8.09428 32.6522 8.11972 32.6052 8.15665C32.5156 8.22715 32.4666 8.29732 32.4581 8.36725C32.4499 8.43711 32.4702 8.50333 32.5195 8.56598L32.5834 8.64705L33.0697 8.26439ZM32.0247 9.52169L31.8132 9.25287L32.4083 8.78462L32.2772 8.70126L31.5363 8.90077L31.2929 8.59146L31.9921 8.43524L32.1612 8.47474C32.1232 8.3826 32.1206 8.28338 32.1532 8.17708C32.1861 8.0708 32.2672 7.96678 32.3965 7.86491C32.4874 7.79333 32.5736 7.74626 32.655 7.72376C32.7363 7.70125 32.8138 7.69891 32.8878 7.71675C32.9617 7.73461 33.0325 7.76983 33.1005 7.82241C33.1683 7.875 33.233 7.94034 33.2946 8.01857C33.3089 8.03707 33.3264 8.06071 33.3469 8.08958C33.3672 8.11843 33.3872 8.14823 33.4067 8.17887C33.4262 8.20959 33.4444 8.24073 33.4614 8.27237C33.4781 8.30402 33.4922 8.33273 33.5032 8.35853L32.0247 9.52169ZM32.0739 7.13444L31.875 6.92643C31.6176 7.15479 31.3982 7.34081 31.2162 7.48453C31.0345 7.62818 30.8785 7.7197 30.7483 7.75897C30.7019 7.77326 30.6588 7.77999 30.6192 7.77906C30.5795 7.77811 30.5446 7.7729 30.514 7.76325C30.4835 7.75363 30.456 7.74049 30.4314 7.72391C30.4067 7.70733 30.3865 7.69055 30.3703 7.67356C30.3439 7.64604 30.3231 7.61969 30.3077 7.59441C30.2923 7.56905 30.2805 7.5429 30.272 7.51582L30.522 7.32952C30.5353 7.3618 30.5576 7.38567 30.5884 7.4011C30.6195 7.41652 30.6595 7.4158 30.7086 7.39902C30.7524 7.38724 30.8076 7.36068 30.8746 7.3193C30.9413 7.27793 31.0227 7.21965 31.1184 7.14437C31.2142 7.06915 31.3245 6.97627 31.4492 6.86583C31.574 6.75539 31.7174 6.62525 31.8796 6.47531L32.5377 7.16421L31.1639 8.47689L30.9277 8.22959L32.0739 7.13444ZM30.0248 6.40094L30.2628 6.60731L30.4706 6.20201L30.6336 5.94805L30.6254 5.941L30.3931 6.13828L30.0248 6.40094ZM30.1262 6.85557L29.788 6.56196L29.4192 6.81699L29.163 6.59453L30.8335 5.51052L31.0366 5.68668L30.2004 7.49488L29.9296 7.26002L30.1262 6.85557ZM28.9415 5.25087L29.1417 4.24642L29.4777 4.48623L29.3409 5.05584L29.2631 5.25372L29.4227 5.1142L29.926 4.80653L30.2266 5.02114L29.3414 5.51316L29.1399 6.58003L28.815 6.34809L28.9467 5.7249L29.0234 5.51945L28.8561 5.66017L28.3091 5.98683L28.0022 5.76755L28.9415 5.25087ZM27.5579 4.26336L27.4668 4.5023L27.4786 4.5091L27.6396 4.30114L28.2355 3.69881L28.5409 3.87541L27.5169 4.80091C27.4371 4.8739 27.3657 4.93562 27.3031 4.98613C27.2405 5.03664 27.1814 5.07527 27.1265 5.10193C27.0713 5.12857 27.0192 5.14184 26.9702 5.14171C26.9212 5.14156 26.8701 5.12606 26.8167 5.09529C26.7744 5.07085 26.7403 5.04586 26.7143 5.02034C26.6882 4.99483 26.6651 4.96162 26.6448 4.92061L26.8616 4.71368C26.8765 4.7389 26.8912 4.75846 26.906 4.77232C26.9212 4.78618 26.9376 4.79932 26.9553 4.81177C27.0133 4.84526 27.0878 4.80881 27.1786 4.70246L27.3706 3.1987L27.7209 3.40115L27.5579 4.26336ZM26.9938 3.38657L26.5832 3.20091L25.93 4.64538L25.6183 4.50445L26.2716 3.05998L25.861 2.87432L25.9906 2.58744L27.1234 3.09969L26.9938 3.38657ZM24.697 3.12391C24.7061 3.13084 24.7243 3.14049 24.7516 3.15276C24.779 3.16505 24.7978 3.17291 24.8081 3.1765C24.8457 3.18941 24.8834 3.19662 24.9211 3.19821C24.9589 3.1997 24.9953 3.19264 25.0304 3.17691C25.0654 3.16121 25.0982 3.13421 25.1286 3.09584C25.159 3.05747 25.1857 3.00498 25.2086 2.93818C25.228 2.88169 25.2372 2.83131 25.2362 2.78688C25.2352 2.74253 25.2262 2.70452 25.2094 2.67288C25.1925 2.64123 25.1696 2.61467 25.1406 2.59324C25.1116 2.57181 25.0792 2.55487 25.0432 2.54251C24.9901 2.5243 24.945 2.51358 24.9079 2.51037L24.697 3.12391ZM24.6727 2.14248C24.739 2.14998 24.8103 2.16256 24.8865 2.18013C24.9627 2.1977 25.0376 2.2192 25.1112 2.24449C25.1899 2.27156 25.2649 2.30549 25.336 2.34621C25.4072 2.38693 25.4653 2.43893 25.5105 2.50237C25.5558 2.56573 25.5838 2.6428 25.5946 2.73368C25.6055 2.82446 25.5895 2.93233 25.5466 3.05726C25.5077 3.17021 25.4589 3.26063 25.4002 3.32844C25.3415 3.3963 25.277 3.44585 25.2069 3.47729C25.1367 3.50866 25.0632 3.52359 24.9863 3.52203C24.9094 3.52044 24.8341 3.50701 24.7605 3.48166C24.7536 3.4793 24.7425 3.47552 24.7271 3.47024C24.7117 3.46495 24.6956 3.45887 24.6788 3.45214C24.662 3.44544 24.6457 3.43836 24.6301 3.43107C24.6144 3.42378 24.6034 3.41809 24.5972 3.41408L24.3845 4.03271L24.061 3.92148L24.6727 2.14248ZM23.2589 2.96312L23.5657 3.03391L23.5594 2.57838L23.5842 2.27771L23.5736 2.27528L23.4609 2.55851L23.2589 2.96312ZM23.5616 3.31715L23.1251 3.21641L22.9191 3.6146L22.5885 3.5383L23.5558 1.79753L23.8176 1.85796L23.9269 3.84718L23.5777 3.76661L23.5616 3.31715ZM22.0559 3.11655L22.2826 1.86653L21.9861 1.81282C21.92 2.12634 21.8512 2.387 21.7795 2.59473C21.7078 2.80238 21.6469 2.94862 21.5966 3.03334L22.0559 3.11655ZM22.4681 3.85618L22.2304 3.81304L22.2589 3.47337L21.2973 3.29908L21.2047 3.62718L20.967 3.58401L21.0837 2.94033L21.2467 2.9699C21.261 2.95227 21.2854 2.91069 21.3203 2.84532C21.3552 2.77988 21.3956 2.6861 21.4417 2.56387C21.4878 2.44165 21.5353 2.28842 21.5843 2.10419C21.6333 1.91997 21.68 1.70038 21.7245 1.44543L22.6753 1.6178L22.3925 3.17763L22.5848 3.21248L22.4681 3.85618ZM20.5887 2.44186L20.0718 2.4025L20.0108 3.20371L19.6698 3.17778L19.8139 1.28313L20.1549 1.30906L20.0956 2.08862L20.6126 2.12791L20.6719 1.34842L21.0129 1.37435L20.8687 3.269L20.5277 3.24308L20.5887 2.44186ZM18.6511 2.49051L18.9658 2.48179L18.845 2.04255L18.7933 1.74524L18.7825 1.74552L18.7447 2.04797L18.6511 2.49051ZM19.0332 2.75688L18.5855 2.76933L18.4863 3.20656L18.1471 3.216L18.6449 1.2877L18.9135 1.28027L19.5202 3.17791L19.162 3.18785L19.0332 2.75688ZM18.0819 1.61359L17.6347 1.6693L17.8306 3.24243L17.4912 3.2847L17.2954 1.71159L16.8482 1.76724L16.8093 1.45479L18.0431 1.30113L18.0819 1.61359ZM16.9516 3.26599C16.9124 3.31358 16.8557 3.35328 16.7815 3.38516C16.7072 3.41701 16.6318 3.43987 16.5552 3.45373C16.4591 3.47116 16.3666 3.47088 16.2779 3.45301C16.1891 3.43508 16.1066 3.39345 16.0304 3.32821C15.9542 3.26292 15.887 3.17121 15.8288 3.05305C15.7706 2.93489 15.725 2.78496 15.6921 2.6033C15.6579 2.41457 15.6495 2.25421 15.667 2.12234C15.6845 1.99047 15.7189 1.8816 15.7705 1.79596C15.8221 1.71031 15.887 1.64473 15.9652 1.5993C16.0434 1.55387 16.1252 1.52336 16.2107 1.50786C16.2979 1.49208 16.3754 1.48536 16.4429 1.48779C16.5105 1.49029 16.5664 1.49672 16.6105 1.50708L16.5975 1.81567C16.5605 1.80396 16.5184 1.79739 16.4711 1.79581C16.424 1.79424 16.3692 1.7991 16.3069 1.81039C16.184 1.83267 16.0994 1.90318 16.0528 2.02197C16.0063 2.14077 16.0037 2.31407 16.045 2.54201C16.0628 2.63995 16.0866 2.72811 16.1164 2.80631C16.1463 2.88461 16.183 2.95011 16.2266 3.0029C16.2701 3.0557 16.3203 3.09348 16.3768 3.11634C16.4334 3.13921 16.4972 3.14414 16.5684 3.13128C16.6307 3.11999 16.6827 3.10184 16.7241 3.07684C16.7655 3.05185 16.802 3.02454 16.8334 2.9949L16.9516 3.26599ZM13.9943 3.05634C14.0204 3.14863 14.0498 3.23299 14.0826 3.30921C14.1154 3.38544 14.1521 3.44893 14.1928 3.49952C14.2334 3.55008 14.277 3.58665 14.3238 3.60916C14.3706 3.63167 14.4219 3.63503 14.4776 3.61937C14.5787 3.59089 14.6399 3.51808 14.6614 3.40107C14.6829 3.28406 14.6617 3.11234 14.5978 2.8859C14.5727 2.7971 14.5438 2.71453 14.511 2.63823C14.4781 2.56194 14.4418 2.49794 14.4018 2.44622C14.3618 2.3945 14.3179 2.35707 14.27 2.33393C14.222 2.31078 14.1694 2.30735 14.1119 2.32357C13.9116 2.38007 13.8724 2.62437 13.9943 3.05634ZM13.6495 3.15371C13.562 2.84368 13.5485 2.59273 13.609 2.40079C13.6695 2.20884 13.8086 2.08212 14.0263 2.02069C14.1395 1.98876 14.2433 1.9834 14.3377 2.00469C14.4321 2.02597 14.5171 2.07062 14.5927 2.13863C14.6683 2.20663 14.7354 2.29578 14.7938 2.40622C14.8522 2.51665 14.9018 2.64416 14.9427 2.78868C15.0302 3.09869 15.0424 3.35007 14.9792 3.54274C14.9161 3.73546 14.7775 3.86196 14.5632 3.92248C14.4483 3.95492 14.3441 3.96033 14.2506 3.93883C14.157 3.91727 14.0725 3.87253 13.9969 3.80455C13.9213 3.73654 13.8547 3.64725 13.7972 3.53658C13.7396 3.42594 13.6904 3.29828 13.6495 3.15371ZM12.793 2.82438L12.3338 3.00675L12.919 4.4801L12.6011 4.60632L11.8997 2.84039L12.9946 2.40557L13.696 4.1715L13.3781 4.29772L12.793 2.82438ZM11.2248 3.50393L10.8344 3.72889L11.6257 5.1025L11.3293 5.2733L10.5379 3.89969L10.1475 4.12464L9.99024 3.85182L11.0674 3.23122L11.2248 3.50393ZM8.98571 4.49452L9.78451 3.98012L9.955 4.24485L9.44383 4.57403L9.69663 4.96655L10.1599 4.66817L10.3304 4.9329L9.86715 5.23128L10.1317 5.6421L10.6521 5.307L10.8226 5.57176L10.0147 6.09201L8.98571 4.49452ZM8.89042 4.94812L8.53627 5.22672L9.51641 6.47275L9.2476 6.68417L8.26753 5.43817L7.91336 5.71676L7.71869 5.4693L8.69585 4.70069L8.89042 4.94812ZM7.80371 6.57168L7.63769 6.35859L7.62783 6.36801L7.75205 6.64732L8.04787 7.73882L7.85356 7.92448L6.5409 6.55067L6.78821 6.31437L7.47454 7.0327L7.64418 7.25352L7.65399 7.24416L7.52805 6.9552L7.24537 5.8774L7.43768 5.69361L8.75034 7.06743L8.50303 7.30372L7.80371 6.57168ZM6.68606 7.72904L6.43624 7.46195L6.42738 7.47216L6.60755 7.76156L6.90899 8.43296L6.83427 8.51904L6.11265 8.3276L5.79877 8.18816L5.78812 8.20043L6.09872 8.40175L6.84077 9.04586L6.62903 9.2898L5.19408 8.04421L5.40939 7.79621L6.29031 8.03607L6.51138 8.14166L6.51854 8.13345L6.37703 7.92792L6.00378 7.1115L6.21552 6.86755L7.65047 8.11314L7.42624 8.37146L6.68606 7.72904ZM5.14437 9.72742C5.22244 9.78313 5.29808 9.83056 5.37145 9.86957C5.44475 9.90858 5.5131 9.93515 5.57639 9.94921C5.63975 9.9633 5.69668 9.96451 5.74726 9.95278C5.79785 9.94108 5.83999 9.91172 5.87364 9.86457C5.93464 9.77913 5.93693 9.68404 5.88057 9.57933C5.82421 9.47462 5.70025 9.35381 5.50881 9.2171C5.43374 9.16346 5.35952 9.11716 5.28622 9.07807C5.21295 9.03908 5.1445 9.01185 5.081 8.99651C5.01743 8.98113 4.95976 8.97944 4.90792 8.99137C4.85605 9.00323 4.81275 9.03351 4.77805 9.08207C4.6571 9.25146 4.77913 9.46653 5.14437 9.72742ZM4.93612 10.019C4.67396 9.83177 4.50652 9.64442 4.43373 9.45675C4.36095 9.26909 4.39023 9.08323 4.52174 8.89913C4.59011 8.80343 4.66775 8.73434 4.75475 8.69199C4.8417 8.64962 4.936 8.63127 5.0375 8.63704C5.13901 8.64284 5.24708 8.67056 5.36173 8.72012C5.4764 8.76978 5.59481 8.83828 5.71706 8.92549C5.9792 9.11272 6.14586 9.30125 6.21716 9.49112C6.28838 9.68099 6.2593 9.86649 6.12993 10.0476C6.06058 10.1448 5.98256 10.2142 5.89612 10.2559C5.80971 10.2975 5.7157 10.3154 5.61419 10.3097C5.51266 10.3039 5.40487 10.2758 5.29074 10.2254C5.17658 10.1751 5.05834 10.1063 4.93612 10.019ZM4.54625 10.959L4.5096 11.0224L5.21459 11.4301L5.04343 11.7261L3.39844 10.7751L3.5696 10.479L4.29807 10.9001L4.30387 10.8251L3.80333 10.0748L3.99628 9.74107L4.47059 10.517L4.4933 10.6775L4.64819 10.6166L5.67661 10.6311L5.46739 10.9929L4.54625 10.959Z" fill="#007D75"/>
<path d="M11.7868 31.1576L13.0707 28.6499L13.5829 28.9122L12.5178 30.9926L13.7856 31.6416L13.5669 32.069L11.7868 31.1576ZM10.5186 28.7849L10.9584 27.7514L9.95529 28.2475L10.5186 28.7849ZM10.5017 30.3261L10.0535 29.8982L10.3222 29.2607L9.49764 28.4743L8.88022 28.7795L8.44011 28.3596L11.199 27.0651L11.6388 27.4844L10.5016 30.3258L10.5017 30.3261ZM6.6342 25.5696L9.07617 24.1647L9.36297 24.6635L7.33732 25.8288L8.0476 27.0635L7.63157 27.303L6.6342 25.5696ZM6.80713 22.8378L7.71085 22.1708L6.59468 22.089L6.80713 22.8378ZM6.0105 24.157L5.84134 23.5611L6.39639 23.1482L6.08528 22.0522L5.39859 22.0017L5.23236 21.4165L8.26647 21.7016L8.43247 22.2863L6.0105 24.157ZM5.20567 17.6592L8.04559 17.7306L8.03117 18.3057L6.91257 18.2775L6.88444 19.3961L8.00302 19.4242L7.98859 19.9993L5.14844 19.9279L5.16286 19.3526L6.4044 19.3839L6.43253 18.2655L5.19122 18.2342L5.20567 17.6592Z" fill="white"/>
<path d="M32.525 18.8836L32.4826 18.3277C32.469 18.1478 32.4505 18.0229 32.4282 17.9551C32.4059 17.8872 32.3615 17.8276 32.2963 17.7775C32.2306 17.7274 32.1533 17.706 32.0638 17.713C31.9344 17.7228 31.8436 17.7768 31.7907 17.8744C31.7381 17.9726 31.7196 18.1336 31.737 18.3592L31.7812 18.9403L32.525 18.8836ZM30.2146 19.6367L30.171 19.0631L31.3025 18.9767L31.244 18.2125C31.2166 17.8525 31.2812 17.5855 31.438 17.4113C31.5943 17.2368 31.7907 17.1409 32.0268 17.1228C32.2195 17.1081 32.3877 17.1446 32.5303 17.2325C32.6738 17.3196 32.7739 17.424 32.8317 17.5462C32.8891 17.668 32.9274 17.8475 32.9453 18.0842L33.0472 19.4208L30.2146 19.6367ZM29.8581 21.9494L30.2079 19.9906L33.0044 20.49L32.9035 21.0564L30.5793 20.6411L30.4294 21.481L31.6233 21.6945C31.9652 21.7554 32.2018 21.8097 32.3325 21.8564C32.4639 21.9036 32.5601 21.9777 32.6199 22.0799C32.6797 22.182 32.6928 22.3265 32.6589 22.5147C32.6471 22.5811 32.6191 22.6997 32.5758 22.872L32.1377 22.7938L32.1623 22.6677C32.1831 22.55 32.1818 22.467 32.1572 22.421C32.1328 22.3744 32.0584 22.3402 31.9339 22.3181L31.4532 22.2341L29.8581 21.9494ZM29.9903 23.2066L29.8058 23.6144C29.7121 23.8218 29.6551 23.9602 29.6351 24.0295C29.6153 24.0985 29.6215 24.1697 29.6549 24.2412C29.6877 24.3126 29.7475 24.3682 29.8348 24.4077C29.9256 24.4488 30.0085 24.4585 30.0822 24.4375C30.1566 24.4166 30.2159 24.3738 30.2608 24.3098C30.3047 24.2455 30.3763 24.106 30.4736 23.8909L30.6481 23.504L29.9903 23.2066ZM32.1415 24.1789L31.0603 23.6902L31.0123 23.7961C30.9376 23.9619 30.9099 24.0894 30.9286 24.1798C30.9463 24.27 31.0418 24.4524 31.2125 24.7279L31.6085 25.358L31.3261 25.983L30.9638 25.4388C30.8193 25.2243 30.7235 25.0611 30.6768 24.9514C30.6299 24.8409 30.5993 24.7154 30.586 24.5758C30.4394 24.7991 30.2772 24.9347 30.0989 24.9827C29.9207 25.0305 29.7408 25.014 29.5594 24.9319C29.4015 24.8604 29.2796 24.7574 29.1942 24.6229C29.1082 24.4884 29.0738 24.3465 29.0907 24.1975C29.1082 24.0484 29.1752 23.8443 29.2922 23.5854L29.7898 22.4841L32.3784 23.6544L32.1415 24.1789ZM27.4425 26.5992L28.5959 24.9777L30.9109 26.6244L30.5775 27.093L28.6537 25.7248L28.1591 26.4201L29.1475 27.1233C29.4303 27.3242 29.621 27.4744 29.7193 27.5727C29.8178 27.6715 29.8733 27.7795 29.8835 27.8973C29.894 28.0154 29.844 28.1517 29.7331 28.3075C29.6941 28.3624 29.6182 28.4576 29.5055 28.5946L29.1428 28.3367L29.2185 28.2333C29.2878 28.136 29.3222 28.0603 29.3197 28.0082C29.3176 27.9553 29.2645 27.893 29.1616 27.8198L28.763 27.5385L27.4425 26.5992ZM27.5552 28.8418L26.5684 28.3057L26.967 29.3518L27.5552 28.8418ZM29.0877 29.0053L28.6195 29.411L28.0105 29.0828L27.1494 29.8286L27.3943 30.4723L26.9344 30.8706L25.9083 28.001L26.3674 27.603L29.0877 29.0053ZM24.1509 32.2978L24.3489 30.5323L22.9375 29.7275L23.5338 29.4223L24.4173 29.92L24.5296 28.9124L25.127 28.6067L24.9535 30.2233L26.4994 31.0954L25.886 31.4093L24.8873 30.8401L24.7649 31.9834L24.1509 32.2978Z" fill="white"/>
<path d="M1.52344 14.7655L1.58831 14.5327L1.92391 14.5925L2.1863 13.6511L1.86819 13.5286L1.93305 13.2959L2.56324 13.4715L2.51878 13.6311C2.53504 13.6469 2.57425 13.6747 2.6364 13.7146C2.69807 13.7562 2.78764 13.8056 2.90508 13.8627C3.02255 13.9199 3.17084 13.9809 3.35001 14.0459C3.52866 14.1126 3.74289 14.1798 3.99266 14.2476L3.73319 15.1785L2.2061 14.7528L2.15362 14.9411L1.52344 14.7655ZM2.29794 14.4234L3.52171 14.7645L3.6026 14.4742C3.29647 14.3795 3.04344 14.2864 2.84349 14.195C2.64305 14.1053 2.50298 14.0315 2.4233 13.9736L2.29794 14.4234Z" fill="#007D75"/>
<path d="M35.5857 14.0198L35.7251 14.5192L36.4989 14.3035L36.5908 14.633L34.7604 15.1432L34.6685 14.8137L35.4218 14.6038L35.2824 14.1044L34.5294 14.3143L34.4375 13.9848L36.2679 13.4746L36.3598 13.8041L35.5857 14.0198Z" fill="#007D75"/>
<path d="M2.72623 15.7976L2.47109 15.7805L2.46804 15.7937L2.71404 15.8867L3.46458 16.2801L3.38522 16.6239L2.20027 15.9158C2.10709 15.8609 2.02672 15.8107 1.95917 15.7654C1.89339 15.7205 1.83967 15.6756 1.79803 15.6307C1.75639 15.5858 1.72811 15.5394 1.71319 15.4914C1.69963 15.4455 1.69977 15.3926 1.71361 15.3326C1.7246 15.285 1.73857 15.2446 1.75553 15.2114C1.77208 15.1799 1.79697 15.1485 1.8302 15.1172L2.09165 15.2639C2.07184 15.2853 2.05706 15.3051 2.04729 15.3233C2.03929 15.3419 2.03196 15.3616 2.02532 15.3823C2.01026 15.4475 2.06688 15.508 2.1952 15.5636L3.68925 15.3067L3.59829 15.7008L2.72623 15.7976Z" fill="#007D75"/>
<path d="M36.3342 15.4098L36.4361 15.846L36.8791 15.8567L36.9564 16.1872L34.9673 16.0861L34.9062 15.8244L36.6438 14.8496L36.7254 15.1985L36.3342 15.4098ZM36.1446 15.8389L36.073 15.5322L35.6667 15.7387L35.3859 15.8489L35.3882 15.8595L35.6921 15.8358L36.1446 15.8389Z" fill="#007D75"/>
<path d="M2.44507 16.8301L3.42209 16.5228L3.37328 16.9325L2.80816 17.0866L2.59722 17.1135L2.79628 17.1864L3.30809 17.4797L3.26443 17.8463L2.40742 17.3068L1.375 17.6431L1.42221 17.2468L2.03193 17.0625L2.24892 17.0309L2.04509 16.952L1.49575 16.6296L1.54038 16.2549L2.44507 16.8301Z" fill="#007D75"/>
<path d="M35.3754 16.311L35.4282 16.7558L37.0025 16.5683L37.0428 16.9079L35.4688 17.0954L35.5222 17.5429L35.2093 17.5801L35.0625 16.3483L35.3754 16.311Z" fill="#007D75"/>
<path d="M2.29182 17.7915C2.61375 17.8024 2.85695 17.8658 3.02143 17.9818C3.18592 18.0978 3.26433 18.2688 3.2567 18.4949C3.25275 18.6124 3.22583 18.7129 3.17594 18.7963C3.12787 18.8798 3.05949 18.9472 2.97085 18.9986C2.88402 19.05 2.77869 19.0862 2.65484 19.1074C2.53276 19.1305 2.39666 19.1394 2.24655 19.1344C1.92462 19.1235 1.68147 19.0583 1.51712 18.9387C1.3527 18.8209 1.27424 18.6508 1.28174 18.4283C1.28577 18.3089 1.31182 18.2075 1.3599 18.124C1.40973 18.0424 1.47806 17.9759 1.56489 17.9245C1.65353 17.8732 1.75887 17.8369 1.8809 17.8157C2.00473 17.7945 2.14171 17.7864 2.29182 17.7915ZM2.27975 18.1496C2.18389 18.1464 2.09418 18.1488 2.01062 18.1568C1.92887 18.1649 1.85773 18.1806 1.79719 18.204C1.73665 18.2273 1.68856 18.2573 1.65292 18.2941C1.61721 18.3328 1.59839 18.381 1.59643 18.4389C1.5929 18.5438 1.6436 18.6243 1.74854 18.6803C1.85348 18.7364 2.0235 18.7684 2.25862 18.7763C2.35086 18.7794 2.43785 18.7769 2.5196 18.7688C2.60317 18.7607 2.67521 18.7451 2.73576 18.7218C2.79805 18.7003 2.84704 18.6703 2.88274 18.6316C2.92024 18.5931 2.94 18.5439 2.94203 18.4843C2.94903 18.2763 2.72829 18.1647 2.27975 18.1496Z" fill="#007D75"/>
<path d="M37.0326 17.5137C37.076 17.5576 37.1096 17.6185 37.1337 17.6965C37.1576 17.7728 37.1725 17.8497 37.1784 17.9272C37.1858 18.0247 37.1766 18.1171 37.1506 18.2043C37.1227 18.29 37.0721 18.3673 36.9995 18.4364C36.9266 18.5054 36.8286 18.5628 36.7048 18.6085C36.5814 18.6542 36.4277 18.6841 36.2437 18.6982C36.0522 18.7127 35.892 18.705 35.7627 18.6749C35.6331 18.6431 35.5289 18.5974 35.4501 18.5381C35.3692 18.4771 35.3102 18.4054 35.273 18.3229C35.2358 18.2405 35.214 18.1559 35.2073 18.0693C35.2006 17.9809 35.2019 17.9037 35.2114 17.8376C35.2209 17.7698 35.233 17.7144 35.2479 17.6715L35.5535 17.7163C35.5381 17.7519 35.5276 17.7935 35.5222 17.8412C35.5148 17.8871 35.5135 17.9416 35.5184 18.0048C35.5279 18.1293 35.5892 18.2208 35.7026 18.2793C35.8158 18.3378 35.988 18.3583 36.219 18.3407C36.3183 18.3331 36.4089 18.3189 36.4908 18.2982C36.5706 18.2758 36.6391 18.246 36.6964 18.209C36.7531 18.1702 36.796 18.1243 36.8247 18.0713C36.8532 18.0165 36.8645 17.953 36.8591 17.8808C36.8542 17.8176 36.8422 17.7641 36.8224 17.7203C36.8008 17.6765 36.777 17.6375 36.7508 17.6032L37.0326 17.5137Z" fill="#007D75"/>
<path d="M2.79115 20.443C2.74413 20.4446 2.6969 20.4407 2.64953 20.4314C2.60402 20.4238 2.5601 20.4099 2.51778 20.3896C2.47727 20.3692 2.44105 20.3414 2.40911 20.3062C2.37723 20.2729 2.35234 20.232 2.33446 20.1837L2.31818 20.1843C2.30876 20.228 2.29382 20.2693 2.27336 20.308C2.25297 20.3485 2.22425 20.3838 2.18722 20.414C2.152 20.4442 2.10752 20.4683 2.0538 20.4863C2.00193 20.5061 1.93983 20.5172 1.86748 20.5196C1.76981 20.5228 1.68423 20.5084 1.61074 20.4764C1.53913 20.4462 1.47976 20.4029 1.43264 20.3465C1.38557 20.2919 1.34994 20.227 1.32573 20.1518C1.30153 20.0765 1.28802 19.9964 1.28523 19.9114C1.28439 19.886 1.28332 19.8535 1.28201 19.8137C1.2807 19.7739 1.28108 19.7304 1.28315 19.6833C1.28347 19.638 1.28554 19.5908 1.28936 19.5418C1.29318 19.4928 1.29983 19.4473 1.30932 19.4054L3.18141 19.3438C3.19421 19.4031 3.20566 19.476 3.21577 19.5626C3.22773 19.651 3.23512 19.7385 3.238 19.8254C3.24061 19.9049 3.23679 19.9811 3.2265 20.0539C3.21628 20.1285 3.19488 20.1934 3.16229 20.2488C3.12977 20.3061 3.08331 20.3519 3.02287 20.3865C2.96426 20.421 2.887 20.4399 2.79115 20.443ZM1.58123 19.9098C1.58373 19.9857 1.6102 20.0473 1.66065 20.0946C1.71109 20.1418 1.78334 20.1638 1.8774 20.1608C1.93709 20.1588 1.98385 20.1491 2.01768 20.1317C2.05332 20.1142 2.07973 20.0916 2.09693 20.0639C2.11593 20.0361 2.12755 20.004 2.13179 19.9677C2.13608 19.9331 2.13761 19.8969 2.13636 19.8589L2.1318 19.7205L1.59188 19.7383C1.58693 19.753 1.58321 19.7775 1.58073 19.812C1.58011 19.8482 1.58028 19.8808 1.58123 19.9098ZM2.403 19.7904C2.40365 19.8103 2.4053 19.8328 2.40794 19.8581C2.41245 19.8851 2.41678 19.9067 2.42094 19.9229C2.44256 19.9747 2.47658 20.0179 2.52299 20.0526C2.56945 20.0891 2.62887 20.1062 2.70122 20.1038C2.74823 20.1022 2.78783 20.0946 2.81997 20.0808C2.85213 20.0671 2.87687 20.0491 2.89424 20.0268C2.91344 20.0044 2.92612 19.9778 2.93235 19.9468C2.94044 19.9175 2.94393 19.8857 2.9428 19.8514C2.94036 19.7772 2.935 19.7249 2.92676 19.6944L2.40041 19.7117L2.403 19.7904Z" fill="#007D75"/>
<path d="M35.3059 19.8896C35.2936 19.824 35.2851 19.7522 35.2805 19.6742C35.2738 19.5962 35.272 19.5182 35.2746 19.4405C35.2774 19.3573 35.2882 19.2762 35.3072 19.1971C35.3244 19.1162 35.3564 19.0449 35.4039 18.9831C35.4511 18.9213 35.5171 18.8719 35.6015 18.8349C35.6844 18.7978 35.7917 18.7814 35.9236 18.7859C36.043 18.7898 36.1438 18.8104 36.226 18.8475C36.3078 18.8828 36.3743 18.9294 36.4249 18.9872C36.4754 19.045 36.5113 19.1114 36.5324 19.1863C36.5534 19.2595 36.5627 19.3349 36.5601 19.4127C36.5599 19.4199 36.5593 19.4317 36.5588 19.448C36.5583 19.4642 36.5578 19.4814 36.5573 19.4995C36.5547 19.5175 36.5524 19.5356 36.5498 19.5536C36.5475 19.5698 36.5455 19.5815 36.5434 19.5887L37.1971 19.6104L37.1858 19.9523L35.3059 19.8896ZM36.2367 19.5784C36.2408 19.5677 36.2449 19.548 36.2496 19.5191C36.2524 19.4884 36.2539 19.4677 36.2544 19.4568C36.2557 19.417 36.2516 19.3789 36.2419 19.3424C36.2324 19.3058 36.2152 19.2735 36.1908 19.2456C36.1646 19.2157 36.1292 19.1919 36.0845 19.1741C36.0381 19.1563 35.9796 19.1462 35.909 19.1439C35.8495 19.1419 35.7984 19.1483 35.7563 19.1632C35.7142 19.1763 35.6811 19.196 35.6567 19.2223C35.6305 19.2468 35.6113 19.2761 35.5995 19.3101C35.5874 19.3441 35.5807 19.3801 35.5795 19.418C35.5777 19.4741 35.5805 19.5204 35.5884 19.5569L36.2367 19.5784Z" fill="#007D75"/>
<path d="M2.26686 21.5945L2.20552 21.0797L1.40765 21.1748L1.36719 20.8351L3.25403 20.6104L3.29451 20.95L2.5182 21.0425L2.57954 21.5573L3.35585 21.4648L3.3963 21.8045L1.50945 22.0292L1.46899 21.6896L2.26686 21.5945Z" fill="#007D75"/>
<path d="M36.7099 20.6169L36.676 21.0635L37.0951 21.207L37.0692 21.5454L35.2031 20.8505L35.2234 20.5825L37.1737 20.1758L37.1465 20.5331L36.7099 20.6169ZM36.3999 20.9689L36.424 20.6549L35.9746 20.7296L35.6736 20.7502L35.6725 20.761L35.9695 20.8299L36.3999 20.9689Z" fill="#007D75"/>
<path d="M2.47159 22.1108C2.78526 22.0375 3.03662 22.0354 3.22564 22.1046C3.41464 22.1738 3.5349 22.3185 3.58639 22.5388C3.61316 22.6534 3.61331 22.7574 3.58685 22.8509C3.56216 22.9441 3.51368 23.0269 3.44146 23.0996C3.37098 23.1718 3.27872 23.2343 3.16464 23.2869C3.05276 23.341 2.92367 23.3851 2.7774 23.4193C2.46372 23.4926 2.21196 23.4929 2.02212 23.4202C1.83269 23.3492 1.71265 23.2053 1.66199 22.9886C1.63481 22.8723 1.63356 22.7675 1.65826 22.6744C1.68513 22.5827 1.73381 22.5007 1.80428 22.4284C1.87651 22.3558 1.96878 22.2933 2.08108 22.2411C2.19515 22.1884 2.32532 22.145 2.47159 22.1108ZM2.55314 22.4597C2.45974 22.4815 2.37374 22.5072 2.29515 22.5367C2.21832 22.5658 2.15371 22.5995 2.10132 22.6378C2.04893 22.6761 2.01032 22.7176 1.98549 22.7624C1.96106 22.809 1.95544 22.8605 1.96862 22.9169C1.99251 23.0191 2.06242 23.0836 2.17833 23.1104C2.29425 23.1372 2.46676 23.1239 2.69584 23.0703C2.78572 23.0493 2.86908 23.0243 2.94592 22.9952C3.02451 22.9657 3.09 22.9317 3.14238 22.8935C3.19695 22.8566 3.23645 22.8148 3.26085 22.7682C3.28703 22.7212 3.29335 22.6686 3.27974 22.6105C3.23239 22.4078 2.99017 22.3575 2.55314 22.4597Z" fill="#007D75"/>
<path d="M35.5296 21.1917L35.4475 21.6319L37.0056 21.9233L36.9427 22.2595L35.3846 21.9682L35.3017 22.4111L34.9922 22.3532L35.2201 21.1338L35.5296 21.1917Z" fill="#007D75"/>
<path d="M3.7601 23.4229L4.01521 24.338L3.71188 24.4226L3.54862 23.8369L3.09884 23.9622L3.2468 24.4931L2.94349 24.5776L2.79554 24.0468L2.32485 24.178L2.49103 24.7742L2.1877 24.8587L1.92969 23.933L3.7601 23.4229Z" fill="#007D75"/>
<path d="M36.3531 23.0158L36.2525 23.4523L36.6452 23.6572L36.569 23.9878L34.8281 23.0205L34.8887 22.7586L36.878 22.6494L36.7974 22.9986L36.3531 23.0158ZM35.9938 23.3174L36.0647 23.0105L35.6091 23.0168L35.3083 22.992L35.306 23.0026L35.5891 23.1153L35.9938 23.3174Z" fill="#007D75"/>
<path d="M35.1341 23.4053L34.9839 23.8273L36.4779 24.3583L36.3634 24.6805L34.8695 24.1496L34.7186 24.5742L34.4219 24.4688L34.8374 23.2998L35.1341 23.4053Z" fill="#007D75"/>
<path d="M3.66483 25.7169L3.44593 25.8491L3.45101 25.8617L3.70586 25.7967L4.54634 25.6892L4.67831 26.0164L3.30151 26.115C3.19367 26.1234 3.0991 26.1283 3.01776 26.1299C2.93812 26.1309 2.86839 26.1247 2.80854 26.1119C2.74869 26.0988 2.69888 26.077 2.65915 26.0462C2.62175 26.0164 2.59157 25.9731 2.56856 25.9161C2.55028 25.8706 2.53857 25.8296 2.53343 25.7926C2.52896 25.7572 2.53137 25.7174 2.54065 25.6725L2.83898 25.643C2.83503 25.672 2.83426 25.6966 2.83665 25.7172C2.84075 25.7369 2.84601 25.7572 2.85246 25.778C2.8775 25.8401 2.95853 25.8573 3.09555 25.8293L4.17274 24.7627L4.324 25.1378L3.66483 25.7169Z" fill="#007D75"/>
<path d="M4.79976 26.9283L4.57768 26.4871L3.16157 27.1996L3.00781 26.8942L4.70524 26.04L5.23478 27.0923L3.53738 27.9464L3.38362 27.641L4.79976 26.9283Z" fill="#007D75"/>
<path d="M34.9212 25.6849L34.6877 25.5493L34.682 25.5617L34.9017 25.7742L35.5842 26.6761L35.4735 26.9209L33.7422 26.1376L33.8831 25.826L34.7883 26.2354L35.0283 26.3768L35.0339 26.3645L34.8091 26.1435L34.1438 25.2497L34.2537 25.0073L35.9848 25.7906L35.8439 26.1022L34.9212 25.6849Z" fill="#007D75"/>
<path d="M5.26466 27.2227C5.31229 27.2694 5.36036 27.3235 5.40884 27.3849C5.45884 27.4452 5.50504 27.5078 5.54744 27.573C5.59281 27.6428 5.63036 27.7157 5.6601 27.7911C5.69237 27.8674 5.70676 27.9444 5.70335 28.0221C5.69996 28.0999 5.67419 28.1782 5.6261 28.257C5.57952 28.3347 5.50085 28.4097 5.39011 28.4815C5.28997 28.5467 5.19562 28.5875 5.1071 28.6039C5.01956 28.6222 4.93848 28.6219 4.86393 28.6034C4.78935 28.5849 4.72198 28.5511 4.66182 28.5018C4.60263 28.4538 4.55184 28.3973 4.50944 28.3321C4.50549 28.326 4.49908 28.3162 4.49022 28.3024C4.48134 28.2888 4.47197 28.2744 4.46209 28.2593C4.45375 28.2431 4.44541 28.2269 4.43707 28.2108C4.4297 28.1961 4.4248 28.1853 4.42239 28.1782L3.8739 28.5346L3.6875 28.248L5.26466 27.2227ZM4.67955 28.0111C4.68243 28.0221 4.69025 28.0409 4.70301 28.067C4.71825 28.0937 4.72883 28.1117 4.73476 28.1209C4.75644 28.1543 4.7817 28.183 4.81054 28.2074C4.83937 28.2321 4.87181 28.2487 4.90784 28.2577C4.94636 28.267 4.98904 28.2664 5.03586 28.2554C5.08418 28.2433 5.13793 28.2182 5.19711 28.1797C5.24716 28.1471 5.28522 28.1127 5.31124 28.0763C5.33824 28.0416 5.3542 28.0062 5.35913 27.9708C5.36657 27.9356 5.36547 27.9007 5.35582 27.8661C5.3462 27.8312 5.33103 27.7981 5.31032 27.7662C5.27972 27.719 5.2508 27.6828 5.22347 27.6574L4.67955 28.0111Z" fill="#007D75"/>
<path d="M34.2591 27.5468L34.2265 27.6122L34.9559 27.9744L34.8039 28.2808L33.1016 27.4362L33.2538 27.1297L34.0098 27.505L34.0109 27.4298L33.4611 26.7114L33.6326 26.3662L34.1569 27.1113L34.19 27.2701L34.3404 27.1993L35.3662 27.1475L35.1804 27.5222L34.2591 27.5468Z" fill="#007D75"/>
<path d="M5.16015 29.6511L4.89994 29.2864L4.48619 29.445L4.28906 29.1688L6.16678 28.5054L6.32293 28.7243L5.08709 30.2868L4.87889 29.9952L5.16015 29.6511ZM5.17229 29.1822L5.35523 29.4383L5.65228 29.0928L5.87007 28.8839L5.86376 28.8752L5.59171 29.0128L5.17229 29.1822Z" fill="#007D75"/>
<path d="M33.5668 28.3061L33.3546 28.139L33.3471 28.1505L33.5347 28.3918L34.084 29.3804L33.94 29.6073L32.3359 28.5886L32.5192 28.2999L33.3579 28.8324L33.5756 29.0062L33.583 28.9947L33.3913 28.7444L32.8582 27.7661L33.0007 27.5415L34.605 28.5599L34.4215 28.8486L33.5668 28.3061Z" fill="#007D75"/>
<path d="M7.03972 30.333C7.00392 30.3636 6.96457 30.39 6.92174 30.4123C6.88145 30.4347 6.83843 30.4511 6.79267 30.4616C6.74827 30.4709 6.70264 30.4719 6.65575 30.4642C6.61004 30.458 6.56513 30.4416 6.52103 30.4149L6.50864 30.4257C6.52855 30.4657 6.54259 30.5073 6.55073 30.5502C6.56002 30.5946 6.55961 30.6402 6.54947 30.6867C6.54072 30.7324 6.52098 30.7788 6.49024 30.8266C6.46206 30.8743 6.4204 30.9218 6.36532 30.9688C6.29097 31.0321 6.21511 31.0742 6.13773 31.095C6.06289 31.1161 5.98946 31.1191 5.91747 31.1045C5.84666 31.0912 5.77832 31.0627 5.71249 31.0188C5.64666 30.9752 5.58614 30.9208 5.53096 30.8561C5.51453 30.8368 5.49339 30.8119 5.46757 30.7817C5.44172 30.7514 5.41493 30.7172 5.38716 30.679C5.35918 30.6436 5.33141 30.6053 5.30385 30.5645C5.27626 30.524 5.25311 30.4842 5.23438 30.4454L6.65952 29.2305C6.70654 29.2687 6.76097 29.3188 6.82283 29.3801C6.88725 29.4417 6.94764 29.5056 7.004 29.5716C7.05566 29.6321 7.10014 29.6942 7.13748 29.7574C7.17598 29.822 7.19974 29.8862 7.2088 29.9499C7.21904 30.0148 7.21132 30.0797 7.18565 30.1444C7.16132 30.208 7.11269 30.2709 7.03972 30.333ZM5.76138 30.6703C5.81068 30.7283 5.86979 30.7598 5.93867 30.7652C6.00753 30.7709 6.07778 30.7429 6.14938 30.6821C6.19483 30.6433 6.22535 30.6064 6.24093 30.5717C6.25792 30.536 6.26449 30.5019 6.26064 30.4693C6.25817 30.4357 6.24727 30.4036 6.22791 30.3726C6.20974 30.3428 6.18831 30.3135 6.16365 30.2845L6.07385 30.1793L5.66283 30.5296C5.66809 30.5443 5.68048 30.5658 5.70004 30.5943C5.72214 30.623 5.74259 30.6482 5.76138 30.6703ZM6.32939 30.0648C6.3423 30.08 6.35768 30.0964 6.37549 30.1146C6.39587 30.1328 6.4127 30.1472 6.42602 30.1572C6.47522 30.1842 6.52876 30.1968 6.58666 30.195C6.64574 30.1944 6.70284 30.1708 6.75792 30.1239C6.79372 30.0933 6.8199 30.0628 6.83645 30.032C6.85303 30.0012 6.86114 29.9717 6.86084 29.9434C6.86189 29.9139 6.85519 29.8852 6.84074 29.8569C6.82883 29.8292 6.81174 29.802 6.78944 29.7758C6.74129 29.7194 6.70449 29.6819 6.67903 29.6632L6.27832 30.0048L6.32939 30.0648Z" fill="#007D75"/>
<path d="M32.258 29.1657L32.0799 29.3918C32.3422 29.6145 32.5575 29.8063 32.7259 29.9667C32.893 30.1258 33.0051 30.2672 33.0623 30.3906C33.0829 30.4345 33.0957 30.4769 33.1006 30.5174C33.1049 30.5557 33.1047 30.5911 33.0996 30.6239C33.0942 30.6542 33.0847 30.6825 33.0711 30.7086C33.0588 30.7358 33.0454 30.7587 33.0308 30.7772C33.0072 30.8069 32.9836 30.8311 32.9599 30.8493C32.9379 30.8685 32.914 30.8844 32.8883 30.8965L32.6689 30.675C32.6989 30.6573 32.7197 30.6321 32.7315 30.5998C32.7415 30.5664 32.7351 30.5267 32.7115 30.4805C32.6938 30.4389 32.6599 30.3881 32.6104 30.3283C32.5593 30.2672 32.4895 30.1951 32.401 30.1114C32.3137 30.0265 32.2062 29.9302 32.0789 29.8229C31.9526 29.7141 31.8037 29.5902 31.6328 29.4505L32.2226 28.7021L33.7147 29.8784L33.503 30.1471L32.258 29.1657Z" fill="#007D75"/>
<path d="M7.81867 30.9549L7.60934 30.7576C7.36422 30.9988 7.15431 31.1964 6.97958 31.3502C6.80611 31.5024 6.65538 31.6014 6.52744 31.6474C6.48183 31.6643 6.43856 31.673 6.39765 31.6743C6.35926 31.6754 6.32397 31.672 6.29173 31.6641C6.26204 31.6558 6.23481 31.644 6.21002 31.6279C6.18399 31.6135 6.16241 31.5981 6.14529 31.5819C6.11765 31.5558 6.09578 31.5301 6.07969 31.5052C6.06234 31.4813 6.04879 31.4562 6.03906 31.4295L6.27903 31.2303C6.29402 31.2619 6.31712 31.285 6.34825 31.2994C6.38064 31.3124 6.42088 31.3094 6.46895 31.2901C6.51207 31.276 6.56563 31.247 6.62961 31.2029C6.69485 31.1574 6.77303 31.0943 6.86411 31.0135C6.95651 30.9341 7.06181 30.8356 7.17997 30.7183C7.29947 30.602 7.43629 30.465 7.59038 30.3066L8.28354 30.9603L6.97986 32.3429L6.73104 32.1081L7.81867 30.9549Z" fill="#007D75"/>
<path d="M30.6797 30.5099L31.3631 29.7852L31.5923 30.001L31.1435 30.4771L31.4437 30.7602C31.4584 30.7366 31.4766 30.7093 31.4989 30.6778C31.521 30.6465 31.5443 30.6177 31.5692 30.5913C31.6288 30.5282 31.6901 30.4789 31.7532 30.4437C31.8148 30.4075 31.8795 30.3875 31.9473 30.3844C32.0137 30.3798 32.0825 30.3939 32.1539 30.4263C32.2265 30.4576 32.3017 30.5097 32.3795 30.5828C32.5347 30.7294 32.6146 30.8782 32.6189 31.0291C32.6235 31.18 32.5537 31.332 32.4095 31.4847C32.3923 31.5029 32.3692 31.526 32.3407 31.5537C32.312 31.5814 32.2809 31.6107 32.247 31.641C32.2147 31.6728 32.1811 31.7031 32.1462 31.7324C32.1123 31.7603 32.0805 31.7834 32.0502 31.8024L30.6797 30.5099ZM32.2052 31.2583C32.2573 31.2029 32.2819 31.1426 32.2786 31.0774C32.2768 31.0109 32.235 30.9393 32.1534 30.8623C32.1046 30.8164 32.0607 30.7851 32.022 30.7681C31.9829 30.7514 31.947 30.7448 31.9137 30.7484C31.8818 30.7504 31.8513 30.7617 31.8225 30.7817C31.7948 30.8005 31.7674 30.8243 31.7402 30.8533C31.7266 30.8677 31.7112 30.888 31.694 30.9142C31.6768 30.9378 31.6657 30.9547 31.6609 30.965L32.0854 31.3653C32.0992 31.3561 32.1179 31.3415 32.1418 31.3215C32.1641 31.3004 32.1854 31.2794 32.2052 31.2583Z" fill="#007D75"/>
<path d="M8.49094 31.1504L9.20709 31.7746L9.00016 32.012L8.54183 31.6124L8.23498 31.9642L8.65034 32.3266L8.44341 32.5638L8.02805 32.2016L7.70693 32.5699L8.17346 32.9767L7.9665 33.2141L7.24219 32.5825L8.49094 31.1504Z" fill="#007D75"/>
<path d="M30.7152 31.6348L30.9193 31.7888L30.9293 31.7793L30.7742 31.5668L30.361 30.8268L30.6156 30.5825L31.22 31.8237C31.268 31.9207 31.3078 32.0067 31.3396 32.0813C31.3702 32.155 31.3905 32.222 31.4007 32.2823C31.411 32.3426 31.4092 32.397 31.3956 32.4455C31.3817 32.4912 31.3527 32.5354 31.3083 32.578C31.2732 32.6118 31.2393 32.638 31.207 32.6565C31.1759 32.674 31.1379 32.6865 31.0927 32.6945L30.9542 32.4286C30.9826 32.4217 31.0057 32.4132 31.024 32.4032C31.0409 32.3922 31.0576 32.3796 31.0745 32.366C31.1228 32.3195 31.1087 32.2379 31.0317 32.1211L29.6406 31.5188L29.9322 31.2388L30.7152 31.6348Z" fill="#007D75"/>
<path d="M9.37106 33.262L8.95041 32.9589L8.48061 33.6108L8.20312 33.4108L9.31413 31.8691L9.59162 32.0691L9.13453 32.7032L9.55518 33.0066L10.0123 32.3722L10.2898 32.5721L9.17875 34.1138L8.90124 33.9139L9.37106 33.262Z" fill="#007D75"/>
<path d="M29.5469 31.9638L29.1588 32.2697L30.14 33.5147L29.8715 33.7264L28.6953 32.234L29.6205 31.5049L30.7968 32.997L30.528 33.2088L29.5469 31.9638Z" fill="#007D75"/>
<path d="M10.7398 33.8959L10.8989 33.6777L10.8872 33.6708L10.6529 33.8671L9.68511 34.452L9.45312 34.3163L10.4123 32.6763L10.7076 32.8487L10.2061 33.7065L10.0405 33.9303L10.0522 33.9372L10.2953 33.7365L11.2535 33.168L11.4831 33.3025L10.524 34.9425L10.2287 34.77L10.7398 33.8959Z" fill="#007D75"/>
<path d="M29.6175 33.8253C29.5998 33.8844 29.5623 33.9431 29.5054 34.0016C29.4502 34.0591 29.3899 34.1092 29.3244 34.1515C29.2426 34.2049 29.1571 34.2411 29.068 34.2601C28.9795 34.2765 28.8876 34.2696 28.7919 34.2388C28.6964 34.208 28.5991 34.1495 28.4996 34.063C28.4002 33.9765 28.3004 33.8559 28.1998 33.7011C28.0951 33.5404 28.025 33.396 27.9893 33.2681C27.9552 33.139 27.9452 33.0259 27.9593 32.9281C27.9742 32.828 28.0089 32.7417 28.0633 32.6696C28.1179 32.5975 28.1816 32.5377 28.2545 32.4905C28.3286 32.442 28.3972 32.4063 28.4595 32.383C28.5237 32.3586 28.5781 32.3427 28.6228 32.335L28.73 32.6247C28.6915 32.6283 28.65 32.6391 28.6056 32.6571C28.5617 32.6727 28.5132 32.6976 28.46 32.7323C28.3553 32.8003 28.3045 32.898 28.3076 33.0256C28.3107 33.1532 28.3753 33.3138 28.5016 33.5081C28.5558 33.5915 28.6117 33.6641 28.6692 33.7263C28.7272 33.7855 28.7862 33.8315 28.846 33.8638C28.9074 33.8951 28.9682 33.9105 29.0285 33.9103C29.0901 33.909 29.1515 33.8887 29.212 33.8492C29.2651 33.8145 29.3062 33.7781 29.3355 33.7399C29.3634 33.7001 29.3863 33.6606 29.4037 33.621L29.6175 33.8253Z" fill="#007D75"/>
<path d="M11.6805 33.4058L12.5316 33.8282L12.3917 34.1103L11.847 33.84L11.6394 34.2581L12.1331 34.5032L11.9931 34.7852L11.4995 34.5404L11.2823 34.978L11.8367 35.2531L11.6967 35.5352L10.8359 35.1081L11.6805 33.4058Z" fill="#007D75"/>
<path d="M26.7031 33.4797L27.5254 33.0039L27.683 33.2765L27.1569 33.5809L27.3907 33.9851L27.8675 33.7092L28.0254 33.9815L27.5483 34.2576L27.7931 34.6803L28.3287 34.3706L28.4863 34.6431L27.6548 35.1243L26.7031 33.4797Z" fill="#007D75"/>
<path d="M25.625 33.9934C25.6786 33.9537 25.7394 33.9147 25.8075 33.8764C25.875 33.8364 25.9442 33.8007 26.0153 33.7689C26.0913 33.735 26.1688 33.7091 26.2484 33.6916C26.3284 33.6716 26.4067 33.6696 26.4832 33.685C26.5594 33.7004 26.6326 33.7381 26.7029 33.7979C26.7725 33.8561 26.834 33.9455 26.8879 34.0661C26.9367 34.1752 26.9624 34.2747 26.9647 34.3648C26.969 34.4539 26.9562 34.5339 26.9262 34.6048C26.8964 34.6756 26.8525 34.737 26.7943 34.7885C26.7378 34.8396 26.6739 34.8809 26.6028 34.9125C26.5964 34.9156 26.5856 34.9205 26.5707 34.9269C26.5558 34.9335 26.5402 34.9407 26.5235 34.9479C26.5063 34.9538 26.4891 34.9595 26.4717 34.9651C26.4563 34.9703 26.4447 34.9733 26.4373 34.9746L26.7039 35.5721L26.3916 35.7115L25.625 33.9934ZM26.3123 34.6946C26.3238 34.6933 26.3433 34.6884 26.3713 34.68C26.4001 34.6692 26.4196 34.6615 26.4293 34.6571C26.4658 34.641 26.4984 34.6204 26.5268 34.5958C26.5556 34.5712 26.5771 34.5416 26.5915 34.5075C26.6069 34.4708 26.6128 34.4287 26.6092 34.3807C26.6049 34.3312 26.5884 34.274 26.5597 34.2095C26.5353 34.1551 26.5073 34.112 26.4755 34.0807C26.4452 34.0486 26.4129 34.0273 26.3785 34.0171C26.3451 34.0042 26.3105 33.9999 26.2746 34.004C26.2389 34.0081 26.2035 34.0178 26.1688 34.0332C26.1177 34.0561 26.0774 34.0789 26.0479 34.102L26.3123 34.6946Z" fill="#007D75"/>
<path d="M13.9585 35.3673L14.1161 35.0372L14.1033 35.0326L13.8996 35.306L13.3844 35.8316L13.2769 35.7933L13.192 35.0516L13.2073 34.7085L13.192 34.7028L13.1179 35.0655L12.7888 35.9915L12.4844 35.8834L13.1208 34.0928L13.4303 34.2029L13.5282 35.1106L13.5105 35.355L13.5208 35.3586L13.6605 35.1517L14.2846 34.5065L14.589 34.6145L13.9526 36.4052L13.6303 36.2905L13.9585 35.3673Z" fill="#007D75"/>
<path d="M15.095 35.6092L15.0665 35.8633L15.0796 35.8669L15.1835 35.6254L15.6102 34.8932L15.9501 34.9882L15.1895 36.14C15.1304 36.2306 15.0767 36.3086 15.0284 36.3741C14.9806 36.4377 14.9333 36.4893 14.8866 36.5288C14.8398 36.5686 14.7922 36.5948 14.7435 36.6074C14.6971 36.6189 14.6443 36.6163 14.585 36.5999C14.5379 36.5868 14.4982 36.5709 14.4658 36.5524C14.4351 36.5347 14.4048 36.5083 14.375 36.4736L14.5333 36.219C14.5538 36.2398 14.573 36.2555 14.5907 36.266C14.6089 36.275 14.6282 36.2832 14.6486 36.2906C14.7131 36.3086 14.776 36.2547 14.8374 36.1292L14.6479 34.625L15.0375 34.7336L15.095 35.6092Z" fill="#007D75"/>
<path d="M24.9833 35.4083L24.4914 35.572L24.7455 36.3343L24.421 36.4423L23.8203 34.6399L24.1448 34.5316L24.3919 35.2733L24.8838 35.1095L24.6367 34.3678L24.9611 34.2598L25.5618 36.0622L25.2373 36.1705L24.9833 35.4083Z" fill="#007D75"/>
<path d="M16.6423 36.9402C16.5887 36.9708 16.5211 36.9875 16.4395 36.9908C16.3597 36.9941 16.2816 36.9887 16.2051 36.9746C16.109 36.9567 16.0222 36.9238 15.9446 36.8761C15.869 36.8271 15.8073 36.7583 15.7593 36.6702C15.7114 36.5822 15.6813 36.4724 15.669 36.3412C15.6567 36.2101 15.6675 36.0538 15.7014 35.8723C15.7367 35.6837 15.7855 35.531 15.8479 35.4137C15.9121 35.2969 15.9831 35.2079 16.0607 35.147C16.1405 35.0847 16.2251 35.0462 16.3143 35.0315C16.4036 35.0169 16.4909 35.0174 16.5763 35.0336C16.6635 35.0498 16.7377 35.0711 16.7991 35.0972C16.8623 35.1237 16.9126 35.1499 16.9502 35.1753L16.8281 35.4589C16.7977 35.4347 16.7601 35.4139 16.7156 35.3965C16.6731 35.3775 16.6207 35.3621 16.5584 35.3506C16.4357 35.3275 16.3314 35.3634 16.2457 35.4576C16.1599 35.552 16.0957 35.7132 16.0531 35.9408C16.0348 36.0386 16.0252 36.13 16.0241 36.2144C16.0251 36.2973 16.0362 36.3712 16.0572 36.4359C16.08 36.5011 16.1134 36.5542 16.1572 36.5956C16.2028 36.6371 16.2612 36.6646 16.3323 36.6779C16.3946 36.6895 16.4494 36.6915 16.4969 36.6838C16.5447 36.6743 16.5886 36.6615 16.6285 36.6448L16.6423 36.9402Z" fill="#007D75"/>
<path d="M23.6602 36.2036L23.224 36.3055L23.2132 36.7485L22.8828 36.8258L22.9839 34.8367L23.2456 34.7754L24.2204 36.5132L23.8714 36.5945L23.6602 36.2036ZM23.2311 36.014L23.5378 35.9421L23.3313 35.5361L23.2211 35.2551L23.2105 35.2576L23.2341 35.5615L23.2311 36.014Z" fill="#007D75"/>
<path d="M17.5999 36.0441L17.6105 36.2994L17.624 36.3012L17.6898 36.0466L17.9998 35.258L18.3502 35.2995L17.7742 36.554C17.7297 36.6526 17.6885 36.7381 17.6508 36.8102C17.6133 36.8802 17.5744 36.9385 17.5343 36.9847C17.4942 37.0312 17.451 37.0643 17.4049 37.0843C17.3608 37.1028 17.3082 37.1081 17.2471 37.101C17.1986 37.0951 17.1569 37.0856 17.122 37.0725C17.0889 37.0594 17.055 37.0381 17.0203 37.0083L17.1379 36.7327C17.1613 36.7499 17.1826 36.7624 17.2017 36.7701C17.2211 36.7763 17.2414 36.7814 17.2628 36.7858C17.3293 36.7938 17.3832 36.7309 17.4247 36.5972L17.0078 35.1396L17.4094 35.1876L17.5999 36.0441Z" fill="#007D75"/>
<path d="M22.2227 35.9786L22.2174 35.6129L22.2039 35.6144L22.1427 35.9499L21.9144 36.6495L21.8012 36.6629L21.3958 36.0361L21.2572 35.7217L21.241 35.7238L21.3355 36.0816L21.4518 37.0573L21.131 37.0956L20.9062 35.2087L21.2324 35.1697L21.7232 35.9396L21.8159 36.1665L21.8267 36.1652L21.8601 35.9178L22.1327 35.0624L22.4535 35.0244L22.6783 36.911L22.3386 36.9516L22.2227 35.9786Z" fill="#007D75"/>
<path d="M19.1066 35.6116L18.819 35.6018C18.7949 35.9452 18.7681 36.2321 18.7387 36.4629C18.7094 36.6918 18.6619 36.8658 18.5964 36.9851C18.5732 37.0277 18.5467 37.0629 18.5168 37.0909C18.4888 37.1173 18.46 37.1381 18.4306 37.1532C18.4029 37.1668 18.3746 37.1758 18.3455 37.1804C18.3163 37.1866 18.2899 37.1894 18.2664 37.1887C18.2285 37.1874 18.1951 37.1825 18.1664 37.1743C18.1377 37.1679 18.1108 37.1581 18.0859 37.1445L18.1342 36.8365C18.1663 36.8504 18.1989 36.8522 18.2318 36.8424C18.2648 36.8309 18.2929 36.8019 18.3162 36.7557C18.3392 36.7167 18.3601 36.6594 18.3789 36.584C18.3978 36.5067 18.4147 36.4077 18.4295 36.2868C18.4462 36.1662 18.4601 36.0227 18.471 35.8564C18.4838 35.6903 18.4957 35.4971 18.5067 35.2764L19.4589 35.3082L19.3956 37.2071L19.0538 37.1958L19.1066 35.6116Z" fill="#007D75"/>
<path d="M19.6016 35.3086L19.9426 35.2827L19.9946 35.9649C20.0053 35.9621 20.0186 35.9585 20.0346 35.9536C20.0524 35.9487 20.0711 35.9444 20.0908 35.941C20.1105 35.9379 20.1311 35.9343 20.1526 35.931C20.1742 35.9274 20.193 35.9251 20.2093 35.9238C20.2851 35.9182 20.357 35.9218 20.4252 35.9346C20.4951 35.9474 20.5571 35.9746 20.611 36.0157C20.665 36.057 20.7094 36.1163 20.7443 36.1936C20.7809 36.2688 20.8038 36.3668 20.813 36.4877C20.8296 36.7043 20.7897 36.8724 20.6936 36.9923C20.5974 37.1103 20.4364 37.1781 20.2109 37.1953C20.191 37.1965 20.1621 37.1981 20.1241 37.1991C20.088 37.2017 20.0482 37.203 20.0046 37.2027C19.9611 37.2042 19.9166 37.203 19.8709 37.1994C19.8254 37.1973 19.7833 37.1932 19.7447 37.187L19.6016 35.3086ZM20.0639 36.8742C20.0806 36.8783 20.1017 36.8814 20.1272 36.8829C20.1544 36.8827 20.1806 36.8816 20.2059 36.8798C20.2907 36.8732 20.3556 36.8439 20.4006 36.7913C20.4475 36.7389 20.4662 36.6522 20.457 36.5313C20.4522 36.4679 20.4411 36.4171 20.4236 36.3786C20.406 36.3381 20.3838 36.308 20.3569 36.2883C20.3316 36.2667 20.3015 36.2536 20.2667 36.249C20.2336 36.2423 20.1971 36.2408 20.1574 36.2436C20.1376 36.2451 20.1116 36.25 20.0795 36.2577C20.0493 36.2654 20.029 36.2726 20.0185 36.2788L20.0639 36.8742Z" fill="#007D75"/>
<path fill-rule="evenodd" clip-rule="evenodd" d="M3.38981 11.9854C3.64389 11.9854 3.8499 12.1914 3.8499 12.4454C3.8499 12.6995 3.64389 12.9056 3.38981 12.9056C3.1357 12.9056 2.92969 12.6995 2.92969 12.4454C2.92969 12.1914 3.1357 11.9854 3.38981 11.9854Z" fill="#007D75"/>
<path fill-rule="evenodd" clip-rule="evenodd" d="M34.9912 11.9854C35.2452 11.9854 35.4513 12.1914 35.4513 12.4454C35.4513 12.6995 35.2452 12.9056 34.9912 12.9056C34.7371 12.9056 34.5312 12.6995 34.5312 12.4454C34.5312 12.1914 34.7371 11.9854 34.9912 11.9854Z" fill="#007D75"/>
</g>
<defs>
<clipPath id="clip0_3705_70537">
<rect width="38.4973" height="38.4973" fill="white"/>
</clipPath>
</defs>
</svg>
