<svg width="38" height="38" viewBox="0 0 38 38" fill="none" xmlns="http://www.w3.org/2000/svg">
<path d="M1.65199 13.8278L0.856589 15.3574H4.16057L4.95598 13.8278H1.65199Z" fill="white"/>
<path d="M2.81451 10.0955L1.2237 13.0324H12.237L13.4607 15.3574H16.8259L8.87181 0.795404L7.21982 3.73228L10.585 10.0955H2.81451Z" fill="white"/>
<path d="M6.73034 4.52768L4.16057 9.23892H7.46456L8.44352 7.58693L6.73034 4.52768Z" fill="white"/>
<path d="M28.6957 30.8372V36.405H31.6938V30.8372H28.6957Z" fill="white"/>
<path d="M24.5963 26.9214V29.9194H35.9155V27.0437L24.5963 26.9214Z" fill="white"/>
<path d="M37.4452 20.6193V26.3095C37.4452 25.5753 30.3477 19.9463 24.1069 25.2082C18.9129 29.5874 20.8437 34.9774 22.2713 37.0169H18.6614L19.518 36.2215C19.3711 35.9767 19.1713 35.1405 19.0897 34.753L16.5811 34.2024L16.4587 30.8372L18.845 30.2865C18.8939 30.0418 19.1101 29.1648 19.2121 28.7569L17.3765 27.0437L19.0897 24.3516L21.4759 24.9023C21.6717 24.6575 22.1693 24.1884 22.3937 23.9845L21.5983 21.6595L24.5963 19.9463L26.3707 21.4759C26.6154 21.2801 27.3293 21.1496 27.6556 21.1088L28.2674 18.7838H31.6938L32.2444 21.1088C32.685 21.0598 33.2846 21.3331 33.5293 21.4759L35.3037 19.518L37.4452 20.6193Z" fill="white"/>
<path d="M24.3516 0H17.5601C22.6996 5.87375 20.6354 12.4205 18.7226 14.8068C11.9541 23.2503 2.38621 19.2733 0 16.0916V23.2503L2.38621 24.3516L4.58887 22.1489C5.42098 22.3447 6.15928 22.4345 6.42442 22.4549C6.66916 23.5317 7.21982 24.8615 7.46456 25.3917C8.14983 25.5386 10.4422 25.3306 11.5028 25.2082C11.5517 24.8166 12.0126 23.0055 12.237 22.1489C12.7754 22.1489 13.685 21.8226 14.0725 21.6595L16.2752 23.9845C17.9884 23.2503 19.314 22.1285 19.7627 21.6595C19.7138 21.17 19.0489 19.5384 18.7226 18.7838C19.1631 18.539 19.8851 17.8252 20.191 17.4989L23.1891 18.1719C23.5807 17.6824 24.7391 15.5614 25.2694 14.562L22.6996 12.237C23.0912 11.9922 23.3115 10.9521 23.3726 10.4626C23.7642 10.4137 25.5345 9.91196 26.3707 9.66722C26.5665 9.12879 26.4523 6.58758 26.3707 5.38427L23.1891 4.83361C23.1401 4.49097 22.8424 3.46715 22.6996 2.99806L24.8411 0.795404L24.3516 0Z" fill="white"/>
</svg>
