<svg width="34" height="29" viewBox="0 0 34 29" fill="none" xmlns="http://www.w3.org/2000/svg">
<path fill-rule="evenodd" clip-rule="evenodd" d="M33.6583 9.14877V3.64518C19.6779 -4.21655 0 1.23426 0 14.2854C0 28.8386 19.6773 32.4726 33.6583 25.3963V19.6313C28.4802 21.4654 19.6773 20.9414 19.6773 14.3897C19.6773 7.83806 27.3609 6.92257 33.6583 9.14877ZM11.0955 16.4814C10.5771 16.4814 10.3179 16.4814 9.79952 16.2222V13.2163C9.91764 13.2791 10.0587 13.3715 11.0955 13.3715C12.1319 13.3715 13.4278 12.5942 13.4278 11.0391C13.4278 9.48398 12.1771 8.70673 11.0955 8.70673C10.0292 8.70673 8.76276 9.74317 8.76276 11.0391L8.70527 22.9677C7.35184 22.9156 5.94468 22.1123 5.68958 20.6501L5.68549 10.6461C5.70277 8.00425 8.08259 5.5971 10.9802 5.5971C13.8985 5.5971 16.5372 7.92948 16.5372 11.0947C16.5375 14.2596 13.687 16.4814 11.0955 16.4814Z" fill="white"/>
</svg>
