<svg width="926" height="45" viewBox="0 0 926 45" fill="none" xmlns="http://www.w3.org/2000/svg">
<path d="M1.23749 43.9563C1.31232 44.2221 1.58844 44.3769 1.85425 44.3021L6.18585 43.0825C6.45166 43.0077 6.60645 42.7315 6.53162 42.4657C6.45679 42.1999 6.18066 42.0451 5.91486 42.1199L2.06451 43.204L0.980469 39.3537C0.90564 39.0879 0.629456 38.9331 0.363647 39.0079C0.0978394 39.0828 -0.0569458 39.3589 0.0178833 39.6247L1.23749 43.9563ZM925.219 0.320801L924.835 -0.000110626C924.678 0.18792 924.505 0.375122 924.317 0.561424L924.668 0.917065L925.019 1.27271C925.229 1.06584 925.423 0.855545 925.602 0.641712L925.219 0.320801ZM923.292 2.07077L922.999 1.6658C922.497 2.02911 921.934 2.38651 921.309 2.73775L921.555 3.17353L921.8 3.6093C922.452 3.24213 923.048 2.86447 923.585 2.47573L923.292 2.07077ZM919.463 4.22635L919.256 3.771C918.749 4.00109 918.214 4.22785 917.653 4.45128L917.837 4.9159L918.022 5.38052C918.597 5.15176 919.147 4.91885 919.67 4.6817L919.463 4.22635ZM916.125 5.55742L915.958 5.08601C915.368 5.29445 914.754 5.49971 914.115 5.70182L914.266 6.17851L914.417 6.65521C915.066 6.45001 915.69 6.24124 916.291 6.02884L916.125 5.55742ZM912.264 6.77945L912.127 6.2986C911.44 6.49436 910.73 6.68694 909.995 6.87637L910.12 7.36052L910.245 7.84467C910.987 7.65328 911.706 7.45851 912.401 7.2603L912.264 6.77945ZM908.121 7.85487L908.005 7.36836C907.433 7.50397 906.849 7.63788 906.251 7.7701L906.36 8.25827L906.468 8.74645C907.069 8.61321 907.659 8.4782 908.236 8.34138L908.121 7.85487ZM904.524 8.65127L904.423 8.16166C903.8 8.29049 903.166 8.41764 902.519 8.54312L902.614 9.03396L902.71 9.52481C903.36 9.39857 903.999 9.2706 904.625 9.14088L904.524 8.65127ZM900.632 9.40648L900.542 8.91455C899.871 9.03671 899.188 9.15721 898.493 9.27606L898.577 9.76891L898.661 10.2618C899.36 10.1423 900.047 10.0212 900.721 9.8984L900.632 9.40648ZM896.45 10.1214L896.371 9.62773C895.66 9.74197 894.937 9.85463 894.204 9.96571L894.278 10.4601L894.353 10.9545C895.09 10.8429 895.815 10.7298 896.529 10.6151L896.45 10.1214ZM892.473 10.7269L892.402 10.232C891.794 10.3197 891.178 10.4064 890.555 10.4921L890.623 10.9875L890.691 11.4828C891.316 11.3968 891.934 11.3098 892.544 11.2217L892.473 10.7269ZM888.729 11.242L888.664 10.7463C888.027 10.83 887.382 10.9127 886.73 10.9944L886.792 11.4905L886.854 11.9866C887.508 11.9047 888.155 11.8217 888.794 11.7377L888.729 11.242ZM884.811 11.733L884.752 11.2365C884.085 11.3163 883.411 11.395 882.73 11.4728L882.787 11.9696L882.844 12.4663C883.526 12.3883 884.202 12.3094 884.87 12.2294L884.811 11.733ZM880.721 12.2003L880.666 11.7032C879.971 11.779 879.269 11.8539 878.56 11.9278L878.612 12.4251L878.664 12.9224C879.375 12.8484 880.078 12.7733 880.775 12.6973L880.721 12.2003ZM876.462 12.6443L876.412 12.1467C875.779 12.2098 875.141 12.272 874.498 12.3336L874.546 12.8313L874.594 13.3291C875.238 13.2674 875.877 13.205 876.511 13.1418L876.462 12.6443ZM872.674 13.0072L872.628 12.5093C872 12.5672 871.367 12.6244 870.729 12.681L870.773 13.179L870.817 13.677C871.456 13.6204 872.091 13.563 872.72 13.505L872.674 13.0072ZM868.844 13.3469L868.801 12.8487C868.154 12.904 867.502 12.9586 866.845 13.0126L866.886 13.5109L866.927 14.0093C867.585 13.9552 868.238 13.9005 868.886 13.8451L868.844 13.3469ZM864.9 13.6711L864.86 13.1727C864.194 13.2254 863.523 13.2774 862.848 13.3289L862.885 13.8274L862.923 14.326C863.6 14.2745 864.272 14.2223 864.939 14.1695L864.9 13.6711ZM860.844 13.98L860.807 13.4813C860.122 13.5315 859.433 13.581 858.739 13.63L858.774 14.1287L858.809 14.6275C859.504 14.5785 860.194 14.5289 860.88 14.4786L860.844 13.98ZM856.677 14.2738L856.643 13.7749C855.94 13.8226 855.233 13.8697 854.52 13.9162L854.553 14.4152L854.586 14.9141C855.298 14.8676 856.007 14.8204 856.711 14.7726L856.677 14.2738ZM852.615 14.5394L852.584 14.0404C851.956 14.08 851.324 14.1192 850.689 14.1578L850.72 14.6569L850.75 15.156C851.386 15.1173 852.018 15.0781 852.647 15.0385L852.615 14.5394ZM848.804 14.7716L848.774 14.2725C848.133 14.3103 847.488 14.3476 846.84 14.3844L846.868 14.8836L846.896 15.3828C847.545 15.3459 848.191 15.3086 848.833 15.2708L848.804 14.7716ZM844.912 14.993L844.885 14.4937C844.23 14.5297 843.572 14.5652 842.91 14.6003L842.937 15.0996L842.963 15.5989C843.625 15.5638 844.284 15.5282 844.94 15.4922L844.912 14.993ZM840.942 15.2036L840.916 14.7043C840.248 14.7385 839.577 14.7723 838.903 14.8056L838.927 15.305L838.952 15.8044C839.627 15.771 840.299 15.7372 840.967 15.703L840.942 15.2036ZM836.894 15.4038L836.87 14.9043C836.189 14.9368 835.505 14.9689 834.818 15.0005L834.841 15.5L834.864 15.9995C835.551 15.9678 836.236 15.9357 836.917 15.9032L836.894 15.4038ZM832.769 15.5936L832.747 15.0941C832.053 15.1249 831.356 15.1553 830.657 15.1852L830.678 15.6847L830.699 16.1843C831.4 16.1543 832.097 16.1239 832.791 16.0931L832.769 15.5936ZM828.6 15.7721L828.579 15.2725C827.947 15.2986 827.312 15.3243 826.675 15.3497L826.695 15.8493L826.715 16.3489C827.353 16.3235 827.988 16.2977 828.62 16.2716L828.6 15.7721ZM824.776 15.9246L824.757 15.425C824.115 15.4497 823.47 15.4742 822.823 15.4983L822.842 15.9979L822.861 16.4976C823.508 16.4735 824.153 16.449 824.795 16.4242L824.776 15.9246ZM820.893 16.0693L820.875 15.5696C820.224 15.5931 819.57 15.6162 818.913 15.6391L818.93 16.1388L818.948 16.6385C819.605 16.6156 820.259 16.5925 820.911 16.569L820.893 16.0693ZM816.953 16.2063L816.936 15.7066C816.275 15.7288 815.611 15.7506 814.945 15.7722L814.961 16.2719L814.978 16.7717C815.644 16.7501 816.308 16.7282 816.97 16.706L816.953 16.2063ZM812.956 16.3357L812.94 15.8359C812.269 15.8569 811.596 15.8775 810.921 15.8978L810.936 16.3976L810.951 16.8974C811.627 16.877 812.3 16.8564 812.971 16.8355L812.956 16.3357ZM808.902 16.4576L808.888 15.9578C808.208 15.9775 807.525 15.9969 806.841 16.016L806.855 16.5158L806.869 17.0156C807.554 16.9965 808.236 16.9771 808.917 16.9574L808.902 16.4576ZM804.793 16.5722L804.78 16.0724C804.091 16.0909 803.399 16.1091 802.706 16.127L802.719 16.6268L802.731 17.1267C803.425 17.1088 804.117 17.0906 804.807 17.0721L804.793 16.5722ZM800.637 16.6795L800.624 16.1796C799.986 16.1954 799.347 16.211 798.705 16.2263L798.717 16.7262L798.729 17.226C799.371 17.2107 800.011 17.1951 800.649 17.1793L800.637 16.6795ZM796.786 16.7714L796.774 16.2716C796.129 16.2864 795.481 16.301 794.832 16.3154L794.843 16.8153L794.854 17.3151C795.504 17.3008 796.151 17.2862 796.797 17.2713L796.786 16.7714ZM792.89 16.8576L792.879 16.3577C792.227 16.3716 791.572 16.3853 790.916 16.3987L790.926 16.8986L790.936 17.3984C791.593 17.385 792.248 17.3714 792.901 17.3575L792.89 16.8576ZM788.951 16.9381L788.941 16.4382C788.281 16.4511 787.62 16.4638 786.956 16.4763L786.966 16.9762L786.975 17.4761C787.639 17.4636 788.301 17.4509 788.961 17.438L788.951 16.9381ZM784.969 17.0129L784.96 16.513C784.293 16.525 783.625 16.5368 782.954 16.5484L782.963 17.0483L782.971 17.5482C783.642 17.5366 784.311 17.5249 784.978 17.5128L784.969 17.0129ZM780.946 17.0823L780.937 16.5823C780.263 16.5934 779.588 16.6043 778.91 16.615L778.918 17.1149L778.926 17.6149C779.604 17.6042 780.279 17.5933 780.954 17.5822L780.946 17.0823ZM776.88 17.1462L776.873 16.6463C776.192 16.6565 775.509 16.6665 774.825 16.6762L774.832 17.1762L774.839 17.6761C775.524 17.6664 776.206 17.6564 776.888 17.6462L776.88 17.1462ZM772.774 17.2048L772.767 16.7049C772.079 16.7142 771.39 16.7233 770.699 16.7322L770.705 17.2322L770.712 17.7321C771.403 17.7232 772.093 17.7141 772.781 17.7048L772.774 17.2048ZM768.717 17.2572L768.711 16.7572C768.066 16.7651 767.42 16.7728 766.772 16.7803L766.778 17.2803L766.784 17.7802C767.432 17.7727 768.078 17.765 768.723 17.7571L768.717 17.2572ZM764.831 17.3023L764.825 16.8023C764.175 16.8095 763.523 16.8165 762.87 16.8233L762.875 17.3232L762.881 17.8232C763.534 17.8164 764.186 17.8094 764.836 17.8023L764.831 17.3023ZM760.911 17.3431L760.907 16.8431C760.251 16.8496 759.593 16.8558 758.935 16.8619L758.939 17.3619L758.944 17.8619C759.603 17.8558 760.26 17.8495 760.916 17.8431L760.911 17.3431ZM756.959 17.3796L756.955 16.8797C756.293 16.8854 755.63 16.891 754.966 16.8964L754.97 17.3963L754.974 17.8963C755.639 17.8909 756.302 17.8854 756.963 17.8796L756.959 17.3796ZM752.974 17.412L752.97 16.912C752.303 16.9171 751.635 16.922 750.965 16.9267L750.969 17.4267L750.972 17.9267C751.642 17.9219 752.31 17.9171 752.977 17.912L752.974 17.412ZM748.956 17.4403L748.953 16.9403C748.281 16.9447 747.608 16.9489 746.933 16.9529L746.936 17.4529L746.939 17.9529C747.614 17.9489 748.287 17.9447 748.96 17.9403L748.956 17.4403ZM744.907 17.4646L744.905 16.9646C744.227 16.9683 743.549 16.9718 742.869 16.9752L742.871 17.4752L742.874 17.9752C743.554 17.9718 744.233 17.9683 744.91 17.9646L744.907 17.4646ZM740.828 17.4849L740.825 16.9849C740.143 16.988 739.459 16.9909 738.774 16.9936L738.776 17.4936L738.778 17.9936C739.463 17.9909 740.147 17.988 740.83 17.9849L740.828 17.4849ZM736.717 17.5014L736.715 17.0014C736.068 17.0037 735.419 17.0058 734.769 17.0078L734.77 17.5078L734.772 18.0078C735.422 18.0058 736.071 18.0037 736.719 18.0014L736.717 17.5014ZM732.819 17.5135L732.818 17.0135C732.166 17.0152 731.513 17.0168 730.86 17.0183L730.861 17.5183L730.862 18.0183C731.516 18.0168 732.169 18.0152 732.82 18.0135L732.819 17.5135ZM728.896 17.5222L728.895 17.0222C728.239 17.0234 727.582 17.0245 726.924 17.0254L726.925 17.5254L726.926 18.0254C727.584 18.0245 728.241 18.0234 728.897 18.0222L728.896 17.5222ZM724.948 17.5278L724.947 17.0278C724.287 17.0285 723.626 17.029 722.964 17.0294L722.964 17.5294L722.964 18.0294C723.627 18.029 724.288 18.0285 724.948 18.0278L724.948 17.5278ZM720.974 17.5302L720.974 17.0302C720.31 17.0304 719.644 17.0304 718.978 17.0303L718.978 17.5303L718.978 18.0303C719.644 18.0304 720.31 18.0304 720.974 18.0302L720.974 17.5302ZM716.976 17.5296L716.976 17.0296C716.307 17.0292 715.638 17.0287 714.967 17.0281L714.967 17.5281L714.967 18.0281C715.637 18.0287 716.307 18.0292 716.975 18.0296L716.976 17.5296ZM712.952 17.5259L712.953 17.0259C712.281 17.0251 711.607 17.0241 710.933 17.023L710.932 17.523L710.931 18.023C711.606 18.0241 712.279 18.0251 712.952 18.0259L712.952 17.5259ZM708.905 17.5193L708.906 17.0193C708.23 17.018 707.553 17.0165 706.874 17.0149L706.873 17.5149L706.872 18.0149C707.55 18.0165 708.228 18.018 708.904 18.0193L708.905 17.5193ZM704.835 17.5098L704.836 17.0098C704.156 17.008 703.475 17.0061 702.792 17.004L702.791 17.504L702.789 18.004C703.472 18.0061 704.153 18.008 704.833 18.0098L704.835 17.5098ZM700.774 17.4976L700.775 16.9976C700.124 16.9955 699.472 16.9932 698.819 16.9908L698.817 17.4908L698.815 17.9908C699.468 17.9932 700.121 17.9955 700.772 17.9976L700.774 17.4976ZM696.855 17.4834L696.857 16.9834C696.203 16.9808 695.547 16.9781 694.891 16.9754L694.889 17.4753L694.886 17.9753C695.543 17.9781 696.199 17.9808 696.853 17.9834L696.855 17.4834ZM692.917 17.4667L692.919 16.9667C692.261 16.9637 691.602 16.9607 690.942 16.9575L690.94 17.4575L690.938 17.9575C691.597 17.9606 692.256 17.9637 692.914 17.9667L692.917 17.4667ZM688.958 17.4476L688.961 16.9477C688.299 16.9443 687.637 16.9408 686.974 16.9373L686.972 17.4372L686.969 17.9372C687.632 17.9408 688.294 17.9443 688.956 17.9476L688.958 17.4476ZM684.98 17.4263L684.983 16.9263C684.319 16.9225 683.653 16.9187 682.987 16.9147L682.984 17.4147L682.981 17.9147C683.647 17.9187 684.313 17.9225 684.977 17.9263L684.98 17.4263ZM680.983 17.4026L680.986 16.9026C680.319 16.8985 679.65 16.8943 678.981 16.89L678.978 17.39L678.974 17.89C679.644 17.8943 680.312 17.8985 680.98 17.9026L680.983 17.4026ZM676.967 17.3768L676.971 16.8768C676.3 16.8723 675.628 16.8677 674.956 16.8631L674.953 17.3631L674.949 17.863C675.622 17.8677 676.293 17.8723 676.964 17.8768L676.967 17.3768ZM672.933 17.3488L672.937 16.8488C672.263 16.844 671.588 16.839 670.913 16.834L670.909 17.334L670.906 17.834C671.581 17.839 672.256 17.8439 672.93 17.8488L672.933 17.3488ZM668.881 17.3187L668.885 16.8187C668.208 16.8135 667.531 16.8083 666.852 16.8029L666.848 17.3029L666.845 17.8029C667.523 17.8082 668.2 17.8135 668.877 17.8187L668.881 17.3187ZM664.811 17.2866L664.815 16.7866C664.156 16.7813 663.496 16.7758 662.836 16.7703L662.832 17.2703L662.828 17.7703C663.488 17.7758 664.148 17.7812 664.807 17.7866L664.811 17.2866ZM660.865 17.2537L660.869 16.7537C660.213 16.7481 659.556 16.7424 658.899 16.7367L658.894 17.2367L658.89 17.7366C659.548 17.7424 660.204 17.7481 660.861 17.7537L660.865 17.2537ZM656.92 17.2192L656.924 16.7192C656.265 16.7133 655.606 16.7073 654.946 16.7013L654.941 17.2013L654.937 17.7012C655.597 17.7073 656.256 17.7132 656.915 17.7191L656.92 17.2192ZM652.959 17.1829L652.964 16.6829C652.302 16.6767 651.641 16.6705 650.978 16.6642L650.973 17.1642L650.968 17.6641C651.631 17.6704 652.293 17.6767 652.954 17.6829L652.959 17.1829ZM648.984 17.145L648.988 16.645C648.325 16.6385 647.66 16.632 646.995 16.6254L646.99 17.1254L646.985 17.6254C647.65 17.632 648.315 17.6385 648.979 17.645L648.984 17.145ZM644.993 17.1054L644.999 16.6054C644.332 16.5987 643.666 16.5919 642.998 16.5851L642.993 17.0851L642.988 17.585C643.655 17.5919 644.322 17.5987 644.988 17.6054L644.993 17.1054ZM640.989 17.0643L640.994 16.5643C640.326 16.5573 639.657 16.5503 638.987 16.5432L638.982 17.0432L638.976 17.5431C639.646 17.5502 640.315 17.5573 640.984 17.5643L640.989 17.0643ZM636.971 17.0216L636.976 16.5217C636.305 16.5144 635.634 16.5072 634.962 16.4998L634.956 16.9998L634.951 17.4997C635.623 17.5071 636.294 17.5144 636.965 17.5216L636.971 17.0216ZM632.939 16.9775L632.944 16.4776C632.271 16.4701 631.597 16.4626 630.923 16.455L630.918 16.9549L630.912 17.4549C631.586 17.4625 632.26 17.47 632.933 17.4775L632.939 16.9775ZM628.893 16.932L628.899 16.432C628.224 16.4243 627.548 16.4166 626.872 16.4087L626.866 16.9087L626.86 17.4087C627.536 17.4165 628.212 17.4242 628.888 17.432L628.893 16.932ZM624.865 16.8854L624.871 16.3855C624.214 16.3778 623.556 16.37 622.898 16.3622L622.892 16.8622L622.886 17.3622C623.545 17.37 624.202 17.3777 624.86 17.3854L624.865 16.8854ZM620.916 16.8387L620.922 16.3387C620.263 16.3308 619.603 16.3229 618.943 16.3149L618.937 16.8148L618.931 17.3148C619.591 17.3228 620.251 17.3307 620.91 17.3386L620.916 16.8387ZM616.955 16.7907L616.961 16.2907C616.3 16.2827 615.639 16.2745 614.977 16.2663L614.97 16.7663L614.964 17.2663C615.626 17.2744 616.288 17.2826 616.949 17.2907L616.955 16.7907ZM612.983 16.7416L612.989 16.2416C612.326 16.2334 611.663 16.225 610.999 16.2167L610.993 16.7166L610.986 17.2166C611.65 17.225 612.314 17.2333 612.977 17.2416L612.983 16.7416ZM609 16.6914L609.006 16.1914C608.341 16.183 607.676 16.1745 607.011 16.1659L607.004 16.6659L606.998 17.1659C607.663 17.1744 608.329 17.1829 608.993 17.1914L609 16.6914ZM605.006 16.6401L605.013 16.1402C604.346 16.1315 603.679 16.1229 603.012 16.1142L603.005 16.6141L602.999 17.1141C603.666 17.1228 604.333 17.1315 605 17.1401L605.006 16.6401ZM601.002 16.5879L601.008 16.0879C600.34 16.0791 599.672 16.0703 599.003 16.0614L598.996 16.5614L598.989 17.0613C599.658 17.0702 600.327 17.079 600.995 17.0878L601.002 16.5879ZM596.987 16.5346L596.994 16.0347C596.324 16.0257 595.654 16.0167 594.983 16.0077L594.977 16.5077L594.97 17.0076C595.641 17.0166 596.311 17.0256 596.981 17.0346L596.987 16.5346ZM592.963 16.4805L592.97 15.9805C592.299 15.9714 591.627 15.9623 590.955 15.9531L590.948 16.4531L590.941 16.953C591.613 16.9622 592.285 16.9713 592.957 16.9804L592.963 16.4805ZM588.93 16.4255L588.937 15.9255C588.264 15.9163 587.59 15.907 586.917 15.8977L586.91 16.3976L586.903 16.8976C587.576 16.9069 588.25 16.9162 588.923 16.9254L588.93 16.4255ZM584.915 16.37L584.922 15.87C584.262 15.8609 583.602 15.8517 582.941 15.8424L582.934 16.3424L582.927 16.8423C583.588 16.8516 584.248 16.8608 584.908 16.8699L584.915 16.37ZM580.952 16.3146L580.959 15.8147C580.298 15.8054 579.636 15.7961 578.974 15.7867L578.967 16.2867L578.96 16.7866C579.622 16.796 580.284 16.8053 580.945 16.8146L580.952 16.3146ZM576.981 16.2585L576.988 15.7586C576.325 15.7492 575.662 15.7398 574.999 15.7303L574.992 16.2303L574.985 16.7302C575.648 16.7397 576.311 16.7491 576.973 16.7585L576.981 16.2585ZM573.001 16.2018L573.009 15.7019C572.345 15.6924 571.681 15.6828 571.016 15.6733L571.009 16.1732L571.002 16.6732C571.666 16.6827 572.33 16.6923 572.994 16.7018L573.001 16.2018ZM569.015 16.1445L569.022 15.6445C568.357 15.6349 567.691 15.6253 567.026 15.6156L567.019 16.1156L567.011 16.6155C567.677 16.6252 568.342 16.6348 569.008 16.6444L569.015 16.1445ZM565.021 16.0866L565.028 15.5866C564.362 15.5769 563.695 15.5672 563.028 15.5575L563.021 16.0574L563.014 16.5574C563.68 16.5671 564.347 16.5768 565.013 16.5865L565.021 16.0866ZM561.019 16.0281L561.027 15.5282C560.359 15.5184 559.692 15.5086 559.024 15.4988L559.016 15.9987L559.009 16.4987C559.677 16.5085 560.345 16.5183 561.012 16.5281L561.019 16.0281ZM557.011 15.9692L557.019 15.4693C556.35 15.4594 555.681 15.4495 555.012 15.4396L555.005 15.9396L554.998 16.4395C555.667 16.4494 556.336 16.4593 557.004 16.4691L557.011 15.9692ZM552.997 15.9098L553.004 15.4099C552.335 15.4 551.665 15.39 550.995 15.3801L550.987 15.88L550.98 16.3799C551.65 16.3899 552.32 16.3999 552.99 16.4098L552.997 15.9098ZM548.976 15.8501L548.984 15.3501C548.313 15.3401 547.642 15.3301 546.971 15.3201L546.964 15.8201L546.956 16.32C547.627 16.33 548.298 16.34 548.969 16.35L548.976 15.8501ZM544.958 15.7901L544.966 15.2902C544.304 15.2803 543.642 15.2703 542.979 15.2604L542.972 15.7604L542.964 16.2603C543.627 16.2702 544.289 16.2801 544.951 16.29L544.958 15.7901ZM540.984 15.7305L540.991 15.2306C540.328 15.2207 539.665 15.2107 539.002 15.2007L538.995 15.7007L538.987 16.2006C539.65 16.2106 540.313 16.2205 540.976 16.2305L540.984 15.7305ZM537.004 15.6707L537.012 15.1708C536.348 15.1608 535.684 15.1508 535.02 15.1408L535.012 15.6407L535.005 16.1407C535.669 16.1507 536.333 16.1607 536.996 16.1707L537.004 15.6707ZM533.019 15.6107L533.027 15.1108C532.362 15.1007 531.698 15.0907 531.033 15.0807L531.025 15.5806L531.018 16.0806C531.682 16.0906 532.347 16.1006 533.012 16.1107L533.019 15.6107ZM529.03 15.5505L529.037 15.0506C528.372 15.0405 527.707 15.0305 527.041 15.0204L527.033 15.5203L527.026 16.0203C527.692 16.0303 528.357 16.0404 529.022 16.0504L529.03 15.5505ZM525.036 15.4902L525.044 14.9902C524.378 14.9802 523.711 14.9701 523.045 14.96L523.037 15.46L523.03 15.9599C523.696 15.97 524.362 15.98 525.028 15.9901L525.036 15.4902ZM521.038 15.4297L521.046 14.9298C520.379 14.9197 519.712 14.9096 519.045 14.8996L519.038 15.3995L519.03 15.8994C519.697 15.9095 520.364 15.9196 521.03 15.9297L521.038 15.4297ZM517.036 15.3693L517.044 14.8693C516.376 14.8592 515.709 14.8491 515.041 14.8391L515.034 15.339L515.026 15.839C515.694 15.849 516.361 15.8591 517.029 15.8692L517.036 15.3693ZM513.031 15.3088L513.038 14.8088C512.37 14.7987 511.702 14.7887 511.034 14.7786L511.027 15.2785L511.019 15.7785C511.687 15.7885 512.355 15.7986 513.023 15.8087L513.031 15.3088ZM509.022 15.2483L509.029 14.7484C508.361 14.7383 507.692 14.7282 507.024 14.7182L507.016 15.2181L507.009 15.718C507.677 15.7281 508.346 15.7382 509.014 15.7483L509.022 15.2483ZM505.01 15.1879L505.017 14.688C504.352 14.678 503.686 14.668 503.02 14.658L503.013 15.1579L503.005 15.6579C503.671 15.6679 504.337 15.6779 505.002 15.6879L505.01 15.1879ZM501.019 15.128L501.027 14.6281C500.362 14.6181 499.697 14.6082 499.032 14.5982L499.025 15.0982L499.017 15.5981C499.682 15.608 500.347 15.618 501.012 15.628L501.019 15.128ZM497.03 15.0683L497.038 14.5684C496.373 14.5585 495.708 14.5485 495.042 14.5386L495.035 15.0386L495.027 15.5385C495.693 15.5484 496.358 15.5583 497.023 15.5683L497.03 15.0683ZM493.039 15.0088L493.047 14.5089C492.381 14.499 491.716 14.4891 491.05 14.4792L491.043 14.9792L491.035 15.4791C491.701 15.489 492.366 15.4989 493.032 15.5088L493.039 15.0088ZM489.046 14.9496L489.053 14.4496C488.388 14.4398 487.722 14.4299 487.056 14.4201L487.049 14.9201L487.041 15.42C487.707 15.4298 488.373 15.4397 489.039 15.4495L489.046 14.9496ZM485.051 14.8906L485.059 14.3907C484.393 14.3808 483.727 14.3711 483.061 14.3613L483.053 14.8612L483.046 15.3612C483.712 15.371 484.378 15.3807 485.044 15.3905L485.051 14.8906ZM481.055 14.8319L481.062 14.332C480.396 14.3222 479.73 14.3125 479.064 14.3028L479.057 14.8027L479.049 15.3027C479.715 15.3124 480.382 15.3221 481.048 15.3319L481.055 14.8319ZM477.058 14.7736L477.065 14.2737C476.399 14.264 475.732 14.2543 475.066 14.2447L475.059 14.7446L475.051 15.2446C475.718 15.2542 476.384 15.2639 477.05 15.2736L477.058 14.7736ZM473.059 14.7157L473.067 14.2158C472.4 14.2062 471.734 14.1966 471.067 14.187L471.06 14.6869L471.053 15.1869C471.719 15.1965 472.386 15.2061 473.052 15.2157L473.059 14.7157ZM469.061 14.6583L469.068 14.1583C468.401 14.1488 467.735 14.1393 467.068 14.1298L467.061 14.6297L467.054 15.1297C467.72 15.1392 468.387 15.1487 469.053 15.1582L469.061 14.6583ZM465.061 14.6013L465.068 14.1013C464.402 14.0919 463.735 14.0825 463.069 14.073L463.062 14.573L463.055 15.0729C463.721 15.0824 464.388 15.0918 465.054 15.1012L465.061 14.6013ZM461.062 14.5448L461.069 14.0449C460.402 14.0355 459.735 14.0262 459.069 14.0169L459.062 14.5168L459.055 15.0168C459.721 15.0261 460.388 15.0354 461.055 15.0448L461.062 14.5448ZM457.062 14.4889L457.069 13.989C456.402 13.9797 455.736 13.9705 455.069 13.9612L455.062 14.4612L455.055 14.9611C455.722 14.9704 456.389 14.9796 457.055 14.9889L457.062 14.4889ZM453.063 14.4336L453.07 13.9337C452.403 13.9245 451.737 13.9154 451.07 13.9063L451.063 14.4062L451.057 14.9062C451.723 14.9153 452.389 14.9244 453.056 14.9336L453.063 14.4336ZM449.064 14.379L449.071 13.879C448.405 13.87 447.738 13.8609 447.072 13.8519L447.065 14.3519L447.059 14.8518C447.725 14.8608 448.391 14.8699 449.057 14.8789L449.064 14.379ZM445.067 14.325L445.073 13.825C444.407 13.8161 443.741 13.8072 443.075 13.7983L443.068 14.2983L443.062 14.7982C443.728 14.8071 444.394 14.816 445.06 14.8249L445.067 14.325ZM441.07 14.2717L441.077 13.7718C440.411 13.763 439.745 13.7542 439.079 13.7455L439.073 14.2454L439.066 14.7454C439.732 14.7541 440.398 14.7629 441.064 14.7717L441.07 14.2717ZM437.075 14.2193L437.082 13.7193C436.416 13.7106 435.75 13.702 435.085 13.6934L435.078 14.1933L435.072 14.6933C435.738 14.7019 436.403 14.7105 437.069 14.7192L437.075 14.2193ZM433.082 14.1676L433.089 13.6676C432.423 13.6591 431.758 13.6506 431.093 13.6421L431.086 14.1421L431.08 14.642C431.745 14.6505 432.41 14.659 433.076 14.6676L433.082 14.1676ZM429.091 14.1168L429.097 13.6168C428.432 13.6084 427.767 13.6001 427.103 13.5917L427.096 14.0917L427.09 14.5917C427.755 14.6 428.42 14.6083 429.085 14.6167L429.091 14.1168ZM425.102 14.0668L425.108 13.5669C424.444 13.5586 423.779 13.5504 423.115 13.5423L423.109 14.0422L423.103 14.5422C423.767 14.5503 424.431 14.5585 425.096 14.5668L425.102 14.0668ZM421.114 14.0178L421.12 13.5178C420.451 13.5097 419.782 13.5016 419.113 13.4935L419.107 13.9935L419.101 14.4934C419.77 14.5015 420.438 14.5096 421.107 14.5178L421.114 14.0178ZM417.101 13.9694L417.107 13.4695C416.438 13.4615 415.77 13.4535 415.102 13.4456L415.096 13.9456L415.09 14.4456C415.758 14.4535 416.426 14.4614 417.095 14.4694L417.101 13.9694ZM413.091 13.9221L413.097 13.4221C412.429 13.4143 411.761 13.4065 411.094 13.3988L411.088 13.8988L411.082 14.3987C411.75 14.4065 412.417 14.4142 413.085 14.422L413.091 13.9221ZM409.085 13.8758L409.091 13.3758C408.423 13.3682 407.756 13.3606 407.089 13.3531L407.083 13.853L407.078 14.353C407.745 14.3605 408.412 14.3681 409.079 14.3757L409.085 13.8758ZM405.083 13.8306L405.088 13.3306C404.421 13.3232 403.755 13.3158 403.088 13.3085L403.083 13.8084L403.077 14.3084C403.744 14.3157 404.41 14.3231 405.077 14.3306L405.083 13.8306ZM401.084 13.7866L401.089 13.2866C400.423 13.2793 399.757 13.2722 399.092 13.265L399.086 13.765L399.081 14.265C399.747 14.2721 400.412 14.2793 401.079 14.2865L401.084 13.7866ZM397.09 13.7437L397.095 13.2437C396.43 13.2367 395.764 13.2297 395.099 13.2228L395.094 13.7228L395.089 14.2227C395.754 14.2297 396.419 14.2367 397.084 14.2437L397.09 13.7437ZM393.1 13.7021L393.105 13.2021C392.44 13.1953 391.776 13.1885 391.112 13.1818L391.107 13.6818L391.102 14.1818C391.766 14.1885 392.43 14.1953 393.095 14.2021L393.1 13.7021ZM389.115 13.6618L389.12 13.1618C388.456 13.1552 387.792 13.1486 387.129 13.1421L387.124 13.6421L387.119 14.1421C387.782 14.1486 388.446 14.1552 389.11 14.1618L389.115 13.6618ZM385.135 13.6228L385.139 13.1228C384.476 13.1164 383.814 13.1101 383.151 13.1038L383.146 13.6038L383.142 14.1038C383.804 14.11 384.467 14.1164 385.13 14.1228L385.135 13.6228ZM381.16 13.5851L381.164 13.0852C380.497 13.0789 379.83 13.0728 379.163 13.0667L379.158 13.5667L379.154 14.0667C379.821 14.0728 380.488 14.0789 381.155 14.0851L381.16 13.5851ZM377.145 13.5485L377.15 13.0485C376.479 13.0425 375.808 13.0365 375.138 13.0307L375.133 13.5306L375.129 14.0306C375.799 14.0365 376.47 14.0425 377.141 14.0485L377.145 13.5485ZM373.123 13.5132L373.128 13.0132C372.458 13.0075 371.788 13.0018 371.119 12.9961L371.115 13.4961L371.111 13.9961C371.78 14.0017 372.449 14.0074 373.119 14.0132L373.123 13.5132ZM369.108 13.4794L369.112 12.9794C368.443 12.9739 367.775 12.9685 367.106 12.9632L367.102 13.4631L367.098 13.9631C367.767 13.9685 368.435 13.9739 369.104 13.9794L369.108 13.4794ZM365.099 13.4472L365.103 12.9473C364.435 12.942 363.768 12.9369 363.101 12.9318L363.097 13.4318L363.093 13.9317C363.76 13.9368 364.427 13.942 365.095 13.9472L365.099 13.4472ZM361.097 13.4167L361.101 12.9167C360.434 12.9117 359.768 12.9068 359.102 12.902L359.098 13.402L359.095 13.902C359.761 13.9068 360.427 13.9117 361.093 13.9167L361.097 13.4167ZM357.102 13.3878L357.105 12.8878C356.44 12.8831 355.775 12.8785 355.111 12.874L355.107 13.3739L355.104 13.8739C355.768 13.8785 356.433 13.8831 357.098 13.8878L357.102 13.3878ZM353.115 13.3606L353.118 12.8606C352.454 12.8562 351.79 12.8519 351.127 12.8476L351.124 13.3476L351.12 13.8476C351.784 13.8518 352.447 13.8562 353.111 13.8605L353.115 13.3606ZM349.135 13.3351L349.138 12.8351C348.475 12.831 347.813 12.827 347.151 12.823L347.148 13.323L347.145 13.823C347.807 13.827 348.469 13.831 349.132 13.8351L349.135 13.3351ZM345.163 13.3114L345.166 12.8114C344.505 12.8076 343.844 12.8039 343.183 12.8003L343.18 13.3003L343.177 13.8003C343.838 13.8039 344.499 13.8076 345.16 13.8114L345.163 13.3114ZM341.2 13.2896L341.202 12.7896C340.539 12.7861 339.875 12.7827 339.213 12.7793L339.21 13.2793L339.208 13.7793C339.87 13.7827 340.533 13.7861 341.197 13.7896L341.2 13.2896ZM337.189 13.2694L337.192 12.7694C336.518 12.7662 335.845 12.763 335.173 12.7599L335.171 13.2599L335.168 13.7599C335.841 13.763 336.514 13.7661 337.187 13.7694L337.189 13.2694ZM333.154 13.251L333.156 12.751C332.485 12.7481 331.813 12.7453 331.143 12.7426L331.141 13.2426L331.138 13.7426C331.809 13.7453 332.481 13.7481 333.152 13.751L333.154 13.251ZM329.129 13.2347L329.131 12.7347C328.461 12.7321 327.791 12.7297 327.122 12.7273L327.12 13.2273L327.118 13.7273C327.788 13.7296 328.457 13.7321 329.127 13.7347L329.129 13.2347ZM325.114 13.2204L325.115 12.7204C324.447 12.7182 323.779 12.7161 323.111 12.7141L323.11 13.2141L323.108 13.7141C323.776 13.7161 324.444 13.7182 325.112 13.7204L325.114 13.2204ZM321.108 13.2084L321.11 12.7084C320.443 12.7065 319.777 12.7048 319.111 12.7031L319.11 13.2031L319.108 13.7031C319.774 13.7048 320.44 13.7065 321.107 13.7084L321.108 13.2084ZM317.114 13.1985L317.115 12.6985C316.45 12.697 315.785 12.6956 315.121 12.6944L315.12 13.1944L315.119 13.6944C315.783 13.6956 316.448 13.697 317.112 13.6985L317.114 13.1985ZM313.13 13.1908L313.13 12.6908C312.467 12.6897 311.805 12.6888 311.142 12.6879L311.142 13.1879L311.141 13.6879C311.803 13.6888 312.466 13.6897 313.129 13.6908L313.13 13.1908ZM309.157 13.1855L309.157 12.6855C308.496 12.6848 307.835 12.6842 307.175 12.6837L307.174 13.1837L307.174 13.6837C307.834 13.6842 308.495 13.6848 309.156 13.6855L309.157 13.1855ZM305.195 13.1825L305.195 12.6825C304.536 12.6822 303.877 12.682 303.219 12.6819L303.219 13.1819L303.219 13.6819C303.877 13.682 304.536 13.6822 305.195 13.6825L305.195 13.1825ZM301.245 13.1818L301.245 12.6818C300.58 12.6819 299.915 12.6821 299.251 12.6824L299.251 13.1824L299.252 13.6824C299.916 13.6821 300.58 13.6819 301.245 13.6818L301.245 13.1818ZM297.223 13.1837L297.223 12.6837C296.547 12.6842 295.872 12.6849 295.198 12.6856L295.198 13.1856L295.199 13.6856C295.873 13.6849 296.548 13.6842 297.224 13.6837L297.223 13.1837ZM293.177 13.1882L293.176 12.6882C292.502 12.6892 291.83 12.6903 291.157 12.6915L291.158 13.1915L291.159 13.6915C291.831 13.6903 292.504 13.6892 293.177 13.6882L293.177 13.1882ZM289.143 13.1954L289.142 12.6954C288.471 12.6968 287.8 12.6983 287.13 12.7L287.132 13.2L287.133 13.7C287.803 13.6983 288.473 13.6968 289.144 13.6954L289.143 13.1954ZM285.124 13.2053L285.122 12.7053C284.453 12.7072 283.785 12.7092 283.118 12.7113L283.119 13.2113L283.121 13.7113C283.788 13.7092 284.456 13.7072 285.125 13.7053L285.124 13.2053ZM281.118 13.218L281.117 12.718C280.45 12.7204 279.784 12.7228 279.119 12.7254L279.121 13.2254L279.123 13.7254C279.788 13.7228 280.454 13.7204 281.12 13.718L281.118 13.218ZM277.127 13.2335L277.125 12.7336C276.461 12.7364 275.798 12.7393 275.135 12.7424L275.137 13.2424L275.14 13.7424C275.802 13.7393 276.466 13.7364 277.129 13.7335L277.127 13.2335ZM273.151 13.252L273.148 12.752C272.487 12.7553 271.826 12.7587 271.166 12.7623L271.168 13.2623L271.171 13.7623C271.831 13.7587 272.492 13.7553 273.153 13.752L273.151 13.252ZM269.19 13.2733L269.187 12.7734C268.528 12.7772 267.869 12.7811 267.212 12.7852L267.215 13.2851L267.218 13.7851C267.875 13.7811 268.534 13.7771 269.193 13.7733L269.19 13.2733ZM265.244 13.2977L265.241 12.7977C264.584 12.802 263.928 12.8065 263.273 12.811L263.277 13.311L263.28 13.811C263.935 13.8064 264.591 13.802 265.247 13.7977L265.244 13.2977ZM261.304 13.3252L261.301 12.8252C260.621 12.8302 259.941 12.8354 259.263 12.8407L259.267 13.3406L259.271 13.8406C259.949 13.8353 260.628 13.8302 261.308 13.8252L261.304 13.3252ZM257.234 13.357L257.229 12.857C256.552 12.8625 255.876 12.8683 255.2 12.8741L255.205 13.3741L255.209 13.8741C255.885 13.8682 256.561 13.8625 257.238 13.8569L257.234 13.357ZM253.18 13.3921L253.176 12.8922C252.502 12.8983 251.828 12.9046 251.156 12.9111L251.161 13.411L251.165 13.911C251.838 13.9046 252.511 13.8983 253.185 13.8921L253.18 13.3921ZM249.145 13.4308L249.14 12.9308C248.469 12.9375 247.799 12.9444 247.13 12.9515L247.135 13.4514L247.14 13.9514C247.809 13.9444 248.479 13.9375 249.15 13.9308L249.145 13.4308ZM245.129 13.473L245.123 12.973C244.455 12.9803 243.788 12.9878 243.122 12.9954L243.128 13.4954L243.133 13.9953C243.8 13.9877 244.467 13.9802 245.134 13.9729L245.129 13.473ZM241.131 13.5187L241.125 13.0187C240.461 13.0267 239.797 13.0347 239.133 13.043L239.14 13.5429L239.146 14.0429C239.809 14.0347 240.473 14.0266 241.137 14.0187L241.131 13.5187ZM237.153 13.5681L237.146 13.0681C236.485 13.0766 235.824 13.0853 235.164 13.0942L235.171 13.5941L235.178 14.0941C235.837 14.0852 236.498 14.0766 237.159 14.068L237.153 13.5681ZM233.194 13.6211L233.187 13.1212C232.529 13.1303 231.871 13.1396 231.215 13.1491L231.222 13.6491L231.229 14.149C231.886 14.1395 232.543 14.1302 233.201 14.1211L233.194 13.6211ZM229.255 13.6779L229.248 13.178C228.593 13.1878 227.939 13.1977 227.286 13.2078L227.293 13.7078L227.301 14.2077C227.954 14.1976 228.608 14.1877 229.263 14.1779L229.255 13.6779ZM225.337 13.7386L225.329 13.2386C224.658 13.2494 223.987 13.2603 223.318 13.2713L223.326 13.7713L223.335 14.2712C224.004 14.2601 224.674 14.2492 225.345 14.2385L225.337 13.7386ZM221.282 13.8057L221.274 13.3058C220.593 13.3174 219.914 13.3293 219.235 13.3413L219.244 13.8412L219.253 14.3411C219.931 14.3291 220.61 14.3173 221.291 14.3056L221.282 13.8057ZM217.211 13.8778L217.202 13.3779C216.526 13.3903 215.85 13.4029 215.175 13.4156L215.185 13.9155L215.194 14.4154C215.869 14.4027 216.544 14.3901 217.221 14.3777L217.211 13.8778ZM213.164 13.9543L213.154 13.4544C212.482 13.4676 211.81 13.4809 211.14 13.4944L211.15 13.9943L211.16 14.4942C211.83 14.4807 212.502 14.4674 213.174 14.4542L213.164 13.9543ZM209.141 14.0353L209.131 13.5354C208.462 13.5493 207.795 13.5634 207.128 13.5776L207.139 14.0775L207.15 14.5774C207.816 14.5631 208.483 14.5491 209.152 14.5352L209.141 14.0353ZM205.143 14.1208L205.132 13.6209C204.467 13.6356 203.804 13.6504 203.142 13.6654L203.153 14.1653L203.164 14.6652C203.826 14.6501 204.49 14.6353 205.154 14.6207L205.143 14.1208ZM201.169 14.2109L201.158 13.7111C200.497 13.7265 199.838 13.7421 199.18 13.7579L199.192 14.2577L199.204 14.7576C199.862 14.7418 200.521 14.7262 201.181 14.7108L201.169 14.2109ZM197.221 14.3057L197.209 13.8058C196.553 13.822 195.898 13.8384 195.245 13.855L195.257 14.3548L195.27 14.8547C195.923 14.8381 196.578 14.8217 197.234 14.8055L197.221 14.3057ZM193.3 14.4052L193.286 13.9053C192.635 13.9223 191.984 13.9395 191.335 13.9569L191.348 14.4567L191.362 14.9565C192.011 14.9391 192.661 14.922 193.313 14.905L193.3 14.4052ZM189.404 14.5094L189.39 14.0096C188.704 14.0285 188.019 14.0476 187.335 14.0669L187.349 14.5667L187.363 15.0665C188.047 15.0472 188.732 15.0281 189.418 15.0092L189.404 14.5094ZM185.298 14.6254L185.284 14.1257C184.601 14.1455 183.92 14.1655 183.24 14.1858L183.255 14.6856L183.27 15.1854C183.95 15.1651 184.631 15.145 185.313 15.1252L185.298 14.6254ZM181.22 14.7471L181.204 14.2474C180.527 14.2681 179.851 14.2891 179.176 14.3103L179.192 14.8101L179.208 15.3098C179.882 15.2886 180.558 15.2676 181.235 15.2469L181.22 14.7471ZM177.172 14.8744L177.156 14.3747C176.484 14.3964 175.813 14.4183 175.144 14.4405L175.16 14.9402L175.177 15.44C175.846 15.4178 176.516 15.3959 177.188 15.3742L177.172 14.8744ZM173.156 15.0075L173.139 14.5078C172.472 14.5304 171.807 14.5533 171.143 14.5765L171.16 15.0762L171.178 15.5759C171.842 15.5527 172.507 15.5298 173.173 15.5072L173.156 15.0075ZM169.173 15.1463L169.155 14.6467C168.494 14.6703 167.834 14.6942 167.175 14.7183L167.193 15.218L167.212 15.7176C167.87 15.6935 168.53 15.6696 169.191 15.646L169.173 15.1463ZM165.222 15.2911L165.203 14.7914C164.547 14.8161 163.893 14.8409 163.24 14.866L163.259 15.3657L163.278 15.8653C163.931 15.8402 164.585 15.8153 165.241 15.7907L165.222 15.2911ZM161.305 15.4418L161.285 14.9422C160.635 14.9678 159.986 14.9937 159.339 15.0198L159.359 15.5194L159.379 16.019C160.026 15.9929 160.675 15.967 161.324 15.9414L161.305 15.4418ZM157.421 15.5985L157.401 15.099C156.738 15.1264 156.076 15.154 155.416 15.182L155.438 15.6815L155.459 16.1811C156.118 16.1531 156.779 16.1255 157.442 16.0981L157.421 15.5985ZM153.371 15.7701L153.349 15.2706C152.662 15.3004 151.976 15.3306 151.292 15.361L151.314 15.8605L151.337 16.3601C152.02 16.3296 152.706 16.2995 153.393 16.2697L153.371 15.7701ZM149.268 15.9528L149.245 15.4533C148.565 15.4843 147.886 15.5157 147.209 15.5474L147.232 16.0468L147.255 16.5463C147.932 16.5146 148.611 16.4833 149.291 16.4523L149.268 15.9528ZM145.206 16.1427L145.182 15.6433C144.509 15.6756 143.837 15.7081 143.167 15.741L143.191 16.2404L143.216 16.7398C143.885 16.707 144.557 16.6744 145.23 16.6421L145.206 16.1427ZM141.187 16.34L141.161 15.8407C140.495 15.8742 139.83 15.908 139.167 15.9422L139.192 16.4415L139.218 16.9408C139.881 16.9067 140.545 16.8729 141.212 16.8394L141.187 16.34ZM137.209 16.5449L137.183 16.0456C136.523 16.0803 135.865 16.1154 135.209 16.1508L135.236 16.6501L135.263 17.1494C135.919 17.114 136.576 17.0789 137.235 17.0442L137.209 16.5449ZM133.275 16.7573L133.247 16.258C132.595 16.2941 131.944 16.3305 131.296 16.3672L131.324 16.8664L131.352 17.3656C132 17.3289 132.65 17.2925 133.302 17.2565L133.275 16.7573ZM129.384 16.9774L129.355 16.4782C128.71 16.5156 128.067 16.5532 127.426 16.5912L127.455 17.0904L127.485 17.5895C128.126 17.5515 128.768 17.5139 129.413 17.4766L129.384 16.9774ZM125.538 17.2053L125.507 16.7062C124.812 16.7483 124.12 16.7909 123.429 16.8338L123.46 17.3328L123.491 17.8319C124.181 17.789 124.873 17.7465 125.568 17.7044L125.538 17.2053ZM121.389 17.4632L121.357 16.9642C120.669 17.008 119.983 17.0523 119.299 17.097L119.332 17.5959L119.364 18.0948C120.048 18.0502 120.733 18.006 121.421 17.9622L121.389 17.4632ZM117.288 17.7311L117.255 17.2322C116.576 17.2776 115.899 17.3235 115.224 17.3698L115.259 17.8686L115.293 18.3675C115.967 18.3212 116.643 18.2754 117.322 18.2299L117.288 17.7311ZM113.243 18.0087L113.208 17.5099C112.538 17.557 111.87 17.6045 111.205 17.6524L111.241 18.1511L111.277 18.6498C111.942 18.602 112.609 18.5545 113.278 18.5074L113.243 18.0087ZM109.254 18.2961L109.217 17.7974C108.557 17.8462 107.899 17.8954 107.243 17.945L107.281 18.4435L107.318 18.9421C107.973 18.8926 108.631 18.8434 109.291 18.7947L109.254 18.2961ZM105.322 18.5935L105.283 18.095C104.633 18.1454 103.984 18.1962 103.338 18.2475L103.378 18.746L103.418 19.2444C104.063 19.1932 104.711 19.1424 105.361 19.092L105.322 18.5935ZM101.448 18.901L101.408 18.4026C100.767 18.4547 100.128 18.5073 99.4922 18.5603L99.5337 19.0585L99.5752 19.5568C100.211 19.5039 100.849 19.4514 101.489 19.3993L101.448 18.901ZM97.6337 19.2187L97.5912 18.7205C96.8968 18.7797 96.2053 18.8395 95.5169 18.8998L95.5605 19.3979L95.6041 19.896C96.2918 19.8358 96.9825 19.7761 97.6763 19.7169L97.6337 19.2187ZM93.4772 19.5828L93.4324 19.0848C92.7407 19.147 92.0521 19.2098 91.3667 19.2731L91.4127 19.771L91.4587 20.2689C92.1432 20.2056 92.8311 20.1429 93.5219 20.0808L93.4772 19.5828ZM89.3673 19.9624L89.3201 19.4647C88.6411 19.5291 87.9652 19.5941 87.2926 19.6596L87.3411 20.1572L87.3896 20.6549C88.0613 20.5894 88.7363 20.5245 89.4145 20.4602L89.3673 19.9624ZM85.3342 20.3553L85.2844 19.8578C84.6183 19.9245 83.9554 19.9917 83.2958 20.0594L83.3469 20.5568L83.3979 21.0542C84.0567 20.9865 84.7187 20.9194 85.384 20.8528L85.3342 20.3553ZM81.3791 20.7617L81.3266 20.2644C80.6735 20.3333 80.0237 20.4028 79.3773 20.4728L79.4311 20.9699L79.4849 21.467C80.1305 21.3971 80.7794 21.3277 81.4315 21.2589L81.3791 20.7617ZM77.5031 21.1816L77.4478 20.6847C76.808 20.7558 76.1714 20.8276 75.5383 20.8999L75.5951 21.3967L75.6519 21.8935C76.284 21.8213 76.9195 21.7496 77.5583 21.6785L77.5031 21.1816ZM73.7074 21.6153L73.6491 21.1187C73.0014 21.1947 72.3573 21.2714 71.7169 21.3486L71.7767 21.845L71.8366 22.3414C72.476 22.2643 73.119 22.1878 73.7657 22.1119L73.7074 21.6153ZM69.6663 22.1036L69.6046 21.6074C68.905 21.6944 68.21 21.7822 67.5194 21.8708L67.583 22.3667L67.6467 22.8627C68.3359 22.7743 69.0297 22.6866 69.728 22.5997L69.6663 22.1036ZM65.527 22.6346L65.4614 22.1389C64.78 22.2291 64.1031 22.32 63.4309 22.4117L63.4985 22.9071L63.5662 23.4025C64.237 23.311 64.9125 23.2202 65.5926 23.1303L65.527 22.6346ZM61.4978 23.1844L61.4281 22.6893C60.7651 22.7826 60.1068 22.8768 59.4532 22.9717L59.525 23.4665L59.5969 23.9613C60.2491 23.8666 60.9059 23.7727 61.5675 23.6795L61.4978 23.1844ZM57.5804 23.7534L57.5063 23.2589C56.8621 23.3554 56.2226 23.4528 55.5878 23.5509L55.6642 24.0451L55.7407 24.5392C56.3738 24.4413 57.0118 24.3441 57.6545 24.2478L57.5804 23.7534ZM53.7767 24.3416L53.6979 23.8479C53.0726 23.9477 52.4523 24.0483 51.8367 24.1498L51.918 24.6431L51.9993 25.1365C52.6132 25.0353 53.2319 24.9349 53.8555 24.8354L53.7767 24.3416ZM50.0234 24.9606L49.9394 24.4677C49.223 24.5898 48.5135 24.713 47.8108 24.8374L47.8979 25.3298L47.9852 25.8221C48.6857 25.6981 49.3931 25.5752 50.1074 25.4535L50.0234 24.9606ZM45.814 25.7059L45.7234 25.2142C45.0346 25.341 44.3527 25.4689 43.6777 25.5981L43.7717 26.0892L43.8657 26.5803C44.5382 26.4516 45.2178 26.324 45.9045 26.1977L45.814 25.7059ZM41.7715 26.4796L41.6739 25.9892C41.0129 26.1207 40.3591 26.2535 39.7123 26.3875L39.8138 26.8771L39.9152 27.3667C40.5594 27.2333 41.2107 27.101 41.8691 26.9699L41.7715 26.4796ZM37.8989 27.2819L37.7935 26.7932C37.1609 26.9296 36.5356 27.0673 35.9175 27.2062L36.0272 27.694L36.1368 28.1819C36.7521 28.0436 37.3746 27.9065 38.0043 27.7707L37.8989 27.2819ZM34.199 28.1135L34.085 27.6267C33.4814 27.7681 32.8851 27.9108 32.2961 28.0547L32.4148 28.5404L32.5335 29.0261C33.1193 28.8829 33.7125 28.741 34.3131 28.6003L34.199 28.1135ZM30.3225 29.065L30.1979 28.5808C29.4905 28.7628 28.7946 28.9468 28.11 29.1328L28.2411 29.6153L28.3722 30.0978C29.0522 29.913 29.7439 29.7302 30.4471 29.5492L30.3225 29.065ZM26.229 30.1772L26.091 29.6966C25.4296 29.8866 24.7797 30.0785 24.1415 30.2725L24.2869 30.7509L24.4323 31.2293C25.0654 31.0369 25.7103 30.8464 26.367 30.6578L26.229 30.1772ZM22.4155 31.3365L22.2621 30.8606C21.6474 31.0587 21.0445 31.2588 20.4535 31.461L20.6154 31.9341L20.7772 32.4071C21.3624 32.207 21.9596 32.0087 22.5688 31.8124L22.4155 31.3365ZM18.8873 32.5437L18.7163 32.0739C18.0906 32.3016 17.4794 32.532 16.883 32.7649L17.0649 33.2307L17.2468 33.6964C17.8356 33.4664 18.4395 33.2388 19.0583 33.0136L18.8873 32.5437ZM15.0071 34.0702L14.8109 33.6102C14.1415 33.8958 13.4932 34.1851 12.8665 34.4784L13.0784 34.9313L13.2903 35.3841C13.906 35.096 14.5438 34.8114 15.2032 34.5301L15.0071 34.0702ZM11.2804 35.8142L11.0511 35.3699C10.4677 35.671 9.90588 35.9762 9.36609 36.2854L9.61469 36.7192L9.86322 37.1531C10.3895 36.8515 10.9384 36.5534 11.5097 36.2585L11.2804 35.8142ZM8.08276 37.6466L7.81299 37.2257C7.19946 37.6189 6.61987 38.0188 6.07495 38.4254L6.37396 38.8261L6.67297 39.2269C7.19745 38.8355 7.75739 38.4491 8.3526 38.0676L8.08276 37.6466ZM4.70221 40.1962L4.36646 39.8256C3.84143 40.3014 3.36084 40.7865 2.92615 41.2813L3.30176 41.6113L3.67737 41.9414C4.0849 41.4775 4.53845 41.0193 5.03796 40.5667L4.70221 40.1962ZM2.17688 43.0723L1.76038 42.7957C1.58923 43.0533 1.42993 43.3135 1.28259 43.5763L1.71875 43.8208L2.15491 44.0653C2.28949 43.8252 2.43567 43.5864 2.59338 43.3489L2.17688 43.0723Z" fill="#BBBBBB"/>
</svg>
