<svg width="241" height="38" viewBox="0 0 241 38" fill="none" xmlns="http://www.w3.org/2000/svg">
<path d="M240.833 16.8332C240.933 17.0907 240.805 17.3803 240.548 17.48L236.351 19.1044C236.094 19.2041 235.804 19.0762 235.704 18.8186C235.605 18.5611 235.733 18.2715 235.99 18.1719L239.72 16.7279L238.276 12.9976C238.177 12.7401 238.305 12.4505 238.562 12.3508C238.82 12.2511 239.109 12.3791 239.209 12.6366L240.833 16.8332ZM0.367188 37.02L-0.00367385 36.6847C0.216653 36.441 0.43971 36.1987 0.665469 35.9579L1.03029 36.2998L1.39511 36.6417C1.17338 36.8783 0.954351 37.1162 0.738049 37.3554L0.367188 37.02ZM2.40496 34.8835L2.05222 34.5291C2.52513 34.0584 3.00862 33.5932 3.50248 33.1334L3.84318 33.4993L4.18389 33.8653C3.69803 34.3176 3.22256 34.7751 2.7577 35.2379L2.40496 34.8835ZM5.31832 32.1692L4.98934 31.7927C5.48477 31.3598 5.98963 30.932 6.50371 30.5091L6.82133 30.8953L7.13896 31.2814C6.63239 31.6981 6.13511 32.1195 5.64729 32.5457L5.31832 32.1692ZM8.37987 29.6506L8.07342 29.2555C8.59945 28.8475 9.1343 28.4443 9.67777 28.0459L9.97337 28.4492L10.269 28.8524C9.73266 29.2456 9.20505 29.6433 8.68631 30.0457L8.37987 29.6506ZM11.5727 27.308L11.2875 26.8973C11.8321 26.519 12.3846 26.1451 12.945 25.7758L13.2202 26.1932L13.4954 26.6107C12.9416 26.9757 12.3958 27.345 11.858 27.7186L11.5727 27.308ZM14.9136 25.1056L14.6482 24.6818C15.2011 24.3357 15.761 23.9937 16.3277 23.6558L16.5838 24.0852L16.8399 24.5147C16.2792 24.849 15.7255 25.1872 15.1789 25.5294L14.9136 25.1056ZM18.2956 23.0888L18.0486 22.6541C18.629 22.3243 19.2161 21.9985 19.8099 21.6766L20.0481 22.1162L20.2864 22.5558C19.6984 22.8745 19.1172 23.1971 18.5427 23.5235L18.2956 23.0888ZM21.798 21.1892L21.5681 20.7452C22.1508 20.4435 22.7394 20.1454 23.3338 19.851L23.5557 20.299L23.7777 20.7471C23.1885 21.0389 22.6052 21.3343 22.0279 21.6332L21.798 21.1892ZM25.3486 19.4305L25.1345 18.9786C25.7396 18.6919 26.3503 18.4087 26.9666 18.1291L27.1732 18.5845L27.3798 19.0398C26.7684 19.3171 26.1627 19.5979 25.5627 19.8823L25.3486 19.4305ZM28.9635 17.7891L28.7641 17.3306C29.3683 17.0678 29.9775 16.8082 30.5917 16.5519L30.7842 17.0134L30.9768 17.4748C30.3672 17.7292 29.7626 17.9868 29.163 18.2476L28.9635 17.7891ZM32.6345 16.2572L32.4487 15.793C33.0651 15.5462 33.6862 15.3026 34.3119 15.0622L34.4912 15.5289L34.6706 15.9956C34.0492 16.2344 33.4324 16.4763 32.8203 16.7213L32.6345 16.2572ZM36.3311 14.8359L36.1579 14.3668C36.7775 14.1381 37.4013 13.9123 38.0293 13.6895L38.1965 14.1607L38.3637 14.6319C37.7397 14.8533 37.1198 15.0777 36.5043 15.3049L36.3311 14.8359ZM40.0869 13.5033L39.9255 13.03C40.5514 12.8167 41.1811 12.6062 41.8146 12.3985L41.9703 12.8737L42.1261 13.3488C41.4962 13.5552 40.8703 13.7645 40.2482 13.9765L40.0869 13.5033ZM43.8458 12.2708L43.6954 11.7939C44.326 11.5951 44.9601 11.3991 45.5977 11.2057L45.7428 11.6842L45.8879 12.1627C45.2537 12.355 44.6231 12.55 43.9961 12.7476L43.8458 12.2708ZM47.6608 11.1139L47.5209 10.6339C48.1552 10.4489 48.7927 10.2666 49.4335 10.0869L49.5685 10.5683L49.7036 11.0497C49.066 11.2285 48.4318 11.4099 47.8008 11.5939L47.6608 11.1139ZM51.4696 10.0453L51.3393 9.56253C51.9776 9.39026 52.6189 9.22052 53.2632 9.05327L53.3888 9.53723L53.5144 10.0212C52.8732 10.1876 52.235 10.3566 51.5998 10.528L51.4696 10.0453ZM55.3257 9.04415L55.2046 8.55903C55.8468 8.39873 56.4918 8.24085 57.1394 8.08538L57.2561 8.57157L57.3728 9.05776C56.7281 9.21253 56.086 9.36969 55.4468 9.52926L55.3257 9.04415ZM59.1757 8.11966L59.0632 7.63247C59.7071 7.48384 60.3534 7.33754 61.0022 7.19356L61.1105 7.68168L61.2189 8.16981C60.5728 8.31318 59.9292 8.45885 59.2882 8.60684L59.1757 8.11966ZM63.0602 7.25756L62.9559 6.76855C63.6054 6.63007 64.2572 6.49386 64.9113 6.35992L65.0116 6.84975L65.1119 7.33959C64.4605 7.473 63.8113 7.60866 63.1644 7.74657L63.0602 7.25756ZM66.9449 6.46173L66.8484 5.97113C67.4962 5.84372 68.1461 5.71848 68.798 5.5954L68.8908 6.08673L68.9836 6.57805C68.3341 6.70066 67.6866 6.82541 67.0414 6.95233L66.9449 6.46173ZM70.849 5.72466L70.7599 5.23265C71.4158 5.11389 72.0737 4.99728 72.7335 4.8828L72.819 5.37544L72.9044 5.86808C72.2471 5.98215 71.5916 6.09833 70.9381 6.21666L70.849 5.72466ZM74.7626 5.04528L74.6805 4.55206C75.3313 4.44386 75.9838 4.3377 76.638 4.23357L76.7166 4.72736L76.7952 5.22114C76.1433 5.32491 75.493 5.43069 74.8446 5.53851L74.7626 5.04528ZM78.6807 4.42159L78.6054 3.92728C79.2629 3.82721 79.9219 3.72916 80.5824 3.63311L80.6544 4.12791L80.7263 4.62271C80.068 4.71843 79.4111 4.81616 78.7559 4.9159L78.6807 4.42159ZM82.6175 3.84898L82.5488 3.35373C83.2019 3.26308 83.8564 3.17437 84.5122 3.08759L84.5778 3.58326L84.6434 4.07895C83.9897 4.16546 83.3372 4.25388 82.6862 4.34423L82.6175 3.84898ZM86.5462 3.32905L86.4837 2.83297C87.1422 2.75002 87.8019 2.66898 88.4628 2.58983L88.5222 3.08628L88.5817 3.58273C87.9228 3.66164 87.2651 3.74244 86.6087 3.82513L86.5462 3.32905ZM90.5005 2.85543L90.4441 2.35863C91.0992 2.28418 91.7554 2.21158 92.4126 2.1408L92.4662 2.63793L92.5197 3.13505C91.8644 3.20562 91.2101 3.27801 90.557 3.35224L90.5005 2.85543ZM94.438 2.43138L94.3874 1.93395C95.0466 1.86683 95.7068 1.80152 96.3679 1.73802L96.4157 2.23573L96.4635 2.73344C95.8043 2.79676 95.146 2.86188 94.4887 2.92881L94.438 2.43138ZM98.3988 2.05091L98.3539 1.55293C99.0125 1.49342 99.672 1.43568 100.332 1.3797L100.374 1.87791L100.417 2.37612C99.7583 2.43195 99.1006 2.48953 98.4438 2.54888L98.3988 2.05091ZM102.35 1.71588L102.31 1.21744C102.97 1.1651 103.631 1.11451 104.292 1.06565L104.329 1.56429L104.366 2.06293C103.706 2.11166 103.047 2.16212 102.389 2.21431L102.35 1.71588ZM106.312 1.42308L106.278 0.924252C106.94 0.878891 107.602 0.835247 108.265 0.793312L108.296 1.29231L108.328 1.79132C107.667 1.83314 107.006 1.87667 106.346 1.92191L106.312 1.42308ZM110.275 1.17229L110.246 0.673134C110.907 0.634758 111.568 0.598064 112.23 0.563046L112.256 1.06235L112.283 1.56165C111.623 1.59658 110.963 1.63317 110.304 1.67145L110.275 1.17229ZM114.239 0.962414L114.216 0.462986C114.878 0.431297 115.54 0.401268 116.203 0.37289L116.225 0.872433L116.246 1.37197C115.585 1.40028 114.924 1.43023 114.263 1.46184L114.239 0.962414ZM118.209 0.792435L118.19 0.292793C118.852 0.26775 119.514 0.244343 120.176 0.222553L120.192 0.722282L120.209 1.22202C119.548 1.24375 118.888 1.2671 118.228 1.29208L118.209 0.792435ZM122.177 0.661854L122.163 0.162052C122.825 0.143501 123.487 0.12656 124.15 0.111221L124.161 0.611088L124.173 1.11095C123.512 1.12626 122.851 1.14315 122.191 1.16166L122.177 0.661854ZM126.146 0.569908L126.137 0.0699921C126.8 0.057827 127.463 0.0472603 128.126 0.0382767L128.133 0.538231L128.139 1.03819C127.478 1.04715 126.817 1.05769 126.155 1.06982L126.146 0.569908ZM130.119 0.516048L130.114 0.0160675C130.777 0.0102463 131.439 0.00599289 132.102 0.00330734L132.104 0.503304L132.106 1.0033C131.445 1.00598 130.784 1.01022 130.123 1.01603L130.119 0.516048ZM134.087 0.499931L134.087 -6.86646e-05C134.75 0.000362396 135.413 0.00235748 136.076 0.00590134L136.073 0.505894L136.07 1.00589C135.409 1.00235 134.748 1.00036 134.086 0.999931L134.087 0.499931ZM138.062 0.521198L138.067 0.021225C138.73 0.0278816 139.393 0.0360909 140.055 0.0458336L140.047 0.54578L140.04 1.04572C139.379 1.036 138.718 1.02782 138.057 1.02118L138.062 0.521198ZM142.03 0.579571L142.04 0.0796623C142.701 0.0924683 143.361 0.1068 144.021 0.12265L144.009 0.622505L143.997 1.12236C143.339 1.10655 142.68 1.09225 142.02 1.07948L142.03 0.579571ZM146.001 0.675007L146.015 0.175213C146.679 0.194271 147.343 0.214859 148.005 0.236969L147.989 0.736691L147.972 1.23641C147.311 1.21436 146.649 1.19381 145.987 1.1748L146.001 0.675007ZM149.972 0.807484L149.991 0.307846C150.651 0.332985 151.311 0.359631 151.97 0.387775L151.949 0.887321L151.928 1.38687C151.27 1.35879 150.612 1.3322 149.953 1.30713L149.972 0.807484ZM153.933 0.976704L153.957 0.477264C154.622 0.508801 155.286 0.541862 155.95 0.576439L155.924 1.07576L155.897 1.57508C155.236 1.54059 154.573 1.50761 153.909 1.47614L153.933 0.976704ZM157.907 1.18388L157.936 0.684692C158.597 0.722282 159.256 0.761372 159.915 0.801956L159.884 1.30101L159.853 1.80006C159.196 1.75957 158.538 1.72058 157.879 1.68308L157.907 1.18388ZM161.855 1.42717L161.888 0.928265C162.555 0.972534 163.22 1.01833 163.884 1.06565L163.849 1.56438L163.813 2.06312C163.151 2.01592 162.487 1.97023 161.822 1.92607L161.855 1.42717ZM165.834 1.71068L165.872 1.21212C166.533 1.26246 167.192 1.3143 167.85 1.36763L167.81 1.86599L167.769 2.36436C167.113 2.31116 166.455 2.25945 165.796 2.20924L165.834 1.71068ZM169.776 2.03025L169.819 1.53209C170.483 1.58918 171.145 1.6478 171.806 1.70793L171.761 2.20587L171.715 2.70381C171.056 2.64383 170.396 2.58536 169.734 2.52841L169.776 2.03025ZM173.747 2.39176L173.795 1.89405C174.456 1.95761 175.115 2.02269 175.773 2.08928L175.722 2.58673L175.672 3.08419C175.016 3.01778 174.359 2.95286 173.699 2.88946L173.747 2.39176ZM177.686 2.79072L177.739 2.29353C178.399 2.36382 179.057 2.43562 179.713 2.50894L179.657 3.00584L179.601 3.50275C178.947 3.42963 178.291 3.35801 177.633 3.28791L177.686 2.79072ZM181.644 3.23339L181.702 2.73679C182.363 2.81429 183.022 2.89332 183.679 2.97388L183.618 3.47016L183.557 3.96643C182.902 3.88609 182.245 3.80727 181.586 3.72999L181.644 3.23339ZM185.577 3.71607L185.64 3.22013C186.297 3.30431 186.95 3.39002 187.601 3.47726L187.535 3.97283L187.468 4.4684C186.819 4.38141 186.167 4.29594 185.513 4.212L185.577 3.71607ZM189.521 4.24485L189.591 3.74968C190.251 3.84207 190.909 3.93603 191.563 4.03156L191.491 4.52632L191.419 5.02108C190.766 4.92584 190.11 4.83215 189.452 4.74003L189.521 4.24485ZM193.444 4.81712L193.519 4.3228C194.172 4.42204 194.822 4.52285 195.469 4.62521L195.391 5.11907L195.312 5.61293C194.668 5.51089 194.02 5.41039 193.369 5.31145L193.444 4.81712ZM197.374 5.43934L197.455 4.946C198.114 5.05455 198.769 5.16473 199.421 5.27652L199.337 5.76933L199.252 6.26214C198.602 6.15072 197.949 6.0409 197.293 5.93269L197.374 5.43934ZM201.279 6.10893L201.367 5.6167C202.019 5.73291 202.667 5.85075 203.311 5.97019L203.22 6.46182L203.129 6.95345C202.487 6.83442 201.841 6.71699 201.191 6.60117L201.279 6.10893ZM205.195 6.83524L205.29 6.34428C205.945 6.47067 206.597 6.59875 207.244 6.7285L207.146 7.21875L207.048 7.70899C206.403 7.57973 205.754 7.45213 205.101 7.3262L205.195 6.83524ZM209.071 7.61223L209.173 7.12274C209.827 7.25892 210.476 7.39683 211.121 7.53645L211.015 8.02512L210.909 8.51379C210.267 8.37473 209.621 8.23737 208.969 8.10172L209.071 7.61223ZM212.974 8.45806L213.084 7.9703C213.734 8.11669 214.379 8.26485 215.018 8.41475L214.904 8.90156L214.79 9.38836C214.153 9.23912 213.511 9.0916 212.865 8.94583L212.974 8.45806ZM216.803 9.35549L216.921 8.86971C217.581 9.03056 218.235 9.19332 218.883 9.35795L218.76 9.84256L218.637 10.3272C217.992 10.1633 217.341 10.0014 216.684 9.84126L216.803 9.35549ZM220.691 10.3433L220.819 9.85994C221.459 10.0291 222.092 10.2002 222.719 10.3732L222.586 10.8552L222.453 11.3372C221.829 11.1652 221.2 10.995 220.564 10.8266L220.691 10.3433ZM224.499 11.3941L224.637 10.9136C225.289 11.1012 225.933 11.2909 226.57 11.4825L226.426 11.9613L226.282 12.4401C225.649 12.2496 225.008 12.0611 224.36 11.8746L224.499 11.3941ZM228.309 12.5406L228.459 12.0637C229.094 12.2633 229.72 12.4649 230.339 12.6687L230.182 13.1436L230.026 13.6185C229.412 13.4162 228.789 13.2159 228.159 13.0176L228.309 12.5406ZM232.096 13.7894L232.259 13.3169C232.89 13.5352 233.512 13.7558 234.125 13.9786L233.954 14.4485L233.783 14.9184C233.176 14.6975 232.559 14.4786 231.932 14.262L232.096 13.7894ZM235.796 15.1356L235.975 14.6687C236.616 14.9141 237.246 15.1621 237.864 15.4126L237.677 15.876L237.489 16.3394C236.877 16.0914 236.253 15.8458 235.617 15.6025L235.796 15.1356ZM239.488 16.6309L239.685 16.1714C239.983 16.2991 240.278 16.4274 240.569 16.5563L240.367 17.0137L240.165 17.471C239.877 17.3436 239.585 17.2167 239.291 17.0904L239.488 16.6309Z" fill="#BBBBBB"/>
</svg>
