<svg width="252" height="38" viewBox="0 0 252 38" fill="none" xmlns="http://www.w3.org/2000/svg">
<path d="M251.425 7.902C251.694 7.96395 251.862 8.23232 251.8 8.50142L250.79 12.8867C250.728 13.1558 250.46 13.3238 250.191 13.2618C249.922 13.1999 249.754 12.9315 249.816 12.6624L250.713 8.76436L246.815 7.86706C246.546 7.80512 246.378 7.53675 246.44 7.26764C246.502 6.99854 246.77 6.8306 247.039 6.89255L251.425 7.902ZM0.3125 0.389515L0.62604 3.8147e-05C0.873589 0.199322 1.12439 0.39838 1.37842 0.597202L1.07026 0.990944L0.762091 1.38469C0.504517 1.18309 0.25013 0.98119 -0.00103965 0.778992L0.3125 0.389515ZM2.64331 2.18876L2.94106 1.78708C3.47468 2.18265 4.02095 2.57711 4.57964 2.97033L4.29186 3.3792L4.00408 3.78809C3.43888 3.39029 2.88596 2.99103 2.34555 2.59043L2.64331 2.18876ZM5.90466 4.48791L6.18346 4.07285C6.72614 4.43737 7.27942 4.8007 7.8431 5.16272L7.5729 5.58343L7.30271 6.00413C6.7334 5.6385 6.17439 5.27141 5.62586 4.90296L5.90466 4.48791ZM9.28411 6.6589L9.54611 6.23304C10.0943 6.57032 10.6516 6.90635 11.2176 7.24105L10.9631 7.67144L10.7086 8.10183C10.1377 7.76423 9.57543 7.42517 9.02211 7.08476L9.28411 6.6589ZM12.6948 8.67563L12.942 8.24102C13.5176 8.56845 14.1016 8.89449 14.6939 9.21905L14.4537 9.65753L14.2134 10.096C13.6165 9.76896 13.0279 9.44034 12.4476 9.11024L12.6948 8.67563ZM16.1835 10.5889L16.4173 10.1469C16.9993 10.4548 17.5887 10.7613 18.1853 11.0662L17.9578 11.5114L17.7302 11.9567C17.1294 11.6496 16.5359 11.341 15.9497 11.0308L16.1835 10.5889ZM19.763 12.4186L19.9845 11.9703C20.5646 12.257 21.1512 12.5422 21.7441 12.8259L21.5283 13.2769L21.3125 13.728C20.7158 13.4424 20.1255 13.1554 19.5415 12.8669L19.763 12.4186ZM23.3314 14.1262L23.5417 13.6726C24.1472 13.9533 24.7589 14.2325 25.3766 14.5101L25.1717 14.9662L24.9668 15.4222C24.3455 15.1431 23.7302 14.8623 23.1211 14.5799L23.3314 14.1262ZM26.9737 15.7637L27.1736 15.3054C27.7742 15.5673 28.3802 15.8276 28.9916 16.0864L28.7967 16.5468L28.6018 17.0073C27.9872 16.7471 27.3778 16.4854 26.7739 16.2221L26.9737 15.7637ZM30.6516 17.3204L30.8417 16.858C31.4525 17.109 32.0684 17.3584 32.6893 17.6062L32.5039 18.0706L32.3186 18.535C31.6946 18.2859 31.0756 18.0352 30.4616 17.7829L30.6516 17.3204ZM34.3408 18.7935L34.5216 18.3273C35.1371 18.5661 35.7572 18.8033 36.3818 19.0389L36.2054 19.5067L36.0289 19.9746C35.4014 19.7379 34.7783 19.4996 34.1599 19.2596L34.3408 18.7935ZM38.0972 20.2101L38.2692 19.7406C38.8827 19.9655 39.5004 20.1887 40.1222 20.4104L39.9543 20.8814L39.7864 21.3523C39.1619 21.1297 38.5414 20.9054 37.9251 20.6795L38.0972 20.2101ZM41.8255 21.5392L41.9893 21.0668C42.6156 21.284 43.2459 21.4995 43.8801 21.7134L43.7204 22.1872L43.5606 22.661C42.9237 22.4462 42.2907 22.2298 41.6617 22.0116L41.8255 21.5392ZM45.6296 22.822L45.7853 22.3468C46.4058 22.5503 47.0299 22.7521 47.6574 22.9522L47.5055 23.4286L47.3536 23.905C46.7235 23.704 46.0969 23.5013 45.4738 23.2971L45.6296 22.822ZM49.4023 24.0253L49.5505 23.5477C50.1849 23.7445 50.8228 23.9396 51.464 24.133L51.3196 24.6117L51.1752 25.0904C50.5315 24.8963 49.8912 24.7004 49.2542 24.5028L49.4023 24.0253ZM53.2396 25.1827L53.3803 24.7029C54.0088 24.8872 54.6403 25.0698 55.2749 25.2507L55.1378 25.7315L55.0008 26.2123C54.3638 26.0308 53.7298 25.8475 53.099 25.6625L53.2396 25.1827ZM57.0541 26.2701L57.1876 25.7882C57.8281 25.9657 58.4716 26.1414 59.1179 26.3154L58.988 26.7982L58.858 27.281C58.2093 27.1064 57.5635 26.93 56.9206 26.7519L57.0541 26.2701ZM60.9216 27.3111L61.0481 26.8274C61.6828 26.9933 62.3202 27.1575 62.9602 27.3199L62.8372 27.8046L62.7142 28.2892C62.0719 28.1262 61.4322 27.9614 60.7952 27.7949L60.9216 27.3111ZM64.7684 28.2875L64.888 27.8021C65.5332 27.961 66.1809 28.1182 66.831 28.2735L66.7148 28.7599L66.5986 29.2462C65.9462 29.0903 65.2962 28.9325 64.6488 28.773L64.7684 28.2875ZM68.6638 29.2184L68.7766 28.7313C69.4164 28.8795 70.0584 29.026 70.7027 29.1707L70.5931 29.6585L70.4836 30.1464C69.8371 30.0012 69.1929 29.8543 68.5509 29.7055L68.6638 29.2184ZM72.536 30.0879L72.6423 29.5993C73.291 29.7404 73.9419 29.8796 74.595 30.017L74.4921 30.5063L74.3891 30.9956C73.7338 30.8577 73.0807 30.718 72.4298 30.5765L72.536 30.0879ZM76.4567 30.9129L76.5564 30.4229C77.2002 30.5539 77.846 30.6831 78.4938 30.8104L78.3973 31.301L78.3008 31.7917C77.651 31.6639 77.003 31.5343 76.3571 31.4028L76.4567 30.9129ZM80.3495 31.6783L80.4427 31.187C81.0943 31.3107 81.7478 31.4326 82.4031 31.5525L82.313 32.0443L82.223 32.5362C81.5656 32.4158 80.91 32.2936 80.2562 32.1695L80.3495 31.6783ZM84.2876 32.3991L84.3744 31.9067C85.0233 32.0211 85.674 32.1337 86.3263 32.2444L86.2427 32.7374L86.159 33.2303C85.5046 33.1193 84.8518 33.0063 84.2008 32.8915L84.2876 32.3991ZM88.2025 33.0634L88.283 32.57C88.9368 32.6766 89.5923 32.7814 90.2493 32.8842L90.172 33.3782L90.0947 33.8722C89.4355 33.769 88.778 33.6639 88.122 33.5569L88.2025 33.0634ZM92.1509 33.6814L92.225 33.1869C92.8799 33.2851 93.5363 33.3813 94.1941 33.4757L94.1231 33.9706L94.0521 34.4655C93.3922 34.3709 92.7337 34.2743 92.0768 34.1758L92.1509 33.6814ZM96.0892 34.2462L96.157 33.7508C96.8127 33.8406 97.4698 33.9284 98.1282 34.0143L98.0635 34.5101L97.9989 35.0059C97.3384 34.9197 96.6792 34.8316 96.0214 34.7415L96.0892 34.2462ZM100.046 34.7623L100.107 34.2661C100.767 34.3479 101.429 34.4277 102.091 34.5055L102.033 35.0021L101.974 35.4987C101.31 35.4206 100.646 35.3405 99.9843 35.2585L100.046 34.7623ZM104.004 35.2274L104.059 34.7305C104.717 34.8035 105.375 34.8745 106.034 34.9435L105.982 35.4408L105.93 35.9381C105.269 35.8689 104.608 35.7976 103.949 35.7244L104.004 35.2274ZM107.967 35.6421L108.016 35.1445C108.678 35.2095 109.341 35.2724 110.004 35.3333L109.959 35.8312L109.913 36.3291C109.247 36.2681 108.582 36.2049 107.919 36.1397L107.967 35.6421ZM111.942 36.0068L111.984 35.5086C112.643 35.5647 113.302 35.6189 113.963 35.671L113.923 36.1694L113.884 36.6679C113.222 36.6156 112.56 36.5613 111.899 36.505L111.942 36.0068ZM115.91 36.3197L115.947 35.821C116.609 35.869 117.272 35.9148 117.936 35.9586L117.903 36.4575L117.87 36.9564C117.204 36.9125 116.539 36.8665 115.874 36.8184L115.91 36.3197ZM119.897 36.5825L119.926 36.0833C120.586 36.1225 121.246 36.1596 121.908 36.1946L121.881 36.6939L121.855 37.1932C121.191 37.1581 120.529 37.1209 119.867 37.0816L119.897 36.5825ZM123.87 36.7926L123.893 36.2932C124.555 36.3239 125.218 36.3525 125.882 36.3789L125.862 36.8785L125.842 37.3781C125.176 37.3516 124.511 37.3229 123.846 37.2921L123.87 36.7926ZM127.858 36.9515L127.875 36.4517C128.537 36.4737 129.2 36.4936 129.863 36.5112L129.85 37.011L129.836 37.5109C129.171 37.4932 128.506 37.4733 127.842 37.4512L127.858 36.9515ZM131.839 37.0574L131.849 36.5575C132.512 36.5707 133.175 36.5817 133.838 36.5906L133.832 37.0905L133.825 37.5905C133.159 37.5816 132.494 37.5706 131.829 37.5573L131.839 37.0574ZM135.827 37.1103L135.83 36.6103C136.494 36.6147 137.159 36.6168 137.823 36.6166L137.824 37.1166L137.824 37.6166C137.157 37.6168 136.49 37.6147 135.823 37.6103L135.827 37.1103ZM139.813 37.1094L139.81 36.6094C140.472 36.6047 141.135 36.5978 141.798 36.5886L141.805 37.0886L141.812 37.5885C141.147 37.5977 140.482 37.6047 139.817 37.6094L139.813 37.1094ZM143.798 37.054L143.788 36.5541C144.451 36.5403 145.115 36.5242 145.779 36.5057L145.793 37.0055L145.806 37.5053C145.14 37.5238 144.474 37.54 143.808 37.5539L143.798 37.054ZM147.785 36.9432L147.768 36.4435C148.43 36.4204 149.092 36.395 149.754 36.3673L149.775 36.8669L149.796 37.3664C149.132 37.3943 148.467 37.4197 147.803 37.4429L147.785 36.9432ZM151.766 36.7764L151.741 36.277C152.404 36.2445 153.066 36.2097 153.729 36.1724L153.757 36.6716L153.785 37.1708C153.12 37.2082 152.455 37.2432 151.79 37.2758L151.766 36.7764ZM155.748 36.5524L155.716 36.0534C156.378 36.0114 157.039 35.9669 157.701 35.92L157.736 36.4188L157.771 36.9175C157.107 36.9646 156.444 37.0092 155.78 37.0514L155.748 36.5524ZM159.723 36.2706L159.684 35.7721C160.345 35.7203 161.006 35.6661 161.667 35.6094L161.709 36.1076L161.752 36.6058C161.089 36.6627 160.426 36.7171 159.762 36.7691L159.723 36.2706ZM163.695 35.9297L163.648 35.4319C164.309 35.3702 164.969 35.306 165.629 35.2393L165.679 35.7368L165.729 36.2342C165.067 36.3012 164.404 36.3656 163.741 36.4275L163.695 35.9297ZM167.661 35.5287L167.607 35.0317C168.266 34.9599 168.925 34.8856 169.584 34.8088L169.642 35.3054L169.7 35.802C169.039 35.8792 168.377 35.9538 167.715 36.0258L167.661 35.5287ZM171.62 35.0667L171.559 34.5705C172.216 34.4885 172.874 34.4039 173.531 34.3167L173.597 34.8124L173.663 35.308C173.003 35.3956 172.343 35.4805 171.682 35.5628L171.62 35.0667ZM175.572 34.5423L175.502 34.0471C176.159 33.9546 176.815 33.8595 177.471 33.7617L177.545 34.2562L177.619 34.7507C176.96 34.849 176.301 34.9445 175.642 35.0374L175.572 34.5423ZM179.515 33.9542L179.437 33.4603C180.092 33.3572 180.746 33.2514 181.4 33.1428L181.482 33.6361L181.564 34.1294C180.907 34.2383 180.25 34.3446 179.593 34.4481L179.515 33.9542ZM183.446 33.3018L183.36 32.8092C184.013 32.6951 184.666 32.5782 185.319 32.4586L185.409 32.9504L185.499 33.4422C184.844 33.5623 184.188 33.6797 183.532 33.7943L183.446 33.3018ZM187.369 32.5825L187.274 32.0915C187.925 31.9664 188.576 31.8384 189.225 31.7077L189.324 32.1979L189.423 32.6881C188.77 32.8194 188.117 32.9478 187.463 33.0735L187.369 32.5825ZM191.275 31.7965L191.172 31.3072C191.821 31.1708 192.469 31.0315 193.116 30.8894L193.223 31.3777L193.33 31.8661C192.68 32.0089 192.03 32.1488 191.378 32.2858L191.275 31.7965ZM195.17 30.9411L195.058 30.4538C195.704 30.3057 196.35 30.1547 196.995 30.0009L197.111 30.4872L197.227 30.9736C196.579 31.1281 195.931 31.2798 195.281 31.4285L195.17 30.9411ZM199.047 30.0159L198.926 29.5306C199.569 29.371 200.211 29.2084 200.851 29.0429L200.977 29.527L201.102 30.0111C200.458 30.1774 199.813 30.3408 199.167 30.5012L199.047 30.0159ZM202.905 29.0191L202.776 28.5362C203.416 28.3643 204.056 28.1893 204.695 28.0113L204.829 28.493L204.963 28.9746C204.322 29.1535 203.679 29.3293 203.035 29.5021L202.905 29.0191ZM206.746 27.9488L206.608 27.4684C207.244 27.2845 207.879 27.0974 208.513 26.9074L208.657 27.3863L208.8 27.8653C208.163 28.0563 207.525 28.2442 206.885 28.4291L206.746 27.9488ZM210.562 26.8052L210.413 26.3277C211.047 26.1308 211.68 25.9309 212.311 25.7278L212.464 26.2038L212.617 26.6798C211.983 26.8839 211.347 27.0848 210.71 27.2827L210.562 26.8052ZM214.359 25.5838L214.201 25.1093C214.83 24.9001 215.458 24.6876 216.084 24.4721L216.246 24.9448L216.409 25.4176C215.78 25.6343 215.149 25.8478 214.517 26.0582L214.359 25.5838ZM218.125 24.2869L217.958 23.8158C218.582 23.5934 219.206 23.3679 219.827 23.1391L220 23.6083L220.173 24.0776C219.548 24.3076 218.921 24.5343 218.293 24.7579L218.125 24.2869ZM221.868 22.9095L221.691 22.4422C222.31 22.2066 222.928 21.9678 223.545 21.7258L223.728 22.1912L223.91 22.6566C223.29 22.9 222.669 23.1401 222.046 23.3769L221.868 22.9095ZM225.578 21.4532L225.39 20.9898C226.003 20.7411 226.615 20.4892 227.226 20.2339L227.419 20.6952L227.612 21.1565C226.998 21.4132 226.382 21.6665 225.765 21.9166L225.578 21.4532ZM229.255 19.9151L229.057 19.456C229.665 19.1934 230.272 18.9274 230.878 18.658L231.081 19.1148L231.284 19.5716C230.676 19.8425 230.065 20.11 229.453 20.3742L229.255 19.9151ZM232.897 18.2941L232.688 17.8397C233.29 17.5635 233.89 17.284 234.488 17.001L234.702 17.453L234.916 17.905C234.314 18.1896 233.711 18.4708 233.105 18.7486L232.897 18.2941ZM236.498 16.5902L236.279 16.1408C236.875 15.8503 237.469 15.5564 238.061 15.259L238.285 15.7057L238.51 16.1525C237.914 16.4517 237.317 16.7474 236.718 17.0396L236.498 16.5902ZM240.061 14.8003L239.831 14.3562C240.419 14.0518 241.006 13.7439 241.59 13.4325L241.825 13.8737L242.06 14.3149C241.472 14.6283 240.883 14.9381 240.291 15.2443L240.061 14.8003ZM243.577 12.9259L243.336 12.4876C243.917 12.1688 244.496 11.8464 245.072 11.5204L245.318 11.9557L245.564 12.3909C244.984 12.7189 244.402 13.0433 243.818 13.3641L243.577 12.9259ZM247.047 10.9639L246.796 10.5318C247.368 10.1987 247.938 9.86194 248.506 9.52158L248.763 9.95047L249.02 10.3794C248.448 10.7219 247.875 11.0608 247.299 11.3961L247.047 10.9639ZM250.466 8.91515L250.204 8.4896C250.485 8.31578 250.767 8.14105 251.047 7.96541L251.312 8.38926L251.578 8.81311C251.295 8.9899 251.012 9.16577 250.729 9.34071L250.466 8.91515Z" fill="#BBBBBB"/>
</svg>
