<svg width="937" height="95" viewBox="0 0 937 95" fill="none" xmlns="http://www.w3.org/2000/svg">
<path d="M3.32611 94.3584C3.52142 94.5537 3.83795 94.5537 4.03326 94.3584L7.21521 91.1765C7.41046 90.9812 7.41046 90.6646 7.21521 90.4693C7.01996 90.2741 6.70337 90.2741 6.50812 90.4693L3.67969 93.2978L0.851257 90.4693C0.656006 90.2741 0.339417 90.2741 0.144165 90.4693C-0.0510864 90.6646 -0.0510864 90.9812 0.144165 91.1765L3.32611 94.3584ZM936.18 9.00488L935.796 8.68398C935.64 8.87097 935.467 9.056 935.277 9.23899L935.625 9.59861L935.972 9.95824C936.185 9.75243 936.382 9.54166 936.563 9.32579L936.18 9.00488ZM934.223 10.7234L933.942 10.3099C933.431 10.6574 932.854 10.9944 932.212 11.3205L932.439 11.7663L932.665 12.2121C933.339 11.8698 933.953 11.5117 934.504 11.1369L934.223 10.7234ZM930.278 12.7293L930.095 12.2641C929.581 12.4663 929.04 12.6632 928.47 12.8549L928.63 13.3288L928.789 13.8026C929.373 13.6061 929.931 13.4035 930.461 13.1946L930.278 12.7293ZM926.888 13.8741L926.748 13.3941C926.149 13.5689 925.524 13.7387 924.874 13.9037L924.998 14.3883L925.121 14.8729C925.781 14.7053 926.417 14.5324 927.028 14.3541L926.888 13.8741ZM922.96 14.8719L922.852 14.3838C922.153 14.539 921.429 14.6893 920.682 14.8347L920.777 15.3255L920.873 15.8163C921.628 15.6693 922.36 15.5173 923.068 15.3601L922.96 14.8719ZM918.7 15.7068L918.615 15.2141C918.039 15.3139 917.45 15.4111 916.849 15.5059L916.926 15.9998L917.004 16.4937C917.61 16.3982 918.204 16.3001 918.786 16.1994L918.7 15.7068ZM915.078 16.2776L915.007 15.7827C914.381 15.8724 913.742 15.9597 913.091 16.0446L913.156 16.5404L913.221 17.0362C913.875 16.9508 914.518 16.863 915.149 16.7726L915.078 16.2776ZM911.161 16.7884L911.102 16.2919C910.427 16.3719 909.739 16.4495 909.04 16.5247L909.093 17.0219L909.147 17.519C909.85 17.4434 910.541 17.3654 911.22 17.285L911.161 16.7884ZM906.954 17.2409L906.906 16.7432C906.182 16.8137 905.447 16.8819 904.7 16.9477L904.744 17.4458L904.788 17.9438C905.538 17.8777 906.276 17.8093 907.003 17.7385L906.954 17.2409ZM902.833 17.6071L902.793 17.1087C902.185 17.1579 901.569 17.2056 900.946 17.2519L900.983 17.7505L901.02 18.2491C901.645 18.2027 902.263 18.1548 902.874 18.1055L902.833 17.6071ZM899.089 17.8854L899.055 17.3865C898.418 17.43 897.773 17.4721 897.122 17.5127L897.153 18.0118L897.184 18.5108C897.838 18.47 898.484 18.4278 899.124 18.3842L899.089 17.8854ZM895.173 18.1298L895.145 17.6306C894.479 17.6685 893.806 17.705 893.126 17.7402L893.152 18.2395L893.178 18.7388C893.859 18.7036 894.534 18.667 895.202 18.629L895.173 18.1298ZM891.088 18.3411L891.065 17.8416C890.371 17.8741 889.67 17.9052 888.962 17.935L888.983 18.4346L889.004 18.9341C889.713 18.9043 890.416 18.8731 891.111 18.8405L891.088 18.3411ZM886.836 18.5201L886.818 18.0205C886.118 18.0468 885.411 18.072 884.698 18.0959L884.715 18.5956L884.732 19.0953C885.446 19.0713 886.154 19.0462 886.855 19.0198L886.836 18.5201ZM882.851 18.6549L882.836 18.1552C882.21 18.174 881.58 18.192 880.945 18.2091L880.959 18.7089L880.972 19.2087C881.608 19.1916 882.24 19.1736 882.866 19.1547L882.851 18.6549ZM879.038 18.7575L879.026 18.2577C878.382 18.273 877.733 18.2874 877.08 18.301L877.09 18.8009L877.101 19.3008C877.755 19.2872 878.405 19.2727 879.05 19.2574L879.038 18.7575ZM875.114 18.8391L875.105 18.3391C874.443 18.351 873.775 18.362 873.103 18.3721L873.111 18.8721L873.119 19.372C873.791 19.3619 874.46 19.3508 875.123 19.339L875.114 18.8391ZM871.081 18.9L871.074 18.4C870.393 18.4085 869.708 18.4161 869.018 18.4229L869.023 18.9229L869.028 19.4229C869.719 19.4161 870.405 19.4084 871.087 19.4L871.081 18.9ZM866.939 18.9409L866.935 18.4409C866.236 18.446 865.533 18.4504 864.826 18.4539L864.828 18.9539L864.831 19.4539C865.539 19.4504 866.243 19.446 866.943 19.4409L866.939 18.9409ZM862.691 18.9621L862.69 18.4621C862.043 18.4639 861.392 18.465 860.738 18.4655L860.738 18.9655L860.739 19.4655C861.393 19.465 862.045 19.4639 862.692 19.4621L862.691 18.9621ZM858.836 18.965L858.837 18.465C858.2 18.4643 857.56 18.4629 856.916 18.461L856.915 18.961L856.913 19.461C857.557 19.4629 858.198 19.4643 858.836 19.465L858.836 18.965ZM854.974 18.9535L854.976 18.4535C854.326 18.4505 853.673 18.4468 853.017 18.4426L853.014 18.9426L853.011 19.4426C853.667 19.4468 854.321 19.4504 854.972 19.4535L854.974 18.9535ZM851.035 18.9282L851.039 18.4282C850.376 18.4229 849.71 18.417 849.041 18.4105L849.036 18.9105L849.032 19.4105C849.701 19.4169 850.367 19.4229 851.031 19.4282L851.035 18.9282ZM847.02 18.8894L847.025 18.3895C846.35 18.3819 845.672 18.3738 844.99 18.3651L844.984 18.8651L844.978 19.365C845.659 19.3737 846.338 19.3818 847.014 19.3894L847.02 18.8894ZM842.93 18.8374L842.937 18.3375C842.249 18.3278 841.559 18.3175 840.865 18.3067L840.857 18.8066L840.849 19.3066C841.544 19.3174 842.235 19.3277 842.923 19.3374L842.93 18.8374ZM838.766 18.7726L838.775 18.2727C838.075 18.2608 837.372 18.2485 836.667 18.2356L836.658 18.7355L836.648 19.2354C837.355 19.2483 838.058 19.2607 838.758 19.2725L838.766 18.7726ZM834.668 18.6979L834.677 18.198C834.041 18.1856 833.402 18.1728 832.761 18.1596L832.751 18.6595L832.741 19.1594C833.382 19.1726 834.021 19.1854 834.658 19.1978L834.668 18.6979ZM830.82 18.6187L830.831 18.1188C830.185 18.1048 829.537 18.0904 828.886 18.0756L828.875 18.5755L828.863 19.0753C829.514 19.0901 830.163 19.1046 830.809 19.1186L830.82 18.6187ZM826.916 18.5299L826.928 18.0301C826.272 18.0145 825.615 17.9985 824.955 17.9822L824.943 18.482L824.93 18.9819C825.591 18.9982 826.248 19.0142 826.904 19.0298L826.916 18.5299ZM822.956 18.4318L822.969 17.932C822.305 17.9149 821.638 17.8974 820.969 17.8795L820.956 18.3793L820.943 18.8792C821.612 18.897 822.279 18.9145 822.943 18.9316L822.956 18.4318ZM818.942 18.3246L818.956 17.8248C818.282 17.8062 817.607 17.7873 816.929 17.7679L816.915 18.2677L816.9 18.7675C817.579 18.7868 818.255 18.8058 818.928 18.8244L818.942 18.3246ZM814.874 18.2086L814.889 17.7088C814.206 17.6888 813.522 17.6683 812.835 17.6476L812.82 18.1473L812.805 18.6471C813.492 18.6679 814.177 18.6883 814.859 18.7084L814.874 18.2086ZM810.753 18.0839L810.768 17.5842C810.077 17.5627 809.384 17.5409 808.689 17.5187L808.673 18.0185L808.657 18.5182C809.353 18.5404 810.046 18.5622 810.737 18.5837L810.753 18.0839ZM806.58 17.9509L806.596 17.4512C805.952 17.4301 805.306 17.4088 804.659 17.3872L804.642 17.8869L804.625 18.3866C805.273 18.4083 805.919 18.4296 806.563 18.4506L806.58 17.9509ZM802.708 17.8217L802.725 17.322C802.078 17.3 801.43 17.2777 800.78 17.2552L800.763 17.7549L800.746 18.2546C801.396 18.2771 802.044 18.2994 802.691 18.3214L802.708 17.8217ZM798.808 17.6864L798.825 17.1867C798.172 17.1636 797.517 17.1402 796.86 17.1166L796.842 17.6163L796.824 18.1159C797.481 18.1396 798.137 18.1629 798.79 18.1861L798.808 17.6864ZM794.866 17.5446L794.884 17.0449C794.224 17.0207 793.562 16.9963 792.898 16.9716L792.88 17.4713L792.861 17.9709C793.525 17.9956 794.187 18.0201 794.848 18.0442L794.866 17.5446ZM790.883 17.3965L790.902 16.8968C790.235 16.8716 789.566 16.8462 788.896 16.8205L788.877 17.3201L788.858 17.8198C789.528 17.8455 790.197 17.8709 790.865 17.8961L790.883 17.3965ZM786.86 17.2423L786.88 16.7427C786.206 16.7165 785.53 16.69 784.853 16.6633L784.834 17.163L784.814 17.6626C785.491 17.6893 786.167 17.7157 786.841 17.7419L786.86 17.2423ZM782.797 17.0822L782.817 16.5826C782.137 16.5554 781.455 16.528 780.771 16.5003L780.751 16.9999L780.731 17.4995C781.415 17.5272 782.097 17.5546 782.777 17.5818L782.797 17.0822ZM778.695 16.9163L778.715 16.4167C778.029 16.3886 777.34 16.3603 776.65 16.3317L776.629 16.8313L776.609 17.3308C777.299 17.3594 777.988 17.3878 778.675 17.4159L778.695 16.9163ZM774.554 16.7449L774.575 16.2453C773.924 16.218 773.271 16.1905 772.616 16.1628L772.595 16.6624L772.574 17.162C773.228 17.1896 773.882 17.2171 774.533 17.2444L774.554 16.7449ZM770.651 16.5798L770.672 16.0802C770.022 16.0525 769.372 16.0246 768.72 15.9965L768.698 16.496L768.676 16.9955C769.329 17.0236 769.98 17.0516 770.629 17.0793L770.651 16.5798ZM766.737 16.4111L766.759 15.9116C766.104 15.8831 765.448 15.8544 764.791 15.8256L764.769 16.3251L764.747 16.8247C765.405 16.8535 766.061 16.8822 766.716 16.9106L766.737 16.4111ZM762.792 16.2381L762.815 15.7386C762.155 15.7094 761.493 15.68 760.831 15.6505L760.808 16.15L760.786 16.6495C761.449 16.679 762.11 16.7084 762.77 16.7376L762.792 16.2381ZM758.816 16.0608L758.839 15.5613C758.173 15.5314 757.507 15.5014 756.839 15.4712L756.817 15.9706L756.794 16.4701C757.462 16.5004 758.128 16.5304 758.794 16.5603L758.816 16.0608ZM754.809 15.8795L754.832 15.38C754.162 15.3494 753.49 15.3187 752.817 15.2878L752.794 15.7873L752.771 16.2868C753.444 16.3177 754.116 16.3484 754.786 16.379L754.809 15.8795ZM750.772 15.6942L750.795 15.1947C750.12 15.1635 749.443 15.1321 748.765 15.1006L748.742 15.6001L748.719 16.0995C749.397 16.1311 750.073 16.1624 750.749 16.1936L750.772 15.6942ZM746.705 15.5051L746.728 15.0056C746.048 14.9738 745.367 14.9418 744.684 14.9097L744.66 15.4091L744.637 15.9086C745.32 15.9407 746.001 15.9727 746.682 16.0045L746.705 15.5051ZM742.608 15.3123L742.632 14.8128C741.947 14.7804 741.261 14.7478 740.573 14.7151L740.549 15.2146L740.526 15.714C741.213 15.7467 741.9 15.7793 742.585 15.8117L742.608 15.3123ZM738.548 15.1191L738.572 14.6197C737.923 14.5886 737.272 14.5574 736.62 14.5261L736.596 15.0255L736.572 15.5249C737.224 15.5562 737.875 15.5874 738.524 15.6185L738.548 15.1191ZM734.637 14.9311L734.662 14.4317C734.008 14.4002 733.353 14.3685 732.697 14.3367L732.673 14.8361L732.649 15.3355C733.305 15.3673 733.959 15.399 734.613 15.4306L734.637 14.9311ZM730.702 14.7403L730.726 14.2409C730.068 14.2089 729.409 14.1767 728.749 14.1444L728.725 14.6438L728.701 15.1432C729.361 15.1755 730.02 15.2077 730.678 15.2397L730.702 14.7403ZM726.742 14.5467L726.766 14.0473C726.105 14.0148 725.442 13.9822 724.778 13.9495L724.753 14.4489L724.728 14.9483C725.392 14.981 726.055 15.0136 726.717 15.0461L726.742 14.5467ZM722.758 14.3505L722.783 13.8511C722.117 13.8181 721.45 13.7851 720.782 13.752L720.757 14.2514L720.733 14.7508C721.401 14.7839 722.067 14.8169 722.733 14.8498L722.758 14.3505ZM718.751 14.1517L718.776 13.6523C718.106 13.619 717.435 13.5855 716.763 13.552L716.739 14.0514L716.714 14.5508C717.385 14.5843 718.056 14.6177 718.726 14.6511L718.751 14.1517ZM714.721 13.9505L714.746 13.4511C714.072 13.4174 713.397 13.3836 712.722 13.3496L712.697 13.849L712.672 14.3484C713.347 14.3823 714.022 14.4161 714.696 14.4499L714.721 13.9505ZM710.668 13.747L710.693 13.2476C710.015 13.2135 709.337 13.1793 708.658 13.1451L708.633 13.6444L708.608 14.1438C709.287 14.1781 709.965 14.2123 710.642 14.2464L710.668 13.747ZM706.592 13.5413L706.618 13.042C705.937 13.0075 705.255 12.973 704.572 12.9384L704.547 13.4377L704.521 13.9371C705.204 13.9717 705.886 14.0062 706.567 14.0407L706.592 13.5413ZM702.512 13.3344L702.537 12.8351C701.885 12.8019 701.231 12.7687 700.577 12.7354L700.552 13.2348L700.526 13.7341C701.181 13.7674 701.834 13.8006 702.486 13.8338L702.512 13.3344ZM698.587 13.1347L698.613 12.6353C697.957 12.6019 697.301 12.5684 696.643 12.5348L696.618 13.0342L696.592 13.5335C697.25 13.5671 697.906 13.6006 698.562 13.634L698.587 13.1347ZM694.644 12.9332L694.669 12.4339C694.011 12.4002 693.351 12.3664 692.691 12.3326L692.665 12.8319L692.64 13.3313C693.3 13.3651 693.96 13.3989 694.618 13.4326L694.644 12.9332ZM690.682 12.7303L690.707 12.2309C690.046 12.197 689.383 12.1629 688.72 12.1289L688.694 12.6282L688.668 13.1276C689.332 13.1616 689.994 13.1956 690.656 13.2296L690.682 12.7303ZM686.701 12.5258L686.727 12.0265C686.062 11.9923 685.396 11.9581 684.73 11.9238L684.704 12.4231L684.679 12.9224C685.345 12.9567 686.011 12.991 686.676 13.0252L686.701 12.5258ZM682.703 12.32L682.729 11.8207C682.061 11.7863 681.392 11.7518 680.723 11.7173L680.697 12.2167L680.671 12.716C681.341 12.7505 682.009 12.785 682.677 12.8194L682.703 12.32ZM678.687 12.113L678.712 11.6137C678.042 11.579 677.37 11.5444 676.698 11.5097L676.672 12.009L676.646 12.5084C677.319 12.5431 677.99 12.5777 678.661 12.6123L678.687 12.113ZM674.653 11.9048L674.679 11.4055C674.005 11.3707 673.331 11.3358 672.656 11.301L672.63 11.8003L672.604 12.2996C673.279 12.3345 673.954 12.3693 674.627 12.4041L674.653 11.9048ZM670.603 11.6956L670.629 11.1962C669.952 11.1613 669.275 11.1263 668.597 11.0912L668.571 11.5906L668.546 12.0899C669.224 12.1249 669.901 12.1599 670.577 12.1949L670.603 11.6956ZM666.536 11.4854L666.562 10.986C665.883 10.9509 665.203 10.9158 664.522 10.8806L664.496 11.38L664.471 11.8793C665.151 11.9145 665.831 11.9496 666.51 11.9847L666.536 11.4854ZM662.52 11.2778L662.546 10.7785C661.89 10.7446 661.233 10.7106 660.575 10.6767L660.549 11.176L660.523 11.6753C661.181 11.7093 661.838 11.7433 662.495 11.7772L662.52 11.2778ZM658.574 11.074L658.6 10.5746C657.941 10.5406 657.282 10.5066 656.621 10.4725L656.596 10.9718L656.57 11.4711C657.23 11.5052 657.89 11.5393 658.548 11.5733L658.574 11.074ZM654.614 10.8695L654.639 10.3702C653.978 10.3361 653.316 10.3019 652.654 10.2677L652.628 10.7671L652.602 11.2664C653.265 11.3006 653.927 11.3347 654.588 11.3688L654.614 10.8695ZM650.639 10.6645L650.665 10.1652C650.001 10.131 649.337 10.0968 648.672 10.0626L648.647 10.5619L648.621 11.0612C649.286 11.0955 649.95 11.1297 650.613 11.1639L650.639 10.6645ZM646.651 10.4592L646.676 9.95982C646.01 9.92555 645.344 9.89128 644.677 9.85699L644.651 10.3563L644.626 10.8557C645.293 10.89 645.959 10.9242 646.625 10.9585L646.651 10.4592ZM642.649 10.2534L642.674 9.7541C642.006 9.7198 641.338 9.68548 640.669 9.65115L640.643 10.1505L640.617 10.6498C641.286 10.6842 641.955 10.7185 642.623 10.7528L642.649 10.2534ZM638.634 10.0475L638.659 9.54816C637.989 9.51382 637.318 9.47948 636.647 9.44514L636.622 9.94448L636.596 10.4438C637.267 10.4782 637.938 10.5125 638.608 10.5469L638.634 10.0475ZM634.606 9.84143L634.632 9.34208C633.959 9.30772 633.286 9.27337 632.613 9.23901L632.587 9.73837L632.562 10.2377C633.235 10.2721 633.908 10.3064 634.581 10.3408L634.606 9.84143ZM630.566 9.6353L630.591 9.13595C629.917 9.1016 629.242 9.06725 628.567 9.0329L628.541 9.53225L628.516 10.0316C629.191 10.066 629.866 10.1003 630.54 10.1347L630.566 9.6353ZM626.513 9.42922L626.539 8.92986C625.862 8.89552 625.185 8.86119 624.508 8.82687L624.483 9.32623L624.457 9.82558C625.135 9.85991 625.812 9.89424 626.488 9.92857L626.513 9.42922ZM622.499 9.22579L622.524 8.72643C621.865 8.69309 621.205 8.65976 620.545 8.62643L620.52 9.1258L620.495 9.62517C621.155 9.65849 621.815 9.69182 622.474 9.72515L622.499 9.22579ZM618.539 9.02587L618.564 8.5265C617.903 8.49321 617.241 8.45992 616.58 8.42665L616.555 8.92603L616.529 9.42539C617.191 9.45866 617.853 9.49194 618.514 9.52524L618.539 9.02587ZM614.568 8.82626L614.593 8.32688C613.93 8.29364 613.267 8.26041 612.603 8.2272L612.578 8.72658L612.553 9.22595C613.217 9.25916 613.88 9.29239 614.543 9.32562L614.568 8.82626ZM610.587 8.62701L610.612 8.12763C609.947 8.09446 609.282 8.06131 608.617 8.02818L608.592 8.52756L608.567 9.02694C609.233 9.06007 609.897 9.09322 610.562 9.12639L610.587 8.62701ZM606.595 8.42824L606.62 7.92885C605.954 7.89576 605.288 7.8627 604.621 7.82966L604.596 8.32905L604.571 8.82843C605.238 8.86147 605.905 8.89453 606.571 8.92762L606.595 8.42824ZM602.594 8.23L602.619 7.73061C601.952 7.69762 601.284 7.66467 600.615 7.63173L600.59 8.13112L600.566 8.63052C601.234 8.66344 601.902 8.69641 602.57 8.72939L602.594 8.23ZM598.584 8.03241L598.609 7.533C597.94 7.50013 597.27 7.46729 596.6 7.43447L596.576 7.93387L596.551 8.43327C597.221 8.46609 597.89 8.49893 598.56 8.53181L598.584 8.03241ZM594.565 7.83553L594.589 7.33612C593.918 7.30337 593.247 7.27065 592.576 7.23797L592.552 7.73737L592.527 8.23679C593.199 8.26946 593.87 8.30218 594.54 8.33493L594.565 7.83553ZM590.536 7.63943L590.561 7.14002C589.889 7.10741 589.216 7.07484 588.543 7.0423L588.519 7.54172L588.495 8.04114C589.168 8.07367 589.84 8.10624 590.512 8.13885L590.536 7.63943ZM586.5 7.44424L586.524 6.94482C585.85 6.91236 585.176 6.87994 584.502 6.84756L584.478 7.34699L584.454 7.84641C585.128 7.87878 585.802 7.9112 586.475 7.94366L586.5 7.44424ZM582.465 7.2505L582.489 6.75108C581.828 6.71944 581.166 6.68784 580.504 6.65627L580.48 7.15571L580.456 7.65514C581.118 7.6867 581.78 7.71829 582.441 7.74993L582.465 7.2505ZM578.493 7.06117L578.517 6.56173C577.854 6.53027 577.191 6.49884 576.528 6.46746L576.504 6.9669L576.481 7.46635C577.144 7.49772 577.807 7.52914 578.469 7.56061L578.493 7.06117ZM574.514 6.87292L574.537 6.37347C573.874 6.34219 573.209 6.31096 572.545 6.27978L572.522 6.77923L572.498 7.27868C573.163 7.30986 573.827 7.34109 574.49 7.37237L574.514 6.87292ZM570.528 6.68584L570.551 6.18638C569.886 6.1553 569.221 6.12428 568.555 6.0933L568.532 6.59276L568.509 7.09222C569.174 7.12319 569.839 7.15421 570.504 7.1853L570.528 6.68584ZM566.534 6.5L566.558 6.00053C565.891 5.96967 565.225 5.93886 564.558 5.9081L564.535 6.40757L564.512 6.90704C565.179 6.93779 565.845 6.9686 566.511 6.99947L566.534 6.5ZM562.535 6.31548L562.558 5.81601C561.89 5.78537 561.223 5.75479 560.555 5.72427L560.532 6.22375L560.51 6.72323C561.177 6.75375 561.845 6.78432 562.512 6.81496L562.535 6.31548ZM558.529 6.13237L558.551 5.63289C557.883 5.60249 557.215 5.57215 556.546 5.54188L556.523 6.04137L556.501 6.54086C557.169 6.57113 557.838 6.60146 558.506 6.63186L558.529 6.13237ZM554.517 5.95074L554.539 5.45125C553.87 5.4211 553.201 5.39102 552.531 5.36102L552.509 5.86051L552.486 6.36001C553.156 6.39002 553.825 6.4201 554.494 6.45024L554.517 5.95074ZM550.499 5.77068L550.521 5.27117C549.851 5.24129 549.181 5.21148 548.51 5.18174L548.488 5.68125L548.466 6.18076C549.137 6.21049 549.807 6.2403 550.477 6.27018L550.499 5.77068ZM546.476 5.59225L546.498 5.09274C545.827 5.06313 545.156 5.03361 544.484 5.00415L544.462 5.50367L544.441 6.00319C545.112 6.03264 545.783 6.06216 546.454 6.09176L546.476 5.59225ZM542.448 5.41553L542.47 4.91601C541.8 4.88679 541.13 4.85764 540.459 4.82857L540.438 5.3281L540.416 5.82763C541.086 5.8567 541.756 5.88584 542.426 5.91506L542.448 5.41553ZM538.445 5.24193L538.466 4.74239C537.802 4.71375 537.137 4.68517 536.473 4.65668L536.451 5.15622L536.43 5.65576C537.095 5.68425 537.759 5.71282 538.423 5.74147L538.445 5.24193ZM534.456 5.07098L534.478 4.57143C533.812 4.54309 533.147 4.51483 532.482 4.48665L532.461 4.98621L532.439 5.48576C533.105 5.51393 533.77 5.54218 534.435 5.57052L534.456 5.07098ZM530.464 4.90192L530.485 4.40237C529.819 4.37435 529.153 4.34642 528.487 4.31857L528.466 4.81814L528.445 5.3177C529.111 5.34554 529.777 5.37347 530.443 5.40148L530.464 4.90192ZM526.467 4.73486L526.488 4.23528C525.821 4.2076 525.154 4.18002 524.488 4.15251L524.467 4.65208L524.446 5.15166C525.113 5.17916 525.78 5.20675 526.446 5.23442L526.467 4.73486ZM522.466 4.56984L522.487 4.07026C521.82 4.04293 521.153 4.01569 520.485 3.98855L520.465 4.48813L520.445 4.98772C521.112 5.01486 521.779 5.0421 522.446 5.06942L522.466 4.56984ZM518.462 4.40697L518.483 3.90737C517.815 3.88041 517.147 3.85353 516.479 3.82675L516.459 4.32635L516.439 4.82595C517.107 4.85272 517.775 4.87959 518.442 4.90656L518.462 4.40697ZM514.455 4.2463L514.475 3.7467C513.807 3.7201 513.139 3.6936 512.471 3.66721L512.451 4.16682L512.431 4.66643C513.099 4.69283 513.768 4.71931 514.436 4.7459L514.455 4.2463ZM510.445 4.08792L510.465 3.5883C509.796 3.5621 509.128 3.536 508.459 3.50999L508.439 4.00961L508.42 4.50923C509.089 4.53523 509.757 4.56133 510.426 4.58753L510.445 4.08792ZM506.433 3.9319L506.452 3.43227C505.783 3.40647 505.114 3.38077 504.445 3.35517L504.426 3.8548L504.407 4.35444C505.076 4.38004 505.745 4.40573 506.414 4.43153L506.433 3.9319ZM502.418 3.77832L502.437 3.27868C501.767 3.25329 501.098 3.228 500.428 3.20283L500.41 3.70247L500.391 4.20212C501.06 4.22729 501.73 4.25258 502.399 4.27796L502.418 3.77832ZM498.401 3.62726L498.419 3.12761C497.753 3.10275 497.086 3.078 496.419 3.05336L496.4 3.55302L496.382 4.05267C497.049 4.07732 497.716 4.10206 498.382 4.12691L498.401 3.62726ZM494.4 3.47945L494.418 2.97978C493.751 2.95536 493.084 2.93105 492.417 2.90686L492.399 3.40653L492.381 3.9062C493.048 3.9304 493.715 3.9547 494.382 3.97911L494.4 3.47945ZM490.398 3.33429L490.416 2.83461C489.749 2.81064 489.081 2.78678 488.414 2.76304L488.396 3.26273L488.379 3.76241C489.046 3.78615 489.713 3.81 490.38 3.83397L490.398 3.33429ZM486.395 3.19185L486.412 2.69216C485.745 2.66865 485.077 2.64526 484.41 2.62198L484.392 3.12167L484.375 3.62137C485.042 3.64464 485.71 3.66803 486.377 3.69154L486.395 3.19185ZM482.39 3.0522L482.407 2.5525C481.74 2.52946 481.072 2.50654 480.405 2.48374L480.388 2.98344L480.371 3.48315C481.038 3.50595 481.706 3.52887 482.373 3.5519L482.39 3.0522ZM478.385 2.91542L478.402 2.4157C477.734 2.39315 477.067 2.37072 476.399 2.34841L476.382 2.84813L476.366 3.34785C477.033 3.37016 477.701 3.39259 478.368 3.41514L478.385 2.91542ZM474.379 2.78159L474.396 2.28185C473.728 2.2598 473.061 2.23786 472.393 2.21606L472.377 2.71579L472.36 3.21552C473.028 3.23733 473.695 3.25925 474.363 3.28131L474.379 2.78159ZM470.374 2.65076L470.39 2.15102C469.722 2.12947 469.054 2.10805 468.387 2.08676L468.371 2.5865L468.355 3.08625C469.022 3.10754 469.69 3.12895 470.357 3.1505L470.374 2.65076ZM466.368 2.52303L466.383 2.02328C465.716 2.00225 465.048 1.98135 464.38 1.96059L464.365 2.46035L464.349 2.96011C465.017 2.98087 465.684 3.00176 466.352 3.02278L466.368 2.52303ZM462.362 2.39847L462.377 1.8987C461.71 1.87821 461.042 1.85785 460.375 1.83762L460.359 2.33739L460.344 2.83717C461.012 2.85738 461.679 2.87774 462.347 2.89823L462.362 2.39847ZM458.357 2.27715L458.372 1.77737C457.704 1.75742 457.037 1.73761 456.369 1.71794L456.355 2.21773L456.34 2.71751C457.007 2.73717 457.675 2.75698 458.342 2.77692L458.357 2.27715ZM454.349 2.15905L454.364 1.65926C453.695 1.63982 453.025 1.62051 452.356 1.60135L452.342 2.10114L452.328 2.60094C452.997 2.62009 453.666 2.6394 454.335 2.65884L454.349 2.15905ZM450.335 2.04411L450.349 1.5443C449.68 1.52544 449.011 1.50671 448.342 1.48814L448.328 1.98795L448.314 2.48775C448.983 2.50632 449.652 2.52505 450.32 2.54391L450.335 2.04411ZM446.321 1.93266L446.335 1.43285C445.666 1.41457 444.997 1.39643 444.328 1.37845L444.315 1.87827L444.302 2.37808C444.97 2.39606 445.639 2.41419 446.307 2.43247L446.321 1.93266ZM442.309 1.82477L442.322 1.32494C441.654 1.30727 440.985 1.28973 440.317 1.27235L440.304 1.77219L440.291 2.27202C440.959 2.28939 441.628 2.30692 442.296 2.3246L442.309 1.82477ZM438.299 1.72052L438.312 1.22069C437.644 1.20361 436.976 1.1867 436.307 1.16994L436.295 1.66978L436.282 2.16963C436.95 2.18639 437.618 2.20329 438.286 2.22036L438.299 1.72052ZM434.291 1.61999L434.304 1.12014C433.636 1.1037 432.968 1.08741 432.3 1.07128L432.288 1.57114L432.276 2.07099C432.944 2.08711 433.611 2.10339 434.279 2.11983L434.291 1.61999ZM430.286 1.52325L430.298 1.02338C429.63 1.00758 428.963 0.991936 428.296 0.976448L428.284 1.47632L428.272 1.97618C428.939 1.99166 429.607 2.0073 430.274 2.0231L430.286 1.52325ZM426.283 1.43037L426.294 0.930496C425.627 0.915337 424.96 0.900345 424.294 0.885521L424.283 1.3854L424.271 1.88528C424.938 1.90009 425.605 1.91508 426.272 1.93024L426.283 1.43037ZM422.283 1.34142L422.294 0.841545C421.627 0.827049 420.961 0.812729 420.295 0.798569L420.284 1.29846L420.274 1.79835C420.94 1.8125 421.606 1.82682 422.272 1.84131L422.283 1.34142ZM418.286 1.25651L418.297 0.756615C417.631 0.742798 416.965 0.729149 416.299 0.715675L416.289 1.21558L416.279 1.71547C416.945 1.72894 417.61 1.74258 418.276 1.7564L418.286 1.25651ZM414.293 1.17567L414.303 0.675774C413.636 0.662613 412.969 0.649628 412.302 0.63681L412.293 1.13672L412.283 1.63663C412.949 1.64944 413.616 1.66242 414.283 1.67558L414.293 1.17567ZM410.277 1.09853L410.287 0.598618C409.615 0.586067 408.944 0.573692 408.272 0.561501L408.263 1.06142L408.254 1.56134C408.925 1.57352 409.596 1.58589 410.268 1.59844L410.277 1.09853ZM406.25 1.02541L406.259 0.525482C405.588 0.513657 404.917 0.502022 404.247 0.490562L404.238 0.990494L404.229 1.49042C404.9 1.50187 405.57 1.5135 406.241 1.52533L406.25 1.02541ZM402.227 0.956696L402.235 0.456764C401.565 0.445679 400.895 0.434784 400.225 0.42408L400.217 0.924019L400.209 1.42395C400.879 1.43465 401.549 1.44555 402.219 1.45663L402.227 0.956696ZM398.209 0.892471L398.217 0.392532C397.547 0.382202 396.878 0.372063 396.209 0.362122L396.201 0.862068L396.194 1.36201C396.863 1.37196 397.532 1.38209 398.201 1.39241L398.209 0.892471ZM394.195 0.832817L394.203 0.332863C393.534 0.323311 392.866 0.313942 392.197 0.304771L392.191 0.804726L392.184 1.30468C392.852 1.31384 393.52 1.3232 394.188 1.33276L394.195 0.832817ZM390.187 0.777802L390.194 0.277847C389.526 0.269073 388.859 0.26049 388.191 0.252106L388.185 0.752068L388.179 1.25203C388.846 1.26041 389.513 1.26899 390.181 1.27776L390.187 0.777802ZM386.184 0.727516L386.19 0.227554C385.523 0.219574 384.857 0.211784 384.191 0.204201L384.185 0.70417L384.179 1.20414C384.845 1.21172 385.512 1.2195 386.178 1.22749L386.184 0.727516ZM382.187 0.682037L382.193 0.18206C381.527 0.174889 380.861 0.167915 380.196 0.16114L380.191 0.661118L380.186 1.16109C380.851 1.16786 381.516 1.17483 382.182 1.18201L382.187 0.682037ZM378.196 0.641426L378.201 0.141449C377.536 0.135094 376.871 0.128944 376.207 0.123001L376.203 0.622986L376.198 1.12296C376.862 1.12891 377.527 1.13506 378.191 1.14141L378.196 0.641426ZM374.211 0.605782L374.215 0.105804C373.551 0.100273 372.888 0.0949631 372.225 0.089859L372.221 0.589844L372.217 1.08983C372.88 1.09493 373.543 1.10024 374.207 1.10577L374.211 0.605782ZM370.227 0.575134L370.231 0.0751495C369.556 0.0703812 368.882 0.0658417 368.207 0.0615234L368.204 0.561516L368.201 1.0615C368.875 1.06582 369.549 1.07036 370.224 1.07512L370.227 0.575134ZM366.183 0.549225L366.186 0.0492325C365.513 0.0453644 364.839 0.0417175 364.166 0.0382919L364.164 0.538292L364.161 1.03828C364.834 1.0417 365.507 1.04535 366.18 1.04922L366.183 0.549225ZM362.146 0.528702L362.149 0.0287094C361.476 0.0257416 360.804 0.0230026 360.133 0.0204926L360.131 0.520485L360.129 1.02048C360.8 1.02299 361.472 1.02573 362.144 1.0287L362.146 0.528702ZM358.117 0.513649L358.119 0.013649C357.448 0.0116043 356.777 0.00978088 356.107 0.0082016L356.106 0.508202L356.105 1.00819C356.775 1.00978 357.445 1.0116 358.116 1.01365L358.117 0.513649ZM354.096 0.504143L354.097 0.00414276C353.427 0.00302887 352.758 0.00214386 352.089 0.00149536L352.089 0.501495L352.088 1.0015C352.757 1.00214 353.426 1.00303 354.095 1.00414L354.096 0.504143ZM350.083 0.500267L350.083 0.000267029C349.415 9.91821e-05 348.747 0.000167847 348.08 0.000473022L348.08 0.500473L348.08 1.00047C348.747 1.00017 349.415 1.0001 350.083 1.00027L350.083 0.500267ZM346.079 0.502113L346.078 0.00211334C345.411 0.00289917 344.745 0.00392914 344.079 0.00520325L344.08 0.505196L344.081 1.0052C344.747 1.00393 345.413 1.0029 346.079 1.00211L346.079 0.502113ZM342.083 0.50975L342.082 0.00975037C341.416 0.0115128 340.751 0.0135117 340.087 0.01577L340.089 0.515762L340.09 1.01576C340.755 1.01351 341.419 1.01151 342.084 1.00974L342.083 0.50975ZM338.096 0.523262L338.094 0.0232697C337.43 0.0260162 336.767 0.0290146 336.104 0.0322571L336.107 0.532249L336.109 1.03224C336.772 1.029 337.435 1.02601 338.098 1.02326L338.096 0.523262ZM334.119 0.54274L334.116 0.0427475C333.454 0.0464935 332.792 0.050499 332.131 0.0547485L332.134 0.554741L332.137 1.05473C332.798 1.05048 333.46 1.04648 334.122 1.04273L334.119 0.54274ZM330.151 0.56826L330.148 0.0682755C329.48 0.0730896 328.812 0.0781708 328.145 0.0835114L328.149 0.583496L328.153 1.08347C328.82 1.07814 329.487 1.07307 330.155 1.06825L330.151 0.56826ZM326.119 0.600563L326.115 0.100586C325.438 0.106552 324.763 0.112785 324.087 0.119293L324.092 0.61927L324.097 1.11925C324.772 1.11274 325.447 1.10651 326.123 1.10055L326.119 0.600563ZM322.068 0.639626L322.062 0.139656C321.388 0.146713 320.714 0.154053 320.04 0.161674L320.046 0.661636L320.052 1.16161C320.725 1.15399 321.399 1.14666 322.073 1.1396L322.068 0.639626ZM318.027 0.685318L318.021 0.185356C317.348 0.193535 316.676 0.201988 316.005 0.210724L316.011 0.710686L316.018 1.21064C316.689 1.2019 317.361 1.19346 318.033 1.18529L318.027 0.685318ZM313.998 0.73774L313.991 0.237785C313.32 0.247086 312.65 0.256676 311.981 0.266548L311.988 0.766487L311.995 1.26643C312.665 1.25657 313.335 1.24699 314.005 1.23769L313.998 0.73774ZM309.981 0.796959L309.973 0.29702C309.304 0.307465 308.636 0.318199 307.968 0.329224L307.977 0.829155L307.985 1.32909C308.652 1.31807 309.32 1.30734 309.989 1.2969L309.981 0.796959ZM305.975 0.863083L305.967 0.363159C305.3 0.374763 304.634 0.386658 303.968 0.398842L303.977 0.898758L303.986 1.39867C304.652 1.3865 305.318 1.3746 305.984 1.36301L305.975 0.863083ZM301.982 0.936195L301.973 0.436287C301.308 0.449066 300.644 0.462135 299.98 0.475502L299.991 0.975403L300.001 1.4753C300.664 1.46194 301.328 1.44888 301.992 1.4361L301.982 0.936195ZM298.002 1.01639L297.991 0.516495C297.329 0.530457 296.667 0.544724 296.006 0.55928L296.017 1.05916L296.028 1.55904C296.689 1.54449 297.35 1.53023 298.012 1.51627L298.002 1.01639ZM294.034 1.10374L294.023 0.603874C293.363 0.619034 292.703 0.634506 292.044 0.650276L292.056 1.15013L292.068 1.64999C292.727 1.63422 293.386 1.61877 294.046 1.60361L294.034 1.10374ZM290.08 1.19835L290.068 0.698509C289.404 0.715027 288.741 0.731857 288.079 0.749001L288.092 1.24883L288.105 1.74866C288.767 1.73153 289.429 1.71471 290.093 1.6982L290.08 1.19835ZM286.054 1.30261L286.04 0.802788C285.362 0.821053 284.684 0.839645 284.006 0.858574L284.02 1.35838L284.034 1.85818C284.711 1.83926 285.389 1.82068 286.067 1.80243L286.054 1.30261ZM281.99 1.41615L281.975 0.916359C281.299 0.935959 280.623 0.955894 279.948 0.976166L279.963 1.47594L279.978 1.97572C280.653 1.95545 281.328 1.93552 282.004 1.91594L281.99 1.41615ZM277.941 1.53776L277.925 1.038C277.251 1.05895 276.578 1.08025 275.906 1.10188L275.922 1.60162L275.938 2.10136C276.61 2.07973 277.283 2.05846 277.956 2.03751L277.941 1.53776ZM273.907 1.66753L273.89 1.16781C273.219 1.19013 272.549 1.21279 271.879 1.2358L271.896 1.73551L271.913 2.23521C272.583 2.21222 273.253 2.18957 273.924 2.16726L273.907 1.66753ZM269.889 1.80556L269.872 1.30589C269.203 1.32959 268.536 1.35365 267.868 1.37805L267.887 1.87772L267.905 2.37738C268.572 2.35299 269.239 2.32895 269.907 2.30525L269.889 1.80556ZM265.888 1.95197L265.869 1.45232C265.204 1.47743 264.539 1.5029 263.874 1.52872L263.894 2.02834L263.913 2.52796C264.577 2.50216 265.242 2.47671 265.907 2.45161L265.888 1.95197ZM261.903 2.10683L261.883 1.60723C261.22 1.63376 260.558 1.66064 259.897 1.68789L259.917 2.18747L259.938 2.68704C260.599 2.65981 261.261 2.63294 261.923 2.60643L261.903 2.10683ZM257.936 2.27026L257.914 1.77071C257.254 1.79867 256.595 1.827 255.936 1.85568L255.958 2.35521L255.98 2.85474C256.638 2.82607 257.297 2.79775 257.957 2.76981L257.936 2.27026ZM253.985 2.44234L253.963 1.94284C253.306 1.97226 252.649 2.00204 251.993 2.03219L252.016 2.53166L252.039 3.03113C252.695 3.001 253.351 2.97124 254.007 2.94184L253.985 2.44234ZM250.052 2.62318L250.029 2.12373C249.353 2.15563 248.678 2.18793 248.004 2.22062L248.028 2.72003L248.052 3.21944C248.726 3.18678 249.401 3.1545 250.076 3.12262L250.052 2.62318ZM245.986 2.82042L245.961 2.32104C245.281 2.35491 244.602 2.3892 243.923 2.4239L243.949 2.92324L243.974 3.42259C244.652 3.38792 245.331 3.35365 246.011 3.3198L245.986 2.82042ZM241.916 3.02853L241.89 2.52921C241.213 2.56474 240.537 2.60066 239.862 2.63701L239.889 3.13629L239.916 3.63557C240.591 3.59924 241.266 3.56334 241.943 3.52784L241.916 3.02853ZM237.867 3.24653L237.84 2.74729C237.166 2.78447 236.494 2.82207 235.822 2.86008L235.85 3.35928L235.879 3.85848C236.55 3.8205 237.222 3.78292 237.895 3.74577L237.867 3.24653ZM233.839 3.47454L233.81 2.97538C233.14 3.01424 232.471 3.05351 231.803 3.09321L231.833 3.59233L231.862 4.09145C232.53 4.05178 233.198 4.01253 233.868 3.9737L233.839 3.47454ZM229.832 3.71266L229.801 3.21359C229.135 3.25414 228.47 3.29512 227.805 3.33652L227.836 3.83556L227.867 4.33459C228.531 4.29321 229.196 4.25227 229.862 4.21174L229.832 3.71266ZM225.846 3.96102L225.814 3.46204C225.152 3.5043 224.49 3.547 223.829 3.59013L223.862 4.08907L223.894 4.58801C224.555 4.54491 225.216 4.50224 225.878 4.46001L225.846 3.96102ZM221.883 4.21972L221.849 3.72083C221.19 3.76483 220.532 3.80927 219.875 3.85414L219.909 4.35298L219.943 4.85181C220.6 4.80698 221.257 4.76257 221.916 4.71861L221.883 4.21972ZM217.941 4.48887L217.907 3.99008C217.251 4.03584 216.597 4.08204 215.944 4.12867L215.979 4.6274L216.015 5.12614C216.668 5.07954 217.322 5.03338 217.976 4.98766L217.941 4.48887ZM214.023 4.76859L213.987 4.26991C213.333 4.31762 212.68 4.36577 212.028 4.41437L212.065 4.91299L212.102 5.41161C212.754 5.36304 213.406 5.31493 214.059 5.26727L214.023 4.76859ZM210.013 5.06772L209.975 4.56917C209.292 4.62127 208.61 4.67387 207.929 4.72697L207.968 5.22546L208.007 5.72395C208.687 5.67088 209.369 5.61833 210.051 5.56627L210.013 5.06772ZM205.929 5.38622L205.889 4.8878C205.211 4.94192 204.533 4.99654 203.856 5.05167L203.897 5.55002L203.938 6.04837C204.613 5.99329 205.291 5.93871 205.969 5.88464L205.929 5.38622ZM201.872 5.71687L201.83 5.2186C201.156 5.27475 200.483 5.33142 199.811 5.3886L199.853 5.8868L199.895 6.385C200.567 6.32787 201.239 6.27126 201.913 6.21515L201.872 5.71687ZM197.841 6.05982L197.798 5.5617C197.128 5.61991 196.46 5.67864 195.792 5.7379L195.836 6.23594L195.881 6.73398C196.547 6.67478 197.215 6.6161 197.884 6.55795L197.841 6.05982ZM193.839 6.41518L193.793 5.91722C193.128 5.97752 192.464 6.03835 191.802 6.09969L191.848 6.59756L191.894 7.09544C192.556 7.03414 193.219 6.97338 193.884 6.91314L193.839 6.41518ZM189.864 6.7831L189.817 6.28532C189.156 6.34772 188.497 6.41064 187.839 6.47411L187.887 6.9718L187.935 7.46949C188.593 7.40609 189.251 7.34322 189.911 7.28088L189.864 6.7831ZM185.918 7.1637L185.869 6.66611C185.213 6.73064 184.559 6.7957 183.906 6.86131L183.956 7.3588L184.006 7.8563C184.658 7.79076 185.312 7.72576 185.967 7.6613L185.918 7.1637ZM182.001 7.55712L181.95 7.05972C181.299 7.1264 180.65 7.19363 180.001 7.26138L180.053 7.75867L180.105 8.25597C180.753 8.18828 181.402 8.12112 182.052 8.05451L182.001 7.55712ZM178.113 7.96349L178.06 7.4663C177.398 7.5369 176.737 7.60807 176.078 7.67982L176.132 8.17688L176.186 8.67395C176.845 8.60228 177.505 8.53119 178.166 8.46067L178.113 7.96349ZM174.078 8.40265L174.023 7.90571C173.34 7.98164 172.657 8.05819 171.977 8.13538L172.033 8.63219L172.089 9.12901C172.769 9.05191 173.451 8.97544 174.133 8.8996L174.078 8.40265ZM169.997 8.86552L169.939 8.36884C169.262 8.44728 168.585 8.52637 167.911 8.60609L167.969 9.10264L168.028 9.59918C168.702 9.51955 169.377 9.44056 170.054 9.3622L169.997 8.86552ZM165.95 9.34359L165.891 8.84718C165.219 8.92819 164.548 9.00983 163.88 9.09213L163.941 9.58839L164.002 10.0846C164.67 10.0024 165.339 9.92091 166.01 9.84L165.95 9.34359ZM161.94 9.83704L161.878 9.34093C161.212 9.42452 160.548 9.50876 159.885 9.59364L159.948 10.0896L160.012 10.5855C160.674 10.5008 161.337 10.4166 162.002 10.3331L161.94 9.83704ZM157.966 10.346L157.901 9.85025C157.241 9.93644 156.583 10.0233 155.927 10.1108L155.993 10.6064L156.059 11.102C156.714 11.0146 157.372 10.9279 158.031 10.8418L157.966 10.346ZM154.029 10.8707L153.961 10.3753C153.308 10.4641 152.656 10.5536 152.005 10.6438L152.074 11.139L152.143 11.6343C152.792 11.5443 153.443 11.4549 154.096 11.3662L154.029 10.8707ZM150.129 11.4113L150.059 10.9162C149.412 11.0077 148.766 11.0999 148.122 11.1927L148.193 11.6876L148.265 12.1825C148.908 12.0898 149.553 11.9977 150.199 11.9064L150.129 11.4113ZM146.267 11.9679L146.195 11.4732C145.554 11.5674 144.914 11.6622 144.277 11.7577L144.351 12.2522L144.425 12.7467C145.062 12.6513 145.7 12.5566 146.34 12.4626L146.267 11.9679ZM142.322 12.5594L142.246 12.0651C141.561 12.1699 140.877 12.2755 140.196 12.3819L140.273 12.8759L140.35 13.3699C141.03 13.2637 141.713 13.1583 142.397 13.0536L142.322 12.5594ZM138.236 13.1973L138.157 12.7035C137.479 12.8115 136.804 12.9203 136.13 13.0299L136.21 13.5234L136.29 14.0169C136.963 13.9075 137.638 13.7989 138.314 13.691L138.236 13.1973ZM134.196 13.8545L134.114 13.3612C133.444 13.4725 132.777 13.5845 132.111 13.6974L132.194 14.1903L132.278 14.6833C132.943 14.5706 133.609 14.4588 134.278 14.3477L134.196 13.8545ZM130.204 14.5311L130.119 14.0385C129.457 14.153 128.797 14.2683 128.139 14.3845L128.226 14.8769L128.313 15.3692C128.97 15.2533 129.628 15.1381 130.289 15.0238L130.204 14.5311ZM126.26 15.2275L126.171 14.7355C125.517 14.8533 124.865 14.9719 124.215 15.0914L124.306 15.5832L124.396 16.0749C125.045 15.9557 125.696 15.8372 126.348 15.7196L126.26 15.2275ZM122.364 15.9438L122.272 15.4524C121.626 15.5736 120.982 15.6956 120.341 15.8184L120.435 16.3095L120.529 16.8006C121.169 16.678 121.812 16.5562 122.456 16.4352L122.364 15.9438ZM118.518 16.6802L118.422 16.1895C117.784 16.314 117.149 16.4394 116.515 16.5657L116.613 17.056L116.711 17.5464C117.343 17.4204 117.977 17.2952 118.613 17.171L118.518 16.6802ZM114.721 17.4369L114.622 16.947C113.965 17.0806 113.31 17.2151 112.658 17.3505L112.759 17.8401L112.861 18.3297C113.512 18.1945 114.165 18.0602 114.821 17.9269L114.721 17.4369ZM110.715 18.2693L110.612 17.7802C109.932 17.9245 109.255 18.0698 108.581 18.2161L108.687 18.7047L108.793 19.1934C109.466 19.0473 110.141 18.9024 110.819 18.7584L110.715 18.2693ZM106.674 19.1464L106.565 18.6583C105.896 18.8067 105.23 18.9562 104.566 19.1068L104.676 19.5944L104.787 20.082C105.449 19.9318 106.114 19.7827 106.782 19.6346L106.674 19.1464ZM102.695 20.0487L102.582 19.5616C101.923 19.7143 101.267 19.868 100.614 20.0229L100.729 20.5094L100.845 20.9959C101.496 20.8415 102.151 20.6881 102.808 20.5358L102.695 20.0487ZM98.7798 20.9764L98.6621 20.4905C98.0141 20.6474 97.3688 20.8055 96.7262 20.9646L96.8464 21.4499L96.9666 21.9352C97.6075 21.7766 98.2512 21.6189 98.8975 21.4624L98.7798 20.9764ZM94.9293 21.9298L94.8066 21.4451C94.1694 21.6064 93.535 21.7688 92.9033 21.9322L93.0286 22.4163L93.1538 22.9003C93.7838 22.7373 94.4165 22.5754 95.0519 22.4146L94.9293 21.9298ZM91.1443 22.9092L91.0165 22.4258C90.3903 22.5915 89.7669 22.7582 89.1462 22.9261L89.2768 23.4087L89.4073 23.8914C90.0261 23.724 90.6478 23.5578 91.2722 23.3926L91.1443 22.9092ZM87.426 23.9148L87.2927 23.4329C86.6457 23.6118 86.0018 23.7919 85.361 23.9733L85.4971 24.4544L85.6332 24.9355C86.2721 24.7547 86.9141 24.5751 87.5592 24.3967L87.426 23.9148ZM83.4775 25.0331L83.3383 24.5529C82.6675 24.7474 82.0003 24.9434 81.3367 25.1408L81.4792 25.62L81.6217 26.0993C82.2832 25.9026 82.9482 25.7072 83.6169 25.5133L83.4775 25.0331ZM79.5022 26.2153L79.3564 25.7371C78.6998 25.9372 78.0469 26.1388 77.3975 26.3418L77.5467 26.819L77.6959 27.2962C78.343 27.094 78.9937 26.8931 79.648 26.6936L79.5022 26.2153ZM75.6129 27.4311L75.4603 26.955C74.8181 27.1608 74.1796 27.368 73.5447 27.5767L73.7009 28.0517L73.857 28.5267C74.4894 28.3188 75.1257 28.1123 75.7654 27.9073L75.6129 27.4311ZM71.8109 28.6808L71.6511 28.207C71.0236 28.4185 70.3997 28.6315 69.7796 28.8459L69.9429 29.3185L70.1063 29.791C70.724 29.5775 71.3454 29.3653 71.9705 29.1546L71.8109 28.6808ZM68.0974 29.9648L67.9302 29.4935C67.3176 29.7108 66.7086 29.9296 66.1033 30.1498L66.2743 30.6197L66.4453 31.0896C67.0479 30.8703 67.6544 30.6524 68.2645 30.436L68.0974 29.9648ZM64.4739 31.2833L64.299 30.8149C63.7013 31.0381 63.1074 31.2627 62.5173 31.4888L62.6962 31.9557L62.8751 32.4226C63.4625 32.1976 64.0537 31.9739 64.6487 31.7518L64.4739 31.2833ZM60.7432 32.715L60.5598 32.2499C59.903 32.509 59.2511 32.77 58.6041 33.0329L58.7924 33.4961L58.9806 33.9593C59.6243 33.6977 60.2731 33.438 60.9267 33.1802L60.7432 32.715ZM56.8712 34.2885L56.6781 33.8273C56.0411 34.094 55.409 34.3627 54.782 34.6333L54.9801 35.0924L55.1782 35.5514C55.8019 35.2823 56.4306 35.0151 57.0643 34.7497L56.8712 34.2885ZM53.1191 35.9077L52.9159 35.4508C52.2989 35.7253 51.687 36.0017 51.0801 36.2801L51.2886 36.7346L51.497 37.189C52.1003 36.9123 52.7088 36.6374 53.3223 36.3645L53.1191 35.9077ZM49.4886 37.573L49.2748 37.1211C48.6782 37.4034 48.0867 37.6876 47.5004 37.9739L47.7197 38.4232L47.9391 38.8725C48.5217 38.5881 49.1095 38.3056 49.7025 38.025L49.4886 37.573ZM45.9819 39.2851L45.7569 38.8386C45.1809 39.1288 44.6101 39.4211 44.0446 39.7153L44.2753 40.1589L44.5061 40.6024C45.0677 40.3102 45.6347 40.0199 46.2068 39.7316L45.9819 39.2851ZM42.6005 41.0445L42.3638 40.604C41.7509 40.9334 41.1445 41.2652 40.5446 41.5995L40.788 42.0363L41.0314 42.473C41.6268 42.1412 42.2287 41.8119 42.8372 41.4849L42.6005 41.0445ZM38.9563 43.0764L38.7058 42.6437C38.0999 42.9944 37.5009 43.3478 36.9089 43.7039L37.1667 44.1324L37.4244 44.5608C38.0115 44.2077 38.6056 43.8571 39.2068 43.5092L38.9563 43.0764ZM35.4195 45.2041L35.1544 44.7803C34.5765 45.1417 34.0059 45.5059 33.4424 45.8728L33.7152 46.2918L33.988 46.7108C34.5464 46.3473 35.1119 45.9863 35.6847 45.628L35.4195 45.2041ZM32.054 47.3956L31.7733 46.9818C31.2242 47.3542 30.6823 47.7293 30.1476 48.1072L30.4362 48.5155L30.7248 48.9238C31.254 48.5497 31.7906 48.1782 32.3345 47.8094L32.054 47.3956ZM28.8622 49.6516L28.5656 49.2492C28.0455 49.6326 27.5328 50.0189 27.0275 50.4079L27.3325 50.8041L27.6375 51.2003C28.1372 50.8155 28.6444 50.4335 29.159 50.0541L28.8622 49.6516ZM25.8472 51.973L25.5338 51.5835C24.979 52.0299 24.4337 52.4799 23.8981 52.9336L24.2213 53.3151L24.5444 53.6966C25.0735 53.2485 25.6123 52.8038 26.1606 52.3626L25.8472 51.973ZM22.6487 54.6826L22.3156 54.3096C21.7979 54.772 21.2899 55.2381 20.7917 55.7079L21.1348 56.0716L21.4778 56.4354C21.9693 55.9719 22.4706 55.512 22.9818 55.0555L22.6487 54.6826ZM19.6801 57.4824L19.327 57.1284C18.8486 57.6057 18.3802 58.0867 17.9219 58.5715L18.2852 58.915L18.6485 59.2585C19.1001 58.7809 19.5617 58.3069 20.0333 57.8363L19.6801 57.4824ZM16.9505 60.3696L16.577 60.0372C16.1388 60.5296 15.7108 61.0258 15.2929 61.5258L15.6766 61.8464L16.0602 62.167C16.4713 61.6751 16.8926 61.1868 17.324 60.702L16.9505 60.3696ZM14.4639 63.3455L14.0701 63.0373C13.6599 63.5614 13.2607 64.0896 12.8727 64.622L13.2767 64.9165L13.6807 65.2111C14.062 64.688 14.4543 64.1689 14.8576 63.6536L14.4639 63.3455ZM12.0974 66.5983L11.6828 66.3189C11.2986 66.8891 10.9268 67.464 10.5676 68.0435L10.9925 68.3069L11.4175 68.5703C11.77 68.0017 12.1348 67.4375 12.5121 66.8777L12.0974 66.5983ZM9.96259 70.0426L9.52765 69.7959C9.19373 70.3848 8.87238 70.9783 8.5639 71.5765L9.0083 71.8056L9.4527 72.0348C9.755 71.4485 10.07 70.8667 10.3975 70.2893L9.96259 70.0426ZM8.13031 73.5961L7.677 73.3852C7.39423 73.9928 7.12439 74.6051 6.86761 75.2221L7.32922 75.4142L7.79083 75.6063C8.0423 75.0021 8.30658 74.4023 8.58362 73.8071L8.13031 73.5961ZM6.60571 77.2602L6.13647 77.0875C5.90649 77.7124 5.68964 78.3421 5.48596 78.9765L5.96204 79.1293L6.43811 79.2822C6.63745 78.6611 6.84979 78.0447 7.07495 77.4329L6.60571 77.2602ZM5.39838 81.0207L4.91632 80.888C4.73962 81.5298 4.57623 82.1764 4.42615 82.8278L4.91339 82.94L5.40063 83.0523C5.54755 82.4147 5.70752 81.7817 5.88049 81.1533L5.39838 81.0207ZM4.50763 84.8877L4.01611 84.796C3.89288 85.4569 3.78308 86.1224 3.68689 86.7928L4.18182 86.8638L4.6767 86.9348C4.77094 86.2783 4.87848 85.6265 4.99915 84.9794L4.50763 84.8877ZM3.93646 88.8685L3.43903 88.8181C3.37006 89.4979 3.31476 90.1825 3.27325 90.872L3.77234 90.902L4.27142 90.9321C4.31213 90.2562 4.36633 89.5852 4.4339 88.919L3.93646 88.8685ZM3.69 92.9645L3.19006 92.9546C3.18317 93.3035 3.17969 93.6536 3.17969 94.0049H3.67969H4.17969C4.17969 93.6602 4.18311 93.3167 4.18988 92.9744L3.69 92.9645Z" fill="#BBBBBB"/>
</svg>
