<svg width="162" height="78" viewBox="0 0 162 78" fill="none" xmlns="http://www.w3.org/2000/svg">
<path d="M161.354 3.32851C161.549 3.52377 161.549 3.84036 161.354 4.03562L158.172 7.21761C157.976 7.41286 157.66 7.41286 157.464 7.21761C157.269 7.02234 157.269 6.70576 157.464 6.5105L160.293 3.68207L157.464 0.853638C157.269 0.658379 157.269 0.341797 157.464 0.146538C157.66 -0.0487289 157.976 -0.0487289 158.172 0.146538L161.354 3.32851ZM0 77.1821L-3.21588e-07 76.6821C0.344244 76.6821 0.686807 76.68 1.02771 76.6758L1.03386 77.1758L1.04 77.6758C0.694982 77.68 0.348323 77.6821 3.21588e-07 77.6821L0 77.1821ZM3.072 77.1255L3.05343 76.6259C3.72216 76.601 4.38444 76.568 5.04044 76.5271L5.07161 77.0261L5.10277 77.5251C4.43832 77.5666 3.76765 77.6 3.09058 77.6252L3.072 77.1255ZM7.09178 76.8734L7.04752 76.3753C7.7234 76.3153 8.39257 76.2466 9.05524 76.1696L9.11297 76.6662L9.1707 77.1629C8.49904 77.2409 7.82089 77.3105 7.13605 77.3714L7.09178 76.8734ZM11.0952 76.4085L11.0239 75.9136C11.6966 75.8167 12.3624 75.7111 13.0218 75.597L13.1071 76.0897L13.1923 76.5824C12.5236 76.6981 11.8484 76.8052 11.1664 76.9034L11.0952 76.4085ZM15.0944 75.7166L14.9951 75.2265C15.6501 75.0938 16.2986 74.9526 16.941 74.8032L17.0543 75.2901L17.1676 75.7771C16.5159 75.9288 15.8581 76.072 15.1937 76.2066L15.0944 75.7166ZM19.0311 74.7995L18.9036 74.316C19.5514 74.1451 20.193 73.9657 20.8285 73.7781L20.9701 74.2576L21.1116 74.7372C20.4669 74.9275 19.816 75.1095 19.1587 75.2829L19.0311 74.7995ZM22.9016 73.6567L22.7461 73.1815C23.3858 72.9722 24.0195 72.7545 24.6474 72.5288L24.8165 72.9993L24.9857 73.4698C24.3488 73.6988 23.706 73.9196 23.0571 74.1319L22.9016 73.6567ZM26.6994 72.2919L26.517 71.8264C27.1446 71.5804 27.7666 71.3263 28.3832 71.0644L28.5786 71.5246L28.7741 71.9848C28.149 72.2503 27.5184 72.508 26.8819 72.7574L26.6994 72.2919ZM30.425 70.7104L30.217 70.2557C30.8272 69.9766 31.4323 69.69 32.0325 69.396L32.2524 69.845L32.4723 70.294C31.8644 70.5918 31.2513 70.8823 30.6329 71.1651L30.425 70.7104ZM34.0571 68.932L33.8257 68.4888C34.4193 68.1789 35.0083 67.862 35.593 67.5383L35.8352 67.9757L36.0774 68.4132C35.4857 68.7407 34.8895 69.0616 34.2884 69.3753L34.0571 68.932ZM37.5934 66.975L37.3411 66.5434C37.9196 66.2051 38.4941 65.8603 39.0649 65.5093L39.3268 65.9352L39.5887 66.3611C39.0118 66.7159 38.4309 67.0645 37.8458 67.4066L37.5934 66.975ZM41.037 64.8584L40.7662 64.4381C41.3298 64.075 41.8899 63.7061 42.4469 63.3315L42.7259 63.7465L43.0049 64.1614C42.4427 64.5395 41.877 64.912 41.3078 65.2788L41.037 64.8584ZM44.3933 62.6028L44.1067 62.193C44.6557 61.8091 45.2019 61.4199 45.7455 61.0258L46.039 61.4306L46.3324 61.8355C45.7844 62.2328 45.2336 62.6252 44.6798 63.0125L44.3933 62.6028ZM47.6691 60.2292L47.3694 59.829C47.9052 59.4277 48.4388 59.0219 48.9705 58.6118L49.2758 59.0077L49.5812 59.4037C49.0459 59.8165 48.5086 60.2252 47.9689 60.6294L47.6691 60.2292ZM50.8699 57.7616L50.5595 57.3697C51.0854 56.9532 51.6097 56.5328 52.1327 56.1087L52.4476 56.4971L52.7625 56.8855C52.2367 57.3118 51.7094 57.7346 51.1803 58.1536L50.8699 57.7616ZM54.0103 55.2168L53.6915 54.8316C54.21 54.4026 54.7275 53.9702 55.2443 53.5348L55.5664 53.9172L55.8886 54.2996C55.3697 54.7367 54.85 55.171 54.3291 55.602L54.0103 55.2168ZM57.1034 52.6122L56.7784 52.2322C57.2893 51.7952 57.7997 51.3556 58.31 50.9136L58.6374 51.2916L58.9647 51.6695C58.453 52.1127 57.941 52.5537 57.4284 52.9921L57.1034 52.6122ZM60.1622 49.964L59.833 49.5877C60.3383 49.1457 60.8436 48.7016 61.3494 48.2558L61.68 48.6309L62.0106 49.006C61.5041 49.4525 60.9978 49.8974 60.4914 50.3403L60.1622 49.964ZM63.1998 47.2877L62.8683 46.9134C63.3699 46.469 63.8722 46.0231 64.3755 45.5761L64.7076 45.9499L65.0396 46.3237C64.5362 46.7709 64.0335 47.2171 63.5314 47.662L63.1998 47.2877ZM66.2204 44.6053L65.8883 44.2316C66.3912 43.7846 66.8953 43.3367 67.4009 42.8882L67.7327 43.2622L68.0645 43.6363C67.5593 44.0845 67.0554 44.5321 66.5526 44.9791L66.2204 44.6053ZM69.2444 41.9234L68.9133 41.5488C69.4191 41.1018 69.9265 40.6546 70.4358 40.2072L70.7658 40.5829L71.0957 40.9585C70.5873 41.4051 70.0806 41.8517 69.5755 42.2981L69.2444 41.9234ZM72.2836 39.2549L71.9552 38.8779C72.4631 38.4354 72.9731 37.9931 73.4855 37.5512L73.8121 37.9298L74.1386 38.3085C73.6276 38.7491 73.1189 39.1904 72.6121 39.6319L72.2836 39.2549ZM75.3494 36.6119L75.0251 36.2313C75.5368 35.7955 76.051 35.3603 76.568 34.926L76.8895 35.3089L77.2111 35.6917C76.696 36.1244 76.1836 36.5581 75.6736 36.9926L75.3494 36.6119ZM78.4462 34.0116L78.1276 33.6262C78.6463 33.1974 79.1681 32.7698 79.693 32.3436L80.0082 32.7317L80.3233 33.1199C79.8008 33.5442 79.2813 33.97 78.7647 34.397L78.4462 34.0116ZM81.5828 31.4656L81.2713 31.0745C81.8008 30.653 82.3336 30.2332 82.8702 29.8152L83.1774 30.2096L83.4847 30.6041C82.9511 31.0198 82.421 31.4374 81.8942 31.8568L81.5828 31.4656ZM84.7727 28.9811L84.4698 28.5832C85.0068 28.1745 85.5475 27.7679 86.0922 27.3635L86.3903 27.765L86.6883 28.1665C86.1469 28.5684 85.6094 28.9726 85.0755 29.3789L84.7727 28.9811ZM88.0239 26.5683L87.7311 26.1631C88.2759 25.7694 88.8249 25.3781 89.3781 24.9895L89.6655 25.3987L89.9529 25.8078C89.4034 26.1938 88.8581 26.5824 88.3168 26.9736L88.0239 26.5683ZM91.3326 24.2451L91.0511 23.8319C91.6077 23.4527 92.1688 23.0762 92.7345 22.7028L93.0099 23.1201L93.2853 23.5374C92.7238 23.908 92.1669 24.2817 91.6142 24.6583L91.3326 24.2451ZM94.7024 22.0213L94.4334 21.5998C95.0044 21.2353 95.5802 20.874 96.161 20.5162L96.4233 20.9419L96.6856 21.3675C96.1094 21.7225 95.5381 22.081 94.9714 22.4427L94.7024 22.0213ZM98.146 19.8995L97.8907 19.4696C98.4699 19.1256 99.054 18.7851 99.6434 18.4483L99.8915 18.8824L100.14 19.3165C99.5551 19.6505 98.9758 19.9882 98.4013 20.3294L98.146 19.8995ZM101.668 17.8875L101.427 17.4492C102.014 17.1273 102.605 16.8091 103.202 16.4948L103.435 16.9372L103.668 17.3797C103.076 17.6912 102.49 18.0067 101.908 18.3258L101.668 17.8875ZM105.233 16.0112L105.008 15.5646C105.614 15.2591 106.226 14.9577 106.843 14.6606L107.06 15.1111L107.277 15.5617C106.665 15.8561 106.059 16.1549 105.458 16.4577L105.233 16.0112ZM108.874 14.2582L108.665 13.8038C109.278 13.5224 109.896 13.2452 110.52 12.9725L110.72 13.4306L110.92 13.8887C110.302 14.159 109.69 14.4337 109.082 14.7126L108.874 14.2582ZM112.595 12.6313L112.404 12.1695C113.019 11.9138 113.641 11.6624 114.267 11.4154L114.451 11.8806L114.634 12.3458C114.013 12.5905 113.397 12.8397 112.787 13.093L112.595 12.6313ZM116.34 11.1566L116.165 10.6881C116.803 10.4502 117.447 10.217 118.097 9.98857L118.262 10.4603L118.428 10.932C117.785 11.1583 117.147 11.3894 116.514 11.6251L116.34 11.1566ZM120.152 9.81513L119.995 9.34051C120.633 9.12902 121.277 8.92211 121.926 8.71992L122.075 9.19733L122.223 9.67474C121.58 9.87512 120.942 10.0802 120.309 10.2898L120.152 9.81513ZM124.032 8.6077L123.893 8.12766C124.532 7.94125 125.178 7.75941 125.829 7.58224L125.96 8.0647L126.092 8.54715C125.446 8.72276 124.806 8.90301 124.172 9.08775L124.032 8.6077ZM127.907 7.55327L127.785 7.06857C128.442 6.90204 129.105 6.74023 129.774 6.58329L129.889 7.07008L130.003 7.55685C129.339 7.71246 128.682 7.87287 128.03 8.03796L127.907 7.55327ZM131.86 6.62547L131.754 6.1368C132.405 5.99588 133.061 5.85951 133.723 5.72781L133.82 6.21819L133.918 6.70856C133.262 6.83919 132.611 6.97441 131.966 7.11414L131.86 6.62547ZM135.814 5.83872L135.724 5.34678C136.396 5.22469 137.073 5.10736 137.756 4.99488L137.837 5.48824L137.919 5.98159C137.241 6.09317 136.569 6.20956 135.903 6.33066L135.814 5.83872ZM139.8 5.18088L139.727 4.68631C140.389 4.58794 141.056 4.49407 141.729 4.40482L141.794 4.90048L141.86 5.39613C141.193 5.4847 140.53 5.57784 139.874 5.67545L139.8 5.18088ZM143.821 4.64761L143.763 4.15099C144.432 4.07265 145.107 3.99881 145.788 3.92958L145.838 4.42702L145.889 4.92445C145.214 4.99317 144.544 5.06646 143.879 5.14422L143.821 4.64761ZM147.823 4.23959L147.779 3.74148C148.448 3.68314 149.122 3.62921 149.801 3.57975L149.837 4.07842L149.874 4.5771C149.199 4.62622 148.53 4.67978 147.866 4.7377L147.823 4.23959ZM151.883 3.944L151.853 3.44486C152.522 3.40563 153.196 3.37069 153.874 3.3401L153.897 3.8396L153.919 4.33909C153.245 4.36948 152.576 4.40418 151.912 4.44315L151.883 3.944ZM155.89 3.76286L155.874 3.26311C156.546 3.24165 157.222 3.22438 157.903 3.2114L157.912 3.7113L157.922 4.21121C157.245 4.22412 156.573 4.24127 155.906 4.2626L155.89 3.76286ZM159.963 3.68533L159.96 3.18534C160.306 3.18317 160.652 3.18207 161 3.18207V3.68207V4.18207C160.654 4.18207 160.31 4.18316 159.966 4.18533L159.963 3.68533Z" fill="#BBBBBB"/>
</svg>
