<svg width="875" height="112" viewBox="0 0 875 112" fill="none" xmlns="http://www.w3.org/2000/svg">
<path d="M3.85583 111.405C4.07977 111.567 4.39227 111.517 4.55389 111.293L7.18719 107.644C7.34882 107.42 7.29828 107.107 7.07434 106.946C6.85046 106.784 6.5379 106.834 6.37634 107.058L4.03558 110.302L0.791992 107.961C0.568054 107.8 0.255554 107.85 0.0939331 108.074C-0.067627 108.298 -0.0171509 108.611 0.206787 108.772L3.85583 111.405ZM874.148 0H873.648C873.648 0.300125 873.629 0.597755 873.59 0.893036L874.086 0.958466L874.581 1.0239C874.626 0.685143 874.648 0.343803 874.648 0H874.148ZM873.586 2.83127L873.123 2.64378C872.889 3.22128 872.577 3.79419 872.186 4.36266L872.597 4.64628L873.009 4.92989C873.438 4.30733 873.786 3.67039 874.05 3.01875L873.586 2.83127ZM871.277 6.25261L870.916 5.90656C870.538 6.3008 870.12 6.69222 869.664 7.08076L869.988 7.46149L870.312 7.84222C870.792 7.43389 871.234 7.01945 871.637 6.59866L871.277 6.25261ZM868.469 8.64333L868.178 8.23674C867.645 8.61885 867.072 8.99749 866.462 9.37264L866.724 9.79857L866.986 10.2245C867.614 9.83826 868.206 9.44678 868.761 9.04991L868.469 8.64333ZM864.756 10.9277L864.519 10.4871C863.984 10.7747 863.426 11.0599 862.845 11.3428L863.064 11.7923L863.283 12.2418C863.875 11.9535 864.445 11.6623 864.992 11.3682L864.756 10.9277ZM861.415 12.5631L861.21 12.1069C860.647 12.3597 860.065 12.6106 859.466 12.8595L859.658 13.3213L859.85 13.783C860.457 13.5307 861.047 13.2761 861.62 13.0192L861.415 12.5631ZM857.794 14.067L857.614 13.6006C856.979 13.8456 856.326 14.0888 855.656 14.33L855.825 14.8005L855.995 15.271C856.672 15.0273 857.332 14.7815 857.974 14.5335L857.794 14.067ZM853.752 15.5219L853.593 15.048C852.942 15.267 852.277 15.4844 851.597 15.7001L851.748 16.1767L851.9 16.6533C852.585 16.4358 853.255 16.2167 853.912 15.9957L853.752 15.5219ZM850.01 16.7155L849.865 16.237C849.277 16.4148 848.68 16.5915 848.073 16.7671L848.211 17.2474L848.35 17.7277C848.962 17.551 849.563 17.3731 850.155 17.1941L850.01 16.7155ZM846.354 17.7724L846.221 17.2905C845.594 17.4638 844.957 17.6361 844.31 17.8073L844.438 18.2906L844.566 18.774C845.216 18.6019 845.856 18.4287 846.487 18.2543L846.354 17.7724ZM842.464 18.8021L842.341 18.3175C841.675 18.4865 840.999 18.6543 840.314 18.8212L840.432 19.307L840.55 19.7928C841.238 19.6252 841.917 19.4566 842.587 19.2868L842.464 18.8021ZM838.343 19.8052L838.229 19.3184C837.526 19.4829 836.813 19.6463 836.091 19.8086L836.201 20.2965L836.31 20.7843C837.035 20.6213 837.751 20.4573 838.457 20.2921L838.343 19.8052ZM834.402 20.6946L834.295 20.206C833.691 20.3378 833.08 20.4688 832.462 20.5992L832.566 21.0884L832.669 21.5776C833.288 21.4468 833.901 21.3153 834.508 21.1831L834.402 20.6946ZM830.693 21.478L830.592 20.9882C829.963 21.1172 829.327 21.2454 828.686 21.373L828.783 21.8634L828.881 22.3538C829.524 22.2259 830.162 22.0972 830.793 21.9678L830.693 21.478ZM826.837 22.2447L826.743 21.7537C826.089 21.88 825.429 22.0055 824.764 22.1304L824.856 22.6218L824.948 23.1132C825.615 22.988 826.277 22.8622 826.932 22.7356L826.837 22.2447ZM822.839 22.9948L822.749 22.5029C822.071 22.6265 821.388 22.7493 820.699 22.8715L820.786 23.3638L820.873 23.8562C821.564 23.7337 822.249 23.6105 822.928 23.4867L822.839 22.9948ZM818.699 23.7288L818.614 23.2361C817.913 23.357 817.206 23.4772 816.494 23.5968L816.576 24.0899L816.659 24.583C817.373 24.4632 818.081 24.3427 818.784 24.2216L818.699 23.7288ZM814.683 24.404L814.602 23.9106C813.984 24.0119 813.361 24.1128 812.735 24.2132L812.814 24.7069L812.893 25.2006C813.521 25.1 814.144 24.9989 814.764 24.8974L814.683 24.404ZM810.92 25.007L810.842 24.513C810.208 24.6125 809.569 24.7115 808.926 24.8101L809.002 25.3043L809.077 25.7985C809.721 25.6998 810.361 25.6006 810.997 25.501L810.92 25.007ZM807.059 25.5988L806.985 25.1043C806.334 25.202 805.678 25.2992 805.019 25.3959L805.092 25.8906L805.165 26.3853C805.825 26.2884 806.481 26.1911 807.133 26.0933L807.059 25.5988ZM803.101 26.1796L803.03 25.6847C802.363 25.7805 801.692 25.8759 801.017 25.9709L801.086 26.466L801.156 26.9611C801.832 26.8661 802.504 26.7705 803.172 26.6746L803.101 26.1796ZM799.048 26.7497L798.98 26.2543C798.297 26.3484 797.61 26.442 796.92 26.5352L796.986 27.0307L797.053 27.5262C797.745 27.4329 798.433 27.3392 799.116 27.245L799.048 26.7497ZM794.902 27.3091L794.836 26.8134C794.138 26.9057 793.435 26.9976 792.729 27.089L792.794 27.5849L792.858 28.0807C793.565 27.9892 794.268 27.8972 794.967 27.8048L794.902 27.3091ZM790.902 27.8277L790.839 27.3317C790.21 27.4118 789.577 27.4915 788.942 27.571L789.004 28.0671L789.066 28.5632C789.702 28.4837 790.335 28.4039 790.965 28.3237L790.902 27.8277ZM787.088 28.3045L787.027 27.8083C786.386 27.8871 785.742 27.9655 785.095 28.0436L785.155 28.54L785.215 29.0364C785.863 28.9582 786.507 28.8797 787.149 28.8008L787.088 28.3045ZM783.204 28.7736L783.145 28.2771C782.493 28.3546 781.837 28.4317 781.179 28.5086L781.237 29.0052L781.295 29.5018C781.954 29.4249 782.61 29.3477 783.263 29.2701L783.204 28.7736ZM779.252 29.2349L779.195 28.7382C778.531 28.8144 777.864 28.8903 777.194 28.9659L777.251 29.4628L777.307 29.9596C777.977 29.8839 778.644 29.808 779.309 29.7317L779.252 29.2349ZM775.232 29.6887L775.177 29.1918C774.502 29.2668 773.824 29.3414 773.143 29.4158L773.197 29.9128L773.252 30.4099C773.933 30.3354 774.612 30.2607 775.287 30.1857L775.232 29.6887ZM771.146 30.1351L771.093 29.6379C770.407 29.7117 769.718 29.7851 769.026 29.8583L769.079 30.3555L769.131 30.8528C769.823 30.7795 770.513 30.706 771.2 30.6322L771.146 30.1351ZM766.995 30.5742L766.943 30.0769C766.279 30.1459 765.614 30.2147 764.945 30.2832L764.996 30.7806L765.047 31.278C765.716 31.2094 766.383 31.1406 767.046 31.0715L766.995 30.5742ZM763.084 30.9753L763.034 30.4778C762.395 30.5424 761.753 30.6068 761.109 30.671L761.159 31.1685L761.209 31.6661C761.853 31.6019 762.495 31.5374 763.134 31.4727L763.084 30.9753ZM759.221 31.3603L759.172 30.8627C758.524 30.9264 757.874 30.9899 757.222 31.0531L757.27 31.5507L757.319 32.0484C757.971 31.9851 758.622 31.9217 759.27 31.8579L759.221 31.3603ZM755.307 31.7397L755.26 31.242C754.603 31.3048 753.945 31.3673 753.284 31.4296L753.331 31.9274L753.378 32.4251C754.039 32.3628 754.698 32.3003 755.355 32.2375L755.307 31.7397ZM751.343 32.1136L751.297 31.6158C750.632 31.6776 749.965 31.7392 749.297 31.8006L749.342 32.2985L749.388 32.7964C750.057 32.735 750.724 32.6733 751.389 32.6115L751.343 32.1136ZM747.329 32.482L747.284 31.9841C746.612 32.045 745.937 32.1057 745.26 32.1662L745.304 32.6642L745.349 33.1622C746.026 33.1017 746.701 33.041 747.375 32.98L747.329 32.482ZM743.267 32.8451L743.223 32.347C742.543 32.4071 741.86 32.4669 741.175 32.5266L741.218 33.0247L741.262 33.5228C741.947 33.4631 742.63 33.4033 743.311 33.3432L743.267 32.8451ZM739.158 33.2029L739.115 32.7048C738.426 32.764 737.735 32.823 737.043 32.8817L737.085 33.3799L737.127 33.8781C737.82 33.8193 738.511 33.7603 739.2 33.7011L739.158 33.2029ZM735.104 33.547L735.062 33.0487C734.42 33.1025 733.777 33.1561 733.132 33.2096L733.173 33.7079L733.215 34.2062C733.86 34.1527 734.504 34.0991 735.146 34.0452L735.104 33.547ZM731.233 33.8677L731.193 33.3693C730.544 33.4224 729.895 33.4753 729.243 33.528L729.284 34.0264L729.324 34.5248C729.976 34.472 730.626 34.4191 731.274 34.366L731.233 33.8677ZM727.324 34.1841L727.284 33.6857C726.63 33.7381 725.974 33.7903 725.316 33.8424L725.356 34.3408L725.395 34.8393C726.053 34.7872 726.709 34.7349 727.364 34.6825L727.324 34.1841ZM723.377 34.4965L723.338 33.998C722.678 34.0497 722.015 34.1012 721.351 34.1526L721.39 34.6511L721.428 35.1496C722.093 35.0982 722.755 35.0467 723.416 34.9949L723.377 34.4965ZM719.393 34.8048L719.355 34.3062C718.688 34.3573 718.019 34.4081 717.349 34.4588L717.387 34.9574L717.425 35.456C718.095 35.4053 718.764 35.3544 719.431 35.3033L719.393 34.8048ZM715.372 35.1091L715.334 34.6105C714.661 34.6609 713.987 34.7111 713.311 34.7612L713.348 35.2598L713.385 35.7584C714.061 35.7084 714.736 35.6581 715.409 35.6077L715.372 35.1091ZM711.314 35.4095L711.278 34.9109C710.599 34.9606 709.918 35.0102 709.236 35.0596L709.272 35.5583L709.309 36.057C709.991 36.0076 710.672 35.958 711.351 35.9082L711.314 35.4095ZM707.222 35.7062L707.186 35.2075C706.501 35.2566 705.815 35.3055 705.127 35.3543L705.162 35.8531L705.198 36.3518C705.886 36.303 706.572 36.254 707.257 36.2049L707.222 35.7062ZM703.159 35.9945L703.124 35.4958C702.478 35.5412 701.83 35.5864 701.181 35.6315L701.216 36.1303L701.251 36.6291C701.9 36.584 702.547 36.5387 703.194 36.4933L703.159 35.9945ZM699.266 36.2653L699.232 35.7665C698.58 35.8114 697.928 35.8561 697.274 35.9007L697.308 36.3996L697.342 36.8984C697.996 36.8538 698.649 36.809 699.3 36.7642L699.266 36.2653ZM695.344 36.533L695.31 36.0342C694.654 36.0785 693.996 36.1227 693.338 36.1668L693.371 36.6657L693.405 37.1646C694.064 37.1205 694.721 37.0763 695.377 37.0319L695.344 36.533ZM691.392 36.7977L691.359 36.2987C690.698 36.3426 690.036 36.3863 689.373 36.4299L689.406 36.9288L689.439 37.4277C690.102 37.3841 690.764 37.3404 691.425 37.2966L691.392 36.7977ZM687.412 37.0593L687.38 36.5603C686.714 36.6037 686.048 36.6469 685.38 36.69L685.412 37.189L685.444 37.6879C686.112 37.6448 686.779 37.6016 687.445 37.5582L687.412 37.0593ZM683.404 37.3179L683.373 36.819C682.702 36.8618 682.031 36.9046 681.359 36.9472L681.39 37.4462L681.422 37.9452C682.094 37.9026 682.766 37.8598 683.436 37.8169L683.404 37.3179ZM679.369 37.5737L679.338 37.0747C678.663 37.1171 677.987 37.1594 677.31 37.2016L677.341 37.7006L677.372 38.1996C678.049 38.1574 678.726 38.1152 679.4 38.0728L679.369 37.5737ZM675.307 37.8267L675.276 37.3277C674.597 37.3696 673.917 37.4114 673.235 37.4531L673.266 37.9522L673.296 38.4513C673.978 38.4096 674.658 38.3677 675.338 38.3258L675.307 37.8267ZM671.218 38.077L671.188 37.5779C670.513 37.6189 669.836 37.6597 669.159 37.7005L669.189 38.1996L669.219 38.6987C669.897 38.6579 670.573 38.617 671.248 38.5761L671.218 38.077ZM667.236 38.3166L667.207 37.8175C666.555 37.8564 665.902 37.8952 665.248 37.9339L665.278 38.4331L665.307 38.9322C665.961 38.8935 666.614 38.8546 667.266 38.8157L667.236 38.3166ZM663.314 38.5489L663.284 38.0498C662.629 38.0883 661.972 38.1267 661.315 38.1651L661.344 38.6642L661.373 39.1634C662.031 39.125 662.687 39.0866 663.343 39.0481L663.314 38.5489ZM659.368 38.7789L659.34 38.2798C658.68 38.3179 658.02 38.356 657.359 38.3939L657.388 38.8931L657.416 39.3923C658.078 39.3543 658.738 39.3163 659.397 39.2781L659.368 38.7789ZM655.401 39.0067L655.373 38.5075C654.71 38.5453 654.046 38.583 653.381 38.6206L653.41 39.1198L653.438 39.619C654.103 39.5814 654.767 39.5437 655.43 39.5059L655.401 39.0067ZM651.413 39.2323L651.385 38.7331C650.718 38.7705 650.051 38.8078 649.382 38.8451L649.41 39.3443L649.438 39.8435C650.107 39.8063 650.774 39.7689 651.441 39.7315L651.413 39.2323ZM647.403 39.4558L647.375 38.9565C646.705 38.9936 646.034 39.0306 645.363 39.0675L645.39 39.5667L645.417 40.0659C646.089 40.0291 646.76 39.9921 647.43 39.955L647.403 39.4558ZM643.372 39.6771L643.345 39.1779C642.672 39.2146 641.997 39.2512 641.322 39.2878L641.349 39.7871L641.376 40.2863C642.051 40.2498 642.726 40.2131 643.399 40.1764L643.372 39.6771ZM639.321 39.8965L639.294 39.3972C638.618 39.4336 637.94 39.4699 637.262 39.5061L637.288 40.0054L637.315 40.5047C637.994 40.4685 638.671 40.4322 639.348 40.3958L639.321 39.8965ZM635.251 40.1139L635.224 39.6146C634.545 39.6506 633.865 39.6865 633.184 39.7224L633.211 40.2217L633.237 40.721C633.918 40.6852 634.598 40.6492 635.277 40.6132L635.251 40.1139ZM631.249 40.3248L631.222 39.8254C630.568 39.8597 629.912 39.8939 629.256 39.928L629.282 40.4274L629.308 40.9267C629.964 40.8926 630.62 40.8584 631.275 40.8241L631.249 40.3248ZM627.311 40.5296L627.285 40.0302C626.628 40.0642 625.969 40.0982 625.31 40.132L625.336 40.6314L625.361 41.1307C626.021 41.0968 626.679 41.0629 627.337 41.0289L627.311 40.5296ZM623.356 40.7327L623.331 40.2334C622.671 40.2671 622.009 40.3008 621.348 40.3343L621.373 40.8337L621.398 41.3331C622.06 41.2995 622.721 41.2658 623.382 41.2321L623.356 40.7327ZM619.385 40.9343L619.36 40.4349C618.697 40.4684 618.033 40.5018 617.368 40.5351L617.393 41.0345L617.419 41.5338C618.083 41.5005 618.747 41.4671 619.41 41.4336L619.385 40.9343ZM615.398 41.1343L615.373 40.6349C614.707 40.6681 614.04 40.7012 613.373 40.7343L613.398 41.2337L613.423 41.7331C614.09 41.7 614.757 41.6669 615.423 41.6336L615.398 41.1343ZM611.394 41.3327L611.37 40.8334C610.701 40.8663 610.032 40.8992 609.362 40.932L609.387 41.4314L609.411 41.9308C610.081 41.898 610.75 41.8651 611.419 41.8321L611.394 41.3327ZM607.375 41.5298L607.351 41.0303C606.68 41.0631 606.008 41.0957 605.336 41.1283L605.36 41.6277L605.384 42.1271C606.057 42.0945 606.728 42.0619 607.4 42.0292L607.375 41.5298ZM603.341 41.7253L603.317 41.2259C602.643 41.2584 601.969 41.2908 601.295 41.3232L601.318 41.8226L601.342 42.3221C602.017 42.2897 602.692 42.2573 603.365 42.2248L603.341 41.7253ZM599.292 41.9196L599.268 41.4201C598.592 41.4524 597.916 41.4846 597.239 41.5168L597.262 42.0162L597.286 42.5156C597.963 42.4835 598.64 42.4513 599.316 42.419L599.292 41.9196ZM595.232 42.1124L595.208 41.6129C594.551 41.6439 593.894 41.6749 593.236 41.7058L593.26 42.2053L593.283 42.7047C593.941 42.6738 594.598 42.6428 595.255 42.6118L595.232 42.1124ZM591.285 42.2979L591.262 41.7984C590.603 41.8292 589.944 41.86 589.284 41.8907L589.307 42.3902L589.33 42.8897C589.99 42.8589 590.65 42.8282 591.308 42.7973L591.285 42.2979ZM587.326 42.4823L587.303 41.9828C586.642 42.0134 585.98 42.044 585.318 42.0746L585.341 42.574L585.364 43.0735C586.026 43.0429 586.688 43.0124 587.349 42.9817L587.326 42.4823ZM583.354 42.6655L583.331 42.1661C582.668 42.1965 582.005 42.2269 581.341 42.2573L581.364 42.7568L581.386 43.2562C582.05 43.2259 582.714 43.1955 583.377 43.165L583.354 42.6655ZM579.37 42.8477L579.347 42.3483C578.682 42.3785 578.017 42.4088 577.351 42.439L577.374 42.9385L577.396 43.438C578.062 43.4078 578.728 43.3775 579.393 43.3472L579.37 42.8477ZM575.375 43.0289L575.352 42.5294C574.685 42.5596 574.018 42.5896 573.35 42.6197L573.372 43.1192L573.395 43.6187C574.063 43.5886 574.73 43.5586 575.397 43.5284L575.375 43.0289ZM571.368 43.2092L571.345 42.7097C570.676 42.7396 570.007 42.7696 569.338 42.7994L569.36 43.2989L569.382 43.7984C570.052 43.7686 570.721 43.7386 571.39 43.7087L571.368 43.2092ZM567.349 43.3885L567.327 42.889C566.657 42.9188 565.986 42.9485 565.314 42.9783L565.336 43.4778L565.359 43.9773C566.03 43.9476 566.701 43.9178 567.372 43.888L567.349 43.3885ZM563.321 43.5669L563.299 43.0674C562.626 43.097 561.954 43.1267 561.28 43.1563L561.302 43.6558L561.324 44.1553C561.998 44.1257 562.67 44.0961 563.343 44.0664L563.321 43.5669ZM559.282 43.7445L559.26 43.245C558.586 43.2745 557.911 43.304 557.236 43.3334L557.258 43.833L557.28 44.3325C557.955 44.303 558.629 44.2735 559.303 44.244L559.282 43.7445ZM555.252 43.9204L555.231 43.4209C554.571 43.4496 553.91 43.4783 553.25 43.5069L553.271 44.0065L553.293 44.506C553.954 44.4773 554.614 44.4486 555.274 44.4199L555.252 43.9204ZM551.288 44.0924L551.266 43.5928C550.605 43.6214 549.943 43.65 549.281 43.6785L549.302 44.1781L549.324 44.6776C549.986 44.6491 550.648 44.6205 551.31 44.5919L551.288 44.0924ZM547.315 44.2636L547.293 43.7641C546.63 43.7926 545.967 43.8211 545.303 43.8495L545.325 44.349L545.346 44.8486C546.01 44.8201 546.673 44.7917 547.336 44.7632L547.315 44.2636ZM543.333 44.4343L543.311 43.9347C542.647 43.9631 541.982 43.9915 541.317 44.0198L541.339 44.5194L541.36 45.0189C542.025 44.9906 542.69 44.9622 543.354 44.9338L543.333 44.4343ZM539.343 44.6043L539.321 44.1048C538.656 44.1331 537.99 44.1613 537.323 44.1896L537.345 44.6891L537.366 45.1887C538.032 45.1604 538.698 45.1322 539.364 45.1039L539.343 44.6043ZM535.345 44.7738L535.323 44.2743C534.656 44.3025 533.989 44.3307 533.322 44.3588L533.343 44.8584L533.364 45.3579C534.031 45.3298 534.699 45.3016 535.366 45.2734L535.345 44.7738ZM531.339 44.9428L531.318 44.4433C530.65 44.4714 529.981 44.4995 529.312 44.5276L529.333 45.0271L529.354 45.5267C530.023 45.4986 530.692 45.4705 531.36 45.4424L531.339 44.9428ZM527.326 45.1113L527.305 44.6118C526.635 44.6398 525.966 44.6678 525.296 44.6959L525.317 45.1954L525.337 45.695C526.008 45.667 526.677 45.6389 527.347 45.6109L527.326 45.1113ZM523.306 45.2794L523.285 44.7799C522.614 44.8078 521.944 44.8358 521.272 44.8637L521.293 45.3633L521.314 45.8629C521.985 45.8349 522.656 45.807 523.327 45.779L523.306 45.2794ZM519.279 45.4471L519.258 44.9475C518.587 44.9755 517.915 45.0034 517.243 45.0313L517.263 45.5308L517.284 46.0304C517.956 46.0025 518.628 45.9746 519.3 45.9467L519.279 45.4471ZM515.256 45.614L515.236 45.1145C514.573 45.1419 513.91 45.1693 513.247 45.1968L513.268 45.6964L513.288 46.1959C513.951 46.1685 514.614 46.1411 515.277 46.1136L515.256 45.614ZM511.278 45.7786L511.257 45.279C510.594 45.3064 509.93 45.3338 509.266 45.3612L509.286 45.8608L509.307 46.3603C509.971 46.333 510.635 46.3056 511.298 46.2782L511.278 45.7786ZM507.294 45.9429L507.273 45.4433C506.609 45.4707 505.944 45.498 505.279 45.5254L505.3 46.0249L505.32 46.5245C505.985 46.4972 506.65 46.4698 507.314 46.4425L507.294 45.9429ZM503.304 46.1069L503.284 45.6074C502.618 45.6347 501.953 45.662 501.287 45.6893L501.308 46.1889L501.328 46.6885C501.994 46.6612 502.66 46.6339 503.325 46.6065L503.304 46.1069ZM499.31 46.2708L499.29 45.7712C498.624 45.7985 497.957 45.8258 497.291 45.8531L497.311 46.3527L497.332 46.8523C497.998 46.825 498.664 46.7977 499.331 46.7704L499.31 46.2708ZM495.311 46.4346L495.291 45.935C494.624 45.9623 493.957 45.9895 493.29 46.0168L493.31 46.5164L493.331 47.016C493.998 46.9887 494.665 46.9614 495.332 46.9342L495.311 46.4346ZM491.308 46.5982L491.288 46.0986C490.62 46.1259 489.953 46.1532 489.285 46.1804L489.305 46.68L489.326 47.1796C489.993 47.1523 490.661 47.1251 491.329 47.0978L491.308 46.5982ZM487.301 46.7618L487.281 46.2622C486.612 46.2895 485.944 46.3167 485.276 46.344L485.296 46.8436L485.316 47.3432C485.985 47.3159 486.653 47.2886 487.321 47.2614L487.301 46.7618ZM483.29 46.9253L483.27 46.4258C482.601 46.453 481.932 46.4803 481.263 46.5075L481.284 47.0071L481.304 47.5067C481.973 47.4794 482.642 47.4522 483.311 47.4249L483.29 46.9253ZM479.276 47.0889L479.256 46.5893C478.586 46.6166 477.917 46.6439 477.247 46.6711L477.268 47.1707L477.288 47.6703C477.958 47.643 478.627 47.6158 479.296 47.5885L479.276 47.0889ZM475.259 47.2525L475.238 46.7529C474.573 46.78 473.908 46.8071 473.242 46.8343L473.262 47.3338L473.283 47.8334C473.948 47.8063 474.614 47.7792 475.279 47.7521L475.259 47.2525ZM471.266 47.4151L471.246 46.9156C470.58 46.9427 469.915 46.9698 469.249 46.9969L469.269 47.4965L469.289 47.9961C469.955 47.9689 470.621 47.9418 471.286 47.9147L471.266 47.4151ZM467.272 47.5778L467.251 47.0783C466.585 47.1054 465.919 47.1325 465.253 47.1597L465.274 47.6593L465.294 48.1588C465.96 48.1317 466.626 48.1046 467.292 48.0774L467.272 47.5778ZM463.275 47.7407L463.255 47.2411C462.588 47.2683 461.922 47.2955 461.256 47.3226L461.276 47.8222L461.297 48.3218C461.963 48.2946 462.629 48.2675 463.295 48.2403L463.275 47.7407ZM459.277 47.9038L459.256 47.4042C458.59 47.4314 457.923 47.4586 457.257 47.4858L457.277 47.9854L457.297 48.485C457.964 48.4578 458.631 48.4306 459.297 48.4034L459.277 47.9038ZM455.277 48.0671L455.256 47.5675C454.59 47.5948 453.923 47.622 453.256 47.6493L453.276 48.1489L453.297 48.6485C453.964 48.6212 454.631 48.5939 455.297 48.5667L455.277 48.0671ZM451.276 48.2307L451.255 47.7311C450.588 47.7584 449.921 47.7857 449.254 47.8131L449.275 48.3126L449.295 48.8122C449.962 48.7849 450.629 48.7576 451.296 48.7303L451.276 48.2307ZM447.274 48.3947L447.253 47.8951C446.586 47.9224 445.919 47.9498 445.252 47.9772L445.273 48.4768L445.293 48.9763C445.96 48.949 446.627 48.9216 447.294 48.8942L447.274 48.3947ZM443.271 48.5589L443.251 48.0594C442.583 48.0868 441.916 48.1142 441.249 48.1417L441.27 48.6412L441.29 49.1408C441.957 49.1134 442.625 49.0859 443.292 49.0585L443.271 48.5589ZM439.268 48.7236L439.248 48.2241C438.58 48.2515 437.913 48.279 437.246 48.3066L437.267 48.8061L437.287 49.3057C437.954 49.2782 438.622 49.2507 439.289 49.2232L439.268 48.7236ZM435.265 48.8888L435.245 48.3892C434.577 48.4168 433.91 48.4443 433.242 48.472L433.263 48.9715L433.284 49.4711C433.951 49.4435 434.619 49.4159 435.286 49.3883L435.265 48.8888ZM431.26 49.0545L431.239 48.5549C430.572 48.5826 429.904 48.6103 429.236 48.638L429.257 49.1375L429.278 49.6371C429.945 49.6094 430.613 49.5817 431.281 49.554L431.26 49.0545ZM427.254 49.2207L427.234 48.7212C426.566 48.7489 425.898 48.7767 425.231 48.8045L425.252 49.3041L425.273 49.8036C425.94 49.7758 426.608 49.7481 427.275 49.7203L427.254 49.2207ZM423.25 49.3876L423.229 48.888C422.561 48.9158 421.894 48.9437 421.227 48.9716L421.248 49.4712L421.268 49.9707C421.936 49.9428 422.603 49.915 423.27 49.8871L423.25 49.3876ZM419.246 49.555L419.225 49.0554C418.558 49.0834 417.891 49.1113 417.224 49.1393L417.245 49.6389L417.266 50.1385C417.933 50.1105 418.6 50.0825 419.267 50.0545L419.246 49.555ZM415.244 49.723L415.223 49.2234C414.556 49.2515 413.889 49.2796 413.222 49.3077L413.243 49.8073L413.264 50.3068C413.931 50.2787 414.598 50.2506 415.265 50.2226L415.244 49.723ZM411.243 49.8917L411.222 49.3922C410.556 49.4203 409.889 49.4485 409.223 49.4768L409.244 49.9763L409.265 50.4759C409.931 50.4476 410.598 50.4194 411.264 50.3913L411.243 49.8917ZM407.245 50.0611L407.224 49.5616C406.558 49.5899 405.892 49.6182 405.226 49.6466L405.247 50.1461L405.268 50.6456C405.934 50.6173 406.6 50.589 407.266 50.5607L407.245 50.0611ZM403.249 50.2313L403.228 49.7317C402.562 49.7602 401.896 49.7886 401.231 49.8171L401.252 50.3166L401.274 50.8162C401.939 50.7877 402.605 50.7592 403.271 50.7308L403.249 50.2313ZM399.256 50.4022L399.235 49.9027C398.569 49.9312 397.904 49.9598 397.239 49.9885L397.261 50.488L397.282 50.9875C397.947 50.9589 398.612 50.9303 399.278 50.9018L399.256 50.4022ZM395.266 50.574L395.244 50.0744C394.58 50.1031 393.915 50.1319 393.251 50.1607L393.272 50.6602L393.294 51.1597C393.958 51.1309 394.623 51.1022 395.288 51.0735L395.266 50.574ZM391.263 50.7473L391.242 50.2478C390.572 50.2769 389.902 50.306 389.232 50.3352L389.254 50.8347L389.275 51.3342C389.945 51.3051 390.615 51.2759 391.285 51.2468L391.263 50.7473ZM387.245 50.9224L387.223 50.4228C386.553 50.4521 385.884 50.4814 385.215 50.5107L385.237 51.0103L385.259 51.5098C385.928 51.4804 386.597 51.4511 387.267 51.4219L387.245 50.9224ZM383.23 51.0984L383.208 50.5989C382.539 50.6283 381.871 50.6577 381.202 50.6873L381.225 51.1868L381.247 51.6863C381.915 51.6568 382.583 51.6273 383.252 51.5979L383.23 51.0984ZM379.22 51.2754L379.198 50.7759C378.53 50.8055 377.862 50.8351 377.194 50.8648L377.217 51.3643L377.239 51.8638C377.906 51.8341 378.574 51.8045 379.242 51.7749L379.22 51.2754ZM375.214 51.4535L375.192 50.954C374.525 50.9837 373.858 51.0135 373.191 51.0434L373.213 51.5429L373.236 52.0424C373.902 52.0125 374.569 51.9827 375.237 51.953L375.214 51.4535ZM371.214 51.6326L371.191 51.1331C370.525 51.163 369.859 51.193 369.193 51.2231L369.215 51.7226L369.238 52.222C369.904 52.192 370.57 52.162 371.236 52.1321L371.214 51.6326ZM367.218 51.8128L367.195 51.3133C366.53 51.3435 365.865 51.3736 365.2 51.4039L365.222 51.9034L365.245 52.4028C365.91 52.3726 366.575 52.3424 367.241 52.3123L367.218 51.8128ZM363.228 51.9942L363.205 51.4947C362.541 51.5251 361.876 51.5554 361.212 51.5859L361.235 52.0853L361.258 52.5848C361.922 52.5544 362.586 52.524 363.251 52.4937L363.228 51.9942ZM359.244 52.1768L359.221 51.6773C358.557 51.7078 357.894 51.7384 357.231 51.7691L357.254 52.2685L357.277 52.768C357.94 52.7374 358.603 52.7068 359.267 52.6763L359.244 52.1768ZM355.266 52.3606L355.243 51.8611C354.58 51.8919 353.918 51.9227 353.256 51.9535L353.279 52.453L353.302 52.9524C353.964 52.9216 354.626 52.8908 355.289 52.8601L355.266 52.3606ZM351.275 52.5466L351.252 52.0471C350.579 52.0786 349.907 52.1101 349.234 52.1417L349.258 52.6412L349.281 53.1406C349.954 53.109 350.626 53.0775 351.299 53.046L351.275 52.5466ZM347.243 52.7362L347.219 52.2367C346.547 52.2684 345.876 52.3002 345.205 52.332L345.229 52.8315L345.253 53.3309C345.924 53.2991 346.595 53.2673 347.266 53.2356L347.243 52.7362ZM343.217 52.9272L343.194 52.4277C342.523 52.4597 341.853 52.4917 341.184 52.5238L341.208 53.0232L341.232 53.5226C341.901 53.4905 342.571 53.4585 343.241 53.4266L343.217 52.9272ZM339.2 53.1196L339.176 52.6202C338.507 52.6524 337.838 52.6846 337.17 52.7169L337.194 53.2164L337.218 53.7158C337.886 53.6835 338.555 53.6512 339.224 53.619L339.2 53.1196ZM335.19 53.3135L335.166 52.8141C334.498 52.8465 333.831 52.879 333.164 52.9116L333.189 53.411L333.213 53.9104C333.88 53.8779 334.547 53.8453 335.215 53.8129L335.19 53.3135ZM331.189 53.5089L331.165 53.0095C330.498 53.0422 329.833 53.075 329.167 53.1078L329.192 53.6072L329.216 54.1066C329.882 54.0738 330.548 54.041 331.214 54.0083L331.189 53.5089ZM327.197 53.7059L327.172 53.2065C326.507 53.2395 325.843 53.2725 325.179 53.3056L325.204 53.805L325.229 54.3044C325.892 54.2713 326.557 54.2383 327.221 54.2053L327.197 53.7059ZM323.213 53.9045L323.188 53.4051C322.525 53.4384 321.862 53.4717 321.199 53.5051L321.225 54.0044L321.25 54.5038C321.912 54.4704 322.575 54.4371 323.238 54.4039L323.213 53.9045ZM319.239 54.1048L319.213 53.6054C318.552 53.6389 317.891 53.6725 317.23 53.7062L317.255 54.2055L317.281 54.7049C317.941 54.6712 318.602 54.6376 319.264 54.6041L319.239 54.1048ZM315.274 54.3067L315.248 53.8073C314.588 53.8411 313.929 53.875 313.27 53.909L313.295 54.4083L313.321 54.9076C313.98 54.8737 314.64 54.8398 315.3 54.806L315.274 54.3067ZM311.29 54.5118L311.265 54.0125C310.589 54.0475 309.914 54.0825 309.24 54.1177L309.266 54.617L309.292 55.1163C309.966 55.0812 310.641 55.0461 311.316 55.0112L311.29 54.5118ZM307.244 54.7226L307.218 54.2233C306.545 54.2586 305.872 54.2939 305.199 54.3294L305.225 54.8287L305.252 55.328C305.924 55.2926 306.597 55.2572 307.27 55.2219L307.244 54.7226ZM303.209 54.9353L303.183 54.436C302.511 54.4716 301.84 54.5073 301.17 54.5431L301.196 55.0424L301.223 55.5416C301.893 55.5059 302.564 55.4702 303.236 55.4346L303.209 54.9353ZM299.186 55.1499L299.159 54.6506C298.49 54.6866 297.82 54.7226 297.152 54.7587L297.179 55.258L297.206 55.7572C297.874 55.7211 298.543 55.6851 299.213 55.6492L299.186 55.1499ZM295.174 55.3665L295.147 54.8673C294.48 54.9035 293.813 54.9399 293.146 54.9764L293.173 55.4756L293.201 55.9749C293.867 55.9384 294.534 55.9021 295.202 55.8658L295.174 55.3665ZM291.175 55.5852L291.148 55.086C290.482 55.1226 289.817 55.1593 289.153 55.1961L289.18 55.6953L289.208 56.1946C289.872 56.1578 290.537 56.1211 291.203 56.0844L291.175 55.5852ZM287.188 55.806L287.161 55.3067C286.497 55.3437 285.834 55.3808 285.172 55.4179L285.2 55.9171L285.228 56.4163C285.89 56.3792 286.553 56.3422 287.216 56.3052L287.188 55.806ZM283.215 56.0288L283.186 55.5296C282.525 55.567 281.865 55.6044 281.204 55.6419L281.233 56.1411L281.261 56.6403C281.921 56.6028 282.582 56.5654 283.243 56.5281L283.215 56.0288ZM279.254 56.2539L279.226 55.7547C278.567 55.7924 277.908 55.8302 277.25 55.8681L277.279 56.3673L277.308 56.8664C277.965 56.8286 278.624 56.7908 279.283 56.7531L279.254 56.2539ZM275.307 56.4812L275.278 55.982C274.62 56.0202 273.962 56.0585 273.305 56.0968L273.334 56.596L273.363 57.0951C274.02 57.0568 274.678 57.0185 275.336 56.9804L275.307 56.4812ZM271.3 56.7151L271.271 56.216C270.593 56.2558 269.916 56.2957 269.24 56.3357L269.27 56.8349L269.299 57.334C269.975 57.294 270.652 57.2541 271.329 57.2143L271.3 56.7151ZM267.244 56.9552L267.214 56.4561C266.539 56.4964 265.865 56.5367 265.191 56.5772L265.221 57.0763L265.251 57.5754C265.925 57.5349 266.599 57.4946 267.273 57.4544L267.244 56.9552ZM263.203 57.1979L263.173 56.6988C262.501 56.7395 261.829 56.7802 261.159 56.8211L261.189 57.3202L261.219 57.8193C261.89 57.7784 262.561 57.7376 263.233 57.697L263.203 57.1979ZM259.179 57.4431L259.148 56.9441C258.479 56.9852 257.81 57.0264 257.142 57.0677L257.173 57.5667L257.204 58.0658C257.872 58.0245 258.54 57.9833 259.21 57.9422L259.179 57.4431ZM255.171 57.691L255.14 57.192C254.474 57.2335 253.808 57.2751 253.142 57.3169L253.174 57.8159L253.205 58.3149C253.87 58.2732 254.536 58.2315 255.202 58.19L255.171 57.691ZM251.18 57.9415L251.149 57.4425C250.485 57.4845 249.822 57.5266 249.16 57.5688L249.192 58.0678L249.223 58.5668C249.886 58.5246 250.548 58.4825 251.212 58.4405L251.18 57.9415ZM247.207 58.1948L247.175 57.6958C246.514 57.7383 245.854 57.7808 245.195 57.8235L245.227 58.3224L245.259 58.8214C245.918 58.7787 246.578 58.7362 247.239 58.6937L247.207 58.1948ZM243.251 58.4508L243.219 57.9519C242.561 57.9948 241.904 58.0378 241.247 58.081L241.28 58.5799L241.313 59.0788C241.969 59.0357 242.626 58.9927 243.284 58.9498L243.251 58.4508ZM239.314 58.7097L239.281 58.2108C238.626 58.2542 237.972 58.2977 237.319 58.3413L237.352 58.8402L237.385 59.3391C238.038 59.2955 238.692 59.252 239.347 59.2086L239.314 58.7097ZM235.372 58.9729L235.339 58.474C234.657 58.5199 233.977 58.5659 233.297 58.6121L233.331 59.1109L233.364 59.6098C234.044 59.5637 234.724 59.5177 235.406 59.4718L235.372 58.9729ZM231.294 59.2498L231.26 58.7509C230.582 58.7974 229.905 58.8439 229.229 58.8906L229.263 59.3894L229.297 59.8882C229.974 59.8416 230.651 59.795 231.328 59.7486L231.294 59.2498ZM227.237 59.5299L227.202 59.0311C226.528 59.0781 225.854 59.1252 225.182 59.1724L225.217 59.6712L225.252 60.17C225.924 60.1227 226.598 60.0756 227.272 60.0287L227.237 59.5299ZM223.202 59.8133L223.166 59.3146C222.496 59.3621 221.826 59.4098 221.157 59.4576L221.192 59.9563L221.228 60.455C221.897 60.4072 222.566 60.3596 223.237 60.3121L223.202 59.8133ZM219.188 60.1001L219.152 59.6014C218.485 59.6495 217.819 59.6977 217.154 59.7461L217.19 60.2448L217.226 60.7435C217.891 60.6951 218.557 60.6469 219.224 60.5988L219.188 60.1001ZM215.197 60.3903L215.161 59.8917C214.497 59.9403 213.835 59.9892 213.174 60.0381L213.21 60.5368L213.247 61.0354C213.909 60.9865 214.571 60.9377 215.234 60.889L215.197 60.3903ZM211.229 60.6841L211.192 60.1854C210.533 60.2347 209.874 60.2841 209.216 60.3336L209.254 60.8322L209.292 61.3308C209.949 61.2813 210.607 61.2319 211.267 61.1827L211.229 60.6841ZM207.285 60.9813L207.247 60.4827C206.591 60.5326 205.937 60.5826 205.283 60.6327L205.321 61.1313L205.359 61.6298C206.013 61.5797 206.667 61.5297 207.323 61.4799L207.285 60.9813ZM203.364 61.2821L203.325 60.7836C202.674 60.8341 202.023 60.8847 201.373 60.9355L201.412 61.4339L201.451 61.9324C202.101 61.8817 202.751 61.8311 203.402 61.7807L203.364 61.2821ZM199.439 61.5888L199.4 61.0904C198.715 61.1444 198.031 61.1986 197.349 61.253L197.388 61.7514L197.428 62.2498C198.11 62.1955 198.794 62.1413 199.479 62.0873L199.439 61.5888ZM195.345 61.915L195.305 61.4166C194.624 61.4713 193.945 61.5262 193.268 61.5813L193.308 62.0796L193.348 62.578C194.026 62.5229 194.705 62.4681 195.385 62.4134L195.345 61.915ZM191.278 62.2453L191.237 61.747C190.562 61.8024 189.888 61.858 189.215 61.9138L189.256 62.4121L189.297 62.9104C189.97 62.8546 190.644 62.7991 191.319 62.7437L191.278 62.2453ZM187.241 62.58L187.199 62.0817C186.528 62.1379 185.859 62.1942 185.191 62.2507L185.233 62.7489L185.275 63.2472C185.943 63.1907 186.612 63.1344 187.282 63.0782L187.241 62.58ZM183.232 62.919L183.19 62.4208C182.524 62.4777 181.859 62.5347 181.196 62.592L181.239 63.0901L181.282 63.5883C181.945 63.5311 182.609 63.474 183.275 63.4172L183.232 62.919ZM179.254 63.2624L179.21 62.7643C178.549 62.8219 177.89 62.8797 177.232 62.9377L177.276 63.4358L177.319 63.9339C177.977 63.8759 178.637 63.8181 179.297 63.7605L179.254 63.2624ZM175.305 63.6103L175.261 63.1123C174.605 63.1707 173.951 63.2292 173.298 63.288L173.342 63.786L173.387 64.284C174.04 64.2252 174.694 64.1667 175.349 64.1083L175.305 63.6103ZM171.387 63.9628L171.342 63.4648C170.692 63.524 170.042 63.5833 169.395 63.6428L169.44 64.1407L169.486 64.6386C170.134 64.5791 170.783 64.5198 171.433 64.4607L171.387 63.9628ZM167.501 64.3199L167.455 63.822C166.799 63.8829 166.145 63.944 165.492 64.0053L165.538 64.5031L165.585 65.0009C166.238 64.9397 166.892 64.8786 167.547 64.8177L167.501 64.3199ZM163.478 64.6977L163.43 64.1999C162.745 64.265 162.061 64.3304 161.379 64.3959L161.426 64.8936L161.474 65.3913C162.156 65.3258 162.84 65.2605 163.525 65.1954L163.478 64.6977ZM159.384 65.0909L159.336 64.5933C158.657 64.6593 157.979 64.7255 157.303 64.792L157.352 65.2896L157.401 65.7872C158.076 65.7208 158.754 65.6546 159.433 65.5886L159.384 65.0909ZM155.329 65.4897L155.279 64.9922C154.606 65.0591 153.935 65.1263 153.265 65.1937L153.315 65.6912L153.366 66.1887C154.035 66.1213 154.706 66.0542 155.378 65.9873L155.329 65.4897ZM151.312 65.8941L151.261 65.3967C150.595 65.4646 149.93 65.5327 149.267 65.6011L149.318 66.0985L149.369 66.5958C150.032 66.5275 150.696 66.4594 151.362 66.3916L151.312 65.8941ZM147.334 66.3043L147.282 65.807C146.622 65.8758 145.964 65.9449 145.307 66.0143L145.36 66.5115L145.412 67.0087C146.069 66.9394 146.726 66.8704 147.386 66.8016L147.334 66.3043ZM143.396 66.7202L143.343 66.223C142.69 66.2929 142.038 66.363 141.388 66.4333L141.442 66.9304L141.496 67.4275C142.145 67.3572 142.796 67.2872 143.449 67.2174L143.396 66.7202ZM139.498 67.142L139.444 66.645C138.798 66.7158 138.153 66.7869 137.51 66.8582L137.565 67.3552L137.62 67.8521C138.263 67.7808 138.907 67.7098 139.553 67.6391L139.498 67.142ZM135.642 67.5698L135.586 67.0729C134.927 67.147 134.27 67.2213 133.614 67.2958L133.671 67.7926L133.727 68.2894C134.382 68.2149 135.039 68.1407 135.698 68.0667L135.642 67.5698ZM131.601 68.0297L131.544 67.533C130.856 67.6124 130.17 67.692 129.486 67.772L129.544 68.2686L129.602 68.7652C130.285 68.6853 130.971 68.6057 131.659 68.5264L131.601 68.0297ZM127.5 68.5094L127.441 68.0128C126.761 68.0934 126.084 68.1743 125.408 68.2555L125.468 68.7519L125.528 69.2484C126.202 69.1672 126.879 69.0864 127.558 69.0059L127.5 68.5094ZM123.449 68.9964L123.389 68.5001C122.718 68.5819 122.049 68.664 121.382 68.7465L121.443 69.2427L121.505 69.7389C122.171 69.6565 122.839 69.5745 123.51 69.4927L123.449 68.9964ZM119.451 69.4909L119.388 68.9948C118.726 69.0779 118.066 69.1613 117.408 69.245L117.471 69.741L117.534 70.237C118.192 70.1534 118.851 70.07 119.513 69.987L119.451 69.4909ZM115.505 69.993L115.441 69.4971C114.788 69.5815 114.136 69.6662 113.487 69.7512L113.552 70.2469L113.617 70.7427C114.266 70.6578 114.916 70.5732 115.569 70.4889L115.505 69.993ZM111.613 70.5028L111.547 70.0072C110.903 70.0928 110.261 70.1788 109.621 70.2651L109.688 70.7606L109.754 71.2562C110.394 71.1699 111.035 71.084 111.679 70.9985L111.613 70.5028ZM107.776 71.0204L107.708 70.525C107.073 70.612 106.44 70.6993 105.809 70.787L105.878 71.2822L105.947 71.7774C106.577 71.6899 107.209 71.6027 107.844 71.5158L107.776 71.0204ZM103.838 71.568L103.768 71.0729C103.074 71.1709 102.382 71.2694 101.694 71.3683L101.765 71.8632L101.836 72.3581C102.524 72.2593 103.214 72.161 103.908 72.063L103.838 71.568ZM99.7095 72.1609L99.6372 71.6661C98.9546 71.7659 98.2749 71.866 97.5981 71.9665L97.6716 72.4611L97.7451 72.9557C98.421 72.8552 99.0999 72.7552 99.7817 72.6556L99.7095 72.1609ZM95.6515 72.7638L95.5768 72.2695C94.9059 72.3709 94.2381 72.4727 93.5733 72.5749L93.6493 73.0691L93.7253 73.5633C94.3893 73.4612 95.0563 73.3595 95.7263 73.2582L95.6515 72.7638ZM91.6651 73.377L91.5878 72.883C90.929 72.9861 90.2732 73.0896 89.6205 73.1936L89.6992 73.6874L89.7778 74.1812C90.4296 74.0773 91.0845 73.9739 91.7424 73.871L91.6651 73.377ZM87.7515 74.0004L87.6714 73.5068C87.0248 73.6117 86.3812 73.717 85.7408 73.8227L85.8222 74.316L85.9036 74.8094C86.5432 74.7038 87.1858 74.5987 87.8315 74.494L87.7515 74.0004ZM83.9116 74.6343L83.8287 74.1412C83.1945 74.2478 82.5633 74.3549 81.9354 74.4624L82.0197 74.9552L82.1041 75.4481C82.7311 75.3407 83.3612 75.2338 83.9944 75.1274L83.9116 74.6343ZM80.1467 75.2788L80.0609 74.7863C79.3871 74.9037 78.7172 75.0217 78.051 75.1403L78.1385 75.6325L78.2261 76.1248C78.8912 76.0065 79.5601 75.8887 80.2326 75.7714L80.1467 75.2788ZM76.056 76.007L75.9666 75.5151C75.2759 75.6406 74.5894 75.7667 73.9071 75.8935L73.9984 76.385L74.0897 76.8766C74.7707 76.7502 75.4559 76.6243 76.1454 76.499L76.056 76.007ZM71.9661 76.7666L71.8728 76.2754C71.1989 76.4033 70.5292 76.5318 69.8639 76.6609L69.9591 77.1518L70.0544 77.6426C70.7184 77.5138 71.3867 77.3855 72.0593 77.2579L71.9661 76.7666ZM67.9778 77.5406L67.8806 77.0501C67.2238 77.1805 66.5712 77.3114 65.923 77.4429L66.0225 77.933L66.1219 78.423C66.7687 78.2917 67.4197 78.161 68.0752 78.031L67.9778 77.5406ZM64.0931 78.329L63.9915 77.8395C63.352 77.9723 62.7169 78.1057 62.0862 78.2397L62.1901 78.7288L62.294 79.2179C62.9232 79.0842 63.5568 78.9511 64.1948 78.8186L64.0931 78.329ZM60.3136 79.1322L60.2073 78.6437C59.5854 78.779 58.968 78.9149 58.355 79.0514L58.4637 79.5395L58.5724 80.0275C59.1838 79.8913 59.7996 79.7558 60.4199 79.6208L60.3136 79.1322ZM56.6259 79.9538L56.5146 79.4664C55.806 79.6281 55.1036 79.7907 54.4075 79.9542L54.5218 80.4409L54.6361 80.9277C55.3301 80.7647 56.0305 80.6026 56.7371 80.4413L56.6259 79.9538ZM52.4554 80.9333L52.3379 80.4473C51.6543 80.6126 50.977 80.7788 50.3061 80.9459L50.4269 81.431L50.5478 81.9162C51.2164 81.7497 51.8915 81.5841 52.5729 81.4193L52.4554 80.9333ZM48.437 81.9341L48.3126 81.4498C47.6545 81.6187 47.0029 81.7885 46.3577 81.9592L46.4856 82.4426L46.6135 82.9259C47.2562 82.7558 47.9055 82.5867 48.5612 82.4184L48.437 81.9341ZM44.5733 82.9564L44.4417 82.4741C43.8095 82.6467 43.1838 82.8202 42.5648 82.9946L42.7004 83.4758L42.836 83.9571C43.4524 83.7834 44.0754 83.6107 44.705 83.4388L44.5733 82.9564ZM40.8672 84.0008L40.7275 83.5207C40.1218 83.697 39.5226 83.8742 38.9302 84.0524L39.0742 84.5312L39.2183 85.01C39.8077 84.8327 40.404 84.6563 41.007 84.4808L40.8672 84.0008ZM37.247 85.0905L37.0983 84.6132C36.3904 84.8337 35.6927 85.0557 35.0052 85.2791L35.1597 85.7547L35.3143 86.2302C35.9978 86.008 36.6917 85.7873 37.3958 85.5679L37.247 85.0905ZM33.1342 86.4273L32.9734 85.9538C32.3065 86.1802 31.6498 86.4081 31.0036 86.6374L31.1708 87.1086L31.3381 87.5798C31.9798 87.3521 32.6321 87.1257 33.2949 86.9008L33.1342 86.4273ZM29.2705 87.7986L29.0963 87.3299C28.4711 87.5623 27.8563 87.7962 27.2521 88.0316L27.4337 88.4975L27.6152 88.9633C28.2143 88.7299 28.8242 88.4979 29.4446 88.2673L29.2705 87.7986ZM25.6611 89.2051L25.4717 88.7424C24.8889 88.9809 24.3168 89.2209 23.7555 89.4626L23.9532 89.9218L24.1509 90.3811C24.7065 90.1419 25.273 89.9042 25.8504 89.6679L25.6611 89.2051ZM22.2454 90.6772L22.0385 90.2221C21.3426 90.5385 20.6649 90.8576 20.0057 91.1794L20.225 91.6287L20.4443 92.078C21.095 91.7604 21.7644 91.4452 22.4524 91.1324L22.2454 90.6772ZM18.3162 92.5956L18.0834 92.1531C17.4612 92.4804 16.8577 92.8106 16.2729 93.1436L16.5204 93.5781L16.7678 94.0125C17.3424 93.6853 17.9362 93.3605 18.549 93.0381L18.3162 92.5956ZM14.8389 94.5762L14.5756 94.1512C14.0288 94.49 13.501 94.8317 12.9926 95.1765L13.2731 95.5903L13.5537 96.0042C14.0502 95.6675 14.5665 95.3332 15.1023 95.0013L14.8389 94.5762ZM11.8243 96.6205L11.5251 96.2199C10.9058 96.6826 10.3203 97.1507 9.76929 97.6244L10.0953 98.0036L10.4212 98.3827C10.9537 97.9249 11.5212 97.471 12.1235 97.0211L11.8243 96.6205ZM8.53961 99.4511L8.1839 99.0997C7.69208 99.5976 7.237 100.102 6.81958 100.613L7.20679 100.929L7.59393 101.245C7.99011 100.761 8.42395 100.28 8.89532 99.8024L8.53961 99.4511ZM6.09998 102.438L5.68097 102.165C5.31793 102.723 4.99854 103.288 4.72388 103.861L5.17474 104.077L5.62561 104.293C5.88043 103.762 6.17822 103.234 6.51898 102.711L6.09998 102.438ZM4.43982 105.995L3.95947 105.857C3.76453 106.532 3.63025 107.216 3.55804 107.91L4.05536 107.961L4.55267 108.013C4.61865 107.38 4.74139 106.754 4.92023 106.134L4.43982 105.995ZM4.02728 109.976L3.52869 110.013C3.55505 110.367 3.59711 110.723 3.65485 111.08L4.14844 111L4.64203 110.92C4.58875 110.591 4.55011 110.264 4.52588 109.939L4.02728 109.976Z" fill="#BBBBBB"/>
</svg>
