<svg width="160" height="23" viewBox="0 0 160 23" fill="none" xmlns="http://www.w3.org/2000/svg">
<path d="M159.802 14.8117C159.902 15.0692 159.774 15.3588 159.516 15.4585L155.32 17.0829C155.062 17.1826 154.773 17.0547 154.673 16.7972C154.573 16.5396 154.701 16.2501 154.959 16.1504L158.689 14.7064L157.245 10.9761C157.145 10.7186 157.273 10.429 157.531 10.3293C157.788 10.2297 158.078 10.3576 158.178 10.6151L159.802 14.8117ZM0.335938 22.4922L-0.00376651 22.1253C0.240592 21.899 0.489202 21.6744 0.741998 21.4515L1.07271 21.8265L1.40342 22.2015C1.15658 22.4192 0.913972 22.6384 0.675642 22.8591L0.335938 22.4922ZM2.62165 20.5236L2.30856 20.1338C2.8294 19.7155 3.36547 19.3034 3.91631 18.8976L4.21289 19.3001L4.50948 19.7026C3.96945 20.1005 3.44441 20.5042 2.93474 20.9135L2.62165 20.5236ZM5.874 18.1257L5.59316 17.712C6.14322 17.3386 6.70622 16.9708 7.28177 16.6087L7.54804 17.0319L7.81432 17.455C7.24829 17.8112 6.69501 18.1727 6.15483 18.5394L5.874 18.1257ZM9.29091 15.975L9.03858 15.5434C9.61141 15.2085 10.1954 14.8788 10.7901 14.5543L11.0296 14.9932L11.2691 15.4321C10.6827 15.7521 10.1074 16.0769 9.54325 16.4067L9.29091 15.975ZM12.8324 14.0423L12.6052 13.5969C13.1963 13.2954 13.7971 12.9988 14.4072 12.7069L14.623 13.158L14.8388 13.609C14.2361 13.8973 13.6429 14.1902 13.0595 14.4877L12.8324 14.0423ZM16.4703 12.3019L16.2655 11.8457C16.8717 11.5736 17.4863 11.3059 18.1091 11.0427L18.3037 11.5033L18.4984 11.9639C17.8822 12.2242 17.2744 12.489 16.6751 12.758L16.4703 12.3019ZM20.182 10.7333L19.9972 10.2687C20.617 10.0222 21.2442 9.77992 21.8788 9.54193L22.0544 10.0101L22.23 10.4782C21.6015 10.714 20.9803 10.9539 20.3668 11.1979L20.182 10.7333ZM23.9546 9.31787L23.7878 8.84649C24.4198 8.6229 25.0585 8.40338 25.7037 8.18795L25.8621 8.66221L26.0204 9.13647C25.3808 9.35006 24.7477 9.56766 24.1213 9.78924L23.9546 9.31787ZM27.7777 8.04063L27.6273 7.56377C28.2705 7.361 28.9197 7.16215 29.5747 6.96725L29.7173 7.44648L29.8599 7.92572C29.21 8.1191 28.566 8.31637 27.928 8.51749L27.7777 8.04063ZM31.6437 6.88935L31.5084 6.40799C32.1584 6.22534 32.8137 6.04646 33.4742 5.87136L33.6023 6.35467L33.7305 6.83797C33.0747 7.01182 32.4241 7.18941 31.7789 7.3707L31.6437 6.88935ZM35.5463 5.85401L35.425 5.36895C36.0767 5.20596 36.7331 5.04656 37.3941 4.89076L37.5088 5.37743L37.6235 5.86409C36.9669 6.01886 36.3149 6.17719 35.6676 6.33907L35.5463 5.85401ZM39.4805 4.9264L39.3722 4.43827C40.025 4.29342 40.6819 4.15201 41.3429 4.01406L41.4451 4.50352L41.5472 4.99297C40.8903 5.13007 40.2374 5.2706 39.5888 5.41453L39.4805 4.9264ZM43.4338 4.10127L43.3377 3.61059C43.9938 3.48207 44.6536 3.35688 45.317 3.23505L45.4073 3.72683L45.4976 4.2186C44.8381 4.33973 44.1821 4.46418 43.5299 4.59194L43.4338 4.10127ZM47.3944 3.37378L47.3097 2.88099C47.9741 2.76689 48.6417 2.6561 49.3126 2.54863L49.3917 3.04234L49.4708 3.53604C48.8036 3.64292 48.1396 3.7531 47.479 3.86656L47.3944 3.37378ZM51.377 2.73543L51.3033 2.24089C51.9699 2.14154 52.6395 2.04542 53.312 1.95255L53.3804 2.44785L53.4488 2.94315C52.7798 3.03554 52.1138 3.13115 51.4508 3.22997L51.377 2.73543ZM55.3785 2.18254L55.3152 1.68655C55.9809 1.60168 56.6491 1.51996 57.3199 1.44139L57.3781 1.938L57.4362 2.4346C56.7688 2.51278 56.104 2.59409 55.4417 2.67852L55.3785 2.18254ZM59.3926 1.71233L59.3395 1.21516C60.0052 1.14397 60.6733 1.07586 61.3435 1.01083L61.3918 1.50849L61.4401 2.00616C60.7731 2.07087 60.1083 2.13865 59.4458 2.20949L59.3926 1.71233ZM63.4014 1.32336L63.3579 0.825256C64.0298 0.76664 64.7036 0.711102 65.3794 0.658653L65.4181 1.15715L65.4568 1.65565C64.7842 1.70786 64.1135 1.76313 63.4449 1.82147L63.4014 1.32336ZM67.4238 1.01097L67.3898 0.512123C68.0617 0.466309 68.7354 0.423531 69.4107 0.383797L69.44 0.882935L69.4694 1.38207C68.7972 1.42162 68.1266 1.4642 67.4578 1.50981L67.4238 1.01097ZM71.4563 0.773619L71.4315 0.274233C72.1022 0.240959 72.7744 0.210672 73.4479 0.183388L73.4681 0.682978L73.4884 1.18257C72.8179 1.20973 72.1487 1.23988 71.4811 1.273L71.4563 0.773619ZM75.4882 0.610292L75.4725 0.11054C76.1447 0.0893879 76.8182 0.0712128 77.4928 0.0560265L77.504 0.555901L77.5153 1.05577C76.8437 1.07089 76.1732 1.08899 75.5039 1.11005L75.4882 0.610292ZM79.5195 0.519495L79.5127 0.0195408C80.187 0.0103531 80.8624 0.00414467 81.5386 0.000925064L81.541 0.500919L81.5434 1.00091C80.8701 1.00412 80.1977 1.0103 79.5263 1.01945L79.5195 0.519495ZM83.5562 0.500195L83.5582 0.000198364C84.2312 0.00291443 84.905 0.00858879 85.5795 0.0172329L85.5731 0.517191L85.5667 1.01715C84.8951 1.00854 84.2243 1.0029 83.5542 1.00019L83.5562 0.500195ZM87.5939 0.551964L87.6047 0.0520802C88.2771 0.0665989 88.95 0.0840702 89.6233 0.104502L89.6082 0.604271L89.593 1.10404C88.9226 1.0837 88.2526 1.0663 87.5832 1.05185L87.5939 0.551964ZM91.6245 0.674288L91.6441 0.174669C92.3178 0.201019 92.9919 0.230337 93.6663 0.262636L93.6424 0.762064L93.6184 1.26149C92.947 1.22933 92.2758 1.20014 91.605 1.17391L91.6245 0.674288ZM95.6556 0.867344L95.6839 0.368145C96.3566 0.406284 97.0294 0.447397 97.7023 0.491495L97.6696 0.990425L97.6369 1.48935C96.967 1.44545 96.2971 1.40451 95.6273 1.36654L95.6556 0.867344ZM99.6831 1.13133L99.7203 0.63271C100.392 0.682718 101.064 0.735718 101.736 0.791714L101.694 1.28999L101.653 1.78826C100.984 1.73251 100.315 1.67974 99.646 1.62995L99.6831 1.13133ZM103.704 1.46659L103.75 0.968712C104.421 1.03073 105.092 1.09576 105.763 1.16381L105.712 1.66125L105.662 2.1587C104.994 2.09095 104.326 2.02621 103.658 1.96447L103.704 1.46659ZM107.719 1.87409L107.774 1.37712C108.444 1.45126 109.114 1.52843 109.783 1.60865L109.723 2.10509L109.663 2.60154C108.998 2.52168 108.331 2.44486 107.664 2.37106L107.719 1.87409ZM111.725 2.35463L111.789 1.85876C112.459 1.9453 113.127 2.03491 113.795 2.12761L113.726 2.62286L113.657 3.11811C112.993 3.02584 112.327 2.93664 111.661 2.8505L111.725 2.35463ZM115.722 2.90955L115.795 2.41497C116.463 2.5141 117.129 2.61635 117.795 2.72172L117.717 3.21557L117.639 3.70942C116.976 3.60456 116.313 3.50279 115.648 3.40413L115.722 2.90955ZM119.709 3.54084L119.792 3.04777C120.457 3.1596 121.12 3.27456 121.782 3.39269L121.695 3.88492L121.607 4.37715C120.948 4.2596 120.288 4.14519 119.626 4.03391L119.709 3.54084ZM123.681 4.24957L123.774 3.75825C124.438 3.88348 125.1 4.01193 125.76 4.14359L125.663 4.63395L125.565 5.12431C124.908 4.99331 124.249 4.86551 123.589 4.7409L123.681 4.24957ZM127.635 5.03757L127.738 4.54824C128.4 4.68734 129.061 4.82971 129.72 4.97537L129.612 5.46358L129.504 5.9518C128.848 5.8069 128.191 5.66527 127.532 5.52689L127.635 5.03757ZM131.579 5.90958L131.693 5.42255C132.349 5.57505 133.004 5.73086 133.656 5.88999L133.538 6.37576L133.419 6.86152C132.77 6.70326 132.119 6.54829 131.466 6.39661L131.579 5.90958ZM135.501 6.86608L135.625 6.38167C136.279 6.54896 136.931 6.71963 137.58 6.89371L137.451 7.37668L137.322 7.85964C136.676 7.68656 136.027 7.51684 135.377 7.35049L135.501 6.86608ZM139.394 7.90948L139.529 7.42805C140.182 7.61101 140.832 7.79747 141.479 7.98743L141.338 8.4672L141.198 8.94698C140.554 8.75815 139.908 8.5728 139.259 8.3909L139.394 7.90948ZM143.267 9.04587L143.414 8.56785C144.061 8.76623 144.705 8.96817 145.346 9.1737L145.193 9.64985L145.041 10.126C144.404 9.92175 143.763 9.72106 143.121 9.5239L143.267 9.04587ZM147.114 10.2789L147.272 9.80471C147.912 10.0187 148.548 10.2363 149.181 10.4576L149.016 10.9296L148.851 11.4016C148.222 11.1818 147.59 10.9656 146.955 10.753L147.114 10.2789ZM150.922 11.6101L151.093 11.1404C151.729 11.3723 152.361 11.608 152.99 11.8475L152.813 12.3148L152.635 12.7821C152.01 12.5443 151.382 12.3102 150.751 12.0798L150.922 11.6101ZM154.687 13.0437L154.871 12.579C155.503 12.83 156.131 13.0848 156.755 13.3436L156.564 13.8055L156.372 14.2674C155.753 14.0105 155.129 13.7575 154.502 13.5084L154.687 13.0437ZM158.418 14.5908L158.616 14.1319C158.925 14.2652 159.232 14.3995 159.538 14.5348L159.336 14.9922L159.134 15.4495C158.83 15.3153 158.525 15.182 158.219 15.0497L158.418 14.5908Z" fill="#BBBBBB"/>
</svg>
