<svg width="160" height="36" viewBox="0 0 160 36" fill="none" xmlns="http://www.w3.org/2000/svg">
<path d="M159.825 21.0157C159.854 21.2903 159.654 21.536 159.379 21.5643L154.903 22.0255C154.628 22.0538 154.383 21.854 154.354 21.5793C154.326 21.3046 154.526 21.059 154.801 21.0307L158.78 20.6208L158.37 16.6418C158.341 16.3671 158.541 16.1215 158.816 16.0932C159.09 16.0649 159.336 16.2647 159.364 16.5393L159.825 21.0157ZM0.328125 35.0669L0.000281662 34.6894C0.24981 34.4727 0.500937 34.2566 0.753645 34.0413L1.07797 34.4218L1.4023 34.8023C1.15193 35.0157 0.903149 35.2298 0.655968 35.4444L0.328125 35.0669ZM2.60605 33.1434L2.28871 32.757C2.80542 32.3326 3.32828 31.911 3.85713 31.4921L4.16756 31.8841L4.47799 32.2761C3.95373 32.6913 3.43548 33.1092 2.9234 33.5298L2.60605 33.1434ZM5.73461 30.6647L5.43091 30.2675C5.96118 29.8621 6.49708 29.4594 7.03847 29.0596L7.33548 29.4619L7.6325 29.8641C7.09555 30.2606 6.56411 30.6599 6.03831 31.0619L5.73461 30.6647ZM8.94786 28.2913L8.65739 27.8844C9.1987 27.498 9.74515 27.1145 10.2966 26.7339L10.5806 27.1454L10.8646 27.5569C10.3175 27.9346 9.77531 28.3151 9.23833 28.6983L8.94786 28.2913ZM12.2382 26.0204L11.9606 25.6045C12.5119 25.2365 13.0679 24.8714 13.6284 24.5092L13.8998 24.9292L14.1711 25.3491C13.6147 25.7086 13.0629 26.071 12.5158 26.4362L12.2382 26.0204ZM15.5889 23.8556L15.3238 23.4316C15.8875 23.0792 16.4556 22.7296 17.0279 22.3832L17.2868 22.8109L17.5458 23.2386C16.9775 23.5826 16.4136 23.9296 15.854 24.2795L15.5889 23.8556ZM19 21.7903L18.7471 21.359C19.3238 21.0209 19.9046 20.6859 20.4893 20.3541L20.736 20.789L20.9828 21.2238C20.4022 21.5533 19.8255 21.886 19.2528 22.2217L19 21.7903ZM22.4717 19.8196L22.2308 19.3814C22.8151 19.0603 23.4031 18.7423 23.9947 18.4274L24.2296 18.8688L24.4645 19.3102C23.8768 19.6229 23.2928 19.9388 22.7125 20.2578L22.4717 19.8196ZM25.999 17.9424L25.77 17.4979C26.361 17.1935 26.9553 16.8922 27.553 16.5942L27.7761 17.0416L27.9993 17.4891C27.4055 17.7852 26.815 18.0845 26.2279 18.3869L25.999 17.9424ZM29.5731 16.1602L29.3558 15.7099C29.9546 15.421 30.5565 15.1354 31.1614 14.853L31.3729 15.3061L31.5843 15.7592C30.9833 16.0397 30.3853 16.3235 29.7904 16.6105L29.5731 16.1602ZM33.1866 14.4737L32.9809 14.018C33.5896 13.7433 34.2013 13.4719 34.8157 13.2039L35.0156 13.6622L35.2154 14.1206C34.6049 14.3868 33.9971 14.6565 33.3922 14.9295L33.1866 14.4737ZM36.8455 12.8778L36.6514 12.417C37.266 12.1581 37.8832 11.9027 38.5029 11.6506L38.6913 12.1138L38.8796 12.577C38.2637 12.8274 37.6503 13.0813 37.0396 13.3386L36.8455 12.8778ZM40.546 11.373L40.3634 10.9075C40.9831 10.6645 41.6051 10.4249 42.2295 10.1889L42.4063 10.6566L42.5831 11.1243C41.9626 11.3589 41.3444 11.597 40.7286 11.8385L40.546 11.373ZM44.2803 9.96141L44.1092 9.49157C44.7352 9.26372 45.3634 9.03943 45.9937 8.81878L46.1589 9.29069L46.3241 9.76261C45.6977 9.9819 45.0734 10.2048 44.4513 10.4313L44.2803 9.96141ZM48.0459 8.64301L47.8865 8.16911C48.5195 7.9562 49.1544 7.74697 49.7911 7.54146L49.9447 8.0173L50.0983 8.49313C49.4654 8.69737 48.8344 8.90532 48.2053 9.11692L48.0459 8.64301ZM51.8455 7.41673L51.6978 6.93904C52.3349 6.74203 52.9737 6.54878 53.6143 6.35933L53.7561 6.8388L53.8979 7.31826C53.2613 7.50655 52.6264 7.69861 51.9932 7.89441L51.8455 7.41673ZM55.6753 6.28401L55.5394 5.80283C56.1807 5.62172 56.8236 5.44446 57.4679 5.27109L57.5978 5.75392L57.7277 6.23674C57.0874 6.40904 56.4485 6.58521 55.8111 6.76519L55.6753 6.28401ZM59.5289 5.24713L59.405 4.76273C60.0515 4.59737 60.6993 4.43595 61.3484 4.27854L61.4662 4.76446L61.5841 5.25037C60.9391 5.4068 60.2953 5.56721 59.6528 5.73153L59.5289 5.24713ZM63.4082 4.30637L63.2964 3.81901C63.947 3.66986 64.5987 3.52476 65.2514 3.38377L65.357 3.8725L65.4625 4.36123C64.8139 4.50133 64.1664 4.64551 63.5199 4.79372L63.4082 4.30637ZM67.3106 3.46348L67.2113 2.97345C67.8653 2.84087 68.5203 2.71244 69.1761 2.58822L69.2691 3.07949L69.3622 3.57076C68.7106 3.69417 68.0598 3.82178 67.41 3.95351L67.3106 3.46348ZM71.2327 2.72069L71.146 2.22826C71.8035 2.11252 72.4617 2.00105 73.1206 1.8939L73.2009 2.38742L73.2811 2.88094C72.6266 2.98738 71.9726 3.09813 71.3194 3.21312L71.2327 2.72069ZM75.173 2.08002L75.0993 1.58548C75.7594 1.48703 76.4202 1.39297 77.0815 1.30334L77.1486 1.79881L77.2158 2.29428C76.5589 2.3833 75.9026 2.47675 75.2467 2.57455L75.173 2.08002ZM79.129 1.54391L79.0685 1.04758C79.7313 0.96682 80.3945 0.890564 81.0579 0.818867L81.1116 1.31597L81.1654 1.81308C80.5065 1.88428 79.8478 1.96003 79.1895 2.04024L79.129 1.54391ZM83.0971 1.11522L83.0502 0.617416C83.7155 0.554783 84.381 0.496788 85.0466 0.443493L85.0865 0.941898L85.1264 1.4403C84.4655 1.49323 83.8046 1.55082 83.144 1.61301L83.0971 1.11522ZM87.0763 0.796669L87.0435 0.297752C87.7101 0.253841 88.3768 0.214703 89.0434 0.180389L89.0691 0.679726L89.0948 1.17907C88.433 1.21313 87.7711 1.25199 87.1092 1.29559L87.0763 0.796669ZM91.0638 0.591549L91.0454 0.0918884C91.7126 0.0672646 92.3796 0.0475426 93.0463 0.0327797L93.0574 0.532658L93.0684 1.03254C92.4067 1.04719 91.7446 1.06676 91.0823 1.09121L91.0638 0.591549ZM95.0543 0.503365L95.0507 0.00337982C95.7191 -0.00140381 96.3871 -0.00113297 97.0546 0.00424576L97.0505 0.50423L97.0465 1.00422C96.3841 0.998875 95.7212 0.998608 95.0579 1.00335L95.0543 0.503365ZM99.0437 0.535641L99.0555 0.035778C99.7246 0.0515022 100.393 0.0724335 101.061 0.0986404L101.041 0.598255L101.022 1.09787C100.359 1.07187 99.6959 1.0511 99.032 1.0355L99.0437 0.535641ZM103.035 0.692371L103.062 0.19313C103.729 0.22998 104.395 0.272171 105.061 0.319767L105.025 0.818493L104.989 1.31722C104.33 1.27001 103.669 1.22816 103.007 1.19161L103.035 0.692371ZM107.017 0.977451L107.061 0.479385C107.726 0.538071 108.391 0.602253 109.054 0.671997L109.002 1.16926L108.95 1.66652C108.292 1.59736 107.633 1.53372 106.973 1.47552L107.017 0.977451ZM110.985 1.39482L111.046 0.898525C111.71 0.979832 112.373 1.06681 113.035 1.15952L112.965 1.65468L112.896 2.14984C112.24 2.05794 111.583 1.97172 110.924 1.89112L110.985 1.39482ZM114.937 1.94875L115.015 1.4549C115.676 1.55948 116.336 1.6699 116.994 1.78622L116.907 2.27859L116.82 2.77096C116.168 2.6557 115.514 2.54627 114.859 2.44261L114.937 1.94875ZM118.869 2.64392L118.965 2.15323C119.621 2.28157 120.275 2.41587 120.928 2.55621L120.823 3.04503L120.717 3.53384C120.071 3.39482 119.423 3.26177 118.773 3.13462L118.869 2.64392ZM122.772 3.48368L122.886 2.99695C123.537 3.14998 124.186 3.30915 124.833 3.47452L124.709 3.95896L124.586 4.44339C123.945 4.27962 123.302 4.12198 122.657 3.97041L122.772 3.48368ZM126.638 4.47186L126.771 3.98995C127.416 4.16834 128.059 4.35303 128.7 4.54409L128.557 5.02324L128.414 5.50239C127.78 5.31325 127.143 5.13039 126.504 4.95377L126.638 4.47186ZM130.463 5.61259L130.615 5.13643C131.252 5.34056 131.887 5.55114 132.519 5.76823L132.357 6.24114L132.195 6.71405C131.569 6.49921 130.941 6.29079 130.31 6.08875L130.463 5.61259ZM134.238 6.9089L134.41 6.43949C135.038 6.6698 135.663 6.9067 136.286 7.15025L136.104 7.6159L135.922 8.08154C135.306 7.84059 134.687 7.6062 134.066 7.3783L134.238 6.9089ZM137.954 8.36283L138.147 7.90122C138.764 8.15823 139.379 8.42197 139.991 8.69248L139.789 9.14979L139.587 9.6071C138.981 9.33955 138.373 9.07868 137.762 8.82444L137.954 8.36283ZM141.605 9.97676L141.817 9.52403C142.422 9.80777 143.025 10.0983 143.624 10.3958L143.402 10.8436L143.179 11.2915C142.587 10.9974 141.991 10.7101 141.393 10.4295L141.605 9.97676ZM145.18 11.7516L145.413 11.3089C146.004 11.6194 146.593 11.9369 147.178 12.2614L146.936 12.6987L146.693 13.1359C146.115 12.8152 145.533 12.5013 144.948 12.1943L145.18 11.7516ZM148.669 13.6861L148.922 13.2545C149.5 13.5925 150.074 13.9376 150.645 14.2898L150.383 14.7153L150.12 15.1409C149.556 14.7929 148.988 14.4518 148.417 14.1176L148.669 13.6861ZM152.066 15.7805L152.338 15.3611C152.899 15.7252 153.456 16.0963 154.009 16.4746L153.727 16.8874L153.445 17.3002C152.898 16.9264 152.347 16.5596 151.793 16.1998L152.066 15.7805ZM155.363 18.0342L155.655 17.6282C156.196 18.0172 156.734 18.4133 157.267 18.8164L156.966 19.2154L156.665 19.6144C156.137 19.216 155.606 18.8246 155.071 18.4402L155.363 18.0342ZM158.546 20.439L158.857 20.0473C159.12 20.2561 159.382 20.4666 159.644 20.679L159.328 21.0669L159.013 21.4548C158.755 21.245 158.496 21.037 158.236 20.8307L158.546 20.439Z" fill="#BBBBBB"/>
</svg>
