<svg width="159" height="75" viewBox="0 0 159 75" fill="none" xmlns="http://www.w3.org/2000/svg">
<path d="M158.512 4.23627C158.641 4.47997 158.549 4.78281 158.305 4.91269L154.334 7.02929C154.091 7.15917 153.788 7.06692 153.658 6.82323C153.528 6.57954 153.62 6.2767 153.864 6.14681L157.394 4.26539L155.512 0.735481C155.383 0.491791 155.475 0.18895 155.719 0.0590668C155.962 -0.070816 156.265 0.0214386 156.395 0.265129L158.512 4.23627ZM0.0703125 73.4714L0.144292 72.977C0.483924 73.0278 0.822246 73.0754 1.15927 73.1198L1.09392 73.6155L1.02856 74.1112C0.685751 74.066 0.341682 74.0176 -0.00366662 73.9659L0.0703125 73.4714ZM3.1182 73.8464L3.16606 73.3487C3.8299 73.4125 4.48871 73.464 5.14262 73.5034L5.11256 74.0025L5.0825 74.5016C4.41665 74.4615 3.74597 74.4091 3.07035 74.3441L3.1182 73.8464ZM7.13467 74.0868L7.1462 73.5869C7.82134 73.6025 8.49127 73.6051 9.15614 73.5952L9.16362 74.0951L9.1711 74.5951C8.49354 74.6052 7.81093 74.6025 7.12314 74.5867L7.13467 74.0868ZM11.1622 74.0272L11.1357 73.5279C11.8101 73.4921 12.4792 73.4433 13.1434 73.3819L13.1894 73.8798L13.2354 74.3777C12.5583 74.4403 11.8762 74.49 11.1888 74.5265L11.1622 74.0272ZM15.1972 73.6544L15.1317 73.1587C15.7921 73.0715 16.4475 72.9718 17.0982 72.86L17.1829 73.3528L17.2676 73.8456C16.6042 73.9595 15.936 74.0612 15.2627 74.1501L15.1972 73.6544ZM19.1757 72.9702L19.0719 72.4811C19.7251 72.3425 20.3734 72.1917 21.0173 72.0292L21.1397 72.514L21.2621 72.9988C20.606 73.1644 19.9452 73.318 19.2795 73.4593L19.1757 72.9702ZM23.0874 71.9832L22.9469 71.5033C23.5887 71.3155 24.226 71.116 24.8591 70.9053L25.017 71.3798L25.1748 71.8542C24.5304 72.0686 23.8815 72.2717 23.2278 72.463L23.0874 71.9832ZM26.9202 70.7086L26.7457 70.24C27.3711 70.0071 27.9925 69.7632 28.61 69.5089L28.8004 69.9713L28.9908 70.4336C28.363 70.6921 27.731 70.9401 27.0947 71.1771L26.9202 70.7086ZM30.6564 69.1711L30.451 68.7152C31.0594 68.4411 31.6642 68.157 32.2654 67.8633L32.4848 68.3126L32.7043 68.7619C32.094 69.06 31.4798 69.3485 30.8617 69.6269L30.6564 69.1711ZM34.2848 67.4L34.0522 66.9574C34.6444 66.6461 35.2333 66.3258 35.8191 65.9967L36.064 66.4326L36.3089 66.8685C35.7152 67.2021 35.1181 67.5269 34.5174 67.8426L34.2848 67.4ZM37.8082 65.4222L37.5519 64.9928C38.1254 64.6506 38.6959 64.3003 39.2636 63.9422L39.5303 64.3651L39.7971 64.788C39.2226 65.1503 38.6451 65.505 38.0644 65.8515L37.8082 65.4222ZM41.2311 63.2645L40.9547 62.8478C41.5095 62.4797 42.0618 62.1045 42.6118 61.7225L42.8971 62.1331L43.1823 62.5438C42.6267 62.9297 42.0685 63.309 41.5076 63.6811L41.2311 63.2645ZM44.5482 60.9613L44.2548 60.5564C44.7961 60.1642 45.3352 59.7657 45.8724 59.3612L46.1731 59.7607L46.4739 60.1601C45.9321 60.5681 45.388 60.9703 44.8416 61.3662L44.5482 60.9613ZM47.7741 58.5335L47.4667 58.1392C47.9962 57.7262 48.524 57.3077 49.05 56.8842L49.3636 57.2736L49.6772 57.663C49.1473 58.0898 48.6154 58.5114 48.0816 58.9277L47.7741 58.5335ZM50.9241 55.9985L50.6051 55.6135C51.1206 55.1863 51.6346 54.7544 52.1473 54.3183L52.4713 54.6991L52.7952 55.08C52.2794 55.5188 51.7621 55.9534 51.2432 56.3835L50.9241 55.9985ZM54.0083 53.3758L53.6799 52.9987C54.1835 52.5601 54.686 52.1176 55.1875 51.6716L55.5197 52.0452L55.852 52.4188C55.3481 52.8669 54.8431 53.3117 54.3367 53.7528L54.0083 53.3758ZM57.0247 50.6939L56.689 50.3233C57.1869 49.8722 57.6839 49.4178 58.1803 48.9607L58.519 49.3285L58.8577 49.6963C58.3595 50.1551 57.8605 50.6113 57.3604 51.0644L57.0247 50.6939ZM59.9975 47.9569L59.6562 47.5915C60.1475 47.1326 60.6383 46.6712 61.1286 46.2077L61.4721 46.571L61.8156 46.9344C61.3239 47.3991 60.8317 47.8619 60.3388 48.3223L59.9975 47.9569ZM62.9376 45.1786L62.5923 44.8169C63.0779 44.3533 63.5632 43.888 64.0483 43.4212L64.395 43.7815L64.7416 44.1418C64.2557 44.6094 63.7695 45.0756 63.2829 45.5402L62.9376 45.1786ZM65.851 42.3761L65.5033 42.0168C65.9864 41.5492 66.4696 41.0804 66.9528 40.6108L67.3012 40.9694L67.6497 41.328C67.1661 41.7979 66.6825 42.2672 66.1988 42.7354L65.851 42.3761ZM68.7492 39.5607L68.4004 39.2025C68.8833 38.7323 69.3661 38.262 69.8495 37.7911L70.1984 38.1493L70.5472 38.5076C70.064 38.9781 69.5808 39.4488 69.0981 39.9189L68.7492 39.5607ZM71.6464 36.7402L71.2979 36.3817C71.7809 35.9121 72.2645 35.4426 72.7486 34.9736L73.0965 35.3328L73.4444 35.6919C72.9607 36.1604 72.4776 36.6294 71.9949 37.0987L71.6464 36.7402ZM74.5502 33.9283L74.2033 33.5682C74.6891 33.1002 75.1756 32.633 75.6631 32.1668L76.0087 32.5282L76.3542 32.8896C75.8678 33.3548 75.3821 33.8212 74.8971 34.2884L74.5502 33.9283ZM77.4723 31.1348L77.1284 30.7719C77.618 30.3079 78.1087 29.8454 78.6006 29.3846L78.9424 29.7494L79.2843 30.1143C78.7939 30.5738 78.3046 31.035 77.8162 31.4978L77.4723 31.1348ZM80.4231 28.3709L80.0837 28.0038C80.5793 27.5455 81.0763 27.0891 81.5748 26.6352L81.9114 27.0048L82.2481 27.3744C81.7517 27.8266 81.2565 28.2813 80.7626 28.738L80.4231 28.3709ZM83.4105 25.6508L83.077 25.2783C83.5811 24.8269 84.0869 24.3782 84.5945 23.9324L84.9244 24.3081L85.2543 24.6838C84.7493 25.1273 84.2459 25.5739 83.744 26.0233L83.4105 25.6508ZM86.4484 22.9836L86.1225 22.6045C86.6354 22.1636 87.1501 21.726 87.667 21.2921L87.9885 21.675L88.31 22.0579C87.7963 22.4893 87.2844 22.9243 86.7744 23.3628L86.4484 22.9836ZM89.5462 20.3839L89.2296 19.9969C89.7526 19.569 90.2778 19.1452 90.8054 18.7257L91.1166 19.1171L91.4278 19.5084C90.904 19.9249 90.3823 20.3459 89.8627 20.7709L89.5462 20.3839ZM92.7091 17.87L92.4039 17.474C92.9406 17.0603 93.4798 16.6513 94.0217 16.2474L94.3205 16.6483L94.6193 17.0492C94.0819 17.4498 93.5469 17.8555 93.0144 18.266L92.7091 17.87ZM95.9474 15.4573L95.6556 15.0513C96.2069 14.6551 96.761 14.2645 97.3181 13.8796L97.6023 14.291L97.8865 14.7024C97.3346 15.0836 96.7856 15.4707 96.2392 15.8633L95.9474 15.4573ZM99.2762 13.1589L99.0003 12.742C99.5646 12.3685 100.132 12.0013 100.703 11.6406L100.97 12.0633L101.237 12.486C100.672 12.8428 100.111 13.2062 99.5522 13.5759L99.2762 13.1589ZM102.693 11.0012L102.435 10.5727C103.016 10.2235 103.601 9.88139 104.189 9.54658L104.436 9.9811L104.683 10.4156C104.102 10.7464 103.525 11.0846 102.95 11.4298L102.693 11.0012ZM106.203 9.00377L105.966 8.56324C106.564 8.24236 107.166 7.92922 107.771 7.62419L107.996 8.07074L108.221 8.51728C107.624 8.81831 107.03 9.12743 106.439 9.4443L106.203 9.00377ZM109.813 7.18632L109.6 6.73381C110.213 6.4456 110.83 6.16585 111.452 5.89491L111.652 6.35326L111.852 6.81161C111.239 7.0787 110.63 7.35455 110.025 7.63882L109.813 7.18632ZM113.515 5.57329L113.329 5.10926C113.959 4.85642 114.593 4.61276 115.232 4.37862L115.404 4.84811L115.576 5.31759C114.947 5.54817 114.322 5.7882 113.701 6.03732L113.515 5.57329ZM117.307 4.18443L117.149 3.70981C117.793 3.49666 118.44 3.29324 119.093 3.0999L119.235 3.5793L119.377 4.0587C118.735 4.24897 118.097 4.44919 117.464 4.65903L117.307 4.18443ZM121.186 3.03555L121.06 2.55176C121.712 2.3817 122.368 2.22174 123.029 2.0722L123.139 2.55989L123.249 3.04757C122.599 3.19466 121.954 3.35202 121.313 3.51933L121.186 3.03555ZM125.121 2.14634L125.027 1.65524C125.692 1.52805 126.362 1.41145 127.037 1.30572L127.114 1.7997L127.192 2.29368C126.528 2.39765 125.869 2.51234 125.215 2.63744L125.121 2.14634ZM129.103 1.52213L129.042 1.02586C129.715 0.943291 130.394 0.871559 131.077 0.810966L131.121 1.30901L131.166 1.80706C130.493 1.86666 129.826 1.93722 129.164 2.01842L129.103 1.52213ZM133.136 1.16405L133.108 0.664818C133.777 0.627792 134.45 0.601387 135.129 0.585876L135.14 1.08575L135.152 1.58562C134.484 1.60088 133.821 1.62686 133.163 1.66328L133.136 1.16405ZM137.174 1.07227L137.179 0.572289C137.852 0.57869 138.53 0.595757 139.214 0.623741L139.193 1.12332L139.173 1.6229C138.5 1.59534 137.832 1.57854 137.17 1.57224L137.174 1.07227ZM141.191 1.23579L141.227 0.737068C141.903 0.785393 142.583 0.844337 143.269 0.914146L143.218 1.41158L143.167 1.909C142.492 1.84021 141.821 1.78213 141.155 1.73452L141.191 1.23579ZM145.235 1.64679L145.3 1.15105C145.957 1.23732 146.618 1.33349 147.284 1.43974L147.205 1.93349L147.126 2.42725C146.469 2.32243 145.817 2.2276 145.17 2.14253L145.235 1.64679ZM149.203 2.28038L149.295 1.78896C149.968 1.91528 150.646 2.05184 151.329 2.19882L151.224 2.68762L151.119 3.17642C150.444 3.03129 149.775 2.89648 149.111 2.7718L149.203 2.28038ZM153.148 3.12679L153.265 2.64072C153.915 2.79733 154.568 2.96328 155.226 3.13875L155.097 3.62186L154.968 4.10497C154.318 3.93155 153.672 3.76757 153.031 3.61286L153.148 3.12679ZM157.073 4.1738L157.213 3.69385C157.546 3.79119 157.881 3.89095 158.216 3.99315L158.07 4.47145L157.925 4.94975C157.593 4.84866 157.262 4.75 156.932 4.65375L157.073 4.1738Z" fill="#BBBBBB"/>
</svg>
