<svg width="154" height="31" viewBox="0 0 154 31" fill="none" xmlns="http://www.w3.org/2000/svg">
<path d="M152.887 26.1282C153.125 26.2687 153.204 26.5753 153.063 26.813L150.774 30.6872C150.634 30.9249 150.327 31.0038 150.089 30.8633C149.851 30.7228 149.773 30.4162 149.913 30.1784L151.948 26.7347L148.504 24.6998C148.267 24.5593 148.188 24.2527 148.328 24.015C148.469 23.7773 148.775 23.6984 149.013 23.8389L152.887 26.1282ZM0.132812 3.05885L-0.00217147 2.57742C0.33271 2.48352 0.666655 2.3924 0.999681 2.30403L1.12792 2.78731L1.25617 3.27058C0.927659 3.35775 0.598207 3.44764 0.267796 3.54028L0.132812 3.05885ZM3.10148 2.29313L2.98691 1.80643C3.64572 1.65136 4.30097 1.50698 4.95277 1.37301L5.05343 1.86277L5.15409 2.35254C4.51163 2.48458 3.86565 2.62692 3.21604 2.77983L3.10148 2.29313ZM7.06525 1.4804L6.97927 0.987852C7.65147 0.870506 8.32006 0.76417 8.98518 0.668526L9.05634 1.16343L9.12751 1.65834C8.47231 1.75256 7.8136 1.85733 7.15123 1.97295L7.06525 1.4804ZM11.0663 0.905684L11.0103 0.408829C11.6917 0.332064 12.3694 0.266413 13.0438 0.211523L13.0843 0.709875L13.1249 1.20823C12.4608 1.26228 11.7934 1.32693 11.1223 1.40254L11.0663 0.905684ZM15.0955 0.577452L15.0703 0.078083C15.7564 0.0435715 16.439 0.02005 17.1183 0.00712967L17.1278 0.50704L17.1373 1.00695C16.4684 1.01967 15.7962 1.04284 15.1206 1.07682L15.0955 0.577452ZM19.1404 0.499758L19.1463 -0.000207901C19.8326 0.00785065 20.5156 0.0265388 21.1956 0.0554466L21.1743 0.554995L21.1531 1.05454C20.4833 1.02607 19.8105 1.00766 19.1345 0.999723L19.1404 0.499758ZM23.1906 0.671144L23.2268 0.172457C23.908 0.221924 24.5861 0.281406 25.2614 0.350481L25.2106 0.847885L25.1597 1.34529C24.494 1.2772 23.8256 1.21857 23.1544 1.16983L23.1906 0.671144ZM27.2205 1.08264L27.2855 0.586893C27.9605 0.675455 28.6328 0.773319 29.3026 0.880047L29.2239 1.37382L29.1452 1.86759C28.4843 1.76228 27.8211 1.66574 27.1554 1.57839L27.2205 1.08264ZM31.2195 1.71914L31.3112 1.22762C31.9792 1.35225 32.6448 1.48537 33.3082 1.62655L33.2041 2.1156L33.1 2.60465C32.4446 2.46517 31.7873 2.3337 31.1278 2.21065L31.2195 1.71914ZM35.1799 2.56103L35.2957 2.07461C35.956 2.23171 36.6143 2.39644 37.2709 2.56835L37.1442 3.05204L37.0176 3.53574C36.368 3.36567 35.717 3.20276 35.0642 3.04745L35.1799 2.56103ZM39.0971 3.58566L39.2339 3.10474C39.8864 3.29036 40.5374 3.48271 41.187 3.68134L41.0408 4.15949L40.8946 4.63763C40.251 4.44084 39.6063 4.25035 38.9603 4.06658L39.0971 3.58566ZM42.9697 4.76868L43.1246 4.29325C43.7692 4.50316 44.4126 4.71886 45.0551 4.93993L44.8924 5.41272L44.7298 5.88552C44.0923 5.66617 43.4541 5.45223 42.8149 5.24411L42.9697 4.76868ZM46.7996 6.08529L46.9694 5.61499C47.6062 5.84486 48.2423 6.0796 48.8777 6.31877L48.7016 6.78672L48.5255 7.25467C47.894 7.01701 47.2622 6.78384 46.6299 6.55558L46.7996 6.08529ZM50.5909 7.51109L50.7727 7.04529C51.4024 7.29101 52.0318 7.54068 52.661 7.79388L52.4743 8.25773L52.2876 8.72158C51.6615 8.4696 51.0354 8.22124 50.4092 7.97689L50.5909 7.51109ZM54.3496 9.02263L54.5405 8.56051C55.1643 8.81818 55.788 9.07892 56.412 9.34232L56.2175 9.80295L56.023 10.2636C55.4013 10.0011 54.7799 9.74136 54.1587 9.48476L54.3496 9.02263ZM58.0829 10.5976L58.2802 10.1383C58.8993 10.4042 59.5187 10.6724 60.1387 10.9424L59.939 11.4008L59.7393 11.8593C59.1207 11.5898 58.5028 11.3223 57.8855 11.057L58.0829 10.5976ZM61.7987 12.2151L62 11.7574C62.6157 12.0283 63.2322 12.3006 63.8495 12.5739L63.647 13.0311L63.4446 13.4883C62.8279 13.2152 62.2122 12.9433 61.5973 12.6728L61.7987 12.2151ZM65.5012 13.8534L65.7041 13.3964C66.3194 13.6696 66.9354 13.9433 67.5528 14.2173L67.35 14.6743L67.1471 15.1313C66.5296 14.8573 65.9132 14.5834 65.2983 14.3104L65.5012 13.8534ZM69.2024 15.4952L69.4046 15.038C70.0207 15.3104 70.6381 15.5827 71.257 15.8545L71.056 16.3123L70.8549 16.7701C70.235 16.4979 69.6168 16.2252 69.0002 15.9525L69.2024 15.4952ZM72.9104 17.1229L73.1098 16.6644C73.7281 16.9332 74.3481 17.2012 74.97 17.468L74.7728 17.9275L74.5757 18.387C73.9522 18.1195 73.3307 17.8509 72.7111 17.5815L72.9104 17.1229ZM76.6327 18.7193L76.8272 18.2586C77.4481 18.5207 78.0711 18.7813 78.6961 19.04L78.5049 19.502L78.3137 19.964C77.6863 19.7043 77.0612 19.4429 76.4383 19.1799L76.6327 18.7193ZM80.3759 20.2677L80.5634 19.8042C81.1871 20.0565 81.813 20.3065 82.4413 20.554L82.2581 21.0192L82.0748 21.4844C81.4435 21.2358 80.8148 20.9846 80.1885 20.7312L80.3759 20.2677ZM84.146 21.7523L84.3246 21.2852C84.9517 21.525 85.5812 21.762 86.2135 21.9958L86.04 22.4648L85.8666 22.9337C85.2308 22.6986 84.5978 22.4603 83.9674 22.2193L84.146 21.7523ZM87.948 23.1576L88.1158 22.6866C88.7466 22.9113 89.3802 23.1326 90.0166 23.3502L89.8549 23.8234L89.6931 24.2965C89.0525 24.0774 88.4149 23.8547 87.7802 23.6286L87.948 23.1576ZM91.7796 24.4668L91.9348 23.9915C92.5715 24.1995 93.2113 24.4035 93.8541 24.6032L93.7058 25.0807L93.5574 25.5582C92.9098 25.357 92.2655 25.1515 91.6243 24.9421L91.7796 24.4668ZM95.6445 25.6669L95.7855 25.1872C96.4298 25.3765 97.0773 25.5614 97.7281 25.7414L97.5948 26.2233L97.4615 26.7052C96.8054 26.5237 96.1527 26.3374 95.5035 26.1466L95.6445 25.6669ZM99.546 26.7456L99.6712 26.2615C100.322 26.43 100.977 26.5934 101.635 26.7514L101.518 27.2376L101.401 27.7238C100.738 27.5643 100.077 27.3995 99.4208 27.2297L99.546 26.7456ZM103.484 27.6914L103.592 27.2032C104.247 27.348 104.904 27.4874 105.566 27.621L105.467 28.1111L105.368 28.6012C104.7 28.4663 104.036 28.3257 103.376 28.1795L103.484 27.6914ZM107.459 28.494L107.548 28.0021C108.204 28.1217 108.864 28.2356 109.527 28.3434L109.447 28.8369L109.367 29.3304C108.697 29.2216 108.031 29.1066 107.369 28.9859L107.459 28.494ZM111.459 29.1434L111.529 28.6484C112.189 28.7422 112.851 28.8298 113.518 28.9112L113.458 29.4075L113.397 29.9038C112.724 29.8217 112.054 29.7331 111.389 29.6385L111.459 29.1434ZM115.47 29.6324L115.521 29.135C116.189 29.2028 116.861 29.2642 117.537 29.3189L117.497 29.8172L117.457 30.3156C116.774 30.2604 116.095 30.1984 115.42 30.1298L115.47 29.6324ZM119.503 29.959L119.533 29.4599C120.202 29.5003 120.875 29.5341 121.553 29.561L121.533 30.0606L121.513 30.5602C120.829 30.533 120.149 30.4989 119.473 30.458L119.503 29.959ZM123.556 30.1203L123.566 29.6204C124.231 29.6332 124.899 29.6393 125.572 29.6386L125.572 30.1386L125.573 30.6386C124.893 30.6393 124.218 30.6332 123.547 30.6202L123.556 30.1203ZM127.612 30.1154L127.601 29.6155C128.265 29.6012 128.933 29.5801 129.604 29.5521L129.625 30.0517L129.646 30.5512C128.968 30.5795 128.293 30.6008 127.623 30.6153L127.612 30.1154ZM131.642 29.9474L131.611 29.4484C132.284 29.4069 132.961 29.3584 133.643 29.3028L133.683 29.8011L133.724 30.2994C133.036 30.3556 132.352 30.4046 131.673 30.4465L131.642 29.9474ZM135.68 29.6186L135.63 29.1211C136.293 29.0541 136.959 28.9803 137.63 28.8996L137.689 29.396L137.749 29.8924C137.072 29.9739 136.4 30.0484 135.731 30.116L135.68 29.6186ZM139.722 29.1314L139.653 28.6363C140.306 28.545 140.963 28.447 141.624 28.3424L141.702 28.8362L141.781 29.33C141.114 29.4357 140.451 29.5345 139.792 29.6266L139.722 29.1314ZM143.695 28.5022L143.607 28.0098C144.272 27.8922 144.941 27.7677 145.614 27.6362L145.71 28.1269L145.806 28.6177C145.127 28.7503 144.452 28.8758 143.782 28.9945L143.695 28.5022ZM147.676 27.7251L147.572 27.2361C148.221 27.0977 148.873 26.9528 149.53 26.8013L149.642 27.2884L149.755 27.7756C149.093 27.9284 148.435 28.0745 147.78 28.2141L147.676 27.7251ZM151.63 26.812L151.51 26.3267C151.842 26.2443 152.175 26.1602 152.508 26.0744L152.633 26.5586L152.757 27.0429C152.421 27.1294 152.086 27.2142 151.751 27.2973L151.63 26.812Z" fill="#BBBBBB"/>
</svg>
